<svg width="690" height="515" viewBox="0 0 690 515" fill="none" xmlns="http://www.w3.org/2000/svg">
<path d="M73.2213 377.555C79.7399 368.875 85.9675 360.003 91.6879 350.733C96.7764 342.476 95.6041 340.531 93.8663 331.559C90.7317 315.404 87.7551 299.232 84.7203 283.044C84.5357 282.98 84.3575 282.9 84.1882 282.803C74.6794 277.413 66.6084 269.813 60.658 260.644C52.9587 260.644 47.047 257.817 47.8618 248.58C48.1543 245.509 49.2687 242.574 51.0879 240.082C50.1127 236.81 49.3544 233.477 48.818 230.105C46.2821 214.241 48.1695 187.917 63.0359 178.422C62.2045 167.213 72.0157 157.635 82.8745 154.75C98.9133 150.593 116.864 158.242 131.93 149.911C134.716 148.373 138.366 152.123 136.204 154.725C133.884 157.502 131.531 160.329 129.087 163.098C157.756 162.106 186.459 163.547 214.885 167.405C199.869 180.126 161.065 194.976 161.065 194.976C161.065 194.976 169.595 215.887 172.223 224.226C177.652 241.429 183.339 258.266 187.638 275.827C189.833 284.79 198.405 319.062 198.405 319.062C207.019 328.042 215.866 336.448 224.064 344.613C232.42 352.928 239.03 362.24 246.081 371.644C247.744 370.014 249.387 368.337 251.012 366.613C272.463 344.289 280.836 288.149 280.836 261.983C280.836 235.817 274.093 208.387 266.635 192.432C258.678 175.437 249.091 158.575 236.985 144.673C195.354 96.7642 125.212 100.331 74.801 129.391C49.2504 144.124 25.5206 166.349 14.7615 196.023C2.65553 229.431 11.627 264.136 23.2923 296.089C34.2841 326.163 49.1589 357.151 73.2213 377.555Z" fill="white"/>
<path d="M198.389 319.027C198.389 319.027 189.816 284.788 187.621 275.791C183.323 258.231 177.644 241.394 172.206 224.191C169.579 215.877 161.048 194.941 161.048 194.941C161.048 194.941 199.852 180.091 214.868 167.369C183.774 163.134 152.353 161.812 121.013 163.42C102.447 164.41 83.2069 169.24 72.5061 185.304C65.9459 195.14 67.5173 204.777 69.9701 216.159C70.7018 219.485 71.4584 222.811 72.215 226.137C60.6245 230.336 48.7929 237.702 47.8367 248.586C46.3983 264.924 66.0539 261.274 79.3573 257.092C80.8954 263.927 82.3671 270.794 83.6891 277.729C87.1064 295.696 90.3408 313.639 93.8579 331.557C95.5956 340.529 96.768 342.474 91.6794 350.731C81.8433 366.686 70.4856 381.494 58.7371 396.078C51.8194 404.667 28.7132 431.282 27.333 436.82C27.333 436.82 264.219 440.875 287.5 437C274.878 411.532 262.336 392.037 252.708 380.148C242.797 367.909 234.931 355.428 224.031 344.545C215.849 336.38 206.986 327.974 198.372 318.994C186.657 324.249 175.54 328.323 163.684 332.297C152.725 335.981 141.351 336.588 129.735 337.752C120.764 338.65 106.987 341.61 98.0068 341.909" stroke="#008080" stroke-width="5.8202" stroke-linecap="round" stroke-linejoin="round"/>
<path d="M116.965 207.359L121.696 211.808" stroke="#008080" stroke-width="5.8202" stroke-linecap="round" stroke-linejoin="round"/>
<path d="M133.235 200.008L137.966 204.456" stroke="#008080" stroke-width="5.8202" stroke-linecap="round" stroke-linejoin="round"/>
<path d="M103.471 350.646C103.471 350.646 113.881 364.582 120.1 370.069C127.583 376.721 137.519 386.54 148.369 385.26C165.431 383.231 172.407 356.799 166.769 344.635C169.488 355.278 190.882 387.946 202.256 360.857C204.459 355.619 204.426 336.836 204.426 336.836" stroke="#008080" stroke-width="5.8202" stroke-linecap="round" stroke-linejoin="round"/>
<path d="M75.0676 241.764C71.0267 241.581 67.2353 240.591 64.6328 243.909" stroke="#008080" stroke-width="5.8202" stroke-linecap="round" stroke-linejoin="round"/>
<path d="M79.3577 257.086C73.5375 258.907 66.5533 260.62 60.625 260.636C66.5755 269.805 74.6464 277.405 84.1552 282.795C84.3245 282.892 84.5027 282.972 84.6874 283.036L83.6896 277.723C82.3759 270.788 80.9042 263.921 79.3577 257.086Z" fill="#008080"/>
<path d="M131.972 149.911C116.881 158.226 98.9303 150.56 82.9165 154.75C72.0576 157.594 62.2714 167.222 63.0779 178.422C48.2115 187.917 46.3241 214.241 48.86 230.105C49.3964 233.477 50.1547 236.81 51.1299 240.083C55.52 233.88 63.6682 229.34 71.7749 226.347C75.0343 229.723 78.4266 232.999 81.4531 237.064C83.3654 239.642 86.8659 237.655 87.2733 235.127C90.1169 218.556 86.683 199.092 77.4039 185.24C86.0594 187.734 95.696 186.587 104.069 183.011C117.447 177.299 127.158 165.634 136.246 154.742C138.391 152.156 134.758 148.373 131.972 149.911Z" fill="#008080"/>
<path d="M135.215 252.423C147.071 245.772 160.79 248.657 173.187 253.446" stroke="#008080" stroke-width="5.8202" stroke-linecap="round" stroke-linejoin="round"/>
<path d="M179.699 247.849C177.254 239.983 174.71 232.142 172.215 224.227C172.116 223.903 171.999 223.553 171.883 223.188C169.671 225.358 167.817 227.96 165.464 230.022C158.812 235.842 150.29 238.852 142.275 242.07C136.454 244.398 129.587 243.733 134.293 251.066C144.603 267.221 167.734 260.628 179.699 247.849Z" stroke="#008080" stroke-width="5.8202" stroke-linecap="round" stroke-linejoin="round"/>
<path d="M174.51 379.875C181.685 394.949 185.011 416.709 184.487 433.504" stroke="#008080" stroke-width="5.8202" stroke-linecap="round" stroke-linejoin="round"/>
<path d="M219.823 414.804C232.553 414.488 248.001 416.118 259.733 419.793" stroke="#008080" stroke-width="5.8202" stroke-linecap="round" stroke-linejoin="round"/>
<path d="M247.254 408.562C249.502 414.122 250.768 420.03 250.995 426.023" stroke="#008080" stroke-width="5.8202" stroke-linecap="round" stroke-linejoin="round"/>
<path d="M236.038 407.32C242.016 413.897 240.195 426.677 243.521 434.758" stroke="#008080" stroke-width="5.8202" stroke-linecap="round" stroke-linejoin="round"/>
<path d="M193.633 421.039H194.88" stroke="#008080" stroke-width="5.8202" stroke-linecap="round" stroke-linejoin="round"/>
<path d="M186.982 388.602H189.477" stroke="#008080" stroke-width="5.8202" stroke-linecap="round" stroke-linejoin="round"/>
<path d="M177.47 242.625C176.048 239.665 174.593 236.73 173.155 233.787C173.155 233.72 173.08 233.671 173.039 233.604C176.198 230.985 172.93 225.373 169.58 227.95C159.602 235.633 147.729 239.59 135.864 243.34C132.464 244.413 132.838 250.208 136.746 249.867C142.238 249.312 147.755 249.034 153.275 249.036C159.428 249.127 164.749 250.441 170.619 252.029C174.036 252.952 178.435 252.254 179.05 248.013C179.291 246.059 178.235 244.288 177.47 242.625Z" fill="#008080"/>
<path d="M437.857 181.804C457.941 177.636 470.909 167.823 484.448 151.206C497.988 134.588 500.393 107.776 496.327 87.2824C494.556 78.9159 492.019 70.7302 488.747 62.8289C488.515 62.2871 488.11 61.4833 487.556 60.483C481.328 49.0899 472.599 39.2566 462.025 31.7222C451.45 24.1878 439.305 19.1483 426.503 16.9824C424.205 16.5384 421.886 16.2105 419.554 16H419.382C405.879 16.5442 392.435 18.0926 379.162 20.6323C367.254 22.8532 352.404 26.6281 341.651 32.1892C322.699 41.9479 313.381 62.0073 310.791 82.4715C310.72 83.0669 310.654 83.6325 310.595 84.2101C310.547 84.6507 310.505 85.0853 310.464 85.5259C310.464 85.7105 310.434 85.8951 310.416 86.0856V86.3C310.333 87.33 310.255 88.3601 310.202 89.3961C310.202 89.7891 310.166 90.182 310.154 90.5869C310.154 91.1466 310.106 91.7063 310.094 92.266C310.083 92.8257 310.059 93.5044 310.053 94.1296C310.053 95.1061 310.053 96.0945 310.053 97.1067C310.053 97.3925 310.053 97.7021 310.053 97.9641C310.053 98.7321 310.088 99.5002 310.112 100.268C310.112 100.352 310.112 100.429 310.112 100.506V101.036C310.148 102.031 310.196 103.025 310.249 104.013L310.285 104.567C310.333 105.407 310.386 106.258 310.446 107.11C310.446 107.413 310.487 107.705 310.511 108.026C310.571 108.872 310.636 109.717 310.708 110.563C310.708 110.652 310.708 110.742 310.708 110.831C310.708 110.92 310.708 111.057 310.708 111.17C310.797 112.206 310.892 113.248 310.988 114.296C311.023 114.612 311.053 114.933 311.083 115.249C311.16 116.035 311.238 116.827 311.321 117.63C311.321 117.958 311.386 118.285 311.422 118.619C311.523 119.601 311.631 120.59 311.738 121.596C311.738 121.679 311.738 121.757 311.738 121.834L311.881 123.067L311.934 123.525C311.934 123.745 311.982 123.966 312.012 124.18C312.041 124.394 312.053 124.561 312.077 124.775C312.131 125.168 312.178 125.549 312.232 125.936C312.286 126.323 312.303 126.532 312.345 126.829C312.345 126.913 312.345 126.996 312.345 127.074C312.347 127.099 312.347 127.125 312.345 127.151C312.422 127.711 312.506 128.258 312.583 128.806L312.637 129.181C312.673 129.402 312.702 129.622 312.738 129.836C312.821 130.384 312.911 130.92 312.994 131.45C313.024 131.623 313.048 131.789 313.077 131.956C313.149 132.385 313.226 132.801 313.304 133.224L313.411 133.82C313.453 134.07 313.5 134.314 313.548 134.558L313.726 135.481C313.726 135.6 313.768 135.719 313.792 135.838C313.845 136.082 313.893 136.332 313.941 136.57C314.006 136.91 314.078 137.237 314.149 137.571C314.197 137.797 314.244 138.023 314.298 138.249C314.352 138.476 314.417 138.809 314.483 139.089C314.548 139.369 314.643 139.78 314.721 140.125C314.798 140.47 314.858 140.72 314.923 140.988C315.048 141.494 315.173 142.001 315.304 142.507C315.388 142.834 315.471 143.156 315.56 143.477C315.65 143.799 315.697 144.013 315.775 144.275C315.852 144.537 315.947 144.93 316.043 145.257C316.162 145.686 316.287 146.121 316.412 146.549C316.412 146.603 316.412 146.657 316.459 146.704C321.443 139.905 326.415 132.718 328.594 129.289C336.93 116.19 345.742 102.269 351.63 88.116C340.401 98.6845 334.363 84.8591 338.478 74.231C342.133 64.8295 355.697 53.8561 362.187 66.4252C360.966 50.3492 375.464 33.642 392.076 33.6777C405.086 33.7194 412.547 39.0007 421.251 48.4736C426.807 54.5111 431.606 61.3702 436.184 68.4317L436.72 68.2412C450.492 54.8266 459.905 81.4831 451.605 90.2714L450.546 90.831L451.326 91.9742C456.72 99.7503 465.341 116.261 465.341 116.261C465.341 116.261 448.027 111.26 434.672 108.253C435.45 109.065 436.057 110.025 436.458 111.075C436.938 112.226 437.417 113.377 437.893 114.528C438.51 115.444 438.936 116.475 439.143 117.559C439.566 118.595 439.989 119.637 440.418 120.673C441.227 122.626 439.292 123.811 437.631 123.454C437.597 123.508 437.559 123.559 437.518 123.608C436.44 124.853 434.583 124.293 433.773 123.126C432.622 121.456 431.084 120.089 429.289 119.143C429.552 121.313 429.49 123.51 429.105 125.662C428.937 126.271 428.533 126.788 427.984 127.1C427.435 127.411 426.784 127.492 426.175 127.324C423.816 126.518 421.647 125.235 419.805 123.555L419.459 124.805C419.459 124.805 411.719 150.033 411.159 162.441L410.748 162.929C413.117 162.447 415.454 161.819 417.744 161.048C417.744 161.048 417.691 172.36 416.649 179.994C416.396 181.792 416.02 183.57 415.524 185.317L416.03 185.227C422.275 184.227 429.849 183.084 437.709 181.786L437.857 181.804Z" fill="#7CABF9"/>
<path d="M416.18 185.245C422.425 184.245 430.059 183.429 437.858 181.804C457.942 177.636 470.91 167.823 484.449 151.206C497.989 134.588 500.394 107.776 496.328 87.2824C494.557 78.9159 492.02 70.7302 488.748 62.8289C488.516 62.2871 488.111 61.4833 487.557 60.483C481.329 49.0899 472.6 39.2566 462.026 31.7222C451.451 24.1878 439.306 19.1483 426.504 16.9824C424.144 16.511 421.758 16.1829 419.359 16C405.864 16.5454 392.428 18.0938 379.163 20.6323C367.255 22.8532 352.405 26.6281 341.652 32.1892C322.7 41.9479 313.382 62.0073 310.792 82.4715C309.256 94.6893 310.28 107.562 311.84 121.852C313.4 136.142 315.895 145.948 320.265 157.576C323.069 165.055 326.1 170.628 330.387 177.523C332.06 180.202 323.189 218.308 320.569 223C328.762 211.979 353.912 191.277 353.912 191.277C359.733 192.146 365.637 192.324 371.5 191.806C380.854 190.747 384.748 190.407 402.461 187.609" stroke="#7CABF9" stroke-width="4.16786" stroke-linecap="round" stroke-linejoin="round"/>
<path d="M316.216 145.359C321.503 140 324.623 135.767 328.719 129.283C337.055 116.184 345.867 102.263 351.756 88.1102C340.526 98.6787 334.489 84.8533 338.603 74.2253C342.259 64.8237 355.822 53.8504 362.312 66.4194C361.092 50.3434 375.59 33.6362 392.202 33.6719C405.212 33.7136 412.672 38.9949 421.377 48.4678C433.113 61.2215 441.508 77.6429 451.451 91.9685C456.846 99.7445 465.467 116.255 465.467 116.255C465.467 116.255 437.078 108.062 424.967 106.365C412.857 104.669 402.133 103.388 393.006 103.305" stroke="#008080" stroke-width="4.16786" stroke-linecap="round" stroke-linejoin="round"/>
<path d="M347.563 74.2188C349.218 74.8718 350.812 75.6687 352.327 76.6004" stroke="#008080" stroke-width="4.16786" stroke-linecap="round" stroke-linejoin="round"/>
<path d="M387.547 76.0011C388.547 68.5109 393.673 59.2522 401.735 57.5434C408.702 56.0549 416.15 61.1159 418.74 67.3796C424.313 80.8894 412.191 100.937 396.388 95.0661C389.756 92.5833 386.6 82.0445 387.547 76.0011Z" stroke="#008080" stroke-width="4.16786" stroke-linecap="round" stroke-linejoin="round"/>
<path d="M405.914 75.4062L405.318 78.9787" stroke="#008080" stroke-width="4.16786" stroke-linecap="round" stroke-linejoin="round"/>
<path d="M436.875 68.2607C450.647 54.8462 460.06 81.5026 451.76 90.2909" stroke="#008080" stroke-width="4.16786" stroke-linecap="round" stroke-linejoin="round"/>
<path d="M419.853 71.3438L445.443 75.9998" stroke="#008080" stroke-width="4.16786" stroke-linecap="round" stroke-linejoin="round"/>
<path d="M373.054 62.8281L391.029 66.0969" stroke="#008080" stroke-width="4.16786" stroke-linecap="round" stroke-linejoin="round"/>
<path d="M393.005 103.305C387.379 107.854 380.145 117.595 385.366 121.256C390.892 125.115 401.984 114.778 404.157 110.116C404.098 113.647 402.931 120.173 406.497 122.471C411.32 125.579 414.762 118.363 415.429 114.224C416.864 121.024 421.615 129.163 429.599 127.58C430.659 124.501 430.552 121.072 428.468 118.5C430.254 122.072 436.542 127.431 440.376 123.888C443.83 120.685 437.602 111.902 436.869 109.342" stroke="#008080" stroke-width="4.16786" stroke-linecap="round" stroke-linejoin="round"/>
<path d="M380.728 163.873C384.032 163.903 389.838 165.66 392.975 165.535C392.624 169.702 391.945 175.585 389.873 179.449C386.896 178.062 381.139 177.663 377.965 177.58C379.067 175.014 380.204 171.947 380.347 169.119C380.567 164.26 380.394 164.397 380.394 164.397C380.394 164.397 367.2 154.597 362.103 151.203C357.209 159.688 355.554 174.049 354.81 183.123C362.3 182.105 369.85 178.723 377.268 177.336" stroke="#008080" stroke-width="4.16786" stroke-linecap="round" stroke-linejoin="round"/>
<path d="M327.797 130.742C342.783 138.619 360.955 146.324 377.335 149.849C383.622 151.2 396.65 154.178 411.898 154.178" stroke="#008080" stroke-width="4.16786" stroke-linecap="round" stroke-linejoin="round"/>
<path d="M419.609 124.836C419.609 124.836 411.868 150.063 411.309 162.472" stroke="#008080" stroke-width="4.16786" stroke-linecap="round" stroke-linejoin="round"/>
<path d="M394.22 167.136C401.8 164.046 410.296 163.706 417.888 161.062C417.888 161.062 417.84 172.375 416.798 180.008C416.034 184.944 414.486 189.726 412.214 194.173L391.481 179.109" stroke="#008080" stroke-width="4.16786" stroke-linecap="round" stroke-linejoin="round"/>
<path d="M317.782 150.523C330.381 155.596 343.385 161.402 355.823 165.45" stroke="#008080" stroke-width="4.16786" stroke-linecap="round" stroke-linejoin="round"/>
<path d="M440.59 120.684C440.162 119.648 439.739 118.606 439.316 117.57C439.108 116.486 438.683 115.455 438.066 114.539C437.589 113.384 437.111 112.233 436.631 111.086C435.66 108.799 434.463 107.317 431.957 106.823C425.127 105.471 417.822 105.316 410.891 104.655C407.319 104.316 403.806 103.977 400.257 103.673C397.381 103.423 394.785 103.351 392.314 105.048C387.813 108.15 385.61 113.926 385.062 119.142C384.913 120.589 386.724 121.976 388.081 121.44C393.648 119.274 398.595 115.769 402.484 111.235C402.698 111.235 402.901 111.181 403.115 111.169C403.872 111.093 404.635 111.137 405.378 111.3C405.538 111.353 405.704 111.385 405.872 111.395C405.644 111.587 405.465 111.83 405.348 112.104C404.594 113.695 404.228 115.442 404.281 117.202C404.334 118.961 404.804 120.683 405.652 122.226C405.835 122.54 406.089 122.808 406.392 123.009C406.696 123.21 407.042 123.339 407.403 123.386C407.764 123.432 408.131 123.395 408.475 123.278C408.82 123.16 409.133 122.966 409.391 122.708C411.111 120.72 413.398 117.885 414.749 114.968C415.5 117.825 416.948 120.451 418.964 122.609C420.98 124.768 423.501 126.392 426.3 127.335C426.909 127.503 427.56 127.422 428.109 127.111C428.658 126.799 429.062 126.282 429.23 125.673C429.614 123.521 429.677 121.324 429.414 119.154C431.209 120.1 432.747 121.467 433.898 123.137C434.708 124.328 436.565 124.864 437.643 123.619C437.684 123.57 437.722 123.518 437.756 123.464C439.441 123.822 441.376 122.637 440.59 120.684Z" fill="#008080"/>
<path d="M621.56 196.5C619.555 198.932 617.251 201.102 614.702 202.956C606.759 208.482 598.71 212.894 590.851 213.416L586.939 211.09C587.567 211.661 588.187 212.26 588.779 212.901C597.839 222.967 604.772 234.759 609.162 247.571C616.14 244.597 625.119 242.771 631.611 243.751C637.32 244.618 642.535 249.544 641.831 256.085C641.126 262.429 634.317 265.953 628.439 267.538C625.38 268.356 620.376 269.949 616.084 271.359C617.923 281.106 619.608 290.917 621.842 300.608C624.076 310.3 631.427 342.954 631.427 342.954C631.427 342.954 645.975 349.692 657.315 354.788C658.916 351.649 660.344 348.426 661.594 345.132C669.347 324.551 669.636 309.771 668.522 288.119C667.817 274.284 664.469 255.874 659.268 243.011C653.256 228.104 643.515 215.312 632.097 204.817C628.8 201.782 625.278 199.002 621.56 196.5Z" fill="#DBFF82"/>
<path d="M539.138 390.975C543.197 385.668 546.793 380.023 549.887 374.102C549.887 374.102 540.668 346.614 535.438 333.709C531.533 324.074 521.285 298.602 521.285 298.602C508.598 303.86 484.092 319.042 484.092 319.042C484.092 319.042 492.007 282.067 497.187 266.956C503.707 247.926 511.284 229.854 526.98 216.512C539.455 205.94 560.811 199.272 576.916 205.059C573.907 198.314 574.619 189.031 576.733 180.207L576.599 180.158C569.558 179.223 562.459 178.792 555.356 178.868C539.949 178.988 505.906 187.326 482.619 205.143C459.332 222.961 446.384 255.369 443.586 282.356C440.703 310.126 448.626 339.446 463.568 362.754C469.749 372.41 477.326 381.968 495.806 394.788C504.771 401.012 516.246 405.1 528.115 407.531C533.147 399.793 537.686 392.949 539.138 390.975Z" fill="#DBFF82"/>
<path d="M562.188 268.375L563.597 275.423" stroke="#008080" stroke-width="4.93371" stroke-linecap="round" stroke-linejoin="round"/>
<path d="M547.385 274.016L548.794 281.064" stroke="#008080" stroke-width="4.93371" stroke-linecap="round" stroke-linejoin="round"/>
<path d="M564.16 300.355C567.254 298.889 568.248 301.222 567.86 304.111C567.472 300.841 570.912 296.979 574.753 298.106C578.594 299.234 580.265 314.402 575.169 319.476C569.404 325.221 563.49 321.591 560.777 314.07C558.063 306.55 561.066 301.821 564.16 300.355Z" stroke="#008080" stroke-width="4.93371" stroke-linecap="round" stroke-linejoin="round"/>
<path d="M553.023 314.9C564.914 316.76 581.569 306.689 583.908 296.109" stroke="#008080" stroke-width="4.93371" stroke-linecap="round" stroke-linejoin="round"/>
<path d="M520.603 223.273C541.592 237.37 581.922 253.764 604.476 238.075" stroke="#008080" stroke-width="4.93371" stroke-linecap="round" stroke-linejoin="round"/>
<path d="M576.585 180.158C569.548 179.224 562.454 178.793 555.356 178.868C539.949 178.988 505.906 187.325 482.619 205.143C459.332 222.961 446.384 255.368 443.586 282.356C440.703 310.126 448.626 339.446 463.568 362.754C469.749 372.41 477.326 381.968 495.806 394.788C514.286 407.609 543.501 411.408 564.3 410.167C581.117 409.166 601.352 405.508 616.182 398.559L616.407 398.735C616.407 398.735 630.088 411.943 637.277 417.8C645.389 424.405 654.855 431.044 664.454 435.139C660.12 424.101 652.867 412.965 647.031 402.555C644.135 397.382 640.223 389.164 637.326 382.82C647.8 372.008 656.617 358.229 661.565 345.099C669.318 324.518 669.607 309.738 668.493 288.086C667.788 274.25 664.44 255.841 659.239 242.978C653.227 228.071 643.486 215.279 632.068 204.784C628.779 201.757 625.266 198.984 621.559 196.488" stroke="#DBFF82" stroke-width="4.93371" stroke-linecap="round" stroke-linejoin="round"/>
<path d="M657.359 354.638C650.191 351.819 631.4 342.945 631.4 342.945C631.4 342.945 624.098 310.27 621.843 300.565C619.588 290.86 617.924 281.063 616.085 271.315C620.377 269.905 625.381 268.312 628.44 267.495C634.318 265.93 641.127 262.406 641.832 256.042C642.536 249.501 637.321 244.574 631.612 243.707C625.12 242.728 616.106 244.553 609.163 247.527C604.773 234.716 597.84 222.923 588.78 212.858C573.204 195.942 542.897 202.99 526.982 216.523C511.264 229.865 503.723 247.964 497.189 266.966C492.009 282.078 484.094 319.052 484.094 319.052C484.094 319.052 508.572 303.856 521.287 298.613C521.287 298.613 531.535 324.085 535.44 333.719C540.669 346.618 549.888 374.105 549.888 374.105C546.795 380.029 543.199 385.677 539.14 390.986C535.256 396.187 526.911 407.288 526.911 407.288" stroke="#008080" stroke-width="4.93371" stroke-linecap="round" stroke-linejoin="round"/>
<path d="M619.771 137.669C604.752 134.61 590.486 142.187 582.536 157.446C577.024 168.018 568.284 191.792 574.649 206.078C574.832 206.492 575.125 206.848 575.497 207.106C575.869 207.363 576.305 207.514 576.756 207.54C577.208 207.566 577.658 207.467 578.057 207.254C578.456 207.041 578.789 206.722 579.019 206.332L588.731 212.119C588.479 212.544 588.359 213.035 588.386 213.528C588.423 214.155 588.699 214.743 589.156 215.173C589.614 215.602 590.218 215.841 590.845 215.84H591.001C600.163 215.269 609.213 209.722 616.092 204.951C624.493 199.122 634.981 183.863 637.236 169.364C638.984 158.39 632.401 140.241 619.771 137.669Z" fill="#008080"/>
<path d="M599.753 384.796C615.259 375.824 627.361 357.407 634.289 342.57" stroke="#008080" stroke-width="4.93371" stroke-linecap="round" stroke-linejoin="round"/>
<path d="M547.385 376.211C558.718 383.449 574.168 390.737 588.123 388.996" stroke="#008080" stroke-width="4.93371" stroke-linecap="round" stroke-linejoin="round"/>
<path d="M595.644 381.152C588.483 379.327 585.248 389.265 591.415 391.724C599.168 394.854 603.799 382.935 594.939 381.152H595.644Z" stroke="#008080" stroke-width="4.93371" stroke-linecap="round" stroke-linejoin="round"/>
<path d="M627.904 254.623C626.362 254.415 624.792 254.634 623.366 255.255C621.939 255.876 620.71 256.877 619.812 258.147" stroke="#008080" stroke-width="4.93371" stroke-linecap="round" stroke-linejoin="round"/>
<path d="M603.835 234.985C598.14 220.389 585.51 208.872 570.117 205.327C554.209 201.669 537.075 206.948 525.629 218.472C523.472 218.775 522.161 222.2 524.557 223.793C536.954 232.092 550.833 237.926 565.437 240.976C572.39 242.458 579.472 243.256 586.581 243.359C592.586 243.408 598.894 242.386 603.102 237.72C603.455 237.369 603.708 236.932 603.837 236.452C603.965 235.971 603.965 235.465 603.835 234.985Z" fill="#008080"/>
</svg>
