<svg width="1440" height="522" viewBox="0 0 1440 522" fill="none" xmlns="http://www.w3.org/2000/svg">
<g clip-path="url(#clip0_11938_69209)">
<rect width="1440" height="522" transform="translate(-0.239258)" fill="white"/>
<g opacity="0.4" filter="url(#filter0_f_11938_69209)">
<circle cx="169.761" cy="570" r="414" fill="#59DBB0"/>
</g>
<mask id="mask0_11938_69209" style="mask-type:alpha" maskUnits="userSpaceOnUse" x="-19" y="81" width="813" height="455">
<g clip-path="url(#clip1_11938_69209)">
<path d="M775.639 93.5625V107.087M782.401 100.325H768.877M749.404 93.5625V107.087M756.166 100.325H742.637M723.164 93.5625V107.087M729.926 100.325H716.402M696.928 93.5625V107.087M703.691 100.325H690.166M670.689 93.5625V107.087M677.455 100.325H663.926M644.453 93.5625V107.087M651.215 100.325H637.691M618.218 93.5625V107.087M624.98 100.325H611.451M591.978 93.5625V107.087M598.74 100.325H585.216M565.742 93.5625V107.087M572.505 100.325H558.98M539.503 93.5625V107.087M546.269 100.325H532.74M513.267 93.5625V107.087M520.029 100.325H506.505M487.032 93.5625V107.087M493.794 100.325H480.265M460.792 93.5625V107.087M467.554 100.325H454.03M434.556 93.5625V107.087M441.319 100.325H427.794M408.317 93.5625V107.087M415.083 100.325H401.554M382.081 93.5625V107.087M388.843 100.325H375.319M355.846 93.5625V107.087M362.608 100.325H349.079M329.606 93.5625V107.087M336.368 100.325H322.844M303.37 93.5625V107.087M310.133 100.325H296.608M277.131 93.5625V107.087M283.897 100.325H270.368M250.895 93.5625V107.087M257.657 100.325H244.133M224.66 93.5625V107.087M231.422 100.325H217.893M198.42 93.5625V107.087M205.182 100.325H191.658M172.184 93.5625V107.087M178.947 100.325H165.422M145.945 93.5625V107.087M152.711 100.325H139.182M119.709 93.5625V107.087M126.471 100.325H112.947M93.4736 93.5625V107.087M100.236 100.325H86.7071M67.2339 93.5625V107.087M73.9961 100.325H60.4716M40.9984 93.5625V107.087M47.7606 100.325H34.2361M14.7586 93.5625V107.087M21.5251 100.325H7.99635M-11.4769 93.5625V107.087M-4.71465 100.325H-18.2391M775.639 119.798V133.327M782.401 126.564H768.877M749.404 119.798V133.327M756.166 126.564H742.637M723.164 119.798V133.327M729.926 126.564H716.402M696.928 119.798V133.327M703.691 126.564H690.166M670.689 119.798V133.327M677.455 126.564H663.926M644.453 119.798V133.327M651.215 126.564H637.691M618.218 119.798V133.327M624.98 126.564H611.451M591.978 119.798V133.327M598.74 126.564H585.216M565.742 119.798V133.327M572.505 126.564H558.98M539.503 119.798V133.327M546.269 126.564H532.74M513.267 119.798V133.327M520.029 126.564H506.505M487.032 119.798V133.327M493.794 126.564H480.265M460.792 119.798V133.327M467.554 126.564H454.03M434.556 119.798V133.327M441.319 126.564H427.794M408.317 119.798V133.327M415.083 126.564H401.554M382.081 119.798V133.327M388.843 126.564H375.319M355.846 119.798V133.327M362.608 126.564H349.079M329.606 119.798V133.327M336.368 126.564H322.844M303.37 119.798V133.327M310.133 126.564H296.608M277.131 119.798V133.327M283.897 126.564H270.368M250.895 119.798V133.327M257.657 126.564H244.133M224.66 119.798V133.327M231.422 126.564H217.893M198.42 119.798V133.327M205.182 126.564H191.658M172.184 119.798V133.327M178.947 126.564H165.422M145.945 119.798V133.327M152.711 126.564H139.182M119.709 119.798V133.327M126.471 126.564H112.947M93.4736 119.798V133.327M100.236 126.564H86.7071M67.2339 119.798V133.327M73.9961 126.564H60.4716M40.9984 119.798V133.327M47.7606 126.564H34.2361M14.7586 119.798V133.327M21.5251 126.564H7.99635M-11.4769 119.798V133.327M-4.71465 126.564H-18.2391M775.639 146.038V159.562M782.401 152.8H768.877M749.404 146.038V159.562M756.166 152.8H742.637M723.164 146.038V159.562M729.926 152.8H716.402M696.928 146.038V159.562M703.691 152.8H690.166M670.689 146.038V159.562M677.455 152.8H663.926M644.453 146.038V159.562M651.215 152.8H637.691M618.218 146.038V159.562M624.98 152.8H611.451M591.978 146.038V159.562M598.74 152.8H585.216M565.742 146.038V159.562M572.505 152.8H558.98M539.503 146.038V159.562M546.269 152.8H532.74M513.267 146.038V159.562M520.029 152.8H506.505M487.032 146.038V159.562M493.794 152.8H480.265M460.792 146.038V159.562M467.554 152.8H454.03M434.556 146.038V159.562M441.319 152.8H427.794M408.317 146.038V159.562M415.083 152.8H401.554M382.081 146.038V159.562M388.843 152.8H375.319M355.846 146.038V159.562M362.608 152.8H349.079M329.606 146.038V159.562M336.368 152.8H322.844M303.37 146.038V159.562M310.133 152.8H296.608M277.131 146.038V159.562M283.897 152.8H270.368M250.895 146.038V159.562M257.657 152.8H244.133M224.66 146.038V159.562M231.422 152.8H217.893M198.42 146.038V159.562M205.182 152.8H191.658M172.184 146.038V159.562M178.947 152.8H165.422M145.945 146.038V159.562M152.711 152.8H139.182M119.709 146.038V159.562M126.471 152.8H112.947M93.4736 146.038V159.562M100.236 152.8H86.7071M67.2339 146.038V159.562M73.9961 152.8H60.4716M40.9984 146.038V159.562M47.7606 152.8H34.2361M14.7586 146.038V159.562M21.5251 152.8H7.99635M-11.4769 146.038V159.562M-4.71465 152.8H-18.2391M775.639 172.273V185.798M782.401 179.036H768.877M749.404 172.273V185.798M756.166 179.036H742.637M723.164 172.273V185.798M729.926 179.036H716.402M696.928 172.273V185.798M703.691 179.036H690.166M670.689 172.273V185.798M677.455 179.036H663.926M644.453 172.273V185.798M651.215 179.036H637.691M618.218 172.273V185.798M624.98 179.036H611.451M591.978 172.273V185.798M598.74 179.036H585.216M565.742 172.273V185.798M572.505 179.036H558.98M539.503 172.273V185.798M546.269 179.036H532.74M513.267 172.273V185.798M520.029 179.036H506.505M487.032 172.273V185.798M493.794 179.036H480.265M460.792 172.273V185.798M467.554 179.036H454.03M434.556 172.273V185.798M441.319 179.036H427.794M408.317 172.273V185.798M415.083 179.036H401.554M382.081 172.273V185.798M388.843 179.036H375.319M355.846 172.273V185.798M362.608 179.036H349.079M329.606 172.273V185.798M336.368 179.036H322.844M303.37 172.273V185.798M310.133 179.036H296.608M277.131 172.273V185.798M283.897 179.036H270.368M250.895 172.273V185.798M257.657 179.036H244.133M224.66 172.273V185.798M231.422 179.036H217.893M198.42 172.273V185.798M205.182 179.036H191.658M172.184 172.273V185.798M178.947 179.036H165.422M145.945 172.273V185.798M152.711 179.036H139.182M119.709 172.273V185.798M126.471 179.036H112.947M93.4736 172.273V185.798M100.236 179.036H86.7071M67.2339 172.273V185.798M73.9961 179.036H60.4716M40.9984 172.273V185.798M47.7606 179.036H34.2361M14.7586 172.273V185.798M21.5251 179.036H7.99635M-11.4769 172.273V185.798M-4.71465 179.036H-18.2391M775.639 198.509V212.038M782.401 205.275H768.877M749.404 198.509V212.038M756.166 205.275H742.637M723.164 198.509V212.038M729.926 205.275H716.402M696.928 198.509V212.038M703.691 205.275H690.166M670.689 198.509V212.038M677.455 205.275H663.926M644.453 198.509V212.038M651.215 205.275H637.691M618.218 198.509V212.038M624.98 205.275H611.451M591.978 198.509V212.038M598.74 205.275H585.216M565.742 198.509V212.038M572.505 205.275H558.98M539.503 198.509V212.038M546.269 205.275H532.74M513.267 198.509V212.038M520.029 205.275H506.505M487.032 198.509V212.038M493.794 205.275H480.265M460.792 198.509V212.038M467.554 205.275H454.03M434.556 198.509V212.038M441.319 205.275H427.794M408.317 198.509V212.038M415.083 205.275H401.554M382.081 198.509V212.038M388.843 205.275H375.319M355.846 198.509V212.038M362.608 205.275H349.079M329.606 198.509V212.038M336.368 205.275H322.844M303.37 198.509V212.038M310.133 205.275H296.608M277.131 198.509V212.038M283.897 205.275H270.368M250.895 198.509V212.038M257.657 205.275H244.133M224.66 198.509V212.038M231.422 205.275H217.893M198.42 198.509V212.038M205.182 205.275H191.658M172.184 198.509V212.038M178.947 205.275H165.422M145.945 198.509V212.038M152.711 205.275H139.182M119.709 198.509V212.038M126.471 205.275H112.947M93.4736 198.509V212.038M100.236 205.275H86.7071M67.2339 198.509V212.038M73.9961 205.275H60.4716M40.9984 198.509V212.038M47.7606 205.275H34.2361M14.7586 198.509V212.038M21.5251 205.275H7.99635M-11.4769 198.509V212.038M-4.71465 205.275H-18.2391M775.639 224.749V238.273M782.401 231.511H768.877M749.404 224.749V238.273M756.166 231.511H742.637M723.164 224.749V238.273M729.926 231.511H716.402M696.928 224.749V238.273M703.691 231.511H690.166M670.689 224.749V238.273M677.455 231.511H663.926M644.453 224.749V238.273M651.215 231.511H637.691M618.218 224.749V238.273M624.98 231.511H611.451M591.978 224.749V238.273M598.74 231.511H585.216M565.742 224.749V238.273M572.505 231.511H558.98M539.503 224.749V238.273M546.269 231.511H532.74M513.267 224.749V238.273M520.029 231.511H506.505M487.032 224.749V238.273M493.794 231.511H480.265M460.792 224.749V238.273M467.554 231.511H454.03M434.556 224.749V238.273M441.319 231.511H427.794M408.317 224.749V238.273M415.083 231.511H401.554M382.081 224.749V238.273M388.843 231.511H375.319M355.846 224.749V238.273M362.608 231.511H349.079M329.606 224.749V238.273M336.368 231.511H322.844M303.37 224.749V238.273M310.133 231.511H296.608M277.131 224.749V238.273M283.897 231.511H270.368M250.895 224.749V238.273M257.657 231.511H244.133M224.66 224.749V238.273M231.422 231.511H217.893M198.42 224.749V238.273M205.182 231.511H191.658M172.184 224.749V238.273M178.947 231.511H165.422M145.945 224.749V238.273M152.711 231.511H139.182M119.709 224.749V238.273M126.471 231.511H112.947M93.4736 224.749V238.273M100.236 231.511H86.7071M67.2339 224.749V238.273M73.9961 231.511H60.4716M40.9984 224.749V238.273M47.7606 231.511H34.2361M14.7586 224.749V238.273M21.5251 231.511H7.99635M-11.4769 224.749V238.273M-4.71465 231.511H-18.2391M775.639 250.984V264.513M782.401 257.746H768.877M749.404 250.984V264.513M756.166 257.746H742.637M723.164 250.984V264.513M729.926 257.746H716.402M696.928 250.984V264.513M703.691 257.746H690.166M670.689 250.984V264.513M677.455 257.746H663.926M644.453 250.984V264.513M651.215 257.746H637.691M618.218 250.984V264.513M624.98 257.746H611.451M591.978 250.984V264.513M598.74 257.746H585.216M565.742 250.984V264.513M572.505 257.746H558.98M539.503 250.984V264.513M546.269 257.746H532.74M513.267 250.984V264.513M520.029 257.746H506.505M487.032 250.984V264.513M493.794 257.746H480.265M460.792 250.984V264.513M467.554 257.746H454.03M434.556 250.984V264.513M441.319 257.746H427.794M408.317 250.984V264.513M415.083 257.746H401.554M382.081 250.984V264.513M388.843 257.746H375.319M355.846 250.984V264.513M362.608 257.746H349.079M329.606 250.984V264.513M336.368 257.746H322.844M303.37 250.984V264.513M310.133 257.746H296.608M277.131 250.984V264.513M283.897 257.746H270.368M250.895 250.984V264.513M257.657 257.746H244.133M224.66 250.984V264.513M231.422 257.746H217.893M198.42 250.984V264.513M205.182 257.746H191.658M172.184 250.984V264.513M178.947 257.746H165.422M145.945 250.984V264.513M152.711 257.746H139.182M119.709 250.984V264.513M126.471 257.746H112.947M93.4736 250.984V264.513M100.236 257.746H86.7071M67.2339 250.984V264.513M73.9961 257.746H60.4716M40.9984 250.984V264.513M47.7606 257.746H34.2361M14.7586 250.984V264.513M21.5251 257.746H7.99635M-11.4769 250.984V264.513M-4.71465 257.746H-18.2391M775.639 277.224V290.748M782.401 283.986H768.877M749.404 277.224V290.748M756.166 283.986H742.637M723.164 277.224V290.748M729.926 283.986H716.402M696.928 277.224V290.748M703.691 283.986H690.166M670.689 277.224V290.748M677.455 283.986H663.926M644.453 277.224V290.748M651.215 283.986H637.691M618.218 277.224V290.748M624.98 283.986H611.451M591.978 277.224V290.748M598.74 283.986H585.216M565.742 277.224V290.748M572.505 283.986H558.98M539.503 277.224V290.748M546.269 283.986H532.74M513.267 277.224V290.748M520.029 283.986H506.505M487.032 277.224V290.748M493.794 283.986H480.265M460.792 277.224V290.748M467.554 283.986H454.03M434.556 277.224V290.748M441.319 283.986H427.794M408.317 277.224V290.748M415.083 283.986H401.554M382.081 277.224V290.748M388.843 283.986H375.319M355.846 277.224V290.748M362.608 283.986H349.079M329.606 277.224V290.748M336.368 283.986H322.844M303.37 277.224V290.748M310.133 283.986H296.608M277.131 277.224V290.748M283.897 283.986H270.368M250.895 277.224V290.748M257.657 283.986H244.133M224.66 277.224V290.748M231.422 283.986H217.893M198.42 277.224V290.748M205.182 283.986H191.658M172.184 277.224V290.748M178.947 283.986H165.422M145.945 277.224V290.748M152.711 283.986H139.182M119.709 277.224V290.748M126.471 283.986H112.947M93.4736 277.224V290.748M100.236 283.986H86.7071M67.2339 277.224V290.748M73.9961 283.986H60.4716M40.9984 277.224V290.748M47.7606 283.986H34.2361M14.7586 277.224V290.748M21.5251 283.986H7.99635M-11.4769 277.224V290.748M-4.71465 283.986H-18.2391M775.639 303.459V316.984M782.401 310.222H768.877M749.404 303.459V316.984M756.166 310.222H742.637M723.164 303.459V316.984M729.926 310.222H716.402M696.928 303.459V316.984M703.691 310.222H690.166M670.689 303.459V316.984M677.455 310.222H663.926M644.453 303.459V316.984M651.215 310.222H637.691M618.218 303.459V316.984M624.98 310.222H611.451M591.978 303.459V316.984M598.74 310.222H585.216M565.742 303.459V316.984M572.505 310.222H558.98M539.503 303.459V316.984M546.269 310.222H532.74M513.267 303.459V316.984M520.029 310.222H506.505M487.032 303.459V316.984M493.794 310.222H480.265M460.792 303.459V316.984M467.554 310.222H454.03M434.556 303.459V316.984M441.319 310.222H427.794M408.317 303.459V316.984M415.083 310.222H401.554M382.081 303.459V316.984M388.843 310.222H375.319M355.846 303.459V316.984M362.608 310.222H349.079M329.606 303.459V316.984M336.368 310.222H322.844M303.37 303.459V316.984M310.133 310.222H296.608M277.131 303.459V316.984M283.897 310.222H270.368M250.895 303.459V316.984M257.657 310.222H244.133M224.66 303.459V316.984M231.422 310.222H217.893M198.42 303.459V316.984M205.182 310.222H191.658M172.184 303.459V316.984M178.947 310.222H165.422M145.945 303.459V316.984M152.711 310.222H139.182M119.709 303.459V316.984M126.471 310.222H112.947M93.4736 303.459V316.984M100.236 310.222H86.7071M67.2339 303.459V316.984M73.9961 310.222H60.4716M40.9984 303.459V316.984M47.7606 310.222H34.2361M14.7586 303.459V316.984M21.5251 310.222H7.99635M-11.4769 303.459V316.984M-4.71465 310.222H-18.2391M775.639 329.695V343.224M782.401 336.461H768.877M749.404 329.695V343.224M756.166 336.461H742.637M723.164 329.695V343.224M729.926 336.461H716.402M696.928 329.695V343.224M703.691 336.461H690.166M670.689 329.695V343.224M677.455 336.461H663.926M644.453 329.695V343.224M651.215 336.461H637.691M618.218 329.695V343.224M624.98 336.461H611.451M591.978 329.695V343.224M598.74 336.461H585.216M565.742 329.695V343.224M572.505 336.461H558.98M539.503 329.695V343.224M546.269 336.461H532.74M513.267 329.695V343.224M520.029 336.461H506.505M487.032 329.695V343.224M493.794 336.461H480.265M460.792 329.695V343.224M467.554 336.461H454.03M434.556 329.695V343.224M441.319 336.461H427.794M408.317 329.695V343.224M415.083 336.461H401.554M382.081 329.695V343.224M388.843 336.461H375.319M355.846 329.695V343.224M362.608 336.461H349.079M329.606 329.695V343.224M336.368 336.461H322.844M303.37 329.695V343.224M310.133 336.461H296.608M277.131 329.695V343.224M283.897 336.461H270.368M250.895 329.695V343.224M257.657 336.461H244.133M224.66 329.695V343.224M231.422 336.461H217.893M198.42 329.695V343.224M205.182 336.461H191.658M172.184 329.695V343.224M178.947 336.461H165.422M145.945 329.695V343.224M152.711 336.461H139.182M119.709 329.695V343.224M126.471 336.461H112.947M93.4736 329.695V343.224M100.236 336.461H86.7071M67.2339 329.695V343.224M73.9961 336.461H60.4716M40.9984 329.695V343.224M47.7606 336.461H34.2361M14.7586 329.695V343.224M21.5251 336.461H7.99635M-11.4769 329.695V343.224M-4.71465 336.461H-18.2391M775.639 355.935V369.459M782.401 362.697H768.877M749.404 355.935V369.459M756.166 362.697H742.637M723.164 355.935V369.459M729.926 362.697H716.402M696.928 355.935V369.459M703.691 362.697H690.166M670.689 355.935V369.459M677.455 362.697H663.926M644.453 355.935V369.459M651.215 362.697H637.691M618.218 355.935V369.459M624.98 362.697H611.451M591.978 355.935V369.459M598.74 362.697H585.216M565.742 355.935V369.459M572.505 362.697H558.98M539.503 355.935V369.459M546.269 362.697H532.74M513.267 355.935V369.459M520.029 362.697H506.505M487.032 355.935V369.459M493.794 362.697H480.265M460.792 355.935V369.459M467.554 362.697H454.03M434.556 355.935V369.459M441.319 362.697H427.794M408.317 355.935V369.459M415.083 362.697H401.554M382.081 355.935V369.459M388.843 362.697H375.319M355.846 355.935V369.459M362.608 362.697H349.079M329.606 355.935V369.459M336.368 362.697H322.844M303.37 355.935V369.459M310.133 362.697H296.608M277.131 355.935V369.459M283.897 362.697H270.368M250.895 355.935V369.459M257.657 362.697H244.133M224.66 355.935V369.459M231.422 362.697H217.893M198.42 355.935V369.459M205.182 362.697H191.658M172.184 355.935V369.459M178.947 362.697H165.422M145.945 355.935V369.459M152.711 362.697H139.182M119.709 355.935V369.459M126.471 362.697H112.947M93.4736 355.935V369.459M100.236 362.697H86.7071M67.2339 355.935V369.459M73.9961 362.697H60.4716M40.9984 355.935V369.459M47.7606 362.697H34.2361M14.7586 355.935V369.459M21.5251 362.697H7.99635M-11.4769 355.935V369.459M-4.71465 362.697H-18.2391M775.639 382.17V395.699M782.401 388.932H768.877M749.404 382.17V395.699M756.166 388.932H742.637M723.164 382.17V395.699M729.926 388.932H716.402M696.928 382.17V395.699M703.691 388.932H690.166M670.689 382.17V395.699M677.455 388.932H663.926M644.453 382.17V395.699M651.215 388.932H637.691M618.218 382.17V395.699M624.98 388.932H611.451M591.978 382.17V395.699M598.74 388.932H585.216M565.742 382.17V395.699M572.505 388.932H558.98M539.503 382.17V395.699M546.269 388.932H532.74M513.267 382.17V395.699M520.029 388.932H506.505M487.032 382.17V395.699M493.794 388.932H480.265M460.792 382.17V395.699M467.554 388.932H454.03M434.556 382.17V395.699M441.319 388.932H427.794M408.317 382.17V395.699M415.083 388.932H401.554M382.081 382.17V395.699M388.843 388.932H375.319M355.846 382.17V395.699M362.608 388.932H349.079M329.606 382.17V395.699M336.368 388.932H322.844M303.37 382.17V395.699M310.133 388.932H296.608M277.131 382.17V395.699M283.897 388.932H270.368M250.895 382.17V395.699M257.657 388.932H244.133M224.66 382.17V395.699M231.422 388.932H217.893M198.42 382.17V395.699M205.182 388.932H191.658M172.184 382.17V395.699M178.947 388.932H165.422M145.945 382.17V395.699M152.711 388.932H139.182M119.709 382.17V395.699M126.471 388.932H112.947M93.4736 382.17V395.699M100.236 388.932H86.7071M67.2339 382.17V395.699M73.9961 388.932H60.4716M40.9984 382.17V395.699M47.7606 388.932H34.2361M14.7586 382.17V395.699M21.5251 388.932H7.99635M-11.4769 382.17V395.699M-4.71465 388.932H-18.2391M775.639 408.41V421.934M782.401 415.172H768.877M749.404 408.41V421.934M756.166 415.172H742.637M723.164 408.41V421.934M729.926 415.172H716.402M696.928 408.41V421.934M703.691 415.172H690.166M670.689 408.41V421.934M677.455 415.172H663.926M644.453 408.41V421.934M651.215 415.172H637.691M618.218 408.41V421.934M624.98 415.172H611.451M591.978 408.41V421.934M598.74 415.172H585.216M565.742 408.41V421.934M572.505 415.172H558.98M539.503 408.41V421.934M546.269 415.172H532.74M513.267 408.41V421.934M520.029 415.172H506.505M487.032 408.41V421.934M493.794 415.172H480.265M460.792 408.41V421.934M467.554 415.172H454.03M434.556 408.41V421.934M441.319 415.172H427.794M408.317 408.41V421.934M415.083 415.172H401.554M382.081 408.41V421.934M388.843 415.172H375.319M355.846 408.41V421.934M362.608 415.172H349.079M329.606 408.41V421.934M336.368 415.172H322.844M303.37 408.41V421.934M310.133 415.172H296.608M277.131 408.41V421.934M283.897 415.172H270.368M250.895 408.41V421.934M257.657 415.172H244.133M224.66 408.41V421.934M231.422 415.172H217.893M198.42 408.41V421.934M205.182 415.172H191.658M172.184 408.41V421.934M178.947 415.172H165.422M145.945 408.41V421.934M152.711 415.172H139.182M119.709 408.41V421.934M126.471 415.172H112.947M93.4736 408.41V421.934M100.236 415.172H86.7071M67.2339 408.41V421.934M73.9961 415.172H60.4716M40.9984 408.41V421.934M47.7606 415.172H34.2361M14.7586 408.41V421.934M21.5251 415.172H7.99635M-11.4769 408.41V421.934M-4.71465 415.172H-18.2391M775.639 434.645V448.17M782.401 441.408H768.877M749.404 434.645V448.17M756.166 441.408H742.637M723.164 434.645V448.17M729.926 441.408H716.402M696.928 434.645V448.17M703.691 441.408H690.166M670.689 434.645V448.17M677.455 441.408H663.926M644.453 434.645V448.17M651.215 441.408H637.691M618.218 434.645V448.17M624.98 441.408H611.451M591.978 434.645V448.17M598.74 441.408H585.216M565.742 434.645V448.17M572.505 441.408H558.98M539.503 434.645V448.17M546.269 441.408H532.74M513.267 434.645V448.17M520.029 441.408H506.505M487.032 434.645V448.17M493.794 441.408H480.265M460.792 434.645V448.17M467.554 441.408H454.03M434.556 434.645V448.17M441.319 441.408H427.794M408.317 434.645V448.17M415.083 441.408H401.554M382.081 434.645V448.17M388.843 441.408H375.319M355.846 434.645V448.17M362.608 441.408H349.079M329.606 434.645V448.17M336.368 441.408H322.844M303.37 434.645V448.17M310.133 441.408H296.608M277.131 434.645V448.17M283.897 441.408H270.368M250.895 434.645V448.17M257.657 441.408H244.133M224.66 434.645V448.17M231.422 441.408H217.893M198.42 434.645V448.17M205.182 441.408H191.658M172.184 434.645V448.17M178.947 441.408H165.422M145.945 434.645V448.17M152.711 441.408H139.182M119.709 434.645V448.17M126.471 441.408H112.947M93.4736 434.645V448.17M100.236 441.408H86.7071M67.2339 434.645V448.17M73.9961 441.408H60.4716M40.9984 434.645V448.17M47.7606 441.408H34.2361M14.7586 434.645V448.17M21.5251 441.408H7.99635M-11.4769 434.645V448.17M-4.71465 441.408H-18.2391M775.639 460.881V474.41M782.401 467.647H768.877M749.404 460.881V474.41M756.166 467.647H742.637M723.164 460.881V474.41M729.926 467.647H716.402M696.928 460.881V474.41M703.691 467.647H690.166M670.689 460.881V474.41M677.455 467.647H663.926M644.453 460.881V474.41M651.215 467.647H637.691M618.218 460.881V474.41M624.98 467.647H611.451M591.978 460.881V474.41M598.74 467.647H585.216M565.742 460.881V474.41M572.505 467.647H558.98M539.503 460.881V474.41M546.269 467.647H532.74M513.267 460.881V474.41M520.029 467.647H506.505M487.032 460.881V474.41M493.794 467.647H480.265M460.792 460.881V474.41M467.554 467.647H454.03M434.556 460.881V474.41M441.319 467.647H427.794M408.317 460.881V474.41M415.083 467.647H401.554M382.081 460.881V474.41M388.843 467.647H375.319M355.846 460.881V474.41M362.608 467.647H349.079M329.606 460.881V474.41M336.368 467.647H322.844M303.37 460.881V474.41M310.133 467.647H296.608M277.131 460.881V474.41M283.897 467.647H270.368M250.895 460.881V474.41M257.657 467.647H244.133M224.66 460.881V474.41M231.422 467.647H217.893M198.42 460.881V474.41M205.182 467.647H191.658M172.184 460.881V474.41M178.947 467.647H165.422M145.945 460.881V474.41M152.711 467.647H139.182M119.709 460.881V474.41M126.471 467.647H112.947M93.4736 460.881V474.41M100.236 467.647H86.7071M67.2339 460.881V474.41M73.9961 467.647H60.4716M40.9984 460.881V474.41M47.7606 467.647H34.2361M14.7586 460.881V474.41M21.5251 467.647H7.99635M-11.4769 460.881V474.41M-4.71465 467.647H-18.2391M775.639 487.121V500.645M782.401 493.883H768.877M749.404 487.121V500.645M756.166 493.883H742.637M723.164 487.121V500.645M729.926 493.883H716.402M696.928 487.121V500.645M703.691 493.883H690.166M670.689 487.121V500.645M677.455 493.883H663.926M644.453 487.121V500.645M651.215 493.883H637.691M618.218 487.121V500.645M624.98 493.883H611.451M591.978 487.121V500.645M598.74 493.883H585.216M565.742 487.121V500.645M572.505 493.883H558.98M539.503 487.121V500.645M546.269 493.883H532.74M513.267 487.121V500.645M520.029 493.883H506.505M487.032 487.121V500.645M493.794 493.883H480.265M460.792 487.121V500.645M467.554 493.883H454.03M434.556 487.121V500.645M441.319 493.883H427.794M408.317 487.121V500.645M415.083 493.883H401.554M382.081 487.121V500.645M388.843 493.883H375.319M355.846 487.121V500.645M362.608 493.883H349.079M329.606 487.121V500.645M336.368 493.883H322.844M303.37 487.121V500.645M310.133 493.883H296.608M277.131 487.121V500.645M283.897 493.883H270.368M250.895 487.121V500.645M257.657 493.883H244.133M224.66 487.121V500.645M231.422 493.883H217.893M198.42 487.121V500.645M205.182 493.883H191.658M172.184 487.121V500.645M178.947 493.883H165.422M145.945 487.121V500.645M152.711 493.883H139.182M119.709 487.121V500.645M126.471 493.883H112.947M93.4736 487.121V500.645M100.236 493.883H86.7071M67.2339 487.121V500.645M73.9961 493.883H60.4716M40.9984 487.121V500.645M47.7606 493.883H34.2361M14.7586 487.121V500.645M21.5251 493.883H7.99635M-11.4769 487.121V500.645M-4.71465 493.883H-18.2391M775.639 513.356V526.885M782.401 520.118H768.877M749.404 513.356V526.885M756.166 520.118H742.637M723.164 513.356V526.885M729.926 520.118H716.402M696.928 513.356V526.885M703.691 520.118H690.166M670.689 513.356V526.885M677.455 520.118H663.926M644.453 513.356V526.885M651.215 520.118H637.691M618.218 513.356V526.885M624.98 520.118H611.451M591.978 513.356V526.885M598.74 520.118H585.216M565.742 513.356V526.885M572.505 520.118H558.98M539.503 513.356V526.885M546.269 520.118H532.74M513.267 513.356V526.885M520.029 520.118H506.505M487.032 513.356V526.885M493.794 520.118H480.265M460.792 513.356V526.885M467.554 520.118H454.03M434.556 513.356V526.885M441.319 520.118H427.794M408.317 513.356V526.885M415.083 520.118H401.554M382.081 513.356V526.885M388.843 520.118H375.319M355.846 513.356V526.885M362.608 520.118H349.079M329.606 513.356V526.885M336.368 520.118H322.844M303.37 513.356V526.885M310.133 520.118H296.608M277.131 513.356V526.885M283.897 520.118H270.368M250.895 513.356V526.885M257.657 520.118H244.133M224.66 513.356V526.885M231.422 520.118H217.893M198.42 513.356V526.885M205.182 520.118H191.658M172.184 513.356V526.885M178.947 520.118H165.422M145.945 513.356V526.885M152.711 520.118H139.182M119.709 513.356V526.885M126.471 520.118H112.947M93.4736 513.356V526.885M100.236 520.118H86.7071M67.2339 513.356V526.885M73.9961 520.118H60.4716M40.9984 513.356V526.885M47.7606 520.118H34.2361M14.7586 513.356V526.885M21.5251 520.118H7.99635M-11.4769 513.356V526.885M-4.71465 520.118H-18.2391" stroke="white" stroke-width="1.6948" stroke-miterlimit="10"/>
</g>
</mask>
<g mask="url(#mask0_11938_69209)">
<g filter="url(#filter1_f_11938_69209)">
<circle cx="318.417" cy="318.417" r="318.417" transform="matrix(-1 0 0 1 470.595 247)" fill="white"/>
</g>
</g>
<g opacity="0.4" filter="url(#filter2_f_11938_69209)">
<circle cx="-188.239" cy="-44" r="305" fill="#59DBB0"/>
</g>
</g>
<defs>
<filter id="filter0_f_11938_69209" x="-644.239" y="-244" width="1628" height="1628" filterUnits="userSpaceOnUse" color-interpolation-filters="sRGB">
<feFlood flood-opacity="0" result="BackgroundImageFix"/>
<feBlend mode="normal" in="SourceGraphic" in2="BackgroundImageFix" result="shape"/>
<feGaussianBlur stdDeviation="200" result="effect1_foregroundBlur_11938_69209"/>
</filter>
<filter id="filter1_f_11938_69209" x="-543.064" y="-129.825" width="1390.48" height="1390.49" filterUnits="userSpaceOnUse" color-interpolation-filters="sRGB">
<feFlood flood-opacity="0" result="BackgroundImageFix"/>
<feBlend mode="normal" in="SourceGraphic" in2="BackgroundImageFix" result="shape"/>
<feGaussianBlur stdDeviation="188.413" result="effect1_foregroundBlur_11938_69209"/>
</filter>
<filter id="filter2_f_11938_69209" x="-1693.24" y="-1549" width="3010" height="3010" filterUnits="userSpaceOnUse" color-interpolation-filters="sRGB">
<feFlood flood-opacity="0" result="BackgroundImageFix"/>
<feBlend mode="normal" in="SourceGraphic" in2="BackgroundImageFix" result="shape"/>
<feGaussianBlur stdDeviation="600" result="effect1_foregroundBlur_11938_69209"/>
</filter>
<clipPath id="clip0_11938_69209">
<rect width="1440" height="522" fill="white" transform="translate(-0.239258)"/>
</clipPath>
<clipPath id="clip1_11938_69209">
<rect width="812.058" height="454.074" fill="white" transform="matrix(-1 0 0 1 793.819 81)"/>
</clipPath>
</defs>
</svg>
