<svg width="575" height="577" viewBox="0 0 575 577" fill="none" xmlns="http://www.w3.org/2000/svg">
<g clip-path="url(#clip0_11948_12561)">
<path d="M429.278 501.478C429.442 498.744 429.379 496.032 429.089 493.371L440.178 487.188L436.887 476.023L424.196 476.849C422.982 474.434 421.569 472.12 419.971 469.938L426.491 459.022L418.057 451.001L407.494 458.051C405.256 456.579 402.872 455.286 400.365 454.186L400.555 441.473L389.238 438.742L383.61 450.14C380.877 449.976 378.168 450.039 375.504 450.329L369.321 439.24L358.156 442.532L358.982 455.22C356.567 456.434 354.253 457.846 352.071 459.445L341.155 452.924L333.134 461.359L340.184 471.921C338.712 474.16 337.419 476.544 336.318 479.05L323.605 478.861L320.875 490.177L332.273 495.805C332.109 498.539 332.172 501.25 332.462 503.912L321.373 510.095L324.665 521.259L337.353 520.433C338.566 522.849 339.979 525.163 341.578 527.345L335.057 538.26L343.492 546.282L354.054 539.232C356.293 540.704 358.676 541.997 361.183 543.097L360.994 555.81L372.31 558.541L377.938 547.142C380.672 547.306 383.383 547.243 386.044 546.953L392.228 558.042L403.392 554.751L402.566 542.06C404.985 540.846 407.296 539.433 409.478 537.835L420.393 544.355L428.415 535.921L421.364 525.358C422.837 523.12 424.13 520.736 425.23 518.229L437.943 518.419L440.673 507.102L429.275 501.474L429.278 501.478ZM409.906 505.668C406.025 521.755 389.838 531.649 373.748 527.767C357.661 523.886 347.767 507.698 351.648 491.609C355.53 475.522 371.717 465.628 387.807 469.509C403.894 473.391 413.788 489.578 409.906 505.668Z" fill="#E6F2F2"/>
<path d="M372.309 559.257C372.256 559.257 372.199 559.25 372.142 559.238L360.826 556.507C360.505 556.428 360.281 556.138 360.284 555.807L360.467 543.564C358.228 542.555 356.075 541.388 354.057 540.089L343.885 546.878C343.611 547.061 343.242 547.029 343.005 546.802L334.571 538.781C334.331 538.554 334.281 538.188 334.451 537.904L340.732 527.389C339.319 525.418 338.046 523.331 336.936 521.178L324.712 521.972C324.381 521.997 324.081 521.783 323.986 521.465L320.695 510.3C320.6 509.981 320.739 509.641 321.029 509.48L331.711 503.524C331.475 501.14 331.418 498.69 331.541 496.234L320.562 490.814C320.266 490.666 320.111 490.335 320.187 490.013L322.918 478.697C322.996 478.376 323.261 478.155 323.618 478.155L335.861 478.338C336.873 476.096 338.039 473.942 339.335 471.928L332.547 461.756C332.364 461.482 332.395 461.116 332.622 460.876L340.644 452.442C340.871 452.203 341.237 452.152 341.52 452.322L352.036 458.603C354.006 457.191 356.09 455.917 358.247 454.807L357.452 442.583C357.43 442.252 357.642 441.952 357.96 441.858L369.125 438.566C369.443 438.471 369.784 438.61 369.945 438.9L375.901 449.582C378.287 449.346 380.734 449.289 383.19 449.412L388.614 438.433C388.759 438.137 389.093 437.982 389.414 438.058L400.731 440.789C401.052 440.867 401.276 441.158 401.273 441.489L401.09 453.732C403.332 454.741 405.485 455.907 407.5 457.206L417.672 450.418C417.946 450.235 418.312 450.267 418.551 450.494L426.986 458.515C427.225 458.742 427.276 459.108 427.105 459.391L420.822 469.907C422.234 471.877 423.508 473.961 424.618 476.118L436.842 475.324C437.176 475.301 437.473 475.513 437.567 475.831L440.859 486.996C440.953 487.314 440.815 487.655 440.525 487.816L429.842 493.772C430.079 496.159 430.135 498.605 430.013 501.062L440.991 506.482C441.288 506.627 441.442 506.961 441.366 507.282L438.636 518.599C438.557 518.92 438.299 519.15 437.936 519.141L425.693 518.958C424.684 521.2 423.517 523.35 422.218 525.368L429.007 535.54C429.19 535.814 429.158 536.18 428.931 536.419L420.91 544.854C420.683 545.093 420.317 545.144 420.033 544.973L409.518 538.689C407.547 540.102 405.46 541.376 403.307 542.486L404.101 554.71C404.123 555.041 403.912 555.34 403.593 555.435L392.429 558.727C392.11 558.821 391.77 558.683 391.609 558.393L385.653 547.71C383.266 547.947 380.816 548.003 378.363 547.88L372.94 558.859C372.82 559.105 372.571 559.253 372.306 559.253L372.309 559.257ZM361.709 555.262L371.925 557.727L377.304 546.837C377.43 546.581 377.704 546.427 377.982 546.443C380.674 546.603 383.364 546.54 385.971 546.257C386.255 546.225 386.526 546.367 386.668 546.616L392.577 557.21L402.654 554.237L401.866 542.114C401.847 541.83 402.001 541.562 402.253 541.436C404.628 540.244 406.92 538.844 409.064 537.274C409.294 537.107 409.603 537.091 409.846 537.236L420.276 543.466L427.519 535.852L420.784 525.762C420.626 525.526 420.626 525.217 420.784 524.98C422.225 522.789 423.508 520.427 424.593 517.955C424.706 517.694 424.965 517.53 425.251 517.533L437.397 517.716L439.863 507.5L428.972 502.121C428.717 501.995 428.562 501.727 428.578 501.443C428.739 498.747 428.676 496.061 428.392 493.453C428.36 493.17 428.502 492.895 428.751 492.76L439.345 486.851L436.372 476.774L424.249 477.562C423.965 477.581 423.697 477.427 423.571 477.174C422.379 474.8 420.976 472.508 419.409 470.364C419.242 470.134 419.226 469.828 419.371 469.582L425.601 459.152L417.987 451.909L407.897 458.644C407.661 458.802 407.352 458.802 407.115 458.644C404.924 457.203 402.562 455.92 400.091 454.835C399.829 454.722 399.662 454.46 399.668 454.176L399.851 442.031L389.635 439.565L384.256 450.456C384.13 450.711 383.871 450.866 383.578 450.85C380.882 450.689 378.196 450.752 375.588 451.036C375.308 451.064 375.03 450.926 374.892 450.676L368.983 440.079L358.906 443.053L359.694 455.176C359.713 455.46 359.559 455.728 359.306 455.854C356.929 457.049 354.64 458.449 352.496 460.016C352.266 460.183 351.957 460.199 351.714 460.053L341.284 453.823L334.041 461.438L340.776 471.527C340.934 471.764 340.934 472.073 340.776 472.309C339.335 474.497 338.055 476.859 336.967 479.334C336.854 479.596 336.624 479.757 336.308 479.757L324.163 479.574L321.697 489.79L332.588 495.169C332.843 495.295 332.998 495.563 332.982 495.846C332.821 498.542 332.884 501.232 333.168 503.836C333.2 504.12 333.058 504.394 332.809 504.53L322.214 510.439L325.188 520.516L337.311 519.727C337.592 519.705 337.863 519.863 337.989 520.115C339.181 522.489 340.581 524.778 342.151 526.926C342.318 527.156 342.334 527.462 342.189 527.708L335.958 538.138L343.573 545.38L353.663 538.645C353.899 538.488 354.208 538.488 354.444 538.645C356.636 540.089 359.001 541.37 361.469 542.454C361.731 542.568 361.898 542.829 361.892 543.113L361.709 555.259V555.262ZM380.832 529.331C378.417 529.331 375.986 529.044 373.58 528.464C357.14 524.498 346.991 507.894 350.957 491.451C352.881 483.487 357.787 476.749 364.777 472.476C371.767 468.204 380.003 466.908 387.967 468.831C404.407 472.798 414.556 489.402 410.59 505.845C408.667 513.809 403.761 520.547 396.77 524.819C391.893 527.802 386.406 529.331 380.832 529.331ZM380.775 469.39C367.577 469.39 355.567 478.401 352.335 491.785C348.551 507.468 358.231 523.303 373.911 527.09C381.51 528.925 389.364 527.689 396.033 523.612C402.701 519.535 407.383 513.109 409.215 505.51C412.999 489.827 403.319 473.993 387.639 470.206C385.341 469.651 383.042 469.386 380.775 469.386V469.39Z" fill="#005B5B"/>
<path d="M514.735 475.887C514.77 474.124 514.659 472.384 514.401 470.678L521.366 466.409L518.957 459.314L510.822 460.178C509.977 458.655 509.009 457.205 507.924 455.843L511.831 448.651L506.2 443.71L499.594 448.522C498.115 447.633 496.551 446.863 494.909 446.22L494.698 438.038L487.354 436.578L484.034 444.057C482.272 444.022 480.531 444.133 478.828 444.391L474.562 437.42L467.471 439.829L468.335 447.97C466.812 448.815 465.365 449.783 464.003 450.868L456.814 446.958L451.88 452.592L456.688 459.201C455.799 460.68 455.033 462.247 454.39 463.886L446.214 464.098L444.754 471.447L452.23 474.77C452.195 476.533 452.305 478.273 452.564 479.979L445.596 484.248L448.005 491.343L456.139 490.479C456.984 492.002 457.952 493.452 459.037 494.814L455.13 502.006L460.762 506.947L467.367 502.135C468.846 503.025 470.41 503.794 472.049 504.437L472.261 512.619L479.604 514.079L482.924 506.6C484.687 506.635 486.427 506.524 488.13 506.266L492.396 513.237L499.487 510.828L498.623 502.687C500.146 501.842 501.593 500.874 502.955 499.79L510.144 503.699L515.079 498.065L510.27 491.456C511.159 489.977 511.926 488.41 512.569 486.768L520.744 486.556L522.204 479.207L514.729 475.884L514.735 475.887ZM502.391 479.087C500.316 489.536 490.17 496.324 479.727 494.247C469.284 492.169 462.502 482.016 464.574 471.567C466.648 461.118 476.795 454.33 487.238 456.407C497.68 458.485 504.462 468.638 502.391 479.087Z" fill="#E6F2F2"/>
<path d="M479.611 514.781C479.563 514.781 479.519 514.778 479.472 514.768L472.128 513.308C471.804 513.245 471.567 512.965 471.558 512.633L471.359 504.918C469.988 504.357 468.663 503.707 467.412 502.979L461.184 507.516C460.916 507.712 460.551 507.696 460.302 507.475L454.67 502.534C454.421 502.317 454.358 501.954 454.516 501.664L458.202 494.879C457.306 493.722 456.49 492.495 455.761 491.228L448.09 492.041C447.759 492.079 447.45 491.877 447.346 491.565L444.937 484.471C444.83 484.159 444.956 483.812 445.236 483.638L451.807 479.612C451.615 478.177 451.52 476.705 451.527 475.22L444.477 472.086C444.174 471.95 444.007 471.625 444.07 471.301L445.53 463.951C445.596 463.626 445.877 463.39 446.204 463.38L453.914 463.182C454.475 461.807 455.124 460.483 455.849 459.231L451.315 452.998C451.12 452.73 451.139 452.364 451.356 452.115L456.294 446.48C456.512 446.231 456.874 446.165 457.164 446.326L463.943 450.012C465.1 449.116 466.324 448.3 467.591 447.571L466.778 439.894C466.743 439.566 466.942 439.254 467.254 439.15L474.345 436.741C474.657 436.633 475.004 436.76 475.177 437.04L479.201 443.614C480.635 443.422 482.111 443.327 483.586 443.334L486.717 436.28C486.853 435.978 487.178 435.807 487.503 435.874L494.846 437.333C495.171 437.396 495.407 437.677 495.417 438.008L495.615 445.724C496.987 446.285 498.311 446.934 499.563 447.663L505.79 443.125C506.058 442.93 506.424 442.946 506.673 443.166L512.304 448.107C512.553 448.325 512.616 448.687 512.459 448.977L508.773 455.763C509.665 456.92 510.485 458.146 511.213 459.414L518.884 458.6C519.215 458.566 519.524 458.764 519.628 459.077L522.037 466.171C522.145 466.483 522.018 466.83 521.738 467.003L515.167 471.026C515.359 472.461 515.454 473.933 515.448 475.419L522.498 478.553C522.8 478.688 522.968 479.013 522.904 479.338L521.445 486.687C521.378 487.012 521.098 487.249 520.77 487.258L513.061 487.457C512.5 488.828 511.85 490.156 511.125 491.407L515.659 497.641C515.854 497.909 515.835 498.275 515.618 498.524L510.683 504.158C510.466 504.407 510.103 504.473 509.813 504.313L503.034 500.627C501.877 501.522 500.654 502.339 499.386 503.067L500.2 510.745C500.234 511.073 500.036 511.385 499.724 511.489L492.632 513.898C492.32 514.005 491.973 513.879 491.8 513.598L487.777 507.024C486.342 507.217 484.86 507.311 483.391 507.305L480.26 514.358C480.143 514.617 479.888 514.781 479.614 514.781H479.611ZM472.958 512.028L479.191 513.267L482.281 506.305C482.398 506.044 482.659 505.87 482.943 505.886C484.665 505.918 486.377 505.81 488.032 505.561C488.316 505.52 488.593 505.65 488.742 505.892L492.711 512.381L498.73 510.335L497.926 502.758C497.898 502.475 498.04 502.203 498.286 502.065C499.768 501.242 501.193 500.289 502.52 499.233C502.744 499.057 503.05 499.028 503.299 499.164L509.99 502.802L514.18 498.019L509.706 491.868C509.539 491.638 509.526 491.329 509.671 491.086C510.532 489.651 511.289 488.113 511.916 486.505C512.02 486.24 512.272 486.063 512.556 486.054L520.168 485.858L521.407 479.618L514.448 476.525C514.19 476.409 514.022 476.15 514.029 475.866C514.06 474.142 513.953 472.43 513.704 470.774C513.663 470.494 513.792 470.213 514.035 470.065L520.521 466.092L518.474 460.07L510.904 460.874C510.623 460.905 510.349 460.76 510.21 460.514C509.388 459.029 508.435 457.604 507.379 456.277C507.202 456.056 507.174 455.747 507.31 455.498L510.945 448.804L506.165 444.611L500.02 449.088C499.79 449.255 499.481 449.268 499.238 449.122C497.807 448.259 496.265 447.505 494.66 446.874C494.395 446.77 494.218 446.518 494.209 446.234L494.013 438.62L487.78 437.381L484.69 444.343C484.573 444.604 484.312 444.778 484.028 444.762C482.306 444.73 480.594 444.838 478.939 445.087C478.658 445.131 478.378 444.998 478.23 444.756L474.26 438.267L468.241 440.313L469.045 447.89C469.073 448.173 468.931 448.445 468.685 448.583C467.203 449.406 465.778 450.358 464.451 451.415C464.23 451.591 463.921 451.62 463.672 451.484L456.981 447.846L452.791 452.629L457.265 458.78C457.432 459.01 457.445 459.319 457.3 459.562C456.439 460.994 455.682 462.535 455.055 464.143C454.951 464.408 454.699 464.585 454.415 464.594L446.803 464.79L445.564 471.03L452.523 474.123C452.782 474.239 452.949 474.498 452.942 474.782C452.911 476.506 453.018 478.222 453.267 479.874C453.308 480.154 453.179 480.435 452.936 480.583L446.45 484.556L448.497 490.578L456.067 489.774C456.351 489.743 456.622 489.888 456.761 490.134C457.584 491.619 458.536 493.044 459.592 494.371C459.769 494.595 459.797 494.901 459.661 495.15L456.026 501.847L460.806 506.041L466.951 501.563C467.181 501.396 467.49 501.384 467.733 501.529C469.168 502.393 470.706 503.149 472.311 503.777C472.576 503.881 472.753 504.133 472.762 504.417L472.958 512.034V512.028ZM483.527 495.323C482.218 495.323 480.903 495.194 479.592 494.933C468.783 492.782 461.736 482.235 463.883 471.421C464.924 466.18 467.941 461.662 472.378 458.692C476.814 455.722 482.142 454.662 487.38 455.703C498.188 457.853 505.235 468.4 503.088 479.215C502.047 484.455 499.03 488.973 494.594 491.943C491.267 494.169 487.443 495.323 483.53 495.323H483.527ZM483.445 456.731C479.809 456.731 476.256 457.803 473.163 459.871C469.039 462.63 466.235 466.83 465.271 471.698C463.275 481.747 469.824 491.549 479.866 493.545C484.731 494.513 489.681 493.526 493.805 490.767C497.929 488.009 500.733 483.809 501.697 478.94C503.693 468.892 497.144 459.089 487.102 457.093C485.882 456.851 484.658 456.731 483.445 456.731Z" fill="#005B5B"/>
<path d="M390.386 571.516C390.005 571.516 389.69 571.213 389.68 570.829C389.667 570.438 389.976 570.11 390.367 570.1C391.433 570.069 392.511 569.993 393.577 569.88C393.965 569.839 394.315 570.119 394.356 570.507C394.397 570.895 394.116 571.245 393.729 571.286C392.631 571.403 391.515 571.481 390.412 571.516C390.405 571.516 390.396 571.516 390.389 571.516H390.386ZM401.952 569.58C401.649 569.58 401.368 569.385 401.274 569.079C401.16 568.704 401.371 568.309 401.743 568.196C404.338 567.405 406.946 566.355 409.5 565.078C409.85 564.904 410.275 565.043 410.449 565.393C410.622 565.743 410.484 566.169 410.134 566.342C407.51 567.654 404.827 568.732 402.16 569.549C402.09 569.571 402.021 569.58 401.952 569.58ZM417.114 562.073C416.891 562.073 416.67 561.966 416.531 561.767C416.307 561.445 416.389 561.004 416.711 560.783C418.949 559.232 421.169 557.479 423.313 555.575C423.606 555.313 424.054 555.341 424.313 555.634C424.571 555.928 424.546 556.375 424.253 556.634C422.068 558.576 419.801 560.367 417.515 561.95C417.392 562.035 417.25 562.076 417.111 562.076L417.114 562.073ZM429.821 550.836C429.651 550.836 429.48 550.776 429.345 550.65C429.055 550.388 429.036 549.937 429.298 549.65C431.167 547.597 432.977 545.412 434.67 543.152C434.904 542.84 435.348 542.773 435.66 543.01C435.972 543.243 436.036 543.688 435.802 544C434.081 546.295 432.242 548.518 430.341 550.602C430.202 550.757 430.01 550.832 429.818 550.832L429.821 550.836ZM440.011 537.249C439.885 537.249 439.759 537.215 439.643 537.145C439.308 536.94 439.204 536.505 439.406 536.171C440.92 533.693 442.272 531.202 443.423 528.761C443.59 528.408 444.013 528.257 444.366 528.424C444.719 528.591 444.87 529.014 444.703 529.367C443.53 531.851 442.156 534.389 440.614 536.909C440.481 537.126 440.248 537.249 440.008 537.249H440.011ZM447.128 521.844C447.062 521.844 446.999 521.834 446.932 521.815C446.557 521.708 446.34 521.314 446.447 520.939C447.109 518.643 447.443 516.66 447.443 515.046C447.443 514.235 447.358 513.539 447.185 512.965C447.071 512.59 447.285 512.195 447.661 512.085C448.036 511.972 448.43 512.186 448.543 512.561C448.755 513.264 448.859 514.1 448.859 515.046C448.859 516.793 448.506 518.905 447.806 521.33C447.717 521.639 447.434 521.841 447.125 521.841L447.128 521.844Z" fill="#005B5B"/>
<path d="M551.965 451.117C551.738 451.117 551.514 451.007 551.378 450.805C551.161 450.48 551.246 450.042 551.571 449.821L556.127 446.753C556.451 446.536 556.89 446.621 557.11 446.946C557.328 447.27 557.243 447.709 556.918 447.929L552.362 450.997C552.242 451.079 552.103 451.117 551.968 451.117H551.965Z" fill="#005B5B"/>
<path d="M541.355 458.273C541.128 458.273 540.904 458.163 540.769 457.961C540.551 457.636 540.636 457.198 540.961 456.977L545.517 453.909C545.842 453.692 546.28 453.777 546.501 454.102C546.719 454.427 546.633 454.865 546.309 455.086L541.753 458.153C541.633 458.235 541.494 458.273 541.358 458.273H541.355Z" fill="#005B5B"/>
<path d="M546.9 450.129C546.673 450.129 546.449 450.018 546.313 449.816L543.245 445.26C543.028 444.936 543.113 444.497 543.438 444.277C543.762 444.059 544.204 444.144 544.421 444.469L547.489 449.025C547.707 449.35 547.622 449.788 547.297 450.009C547.177 450.091 547.038 450.129 546.903 450.129H546.9Z" fill="#005B5B"/>
<path d="M554.045 460.738C553.818 460.738 553.595 460.628 553.456 460.426L550.388 455.87C550.17 455.545 550.256 455.107 550.58 454.886C550.905 454.668 551.346 454.754 551.564 455.078L554.632 459.634C554.849 459.959 554.764 460.397 554.44 460.618C554.32 460.7 554.181 460.738 554.045 460.738Z" fill="#005B5B"/>
<path d="M392.117 22.9228C392.054 22.9228 391.987 22.9134 391.924 22.8976C353.398 12.0323 312.56 11.5373 273.829 21.4661C273.447 21.5639 273.062 21.3337 272.968 20.9554C272.87 20.577 273.1 20.1892 273.479 20.0946C312.453 10.1059 353.543 10.604 392.312 21.5355C392.687 21.6427 392.908 22.0337 392.801 22.4089C392.713 22.721 392.429 22.926 392.12 22.926L392.117 22.9228Z" fill="#E6F2F2"/>
<path d="M412.365 15.825C412.29 15.825 412.211 15.8124 412.135 15.7872C360.029 -2.16285 304.936 -3.32 252.814 12.4356C252.439 12.5491 252.045 12.3378 251.931 11.9626C251.818 11.5874 252.029 11.1933 252.404 11.0798C304.813 -4.76093 360.208 -3.59747 412.596 14.4503C412.964 14.5765 413.163 14.98 413.034 15.3489C412.933 15.6422 412.659 15.825 412.365 15.825Z" fill="#E6F2F2"/>
<path d="M246.985 20.2937C246.985 20.2937 246.963 20.2937 246.954 20.2937L237.179 19.8491C236.927 19.8365 236.7 19.6915 236.583 19.4676C236.467 19.2437 236.479 18.9726 236.615 18.7613L242.994 8.7726C243.142 8.54243 243.403 8.41631 243.681 8.451C243.952 8.48568 244.179 8.67486 244.264 8.93341L247.66 19.3667C247.732 19.5874 247.691 19.8302 247.55 20.0162C247.414 20.1928 247.206 20.2968 246.985 20.2968V20.2937ZM238.466 18.4902L245.992 18.8307L243.378 10.7968L238.466 18.4902Z" fill="#E6F2F2"/>
<path d="M553.675 38.8125H42.1597C30.8705 38.8125 21.7188 47.9642 21.7188 59.2534V409.956C21.7188 421.245 30.8705 430.397 42.1597 430.397H553.675C564.964 430.397 574.116 421.245 574.116 409.956V59.2534C574.116 47.9642 564.964 38.8125 553.675 38.8125Z" fill="#007474"/>
<path d="M553.673 423.119H42.1614C34.9063 423.119 29.0039 417.217 29.0039 409.958V59.2591C29.0039 52.004 34.9063 46.1016 42.1614 46.1016H553.673C560.929 46.1016 566.834 52.004 566.834 59.2591V409.958C566.834 417.213 560.932 423.119 553.673 423.119ZM42.1614 47.5173C35.6851 47.5173 30.4196 52.7859 30.4196 59.2591V409.958C30.4196 416.435 35.6883 421.7 42.1614 421.7H553.673C560.15 421.7 565.415 416.431 565.415 409.958V59.2591C565.415 52.7828 560.147 47.5173 553.673 47.5173H42.1614Z" fill="#E6F2F2"/>
<path d="M555.944 132.729C555.553 132.729 555.234 132.411 555.234 132.02V108.186C555.234 107.795 555.553 107.477 555.944 107.477C556.335 107.477 556.653 107.795 556.653 108.186V132.02C556.653 132.411 556.335 132.729 555.944 132.729Z" fill="#E6F2F2"/>
<path d="M531.607 398.977H72.7309C66.1821 398.977 60.8535 393.649 60.8535 387.1V72.4867C60.8535 65.938 66.1821 60.6094 72.7309 60.6094H531.607C538.156 60.6094 543.484 65.938 543.484 72.4867V387.1C543.484 393.649 538.156 398.977 531.607 398.977ZM72.7309 62.0251C66.9609 62.0251 62.2692 66.7167 62.2692 72.4867V387.1C62.2692 392.87 66.9609 397.562 72.7309 397.562H531.607C537.377 397.562 542.068 392.87 542.068 387.1V72.4867C542.068 66.7199 537.374 62.0251 531.607 62.0251H72.7309Z" fill="#E6F2F2"/>
<path d="M230.628 192.06C247.411 175.277 247.411 148.067 230.628 131.284C213.845 114.501 186.634 114.501 169.851 131.284C153.068 148.067 153.068 175.277 169.851 192.06C186.634 208.843 213.845 208.843 230.628 192.06Z" fill="#008080"/>
<path d="M225.62 161.669L185.643 138.586V184.749L225.62 161.669Z" fill="#B0D8D8"/>
<path d="M337.418 260.053H80.3634C76.5231 260.053 73.3984 256.929 73.3984 253.088V76.8478C73.3984 73.0074 76.5231 69.8828 80.3634 69.8828H337.418C341.259 69.8828 344.383 73.0074 344.383 76.8478V253.088C344.383 256.929 341.259 260.053 337.418 260.053ZM80.3634 71.2985C77.3019 71.2985 74.8141 73.7862 74.8141 76.8478V253.088C74.8141 256.147 77.3019 258.637 80.3634 258.637H337.418C340.48 258.637 342.968 256.147 342.968 253.088V76.8478C342.968 73.7894 340.48 71.2985 337.418 71.2985H80.3634Z" fill="#E6F2F2"/>
<path d="M487.986 397L491.955 384.205C491.955 384.205 495.442 383.779 496.666 383.65C518.112 381.373 507.351 338.48 489.502 328.45C478.536 322.289 465.413 321.454 452.631 321.999C443.639 322.384 434.908 322.112 426.805 326.962C415.293 333.851 405.427 345.719 399.323 363.921L393.783 396.996H487.986V397Z" fill="#E6F2F2"/>
<path d="M487.985 397.703H393.783C393.575 397.703 393.376 397.612 393.244 397.451C393.108 397.293 393.051 397.082 393.086 396.877L398.626 363.802C398.632 363.764 398.642 363.729 398.654 363.695C404.421 346.498 413.77 333.934 426.445 326.351C433.801 321.949 441.482 321.681 449.613 321.4C450.606 321.366 451.606 321.331 452.605 321.287C463.685 320.814 477.93 321.129 489.855 327.826C502.073 334.69 511.762 357.644 508.707 372.482C507.247 379.57 503.11 383.672 496.744 384.347C495.795 384.448 493.484 384.725 492.5 384.845L488.666 397.202C488.575 397.498 488.301 397.7 487.992 397.7L487.985 397.703ZM394.615 396.284H487.462L491.277 383.987C491.359 383.723 491.592 383.527 491.867 383.496C491.867 383.496 495.36 383.07 496.59 382.941C503.782 382.178 506.389 376.676 507.313 372.198C510.268 357.855 500.935 335.683 489.155 329.065C477.546 322.542 463.553 322.239 452.659 322.706C451.653 322.75 450.654 322.784 449.654 322.819C441.712 323.097 434.208 323.355 427.164 327.571C414.801 334.968 405.663 347.258 400.007 364.095L394.615 396.291V396.284Z" fill="#005B5B"/>
<path d="M461.791 302.676C464.383 303.981 466.335 304.171 467.741 304.089C472.827 303.795 476.087 299.696 476.74 298.877C484.802 288.743 478.814 276.144 470.828 268.059C468.952 266.161 466.817 264.421 464.288 263.569C462.277 262.891 460.117 262.803 457.998 262.857C450.406 263.04 442.142 265.42 438.04 271.811C435.621 275.576 439.884 283.206 443.106 285.174C445.95 286.908 448.946 285.959 451.238 288.667C455.214 293.365 455.788 299.649 461.791 302.676Z" fill="#005B5B"/>
<path d="M447.361 320.314L449.458 307.26C448.997 307.21 445.132 306.535 444.69 306.314C441.112 304.533 442.108 295.553 442.108 295.553L440.119 293.176L446.053 279.898C452.352 285.148 454.6 279.993 460.837 282.575C467.074 285.158 463.69 292.104 463.69 292.104C463.69 292.104 468.786 289.859 467.698 294.787C466.875 298.511 464.163 298.744 462.379 298.593L465.702 320.973C465.702 320.973 476.4 324.012 478.472 324.561C475.779 324.435 457.161 332.532 436.045 323.681L447.364 320.311L447.361 320.314Z" fill="#E6F2F2"/>
<path d="M456.95 328.53C450.609 328.53 443.342 327.512 435.768 324.34C435.491 324.223 435.317 323.949 435.333 323.649C435.349 323.35 435.551 323.094 435.838 323.009L446.731 319.765L448.645 307.853C447.365 307.641 444.849 307.191 444.373 306.954C440.734 305.141 441.201 297.596 441.371 295.783L439.574 293.636C439.4 293.428 439.359 293.141 439.47 292.892L445.404 279.614C445.495 279.413 445.675 279.264 445.889 279.214C446.107 279.163 446.331 279.217 446.504 279.359C449.837 282.137 451.874 281.796 454.229 281.402C456.105 281.09 458.227 280.734 461.106 281.925C462.988 282.707 464.259 283.934 464.883 285.577C465.63 287.547 465.258 289.657 464.855 291.003C465.763 290.82 466.904 290.782 467.702 291.438C468.522 292.11 468.752 293.289 468.389 294.941C467.945 296.959 466.674 299.273 463.202 299.33L466.333 320.417C468.37 320.994 476.849 323.4 478.649 323.876C478.999 323.968 479.223 324.311 479.166 324.668C479.109 325.024 478.8 325.286 478.431 325.267C478.012 325.251 476.808 325.554 475.405 325.91C471.646 326.862 465.056 328.527 456.947 328.527L456.95 328.53ZM438.202 323.782C454.283 329.798 468.749 326.137 475.061 324.542C475.178 324.513 475.294 324.482 475.405 324.453C471.545 323.375 465.586 321.682 465.507 321.656C465.239 321.581 465.041 321.354 465 321.08L461.676 298.699C461.645 298.485 461.711 298.267 461.859 298.11C462.007 297.952 462.219 297.87 462.436 297.889C465.019 298.107 466.466 297.073 467.005 294.638C467.238 293.582 467.169 292.835 466.806 292.535C466.198 292.034 464.637 292.466 463.975 292.756C463.704 292.876 463.385 292.813 463.18 292.598C462.975 292.384 462.925 292.066 463.054 291.798C463.07 291.766 464.546 288.66 463.559 286.072C463.079 284.81 462.071 283.855 460.567 283.234C458.066 282.197 456.316 282.49 454.465 282.799C452.151 283.187 449.764 283.584 446.328 281.021L440.945 293.065L442.651 295.102C442.774 295.25 442.834 295.442 442.812 295.635C442.55 297.996 442.44 304.406 445.006 305.687C445.451 305.866 449.02 306.503 449.537 306.563C449.73 306.585 449.906 306.683 450.023 306.837C450.14 306.992 450.19 307.187 450.158 307.38L448.062 320.433C448.018 320.701 447.825 320.922 447.564 321.001L438.202 323.788V323.782Z" fill="#005B5B"/>
<path d="M450.915 308.067C450.423 308.067 449.906 308.032 449.364 307.959C448.976 307.906 448.705 307.549 448.759 307.162C448.812 306.774 449.175 306.503 449.556 306.556C455.134 307.319 457.679 303.097 457.704 303.053C457.902 302.716 458.334 302.602 458.672 302.801C459.009 303 459.123 303.432 458.924 303.769C458.814 303.958 456.332 308.063 450.915 308.063V308.067Z" fill="#005B5B"/>
<path d="M458.759 306.082C458.021 306.082 457.274 305.978 456.533 305.764L449.3 303.667C448.925 303.557 448.707 303.166 448.818 302.79C448.928 302.415 449.319 302.198 449.694 302.308L456.927 304.405C459.995 305.294 463.224 303.853 464.608 300.974L466.084 297.909C466.254 297.556 466.676 297.408 467.03 297.578C467.383 297.749 467.531 298.171 467.361 298.524L465.885 301.589C464.536 304.398 461.739 306.082 458.759 306.082Z" fill="#005B5B"/>
<path d="M468.043 292.812C467.942 292.812 467.842 292.79 467.744 292.746C467.391 292.582 467.236 292.159 467.4 291.806C467.438 291.724 471.165 283.596 468.879 277.577C467.983 275.218 466.252 273.468 463.74 272.381C463.38 272.226 463.216 271.807 463.371 271.45C463.525 271.091 463.941 270.927 464.301 271.082C467.179 272.327 469.166 274.345 470.203 277.079C472.7 283.659 468.847 292.049 468.68 292.405C468.56 292.664 468.305 292.815 468.037 292.815L468.043 292.812Z" fill="#E6F2F2"/>
<path d="M446.754 302.95C446.618 301.872 447.397 300.882 448.497 300.743C449.598 300.604 450.597 301.367 450.736 302.445C450.871 303.524 450.093 304.514 448.992 304.653C447.892 304.791 446.892 304.028 446.754 302.95Z" fill="#005B5B"/>
<path d="M461.248 295.134C460.863 292.104 462.805 289.364 465.583 289.014C465.889 288.976 467.018 288.948 467.314 288.967C469.723 289.128 470.965 291.165 471.306 293.86C471.675 296.767 470.565 299.485 467.967 300.002C467.86 300.025 467.09 300.084 466.977 300.084C463.934 300.094 461.632 298.161 461.251 295.131L461.248 295.134Z" fill="#005B5B"/>
<path d="M468.09 299.955C470.873 299.658 472.866 296.956 472.542 293.921C472.218 290.886 469.7 288.666 466.917 288.962C464.135 289.259 462.141 291.961 462.465 294.996C462.789 298.031 465.307 300.251 468.09 299.955Z" fill="#E6F2F2"/>
<path d="M467.572 300.721C466.228 300.721 464.933 300.222 463.873 299.286C462.678 298.233 461.921 296.745 461.748 295.102C461.572 293.456 461.997 291.845 462.943 290.562C463.905 289.259 465.283 288.452 466.831 288.288C469.99 287.951 472.872 290.458 473.234 293.875C473.6 297.293 471.321 300.352 468.152 300.689C467.96 300.711 467.764 300.721 467.572 300.721ZM467.398 289.676C467.26 289.676 467.118 289.682 466.976 289.698C465.828 289.821 464.8 290.426 464.078 291.403C463.343 292.4 463.012 293.661 463.151 294.951C463.29 296.243 463.876 297.404 464.807 298.223C465.718 299.027 466.853 299.403 467.997 299.28C470.387 299.024 472.103 296.666 471.822 294.024C471.557 291.539 469.615 289.672 467.398 289.672V289.676Z" fill="#005B5B"/>
<path d="M472.416 298.769C472.523 298.756 472.53 298.605 472.422 298.586C470.231 298.157 464.691 296.811 465.82 294.332C466.236 293.418 470.802 294.067 472.665 294.313C474.529 294.559 480.308 299.535 481.569 303.438C482.534 306.434 482.957 311.229 483.748 314.269C483.748 314.269 513.329 353.221 510.041 368.917C505.945 388.472 486.724 381.324 483.136 372.205C479.958 364.127 478.747 327.183 478.514 318.869C478.129 317.854 477.13 315.36 476.247 314.436C475.128 313.26 469.332 310.763 469.143 308.234C469.001 306.317 472.195 304.141 473.743 303.205C473.993 303.054 473.889 302.669 473.595 302.669C472.694 302.669 471.281 302.823 469.903 303.593C467.62 304.867 465.183 304.179 465.874 302.596C466.492 301.177 469.793 299.078 472.413 298.772L472.416 298.769Z" fill="#E6F2F2"/>
<path d="M497.538 382.067C491.314 382.067 484.604 377.867 482.479 372.463C479.332 364.464 478.112 329.686 477.81 319.007C477.047 317.011 476.274 315.488 475.735 314.921C475.451 314.624 474.65 314.129 473.799 313.603C471.481 312.171 468.593 310.39 468.439 308.284C468.313 306.597 470.009 304.907 471.882 303.573C471.359 303.699 470.8 303.898 470.252 304.207C468.533 305.165 466.579 305.222 465.601 304.333C465.037 303.822 464.898 303.066 465.229 302.309C465.778 301.051 467.824 299.569 469.93 298.718C467.852 298.125 465.872 297.239 465.21 295.952C464.898 295.344 464.889 294.682 465.182 294.035C465.648 293.011 467.433 292.897 472.528 293.575L472.762 293.606C475.022 293.906 480.95 299.2 482.246 303.217C482.804 304.945 483.179 307.224 483.542 309.428C483.816 311.093 484.078 312.673 484.399 313.953C486.499 316.734 513.993 353.504 510.733 369.058C508.517 379.633 502.217 381.717 498.66 382.017C498.288 382.048 497.916 382.064 497.538 382.064V382.067ZM473.597 301.959C474.048 301.959 474.433 302.252 474.556 302.687C474.679 303.125 474.499 303.576 474.111 303.81C471.406 305.449 469.773 307.123 469.851 308.18C469.955 309.564 472.718 311.27 474.546 312.398C475.555 313.023 476.353 313.515 476.763 313.943C477.699 314.924 478.68 317.292 479.178 318.616C479.206 318.689 479.222 318.767 479.222 318.846C479.433 326.306 480.644 363.928 483.797 371.943C485.806 377.051 492.701 381.099 498.541 380.607C504.008 380.147 507.845 375.941 509.349 368.768C512.534 353.567 483.479 315.082 483.185 314.694C483.129 314.618 483.088 314.533 483.066 314.445C482.709 313.076 482.435 311.418 482.145 309.658C481.789 307.505 481.423 305.282 480.896 303.652C479.676 299.872 474.023 295.202 472.576 295.013L472.339 294.981C468.174 294.426 466.815 294.515 466.434 294.704C466.352 294.921 466.364 295.104 466.468 295.303C466.957 296.255 469.293 297.245 472.563 297.888C472.954 297.964 473.225 298.308 473.209 298.705C473.194 299.102 472.897 299.424 472.5 299.471C469.981 299.764 466.995 301.801 466.528 302.876C466.408 303.154 466.497 303.233 466.553 303.286C466.935 303.633 468.224 303.718 469.564 302.971C471.062 302.135 472.585 301.959 473.6 301.959H473.597Z" fill="#005B5B"/>
<path d="M493.864 384.944C488.797 384.944 475.214 383.497 472.72 368.284C472.657 367.899 472.919 367.533 473.304 367.47C473.685 367.407 474.054 367.669 474.117 368.054C476.964 385.424 494.848 383.548 495.608 383.456C496.002 383.415 496.349 383.689 496.393 384.077C496.437 384.465 496.16 384.818 495.772 384.862C495.734 384.865 495.021 384.941 493.864 384.941V384.944Z" fill="#005B5B"/>
<path d="M385.219 392.82H429.096L396.566 342.791C395.551 341.227 393.779 340.281 391.875 340.281H356.265C354.004 340.281 352.629 342.703 353.837 344.56L385.216 392.82H385.219Z" fill="#005B5B"/>
<path d="M375.861 357.821C377.286 360.013 380.354 361.791 382.709 361.791C385.064 361.791 385.821 360.013 384.396 357.821C382.971 355.63 379.903 353.852 377.547 353.852C375.192 353.852 374.435 355.63 375.861 357.821Z" fill="#E6F2F2"/>
<path d="M462.81 396.984H389.43C387.018 396.984 385.06 395.026 385.06 392.614V392.45H467.18V392.614C467.18 395.026 465.222 396.984 462.81 396.984Z" fill="#005B5B"/>
<path d="M425.182 393.575H387.5C387.109 393.575 386.791 393.257 386.791 392.866C386.791 392.475 387.109 392.156 387.5 392.156H425.182C425.573 392.156 425.891 392.475 425.891 392.866C425.891 393.257 425.573 393.575 425.182 393.575Z" fill="#E6F2F2"/>
<path d="M421.616 274.977H367.419C365.841 274.977 364.562 276.256 364.562 277.833V297.495C364.562 299.073 365.841 300.352 367.419 300.352H421.616C423.194 300.352 424.473 299.073 424.473 297.495V277.833C424.473 276.256 423.194 274.977 421.616 274.977Z" fill="#E6F2F2"/>
<path d="M421.617 301.057H367.42C365.455 301.057 363.854 299.458 363.854 297.491V277.832C363.854 275.867 365.452 274.266 367.42 274.266H378.111C378.502 274.266 378.821 274.584 378.821 274.975C378.821 275.366 378.502 275.684 378.111 275.684H367.42C366.234 275.684 365.269 276.649 365.269 277.832V297.491C365.269 298.676 366.234 299.641 367.42 299.641H421.617C422.802 299.641 423.764 298.676 423.764 297.491V277.832C423.764 276.646 422.799 275.684 421.617 275.684H385.316C384.925 275.684 384.607 275.366 384.607 274.975C384.607 274.584 384.925 274.266 385.316 274.266H421.617C423.581 274.266 425.183 275.864 425.183 277.832V297.491C425.183 299.455 423.584 301.057 421.617 301.057Z" fill="#005B5B"/>
<path d="M416.566 285.044H373.493C373.102 285.044 372.783 284.725 372.783 284.334C372.783 283.943 373.102 283.625 373.493 283.625H416.566C416.957 283.625 417.275 283.943 417.275 284.334C417.275 284.725 416.957 285.044 416.566 285.044Z" fill="#005B5B"/>
<path d="M416.566 290.794H407.561C407.17 290.794 406.852 290.475 406.852 290.084C406.852 289.693 407.17 289.375 407.561 289.375H416.566C416.957 289.375 417.275 289.693 417.275 290.084C417.275 290.475 416.957 290.794 416.566 290.794Z" fill="#005B5B"/>
<path d="M401.803 290.794H373.493C373.102 290.794 372.783 290.475 372.783 290.084C372.783 289.693 373.102 289.375 373.493 289.375H401.803C402.194 289.375 402.513 289.693 402.513 290.084C402.513 290.475 402.194 290.794 401.803 290.794Z" fill="#005B5B"/>
<path d="M193.897 406.393C183.974 394.572 169.045 392.8 158.842 406.393H193.897Z" fill="#005B5B"/>
<path d="M88.1202 318.586V350.961C88.1202 382.623 105.752 408.292 127.501 408.292C149.251 408.292 166.882 433.96 166.882 465.623C166.882 468.445 165.271 470.731 163.282 470.731H59.0369C26.4316 470.731 0 432.251 0 384.783V315.701C0 296.82 10.5121 281.516 23.4804 281.516H62.6597C76.7221 281.516 88.1202 298.11 88.1202 318.579V318.586Z" fill="#005B5B"/>
<path d="M81.8368 573.094H91.2832L91.2832 457.498H81.8368L81.8368 573.094Z" fill="#005B5B"/>
<path d="M122.002 573.234L89.3492 569.375H86.357L53.0234 573.234V576.293H122.002V573.234Z" fill="#005B5B"/>
<path d="M201.029 538.815L207.597 545.73C210.097 548.363 211.51 551.847 211.548 555.476L211.604 560.704L230.92 555.403C226.707 550.907 222.454 546.755 219.597 541.297L213.622 529.867L201.029 538.815Z" fill="#E6F2F2"/>
<path d="M211.606 561.422C211.454 561.422 211.303 561.371 211.18 561.28C211.003 561.147 210.899 560.942 210.899 560.722L210.843 555.494C210.805 552.029 209.471 548.74 207.087 546.227L200.52 539.313C200.378 539.165 200.308 538.96 200.327 538.758C200.346 538.553 200.453 538.367 200.621 538.25L213.214 529.302C213.381 529.182 213.589 529.144 213.787 529.192C213.986 529.239 214.156 529.371 214.251 529.551L220.226 540.981C222.688 545.694 226.195 549.393 229.906 553.312C230.413 553.851 230.927 554.39 231.438 554.933C231.608 555.113 231.671 555.371 231.602 555.611C231.536 555.85 231.347 556.036 231.107 556.103L211.792 561.403C211.729 561.419 211.665 561.428 211.606 561.428V561.422ZM202.106 538.928L208.112 545.25C210.745 548.021 212.217 551.654 212.258 555.478L212.302 559.788L229.597 555.04C229.357 554.785 229.117 554.532 228.878 554.28C225.097 550.288 221.525 546.521 218.971 541.633L213.371 530.923L202.106 538.928Z" fill="#005B5B"/>
<path d="M208.079 554.183C207.681 556.992 207.675 562.081 207.621 566.754C207.587 569.689 209.791 572.165 212.701 572.537C220.93 573.593 241.482 574.633 257.379 573.192C258.467 573.095 260.393 572.3 260.929 569.582C262.73 560.457 246.851 558.219 229.447 551.601C228.766 551.342 227.993 551.493 227.47 552.001L225.594 553.817C223.714 555.636 220.93 556.15 218.525 555.126L210.298 552.928C209.327 552.515 208.227 553.136 208.079 554.183Z" fill="#E6F2F2"/>
<path d="M239.732 574.598C228.287 574.598 217.56 573.87 212.61 573.233C209.325 572.81 206.875 570.02 206.913 566.741L206.928 565.233C206.972 561.005 207.017 556.632 207.379 554.078C207.48 553.359 207.903 552.741 208.533 552.385C209.148 552.038 209.873 551.991 210.526 552.253L218.708 554.441C218.739 554.45 218.771 554.46 218.803 554.472C220.95 555.39 223.422 554.929 225.099 553.306L226.975 551.49C227.691 550.796 228.76 550.578 229.696 550.935C233.757 552.48 237.664 553.76 241.438 554.999C253.552 558.975 263.121 562.112 261.623 569.717C261.062 572.571 259.019 573.753 257.443 573.895C251.821 574.406 245.679 574.601 239.732 574.601V574.598ZM208.779 554.274C208.432 556.739 208.388 561.062 208.344 565.246L208.328 566.753C208.3 569.313 210.217 571.495 212.79 571.826C220.256 572.785 240.984 573.961 257.316 572.479C257.711 572.444 259.703 572.129 260.236 569.436C261.494 563.064 252.896 560.242 241 556.339C237.21 555.093 233.287 553.81 229.195 552.253C228.769 552.092 228.284 552.189 227.962 552.502L226.086 554.318C224.008 556.329 220.956 556.903 218.295 555.79L210.116 553.605C210.084 553.596 210.053 553.586 210.021 553.574C209.763 553.463 209.476 553.479 209.23 553.618C208.984 553.757 208.82 553.996 208.782 554.277L208.779 554.274Z" fill="#005B5B"/>
<path d="M208.07 565.855C208.07 565.855 208.06 566.328 208.057 566.558C208.022 569.493 210.226 571.968 213.137 572.34C221.366 573.397 241.482 574.633 257.38 573.189C258.467 573.091 260.394 572.296 260.93 569.578C261.094 568.746 260.993 567.242 260.993 567.242L259.864 567.299C243.796 568.09 227.694 567.706 211.683 566.145L208.067 565.852L208.07 565.855Z" fill="#E6F2F2"/>
<path d="M241.084 574.564C229.178 574.564 218.026 573.687 213.048 573.051C209.762 572.628 207.312 569.838 207.35 566.559L207.363 565.849C207.366 565.654 207.451 565.468 207.596 565.338C207.741 565.206 207.933 565.143 208.129 565.159L211.745 565.452C227.681 567.006 243.856 567.391 259.835 566.603L260.964 566.546C261.345 566.527 261.679 566.82 261.705 567.205C261.717 567.369 261.806 568.826 261.629 569.724C261.068 572.578 259.025 573.76 257.448 573.902C252.186 574.378 246.558 574.564 241.087 574.564H241.084ZM208.763 566.628C208.763 569.166 210.67 571.316 213.224 571.644C220.441 572.571 240.715 573.996 257.316 572.492C257.71 572.458 259.703 572.143 260.235 569.45C260.311 569.071 260.321 568.482 260.314 567.993L259.901 568.012C243.852 568.803 227.608 568.416 211.616 566.855L208.763 566.625V566.628Z" fill="#005B5B"/>
<path d="M233.44 562.162C233.26 562.162 233.077 562.093 232.939 561.954C232.661 561.677 232.661 561.229 232.939 560.951L239.046 554.841C239.323 554.563 239.771 554.563 240.049 554.841C240.326 555.118 240.326 555.566 240.049 555.844L233.941 561.954C233.802 562.093 233.623 562.162 233.44 562.162Z" fill="#005B5B"/>
<path d="M239.439 562.793C239.262 562.793 239.086 562.726 238.947 562.594C238.666 562.323 238.657 561.875 238.928 561.591L243.809 556.521C244.08 556.241 244.528 556.231 244.812 556.502C245.092 556.773 245.102 557.221 244.83 557.505L239.95 562.575C239.811 562.72 239.625 562.793 239.439 562.793Z" fill="#005B5B"/>
<path d="M145.905 541.606C151.351 533.929 156.481 518.047 156.481 518.047L168.62 526.506L162.2 537.372C160.053 540.171 160.047 544.403 160.92 547.821L163.231 554.161L145.902 541.609L145.905 541.606Z" fill="#E6F2F2"/>
<path d="M163.234 554.873C163.089 554.873 162.944 554.829 162.818 554.738L145.489 542.186C145.174 541.959 145.101 541.52 145.325 541.202C150.644 533.701 155.755 517.993 155.806 517.835C155.875 517.621 156.042 517.454 156.253 517.381C156.465 517.309 156.701 517.343 156.884 517.472L169.023 525.929C169.326 526.14 169.417 526.55 169.228 526.868L162.812 537.734C162.796 537.759 162.78 537.781 162.764 537.803C161.04 540.054 160.608 543.734 161.61 547.647L163.9 553.918C164.007 554.211 163.909 554.539 163.66 554.725C163.534 554.82 163.382 554.867 163.234 554.867V554.873ZM146.883 541.445L161.778 552.234L160.258 548.066C159.132 543.69 159.649 539.572 161.614 536.977L167.677 526.714L156.856 519.175C155.708 522.587 151.486 534.612 146.883 541.445Z" fill="#005B5B"/>
<path d="M146.184 537.323C144.428 539.549 141.244 543.73 138.841 547.744C137.334 550.263 137.99 553.51 140.317 555.298C143.457 557.713 153.108 563.868 159.399 567.831C163.11 570.168 167.354 571.52 171.733 571.763L177.945 572.107C179.931 572.217 181.933 572.037 183.85 571.501C185.758 570.969 187.687 570.089 187.773 568.705C187.993 565.05 184.37 562.682 181.202 561.324C177.623 559.788 174.467 557.411 171.897 554.481C169.214 551.423 165.947 547.643 163.646 544.789C163.189 544.222 162.448 543.972 161.741 544.146L159.203 544.77C156.665 545.395 153.998 544.436 152.437 542.339L148.732 537.361C148.101 536.513 146.843 536.49 146.188 537.32L146.184 537.323Z" fill="#E6F2F2"/>
<path d="M179.055 572.851C178.673 572.851 178.289 572.842 177.901 572.82L171.69 572.476C167.2 572.227 162.817 570.83 159.018 568.434C151.977 564.001 142.944 558.218 139.882 555.863C137.256 553.842 136.546 550.197 138.233 547.381C140.67 543.308 143.912 539.058 145.627 536.885C146.075 536.318 146.765 535.99 147.468 536.009C148.193 536.018 148.859 536.359 149.294 536.942L152.999 541.92C154.392 543.793 156.76 544.645 159.027 544.087L161.565 543.462C162.533 543.223 163.564 543.573 164.189 544.348C166.56 547.284 169.974 551.228 172.421 554.019C174.972 556.929 178.103 559.23 181.473 560.678C186.247 562.727 188.665 565.521 188.473 568.753C188.385 570.234 186.89 571.388 184.037 572.189C182.463 572.631 180.792 572.851 179.055 572.851ZM147.437 537.424C147.162 537.424 146.91 537.547 146.74 537.762C145.047 539.906 141.846 544.102 139.45 548.107C138.135 550.304 138.693 553.155 140.749 554.737C143.927 557.181 154.033 563.613 159.774 567.233C163.372 569.5 167.521 570.821 171.772 571.057L177.983 571.401C179.979 571.511 181.886 571.316 183.658 570.821C185.777 570.228 187.016 569.443 187.064 568.664C187.259 565.401 183.829 563.225 180.918 561.977C177.355 560.448 174.051 558.017 171.362 554.952C168.905 552.152 165.475 548.192 163.091 545.237C162.808 544.887 162.344 544.733 161.906 544.837L159.368 545.461C156.546 546.158 153.601 545.099 151.867 542.765L148.162 537.787C147.992 537.56 147.736 537.427 147.452 537.424C147.449 537.424 147.443 537.424 147.44 537.424H147.437Z" fill="#005B5B"/>
<path d="M139.207 547.148C139.207 547.148 138.961 547.552 138.841 547.751C137.334 550.27 137.99 553.518 140.317 555.305C145.179 559.045 154.871 565.849 165.553 571.663C171.632 574.971 182.4 573.501 184.692 573.161C186.287 572.924 187.612 571.843 187.665 570.232L187.75 567.652C187.75 567.652 173.685 569.683 168.4 566.259C159.02 560.18 150.04 554.971 140.972 548.425L139.207 547.152V547.148Z" fill="#E6F2F2"/>
<path d="M176.574 574.491C172.661 574.491 168.364 573.996 165.214 572.281C155.165 566.81 145.542 560.214 139.886 555.863C137.259 553.842 136.55 550.197 138.237 547.381L138.606 546.776C138.71 546.609 138.877 546.489 139.069 546.451C139.262 546.413 139.463 546.454 139.624 546.571L141.39 547.845C147.482 552.243 153.422 555.964 159.712 559.905C162.666 561.756 165.725 563.673 168.786 565.656C173.793 568.901 187.515 566.965 187.651 566.946C187.862 566.917 188.067 566.98 188.225 567.119C188.379 567.258 188.467 567.46 188.461 567.671L188.376 570.25C188.316 572.098 186.878 573.548 184.8 573.857C182.984 574.125 179.923 574.488 176.577 574.488L176.574 574.491ZM139.413 548.173C138.142 550.361 138.71 553.177 140.747 554.744C146.359 559.06 155.913 565.609 165.889 571.041C171.507 574.1 181.622 572.902 184.586 572.463C185.652 572.306 186.91 571.622 186.957 570.209L187.014 568.462C183.851 568.847 172.759 569.928 168.014 566.851C164.959 564.871 161.91 562.96 158.958 561.109C152.649 557.156 146.687 553.422 140.558 548.996L139.413 548.17V548.173Z" fill="#005B5B"/>
<path d="M162.126 556.045C161.811 556.045 161.527 555.834 161.442 555.518C161.341 555.14 161.568 554.752 161.946 554.654L170.302 552.454C170.683 552.353 171.068 552.58 171.166 552.958C171.267 553.336 171.04 553.724 170.661 553.822L162.306 556.023C162.246 556.039 162.186 556.045 162.126 556.045Z" fill="#005B5B"/>
<path d="M166.99 559.615C166.681 559.615 166.397 559.413 166.309 559.101C166.201 558.726 166.419 558.335 166.797 558.228L173.567 556.307C173.945 556.203 174.336 556.418 174.44 556.796C174.547 557.171 174.33 557.562 173.951 557.67L167.182 559.59C167.116 559.609 167.053 559.618 166.99 559.618V559.615Z" fill="#005B5B"/>
<path d="M105.749 413.514C105.749 413.514 182.291 410.963 209.502 427.16C235.36 442.553 165.23 536.821 165.23 536.821L150.635 528.832L169.083 465.62C170.37 460.985 167.671 456.183 163.045 454.868L96.9805 436.108L105.749 413.514Z" fill="#E6F2F2"/>
<path d="M165.23 537.525C165.113 537.525 164.997 537.496 164.889 537.436L150.294 529.447C150.001 529.286 149.862 528.945 149.954 528.627L168.402 465.415C169.578 461.181 167.087 456.748 162.849 455.543L96.7846 436.78C96.5922 436.726 96.4314 436.594 96.3431 436.414C96.2549 436.234 96.2454 436.029 96.3179 435.843L105.086 413.249C105.19 412.984 105.44 412.807 105.723 412.798C108.857 412.694 182.783 410.427 209.861 426.542C212.85 428.323 214.761 431.183 215.53 435.049C221.029 462.584 168.052 534.198 165.794 537.234C165.656 537.42 165.444 537.521 165.227 537.521L165.23 537.525ZM151.473 528.479L165.025 535.898C169.805 529.38 219.288 461.083 214.146 435.329C213.455 431.874 211.772 429.329 209.139 427.762C183.517 412.511 112.698 414.031 106.237 414.201L97.9196 435.632L163.237 454.181C168.222 455.597 171.151 460.809 169.764 465.803L151.473 528.479Z" fill="#005B5B"/>
<path d="M66.4426 457.005C78.1371 460.716 89.9735 460.234 119.221 459.833C127.532 459.72 139.29 467.114 143.064 474.517C151.728 491.505 175.455 527.626 205.998 547.455L220.587 539.595L178.377 450.254C174.979 442.602 168.622 436.656 160.758 433.771L86.9687 406.711C86.9687 406.711 67.6912 400.689 56.4728 421.114C54.4706 424.762 53.1085 428.051 52.2225 430.996C49.1862 441.089 56.3971 453.814 66.4426 457.002V457.005Z" fill="#E6F2F2"/>
<path d="M206.002 548.159C205.867 548.159 205.734 548.122 205.617 548.046C175.115 528.245 151.553 492.711 142.438 474.836C138.701 467.512 127.193 460.411 119.235 460.537L112.988 460.626C88.3919 460.982 77.1672 461.146 66.2325 457.674C55.7393 454.345 48.4685 441.027 51.549 430.789C52.5075 427.598 53.9579 424.231 55.856 420.772C67.2226 400.079 86.9856 405.972 87.1843 406.031L161.006 433.1C169.002 436.032 175.569 442.177 179.028 449.959L221.231 539.287C221.392 539.627 221.259 540.034 220.925 540.214L206.336 548.074C206.232 548.131 206.116 548.159 206.002 548.159ZM119.405 459.122C127.817 459.122 139.789 466.531 143.696 474.193C152.092 490.658 175.888 526.899 206.034 546.63L219.661 539.287L177.739 450.552C174.428 443.101 168.153 437.234 160.517 434.431L86.7271 407.371C85.9956 407.144 67.891 401.791 57.0951 421.453C55.2443 424.823 53.8318 428.102 52.9016 431.196C50.0229 440.759 56.8366 453.207 66.6582 456.325C77.3721 459.727 88.5274 459.563 112.966 459.21L119.212 459.122C119.276 459.122 119.342 459.122 119.405 459.122Z" fill="#005B5B"/>
<path d="M205.302 277.613L212.408 269.037C212.932 268.403 213.966 268.794 213.934 269.614C213.884 270.97 213.764 272.669 213.48 274.129C213.298 275.069 214.032 275.936 214.991 275.904C215.338 275.891 215.665 275.885 215.971 275.885C217.478 275.876 218.907 275.236 219.916 274.116C221.104 272.798 222.599 271.175 223.17 270.714C224.172 269.907 225.462 268.668 226.931 268.495L226.975 268.488C228.511 268.321 229.577 269.983 228.782 271.307L226.651 274.873C224.261 278.871 220.657 281.999 216.362 283.806L209.959 286.495C208.896 286.943 208.205 287.99 208.218 289.144L208.445 314.03L200.244 305.583C200.244 305.583 201.02 290.597 202.631 283.074C203.06 281.066 203.993 279.199 205.305 277.616L205.302 277.613Z" fill="#E6F2F2"/>
<path d="M208.443 314.744C208.254 314.744 208.071 314.668 207.936 314.529L199.735 306.082C199.596 305.94 199.527 305.748 199.536 305.553C199.568 304.938 200.334 290.421 201.935 282.933C202.38 280.852 203.357 278.862 204.757 277.169L211.864 268.593C212.299 268.067 212.996 267.884 213.636 268.126C214.273 268.369 214.67 268.965 214.645 269.649C214.579 271.469 214.421 273.023 214.175 274.272C214.128 274.508 214.191 274.748 214.349 274.931C214.503 275.114 214.737 275.211 214.967 275.202C215.32 275.189 215.654 275.183 215.966 275.183C217.272 275.173 218.52 274.615 219.39 273.647C221.115 271.734 222.238 270.561 222.726 270.166C222.865 270.056 223.007 269.936 223.152 269.816C224.142 268.994 225.375 267.969 226.847 267.799C227.875 267.685 228.815 268.136 229.348 268.965C229.881 269.794 229.896 270.835 229.389 271.68L227.257 275.246C224.773 279.402 221.099 282.589 216.635 284.465L210.231 287.155C209.427 287.492 208.916 288.271 208.922 289.144L209.15 314.031C209.15 314.321 208.979 314.583 208.711 314.693C208.623 314.728 208.532 314.747 208.443 314.747V314.744ZM200.967 305.316L207.721 312.272L207.51 289.157C207.497 287.71 208.352 286.411 209.686 285.85L216.089 283.16C220.273 281.401 223.716 278.415 226.043 274.518L228.175 270.952C228.405 270.564 228.399 270.107 228.156 269.728C227.913 269.35 227.5 269.151 227.052 269.199C225.958 269.325 224.949 270.163 224.06 270.904C223.906 271.034 223.757 271.157 223.616 271.27C223.373 271.465 222.638 272.156 220.447 274.593C219.312 275.854 217.685 276.586 215.982 276.595C215.683 276.595 215.361 276.602 215.02 276.614C214.349 276.64 213.712 276.356 213.277 275.845C212.839 275.334 212.662 274.659 212.791 273.997C213.018 272.837 213.17 271.314 213.233 269.593C213.233 269.567 213.236 269.485 213.135 269.448C213.031 269.407 212.977 269.473 212.958 269.495L205.851 278.071C204.597 279.588 203.723 281.369 203.323 283.226C201.869 290.015 201.09 303.141 200.967 305.316Z" fill="#005B5B"/>
<path d="M68.1731 296.038C68.1731 296.038 78.4645 294.366 87.0154 289.99C90.5468 288.183 100.053 284.917 105.833 291.97C110.064 297.135 115.446 304.081 121.569 310.144C124.111 312.66 124.94 316.491 124.94 316.491C124.94 316.491 116.865 314.981 102.144 310.138C87.4222 305.298 68.1699 296.038 68.1699 296.038H68.1731Z" fill="#E6F2F2"/>
<path d="M124.944 317.192C124.9 317.192 124.856 317.189 124.815 317.179C124.733 317.164 116.525 315.603 101.927 310.804C87.3285 306.005 68.0605 296.761 67.8682 296.669C67.5907 296.537 67.4299 296.237 67.474 295.931C67.5182 295.626 67.7547 295.383 68.0605 295.332C68.1614 295.317 78.3456 293.627 86.6916 289.354C87.9843 288.692 99.5117 283.136 106.379 291.517C107.085 292.381 107.826 293.292 108.596 294.241C112.338 298.86 116.995 304.612 122.068 309.634C124.729 312.267 125.6 316.17 125.634 316.334C125.685 316.568 125.615 316.807 125.452 316.978C125.316 317.116 125.133 317.192 124.944 317.192ZM70.4316 296.313C75.6939 298.775 90.5761 305.58 102.368 309.458C113.77 313.207 121.23 314.963 123.935 315.549C123.512 314.288 122.63 312.179 121.072 310.637C115.942 305.561 111.26 299.775 107.495 295.13C106.729 294.181 105.991 293.273 105.285 292.413C99.1208 284.893 88.5267 290.007 87.338 290.615C81.1234 293.797 73.9377 295.575 70.4316 296.316V296.313Z" fill="#005B5B"/>
<path d="M70.8351 320.341C70.8351 320.341 63.7755 320.127 60.5153 315.731C53.8782 306.783 53.0931 288.805 89.8067 298.595C101.788 301.789 113.502 312.531 113.502 312.531L123.534 323.608L70.8351 320.341Z" fill="#E6F2F2"/>
<path d="M210.507 291.023H199.109C199.109 291.023 196.709 317.499 166.853 323.626C146.977 327.706 137.593 323.657 134.951 322.14C134.8 322.046 134.522 321.866 134.138 321.617C132.391 320.482 128.573 317.994 125.713 316.452C115.813 311.108 98.017 302.393 83.1568 311.31C43.1168 335.333 36.1014 390.337 48.5274 428.412C49.3598 430.966 51.0687 441.583 53.3231 443.15C67.4864 453.012 90.4497 441.362 90.4497 441.362C107.208 435.166 118.77 422.031 123.663 415.599C124.884 413.997 124.531 411.746 122.945 410.503C120.161 408.325 116.591 402.731 116.203 388.382C115.999 380.837 118.735 371.986 122.273 363.24C130.553 368.341 145.681 371.561 172.721 362.59C224.361 345.457 210.51 291.023 210.51 291.023H210.507Z" fill="#E6F2F2"/>
<path d="M67.5161 447.86C62.4492 447.86 57.3003 446.791 52.9145 443.739C51.1804 442.532 49.9759 437.726 48.6863 432.042C48.3521 430.566 48.0652 429.292 47.8508 428.639C35.0212 389.331 42.9037 334.639 82.7861 310.711C96.9525 302.21 113.345 308.986 126.045 315.838C128.839 317.345 132.559 319.76 134.347 320.92L134.521 321.031C134.899 321.277 135.173 321.453 135.321 321.545C137.667 322.888 146.925 326.996 166.71 322.938C195.679 316.992 198.378 291.225 198.404 290.964C198.438 290.598 198.744 290.32 199.11 290.32H210.508C210.833 290.32 211.113 290.541 211.195 290.853C211.23 290.992 214.664 304.796 211.675 320.52C208.909 335.077 199.945 354.311 172.943 363.268C145.843 372.261 130.687 368.915 122.621 364.277C118.557 374.468 116.741 382.139 116.908 388.369C117.286 402.318 120.635 407.804 123.378 409.952C125.301 411.459 125.673 414.129 124.223 416.031C118.85 423.093 107.357 435.854 90.7285 442.015C89.77 442.497 78.8511 447.854 67.5129 447.854L67.5161 447.86ZM97.4948 308.163C92.718 308.163 87.9885 309.241 83.5176 311.925C44.2627 335.478 36.5378 389.41 49.1971 428.201C49.4304 428.917 49.7111 430.159 50.0673 431.729C50.8461 435.173 52.2997 441.586 53.7217 442.576C67.371 452.079 89.8993 440.851 90.1231 440.738C90.1483 440.725 90.1736 440.715 90.1988 440.706C106.512 434.674 117.813 422.122 123.094 415.179C124.068 413.899 123.81 412.096 122.501 411.071C119.519 408.738 115.88 402.911 115.489 388.41C115.312 381.824 117.258 373.743 121.612 362.981C121.691 362.789 121.849 362.641 122.047 362.575C122.246 362.508 122.463 362.534 122.64 362.644C130.255 367.336 145.083 371.018 172.492 361.925C193.63 354.913 206.34 340.91 210.268 320.302C212.879 306.609 210.524 294.394 209.937 291.736H199.722C199.091 295.876 194.396 318.701 166.987 324.322C147.268 328.371 137.762 324.578 134.59 322.758C134.417 322.651 134.133 322.468 133.742 322.216L133.565 322.103C131.793 320.952 128.107 318.559 125.364 317.08C117.078 312.606 107.187 308.16 97.4854 308.16L97.4948 308.163Z" fill="#005B5B"/>
<path d="M116.848 329.942C117.756 337.04 119.925 346.064 125.071 355.324C141.492 384.871 167.996 393.308 174.498 394.592L165.017 402.528C165.017 402.528 104.17 408.5 84.1578 348.135C84.1578 348.135 76.4518 324.27 93.5852 318.371C97.1513 317.144 101.843 316.429 106.33 318.175C114.105 321.202 116.539 328.915 116.845 329.939L116.848 329.942Z" fill="#E6F2F2"/>
<path d="M160.599 403.386C154.794 403.386 144.014 402.73 132.194 398.748C116.009 393.293 94.4869 380.315 83.8645 349.473C83.7383 349.104 83.9338 348.7 84.3027 348.574C84.6716 348.448 85.0752 348.643 85.2013 349.012C95.6283 379.287 116.728 392.032 132.591 397.389C148.706 402.834 162.841 401.986 164.733 401.841L172.953 394.958C166.606 393.334 140.811 385.108 124.45 355.668C120.115 347.868 117.321 339.241 116.142 330.031C116.091 329.643 116.366 329.29 116.753 329.24C117.138 329.192 117.498 329.464 117.545 329.851C118.699 338.882 121.439 347.338 125.686 354.981C143.74 387.466 173.378 393.649 174.63 393.898C174.898 393.952 175.112 394.154 175.179 394.416C175.245 394.677 175.157 394.958 174.948 395.134L165.467 403.071C165.357 403.162 165.225 403.219 165.083 403.231C165.032 403.238 163.393 403.389 160.596 403.389L160.599 403.386Z" fill="#005B5B"/>
<path d="M132.696 357.56C132.58 357.56 132.463 357.531 132.353 357.471C132.012 357.282 131.886 356.85 132.079 356.51C138.035 345.777 136.654 333.887 136.638 333.77C136.59 333.382 136.865 333.029 137.256 332.982C137.644 332.935 137.997 333.209 138.044 333.597C138.107 334.101 139.494 346.067 133.318 357.197C133.188 357.43 132.946 357.563 132.696 357.563V357.56Z" fill="#005B5B"/>
<path d="M51.4765 440.555C51.1832 440.555 50.9121 440.372 50.808 440.082C49.963 437.68 49.2568 434.552 48.6861 432.042C48.3518 430.566 48.0649 429.293 47.8505 428.637C37.5433 397.053 39.7189 350.048 68.8558 321.476C69.1365 321.201 69.5842 321.208 69.8585 321.485C70.1328 321.766 70.1265 322.213 69.849 322.488C41.1409 350.638 39.0189 397.018 49.1969 428.199C49.4302 428.914 49.7108 430.157 50.0671 431.73C50.6283 434.205 51.3251 437.286 52.1418 439.612C52.271 439.981 52.0787 440.385 51.7098 440.514C51.631 440.543 51.5521 440.555 51.4765 440.555Z" fill="#005B5B"/>
<path d="M70.8368 321.055C70.8368 321.055 70.8211 321.055 70.8148 321.055C70.5121 321.045 63.3737 320.777 59.9495 316.161C56.6199 311.675 54.6935 305.034 57.8969 300.321C60.7725 296.089 68.6739 292.236 89.9914 297.921C97.3095 299.873 104.495 304.555 109.234 308.137C109.546 308.373 109.609 308.818 109.373 309.13C109.136 309.442 108.692 309.505 108.38 309.269C103.742 305.763 96.723 301.185 89.6256 299.293C73.6178 295.024 62.7652 295.673 59.0667 301.118C56.27 305.236 58.1523 311.369 61.0846 315.319C64.1052 319.39 70.7896 319.639 70.8558 319.642C71.2467 319.655 71.5526 319.98 71.5431 320.371C71.5305 320.755 71.2152 321.058 70.8368 321.058V321.055Z" fill="#005B5B"/>
<path d="M162.127 402.589C162.657 402.273 167.541 394.706 172.904 393.13C178.267 391.553 189.936 403.326 189.936 403.326L162.127 402.592V402.589Z" fill="#E6F2F2"/>
<path d="M189.934 404.036C189.934 404.036 189.921 404.036 189.915 404.036L162.106 403.301C161.79 403.292 161.519 403.077 161.44 402.771C161.368 402.488 161.475 402.188 161.712 402.018C161.819 401.914 162.128 401.52 162.427 401.138C164.165 398.931 168.235 393.763 172.703 392.452C178.306 390.806 189.212 401.592 190.435 402.828C190.64 403.033 190.697 403.342 190.584 403.607C190.47 403.866 190.215 404.033 189.934 404.033V404.036ZM163.613 401.92L188.14 402.57C184.265 398.928 176.707 392.751 173.103 393.807C169.127 394.977 165.306 399.77 163.613 401.92Z" fill="#005B5B"/>
<path d="M119.085 317.371C121.466 317.872 123.865 316.598 124.78 314.344L128.377 305.49C128.737 304.636 129.604 304.106 130.528 304.182L135.853 304.608C136.988 304.699 138.044 304.021 138.435 302.952L141.056 295.792C141.056 295.792 141.068 295.773 141.081 295.77L143.818 294.915C144.363 294.745 144.672 294.171 144.511 293.622L142.897 288.026C142.582 286.935 142.979 281.206 141.856 281.045C141.856 281.045 124.379 270.87 117.348 277.558C115.485 279.33 114.794 282.01 115.33 284.526L116.008 287.707C116.771 291.289 116.26 295.076 114.356 298.204C113.848 299.039 113.252 299.828 112.578 300.553L105.691 307.738C104.512 308.968 104.812 310.983 106.303 311.809C109.696 313.688 115.318 316.586 119.082 317.377L119.085 317.371Z" fill="#E6F2F2"/>
<path d="M120.127 318.179C119.732 318.179 119.335 318.138 118.938 318.056C115.211 317.271 109.826 314.553 105.963 312.415C105.062 311.914 104.456 311.044 104.302 310.022C104.147 308.997 104.469 307.982 105.184 307.235L112.071 300.049C112.701 299.371 113.269 298.621 113.754 297.82C115.517 294.922 116.072 291.378 115.318 287.837L114.64 284.656C114.038 281.828 114.889 278.905 116.863 277.029C123.995 270.244 140.561 279.469 142.122 280.362C143.244 280.686 143.358 282.638 143.449 285.722C143.475 286.573 143.503 287.535 143.582 287.815L145.196 293.412C145.458 294.323 144.934 295.294 144.033 295.575L141.611 296.332L139.105 303.183C138.606 304.545 137.251 305.419 135.8 305.302L130.475 304.876C129.854 304.826 129.273 305.179 129.031 305.756L125.439 314.6C124.547 316.798 122.422 318.179 120.13 318.179H120.127ZM119.231 316.672C121.281 317.104 123.336 316.01 124.125 314.07L127.719 305.217C128.201 304.069 129.355 303.369 130.582 303.467L135.907 303.893C136.727 303.956 137.49 303.467 137.771 302.698L140.391 295.537C140.467 295.332 140.656 295.149 140.867 295.083L143.607 294.229C143.784 294.175 143.884 293.986 143.834 293.809L142.22 288.213C142.097 287.784 142.068 287.043 142.03 285.769C141.996 284.609 141.926 282.235 141.605 281.699C141.567 281.686 141.532 281.667 141.501 281.648C141.331 281.55 124.402 271.817 117.837 278.063C116.217 279.605 115.523 282.02 116.025 284.369L116.702 287.55C117.532 291.444 116.917 295.354 114.965 298.564C114.429 299.444 113.802 300.273 113.102 301.03L106.209 308.222C105.799 308.65 105.613 309.231 105.705 309.817C105.793 310.4 106.14 310.898 106.654 311.182C109.747 312.897 115.492 315.89 119.234 316.678L119.231 316.672Z" fill="#005B5B"/>
<path d="M125.766 287.258C125.363 284.108 123.748 282.799 124.351 281.368C124.679 280.583 125.492 280.208 125.952 279.996C128.241 278.937 130.707 280.337 135.809 282.367C142.143 284.887 142.856 285.23 144.192 284.981C147.588 284.354 150.139 280.832 150.899 277.676C151.113 276.79 152.116 272.063 148.559 268.828C145.99 266.492 142.064 265.865 138.53 267.208C138.435 266.233 138.114 264.824 136.988 263.941C134.314 261.848 129.219 264.379 127.437 265.265C125.788 266.085 122.787 267.876 120.167 271.556C119.646 271.114 117.673 269.55 115.131 269.847C111.351 270.285 109.632 274.453 109.475 274.847C107.649 279.467 110.783 284.417 113.148 288.156C114.847 290.846 115.579 291.445 116.843 292.675C117.092 292.596 117.414 292.492 117.745 292.384C118.732 292.066 119.255 290.988 118.886 290.017L118.861 289.95C118.47 288.922 118.284 287.822 118.373 286.728C118.445 285.855 118.688 284.969 119.328 284.615C120.362 284.045 121.778 284.83 121.983 284.943C123.279 285.662 123.789 286.971 123.994 287.951C124.13 288.601 125.911 288.295 125.776 287.255L125.766 287.258Z" fill="#005B5B"/>
<path d="M136.945 298.922C136.945 298.922 136.929 298.922 136.923 298.922L128.687 298.679C123.964 298.538 120.073 295.038 119.433 290.356L118.862 286.187C118.809 285.799 119.08 285.443 119.468 285.39C119.852 285.336 120.212 285.607 120.265 285.995L120.836 290.163C121.381 294.155 124.702 297.141 128.728 297.264L136.964 297.507C137.355 297.519 137.664 297.844 137.651 298.235C137.638 298.62 137.326 298.922 136.945 298.922Z" fill="#005B5B"/>
<path d="M116.533 286.076C116.205 286.076 115.912 285.846 115.839 285.514C115.811 285.382 113.159 272.202 122.391 268.047C122.747 267.886 123.167 268.047 123.327 268.403C123.488 268.759 123.327 269.179 122.971 269.34C114.767 273.032 117.198 285.101 117.223 285.224C117.305 285.606 117.059 285.981 116.675 286.063C116.624 286.073 116.577 286.079 116.529 286.079L116.533 286.076Z" fill="#E6F2F2"/>
<path d="M137.953 298.811C138.524 297.594 137.982 296.134 136.742 295.551C135.503 294.971 134.034 295.485 133.463 296.705C132.893 297.922 133.435 299.382 134.674 299.965C135.913 300.545 137.383 300.031 137.953 298.811Z" fill="#005B5B"/>
<path d="M127.518 287.212C128.855 283.05 126.846 278.683 123.031 277.457C122.612 277.321 121.032 276.984 120.61 276.933C117.176 276.527 114.89 279.065 113.702 282.77C112.418 286.764 113.26 290.882 116.782 292.295C116.927 292.355 117.996 292.642 118.154 292.673C122.435 293.49 126.181 291.374 127.521 287.212H127.518Z" fill="#005B5B"/>
<path d="M125.848 286.755C127.104 282.569 125.01 278.241 121.17 277.089C117.331 275.937 113.2 278.397 111.944 282.584C110.688 286.77 112.782 291.098 116.622 292.25C120.462 293.402 124.592 290.942 125.848 286.755Z" fill="#E6F2F2"/>
<path d="M118.562 293.259C117.843 293.259 117.125 293.155 116.421 292.943C112.215 291.682 109.904 286.95 111.269 282.397C111.928 280.202 113.335 278.37 115.23 277.241C117.143 276.1 119.329 275.81 121.378 276.425C123.427 277.04 125.089 278.484 126.06 280.489C127.022 282.475 127.186 284.777 126.53 286.972C125.871 289.166 124.465 290.998 122.57 292.127C121.312 292.877 119.94 293.259 118.566 293.259H118.562ZM119.24 277.525C118.118 277.525 116.989 277.841 115.955 278.455C114.366 279.401 113.183 280.946 112.625 282.8C111.484 286.606 113.369 290.547 116.828 291.584C118.493 292.083 120.274 291.843 121.845 290.91C123.434 289.964 124.616 288.419 125.174 286.565C125.732 284.711 125.594 282.772 124.786 281.104C123.992 279.458 122.636 278.279 120.971 277.777C120.404 277.607 119.824 277.522 119.24 277.522V277.525Z" fill="#005B5B"/>
<path d="M25.2367 420.586L326.705 420.586C327.847 420.586 328.773 419.66 328.773 418.518V408.737C328.773 407.595 327.847 406.669 326.705 406.669L25.2367 406.669C24.0944 406.669 23.1684 407.595 23.1684 408.737V418.518C23.1684 419.66 24.0944 420.586 25.2367 420.586Z" fill="#E6F2F2"/>
<path d="M326.705 421.297H25.2368C23.7044 421.297 22.459 420.052 22.459 418.519V408.739C22.459 407.206 23.7044 405.961 25.2368 405.961H326.702C328.234 405.961 329.48 407.206 329.48 408.739V418.519C329.48 420.052 328.234 421.297 326.702 421.297H326.705ZM25.2368 407.383C24.4864 407.383 23.8747 407.995 23.8747 408.745V418.526C23.8747 419.276 24.4864 419.888 25.2368 419.888H326.702C327.452 419.888 328.064 419.276 328.064 418.526V408.745C328.064 407.995 327.452 407.383 326.702 407.383H25.2368Z" fill="#005B5B"/>
<path d="M124.381 417.355C123.99 417.355 123.672 417.037 123.672 416.646V410.248C123.672 409.858 123.99 409.539 124.381 409.539C124.772 409.539 125.091 409.858 125.091 410.248V416.646C125.091 417.037 124.772 417.355 124.381 417.355Z" fill="#005B5B"/>
<path d="M293.419 389.382L180.907 389.622C179.924 389.622 179.239 388.909 179.312 387.954L184.369 319.654C184.492 317.992 186.056 316.422 187.771 316.422L298.757 316.52L293.419 389.382Z" fill="#005B5B"/>
<path d="M180.911 390.335C180.227 390.335 179.612 390.079 179.183 389.616C178.764 389.165 178.559 388.556 178.609 387.907L183.667 319.606C183.821 317.535 185.738 315.719 187.772 315.719L298.761 315.816C298.956 315.816 299.145 315.898 299.278 316.043C299.41 316.189 299.48 316.381 299.464 316.576L294.129 389.436C294.101 389.805 293.795 390.092 293.423 390.092L180.911 390.331V390.335ZM187.769 317.138C186.46 317.138 185.174 318.364 185.076 319.714L180.018 388.014C180 388.273 180.069 388.493 180.22 388.654C180.378 388.824 180.624 388.919 180.911 388.919L292.764 388.682L297.998 317.235L187.772 317.138H187.769Z" fill="#005B5B"/>
<path d="M295.743 389.302H185.526C184.542 389.302 183.861 388.587 183.931 387.631L188.919 319.946C189.057 318.066 190.892 316.398 192.825 316.398H301.62C302.603 316.398 303.285 317.114 303.215 318.07L298.126 387.139C298.041 388.287 296.922 389.302 295.746 389.302H295.743Z" fill="#E6F2F2"/>
<path d="M295.742 390.007H185.525C184.844 390.007 184.232 389.752 183.8 389.291C183.381 388.84 183.176 388.229 183.223 387.576L188.212 319.89C188.375 317.652 190.532 315.688 192.821 315.688H301.616C302.297 315.688 302.912 315.943 303.34 316.403C303.76 316.854 303.965 317.466 303.917 318.118L298.828 387.188C298.715 388.717 297.302 390.007 295.742 390.007ZM192.821 317.103C191.257 317.103 189.734 318.481 189.621 319.991L184.633 387.677C184.614 387.935 184.683 388.159 184.835 388.323C184.992 388.494 185.238 388.588 185.522 388.588H295.738C296.542 388.588 297.356 387.857 297.413 387.081L302.502 318.011C302.521 317.753 302.451 317.529 302.3 317.365C302.142 317.195 301.896 317.1 301.613 317.1H192.818L192.821 317.103Z" fill="#005B5B"/>
<path d="M228.564 405.99H245.43L249.639 360.36C249.69 359.815 249.314 359.398 248.769 359.398H234.754C233.682 359.398 232.783 360.24 232.682 361.344L228.564 405.987V405.99Z" fill="#005B5B"/>
<path d="M231.213 405.99H248.081L252.231 360.344H235.362L231.213 405.99Z" fill="#E6F2F2"/>
<path d="M248.083 406.695H231.217C231.019 406.695 230.829 406.609 230.694 406.464C230.558 406.316 230.492 406.121 230.511 405.922L234.66 360.276C234.695 359.91 235.001 359.633 235.367 359.633H252.232C252.431 359.633 252.62 359.718 252.755 359.863C252.891 360.011 252.957 360.207 252.938 360.405L248.789 406.051C248.754 406.417 248.448 406.695 248.083 406.695ZM231.99 405.279H247.433L251.453 361.049H236.01L231.99 405.279Z" fill="#005B5B"/>
<path d="M259.836 398.844H214.218C213.729 398.844 213.332 399.24 213.332 399.73V405.951C213.332 406.44 213.729 406.837 214.218 406.837H259.836C260.325 406.837 260.722 406.44 260.722 405.951V399.73C260.722 399.24 260.325 398.844 259.836 398.844Z" fill="#005B5B"/>
<path d="M263.106 399.547H215.717V406.137H263.106V399.547Z" fill="#E6F2F2"/>
<path d="M263.109 406.845H215.719C215.328 406.845 215.01 406.526 215.01 406.135V399.545C215.01 399.154 215.328 398.836 215.719 398.836H263.109C263.5 398.836 263.818 399.154 263.818 399.545V406.135C263.818 406.526 263.5 406.845 263.109 406.845ZM216.425 405.429H262.399V400.255H216.425V405.429Z" fill="#005B5B"/>
<path d="M310.36 576.995C309.969 576.995 309.65 576.676 309.65 576.285V424.389C309.65 423.998 309.969 423.68 310.36 423.68C310.751 423.68 311.069 423.998 311.069 424.389V576.285C311.069 576.676 310.751 576.995 310.36 576.995Z" fill="#005B5B"/>
<path d="M298.756 533.439C298.365 533.439 298.047 533.12 298.047 532.729V429.178C298.047 428.787 298.365 428.469 298.756 428.469C299.147 428.469 299.466 428.787 299.466 429.178V532.729C299.466 533.12 299.147 533.439 298.756 533.439Z" fill="#005B5B"/>
<path d="M53.0239 548.158C52.6329 548.158 52.3145 547.839 52.3145 547.448V486.967C52.3145 486.576 52.6329 486.258 53.0239 486.258C53.4149 486.258 53.7333 486.576 53.7333 486.967V547.448C53.7333 547.839 53.4149 548.158 53.0239 548.158Z" fill="#005B5B"/>
<path d="M42.9497 525.953C42.5587 525.953 42.2402 525.635 42.2402 525.244V476.663C42.2402 476.272 42.5587 475.953 42.9497 475.953C43.3406 475.953 43.6591 476.272 43.6591 476.663V525.244C43.6591 525.635 43.3406 525.953 42.9497 525.953Z" fill="#005B5B"/>
<path d="M502.346 109.242H358.049V122.352H502.346V109.242Z" fill="#8AC5C5"/>
<path d="M502.346 128.242H358.049V141.352H502.346V128.242Z" fill="#8AC5C5"/>
<path d="M502.346 147.258H358.049V152.813H502.346V147.258Z" fill="#8AC5C5"/>
<path d="M502.346 180.32H358.049V193.431H502.346V180.32Z" fill="#8AC5C5"/>
<path d="M502.346 199.32H358.049V212.431H502.346V199.32Z" fill="#8AC5C5"/>
<path d="M502.346 218.328H358.049V223.884H502.346V218.328Z" fill="#8AC5C5"/>
</g>
<defs>
<clipPath id="clip0_11948_12561">
<rect width="574.824" height="577" fill="white"/>
</clipPath>
</defs>
</svg>
