<svg width="1440" height="906" viewBox="0 0 1440 906" fill="none" xmlns="http://www.w3.org/2000/svg">
<g clip-path="url(#clip0_11948_11037)">
<g opacity="0.6" filter="url(#filter0_f_11948_11037)">
<ellipse cx="109.5" cy="-51" rx="403.5" ry="377" fill="#59DBB0"/>
</g>
<g clip-path="url(#clip1_11948_11037)">
<g opacity="0.3">
<path d="M-68.5755 -0.575455H-89V-21L-68.5755 -0.575455Z" fill="white"/>
<path d="M-48.1509 -0.575455H-68.5755V-21L-48.1509 -0.575455Z" fill="white"/>
<path d="M-27.7264 -0.575455H-48.1509V-21L-27.7264 -0.575455Z" fill="white"/>
<path d="M-7.30182 -0.575455H-27.7264V-21L-7.30182 -0.575455Z" fill="white"/>
<path d="M13.1273 -0.575455H-7.30182V-21L13.1273 -0.575455Z" fill="white"/>
<path d="M33.5518 -0.575455H13.1273V-21L33.5518 -0.575455Z" fill="white"/>
<path d="M53.9764 -0.575455H33.5518V-21L53.9764 -0.575455Z" fill="white"/>
<path d="M74.4009 -0.575455H53.9764V-21L74.4009 -0.575455Z" fill="white"/>
<path d="M94.8255 -0.575455H74.4009V-21L94.8255 -0.575455Z" fill="white"/>
<path d="M115.25 -0.575455H94.8255V-21L115.25 -0.575455Z" fill="white"/>
<path d="M135.675 -0.575455H115.25V-21L135.675 -0.575455Z" fill="white"/>
<path d="M156.099 -0.575455H135.675V-21L156.099 -0.575455Z" fill="white"/>
<path d="M176.524 -0.575455H156.099V-21L176.524 -0.575455Z" fill="white"/>
<path d="M196.953 -0.575455H176.524V-21L196.953 -0.575455Z" fill="white"/>
<path d="M217.377 -0.575455H196.953V-21L217.377 -0.575455Z" fill="white"/>
<path d="M237.802 -0.575455H217.377V-21L237.802 -0.575455Z" fill="white"/>
<path d="M258.226 -0.575455H237.802V-21L258.226 -0.575455Z" fill="white"/>
<path d="M278.651 -0.575455H258.226V-21L278.651 -0.575455Z" fill="white"/>
<path d="M299.076 -0.575455H278.651V-21L299.076 -0.575455Z" fill="white"/>
<path d="M319.5 -0.575455H299.076V-21L319.5 -0.575455Z" fill="white"/>
<path d="M339.925 -0.575455H319.5V-21L339.925 -0.575455Z" fill="white"/>
<path d="M360.354 -0.575455H339.925V-21L360.354 -0.575455Z" fill="white"/>
<path d="M380.778 -0.575455H360.354V-21L380.778 -0.575455Z" fill="white"/>
<path d="M401.203 -0.575455H380.778V-21L401.203 -0.575455Z" fill="white"/>
<path d="M421.627 -0.575455H401.203V-21L421.627 -0.575455Z" fill="white"/>
<path d="M442.052 -0.575455H421.627V-21L442.052 -0.575455Z" fill="white"/>
<path d="M462.476 -0.575455H442.052V-21L462.476 -0.575455Z" fill="white"/>
<path d="M482.901 -0.575455H462.476V-21L482.901 -0.575455Z" fill="white"/>
<path d="M503.326 -0.575455H482.901V-21L503.326 -0.575455Z" fill="white"/>
<path d="M523.755 -0.575455H503.326V-21L523.755 -0.575455Z" fill="white"/>
<path d="M544.179 -0.575455H523.755V-21L544.179 -0.575455Z" fill="white"/>
<path d="M564.604 -0.575455H544.179V-21L564.604 -0.575455Z" fill="white"/>
<path d="M585.028 -0.575455H564.604V-21L585.028 -0.575455Z" fill="white"/>
<path d="M605.453 -0.575455H585.028V-21L605.453 -0.575455Z" fill="white"/>
<path d="M625.877 -0.575455H605.453V-21L625.877 -0.575455Z" fill="white"/>
<path d="M646.302 -0.575455H625.877V-21L646.302 -0.575455Z" fill="white"/>
<path d="M666.726 -0.575455H646.302V-21L666.726 -0.575455Z" fill="white"/>
<path d="M687.151 -0.575455H666.726V-21L687.151 -0.575455Z" fill="white"/>
<path d="M707.58 -0.575455H687.151V-21L707.58 -0.575455Z" fill="white"/>
<path d="M728.005 -0.575455H707.58V-21L728.005 -0.575455Z" fill="white"/>
<path d="M748.429 -0.575455H728.005V-21L748.429 -0.575455Z" fill="white"/>
<path d="M768.854 -0.575455H748.429V-21L768.854 -0.575455Z" fill="white"/>
<path d="M789.278 -0.575455H768.854V-21L789.278 -0.575455Z" fill="white"/>
<path d="M-68.5755 19.8537H-89V-0.575455L-68.5755 19.8537Z" fill="white"/>
<path d="M-48.1509 19.8537H-68.5755V-0.575455L-48.1509 19.8537Z" fill="white"/>
<path d="M-27.7264 19.8537H-48.1509V-0.575455L-27.7264 19.8537Z" fill="white"/>
<path d="M-7.30182 19.8537H-27.7264V-0.575455L-7.30182 19.8537Z" fill="white"/>
<path d="M13.1273 19.8537H-7.30182V-0.575455L13.1273 19.8537Z" fill="white"/>
<path d="M33.5518 19.8537H13.1273V-0.575455L33.5518 19.8537Z" fill="white"/>
<path d="M53.9764 19.8537H33.5518V-0.575455L53.9764 19.8537Z" fill="white"/>
<path d="M74.4009 19.8537H53.9764V-0.575455L74.4009 19.8537Z" fill="white"/>
<path d="M94.8255 19.8537H74.4009V-0.575455L94.8255 19.8537Z" fill="white"/>
<path d="M115.25 19.8537H94.8255V-0.575455L115.25 19.8537Z" fill="white"/>
<path d="M135.675 19.8537H115.25V-0.575455L135.675 19.8537Z" fill="white"/>
<path d="M156.099 19.8537H135.675V-0.575455L156.099 19.8537Z" fill="white"/>
<path d="M176.524 19.8537H156.099V-0.575455L176.524 19.8537Z" fill="white"/>
<path d="M196.953 19.8537H176.524V-0.575455L196.953 19.8537Z" fill="white"/>
<path d="M217.377 19.8537H196.953V-0.575455L217.377 19.8537Z" fill="white"/>
<path d="M237.802 19.8537H217.377V-0.575455L237.802 19.8537Z" fill="white"/>
<path d="M258.226 19.8537H237.802V-0.575455L258.226 19.8537Z" fill="white"/>
<path d="M278.651 19.8537H258.226V-0.575455L278.651 19.8537Z" fill="white"/>
<path d="M299.076 19.8537H278.651V-0.575455L299.076 19.8537Z" fill="white"/>
<path d="M319.5 19.8537H299.076V-0.575455L319.5 19.8537Z" fill="white"/>
<path d="M339.925 19.8537H319.5V-0.575455L339.925 19.8537Z" fill="white"/>
<path d="M360.354 19.8537H339.925V-0.575455L360.354 19.8537Z" fill="white"/>
<path d="M380.778 19.8537H360.354V-0.575455L380.778 19.8537Z" fill="white"/>
<path d="M401.203 19.8537H380.778V-0.575455L401.203 19.8537Z" fill="white"/>
<path d="M421.627 19.8537H401.203V-0.575455L421.627 19.8537Z" fill="white"/>
<path d="M442.052 19.8537H421.627V-0.575455L442.052 19.8537Z" fill="white"/>
<path d="M462.476 19.8537H442.052V-0.575455L462.476 19.8537Z" fill="white"/>
<path d="M482.901 19.8537H462.476V-0.575455L482.901 19.8537Z" fill="white"/>
<path d="M503.326 19.8537H482.901V-0.575455L503.326 19.8537Z" fill="white"/>
<path d="M523.755 19.8537H503.326V-0.575455L523.755 19.8537Z" fill="white"/>
<path d="M544.179 19.8537H523.755V-0.575455L544.179 19.8537Z" fill="white"/>
<path d="M564.604 19.8537H544.179V-0.575455L564.604 19.8537Z" fill="white"/>
<path d="M585.028 19.8537H564.604V-0.575455L585.028 19.8537Z" fill="white"/>
<path d="M605.453 19.8537H585.028V-0.575455L605.453 19.8537Z" fill="white"/>
<path d="M625.877 19.8537H605.453V-0.575455L625.877 19.8537Z" fill="white"/>
<path d="M646.302 19.8537H625.877V-0.575455L646.302 19.8537Z" fill="white"/>
<path d="M666.726 19.8537H646.302V-0.575455L666.726 19.8537Z" fill="white"/>
<path d="M687.151 19.8537H666.726V-0.575455L687.151 19.8537Z" fill="white"/>
<path d="M707.58 19.8537H687.151V-0.575455L707.58 19.8537Z" fill="white"/>
<path d="M728.005 19.8537H707.58V-0.575455L728.005 19.8537Z" fill="white"/>
<path d="M748.429 19.8537H728.005V-0.575455L748.429 19.8537Z" fill="white"/>
<path d="M768.854 19.8537H748.429V-0.575455L768.854 19.8537Z" fill="white"/>
<path d="M789.278 19.8537H768.854V-0.575455L789.278 19.8537Z" fill="white"/>
<path d="M-68.5755 40.2782H-89V19.8537L-68.5755 40.2782Z" fill="white"/>
<path d="M-48.1509 40.2782H-68.5755V19.8537L-48.1509 40.2782Z" fill="white"/>
<path d="M-27.7264 40.2782H-48.1509V19.8537L-27.7264 40.2782Z" fill="white"/>
<path d="M-7.30182 40.2782H-27.7264V19.8537L-7.30182 40.2782Z" fill="white"/>
<path d="M13.1273 40.2782H-7.30182V19.8537L13.1273 40.2782Z" fill="white"/>
<path d="M33.5518 40.2782H13.1273V19.8537L33.5518 40.2782Z" fill="white"/>
<path d="M53.9764 40.2782H33.5518V19.8537L53.9764 40.2782Z" fill="white"/>
<path d="M74.4009 40.2782H53.9764V19.8537L74.4009 40.2782Z" fill="white"/>
<path d="M94.8255 40.2782H74.4009V19.8537L94.8255 40.2782Z" fill="white"/>
<path d="M115.25 40.2782H94.8255V19.8537L115.25 40.2782Z" fill="white"/>
<path d="M135.675 40.2782H115.25V19.8537L135.675 40.2782Z" fill="white"/>
<path d="M156.099 40.2782H135.675V19.8537L156.099 40.2782Z" fill="white"/>
<path d="M176.524 40.2782H156.099V19.8537L176.524 40.2782Z" fill="white"/>
<path d="M196.953 40.2782H176.524V19.8537L196.953 40.2782Z" fill="white"/>
<path d="M217.377 40.2782H196.953V19.8537L217.377 40.2782Z" fill="white"/>
<path d="M237.802 40.2782H217.377V19.8537L237.802 40.2782Z" fill="white"/>
<path d="M258.226 40.2782H237.802V19.8537L258.226 40.2782Z" fill="white"/>
<path d="M278.651 40.2782H258.226V19.8537L278.651 40.2782Z" fill="white"/>
<path d="M299.076 40.2782H278.651V19.8537L299.076 40.2782Z" fill="white"/>
<path d="M319.5 40.2782H299.076V19.8537L319.5 40.2782Z" fill="white"/>
<path d="M339.925 40.2782H319.5V19.8537L339.925 40.2782Z" fill="white"/>
<path d="M360.354 40.2782H339.925V19.8537L360.354 40.2782Z" fill="white"/>
<path d="M380.778 40.2782H360.354V19.8537L380.778 40.2782Z" fill="white"/>
<path d="M401.203 40.2782H380.778V19.8537L401.203 40.2782Z" fill="white"/>
<path d="M421.627 40.2782H401.203V19.8537L421.627 40.2782Z" fill="white"/>
<path d="M442.052 40.2782H421.627V19.8537L442.052 40.2782Z" fill="white"/>
<path d="M462.476 40.2782H442.052V19.8537L462.476 40.2782Z" fill="white"/>
<path d="M482.901 40.2782H462.476V19.8537L482.901 40.2782Z" fill="white"/>
<path d="M503.326 40.2782H482.901V19.8537L503.326 40.2782Z" fill="white"/>
<path d="M523.755 40.2782H503.326V19.8537L523.755 40.2782Z" fill="white"/>
<path d="M544.179 40.2782H523.755V19.8537L544.179 40.2782Z" fill="white"/>
<path d="M564.604 40.2782H544.179V19.8537L564.604 40.2782Z" fill="white"/>
<path d="M585.028 40.2782H564.604V19.8537L585.028 40.2782Z" fill="white"/>
<path d="M605.453 40.2782H585.028V19.8537L605.453 40.2782Z" fill="white"/>
<path d="M625.877 40.2782H605.453V19.8537L625.877 40.2782Z" fill="white"/>
<path d="M646.302 40.2782H625.877V19.8537L646.302 40.2782Z" fill="white"/>
<path d="M666.726 40.2782H646.302V19.8537L666.726 40.2782Z" fill="white"/>
<path d="M687.151 40.2782H666.726V19.8537L687.151 40.2782Z" fill="white"/>
<path d="M707.58 40.2782H687.151V19.8537L707.58 40.2782Z" fill="white"/>
<path d="M728.005 40.2782H707.58V19.8537L728.005 40.2782Z" fill="white"/>
<path d="M748.429 40.2782H728.005V19.8537L748.429 40.2782Z" fill="white"/>
<path d="M768.854 40.2782H748.429V19.8537L768.854 40.2782Z" fill="white"/>
<path d="M789.278 40.2782H768.854V19.8537L789.278 40.2782Z" fill="white"/>
<path d="M-68.5755 60.7028H-89V40.2782L-68.5755 60.7028Z" fill="white"/>
<path d="M-48.1509 60.7028H-68.5755V40.2782L-48.1509 60.7028Z" fill="white"/>
<path d="M-27.7264 60.7028H-48.1509V40.2782L-27.7264 60.7028Z" fill="white"/>
<path d="M-7.30182 60.7028H-27.7264V40.2782L-7.30182 60.7028Z" fill="white"/>
<path d="M13.1273 60.7028H-7.30182V40.2782L13.1273 60.7028Z" fill="white"/>
<path d="M33.5518 60.7028H13.1273V40.2782L33.5518 60.7028Z" fill="white"/>
<path d="M53.9764 60.7028H33.5518V40.2782L53.9764 60.7028Z" fill="white"/>
<path d="M74.4009 60.7028H53.9764V40.2782L74.4009 60.7028Z" fill="white"/>
<path d="M94.8255 60.7028H74.4009V40.2782L94.8255 60.7028Z" fill="white"/>
<path d="M115.25 60.7028H94.8255V40.2782L115.25 60.7028Z" fill="white"/>
<path d="M135.675 60.7028H115.25V40.2782L135.675 60.7028Z" fill="white"/>
<path d="M156.099 60.7028H135.675V40.2782L156.099 60.7028Z" fill="white"/>
<path d="M176.524 60.7028H156.099V40.2782L176.524 60.7028Z" fill="white"/>
<path d="M196.953 60.7028H176.524V40.2782L196.953 60.7028Z" fill="white"/>
<path d="M217.377 60.7028H196.953V40.2782L217.377 60.7028Z" fill="white"/>
<path d="M237.802 60.7028H217.377V40.2782L237.802 60.7028Z" fill="white"/>
<path d="M258.226 60.7028H237.802V40.2782L258.226 60.7028Z" fill="white"/>
<path d="M278.651 60.7028H258.226V40.2782L278.651 60.7028Z" fill="white"/>
<path d="M299.076 60.7028H278.651V40.2782L299.076 60.7028Z" fill="white"/>
<path d="M319.5 60.7028H299.076V40.2782L319.5 60.7028Z" fill="white"/>
<path d="M339.925 60.7028H319.5V40.2782L339.925 60.7028Z" fill="white"/>
<path d="M360.354 60.7028H339.925V40.2782L360.354 60.7028Z" fill="white"/>
<path d="M380.778 60.7028H360.354V40.2782L380.778 60.7028Z" fill="white"/>
<path d="M401.203 60.7028H380.778V40.2782L401.203 60.7028Z" fill="white"/>
<path d="M421.627 60.7028H401.203V40.2782L421.627 60.7028Z" fill="white"/>
<path d="M442.052 60.7028H421.627V40.2782L442.052 60.7028Z" fill="white"/>
<path d="M462.476 60.7028H442.052V40.2782L462.476 60.7028Z" fill="white"/>
<path d="M482.901 60.7028H462.476V40.2782L482.901 60.7028Z" fill="white"/>
<path d="M503.326 60.7028H482.901V40.2782L503.326 60.7028Z" fill="white"/>
<path d="M523.755 60.7028H503.326V40.2782L523.755 60.7028Z" fill="white"/>
<path d="M544.179 60.7028H523.755V40.2782L544.179 60.7028Z" fill="white"/>
<path d="M564.604 60.7028H544.179V40.2782L564.604 60.7028Z" fill="white"/>
<path d="M585.028 60.7028H564.604V40.2782L585.028 60.7028Z" fill="white"/>
<path d="M605.453 60.7028H585.028V40.2782L605.453 60.7028Z" fill="white"/>
<path d="M625.877 60.7028H605.453V40.2782L625.877 60.7028Z" fill="white"/>
<path d="M646.302 60.7028H625.877V40.2782L646.302 60.7028Z" fill="white"/>
<path d="M666.726 60.7028H646.302V40.2782L666.726 60.7028Z" fill="white"/>
<path d="M687.151 60.7028H666.726V40.2782L687.151 60.7028Z" fill="white"/>
<path d="M707.58 60.7028H687.151V40.2782L707.58 60.7028Z" fill="white"/>
<path d="M728.005 60.7028H707.58V40.2782L728.005 60.7028Z" fill="white"/>
<path d="M748.429 60.7028H728.005V40.2782L748.429 60.7028Z" fill="white"/>
<path d="M768.854 60.7028H748.429V40.2782L768.854 60.7028Z" fill="white"/>
<path d="M789.278 60.7028H768.854V40.2782L789.278 60.7028Z" fill="white"/>
<path d="M-68.5755 81.1273H-89V60.7028L-68.5755 81.1273Z" fill="white"/>
<path d="M-48.1509 81.1273H-68.5755V60.7028L-48.1509 81.1273Z" fill="white"/>
<path d="M-27.7264 81.1273H-48.1509V60.7028L-27.7264 81.1273Z" fill="white"/>
<path d="M-7.30182 81.1273H-27.7264V60.7028L-7.30182 81.1273Z" fill="white"/>
<path d="M13.1273 81.1273H-7.30182V60.7028L13.1273 81.1273Z" fill="white"/>
<path d="M33.5518 81.1273H13.1273V60.7028L33.5518 81.1273Z" fill="white"/>
<path d="M53.9764 81.1273H33.5518V60.7028L53.9764 81.1273Z" fill="white"/>
<path d="M74.4009 81.1273H53.9764V60.7028L74.4009 81.1273Z" fill="white"/>
<path d="M94.8255 81.1273H74.4009V60.7028L94.8255 81.1273Z" fill="white"/>
<path d="M115.25 81.1273H94.8255V60.7028L115.25 81.1273Z" fill="white"/>
<path d="M135.675 81.1273H115.25V60.7028L135.675 81.1273Z" fill="white"/>
<path d="M156.099 81.1273H135.675V60.7028L156.099 81.1273Z" fill="white"/>
<path d="M176.524 81.1273H156.099V60.7028L176.524 81.1273Z" fill="white"/>
<path d="M196.953 81.1273H176.524V60.7028L196.953 81.1273Z" fill="white"/>
<path d="M217.377 81.1273H196.953V60.7028L217.377 81.1273Z" fill="white"/>
<path d="M237.802 81.1273H217.377V60.7028L237.802 81.1273Z" fill="white"/>
<path d="M258.226 81.1273H237.802V60.7028L258.226 81.1273Z" fill="white"/>
<path d="M278.651 81.1273H258.226V60.7028L278.651 81.1273Z" fill="white"/>
<path d="M299.076 81.1273H278.651V60.7028L299.076 81.1273Z" fill="white"/>
<path d="M319.5 81.1273H299.076V60.7028L319.5 81.1273Z" fill="white"/>
<path d="M339.925 81.1273H319.5V60.7028L339.925 81.1273Z" fill="white"/>
<path d="M360.354 81.1273H339.925V60.7028L360.354 81.1273Z" fill="white"/>
<path d="M380.778 81.1273H360.354V60.7028L380.778 81.1273Z" fill="white"/>
<path d="M401.203 81.1273H380.778V60.7028L401.203 81.1273Z" fill="white"/>
<path d="M421.627 81.1273H401.203V60.7028L421.627 81.1273Z" fill="white"/>
<path d="M442.052 81.1273H421.627V60.7028L442.052 81.1273Z" fill="white"/>
<path d="M462.476 81.1273H442.052V60.7028L462.476 81.1273Z" fill="white"/>
<path d="M482.901 81.1273H462.476V60.7028L482.901 81.1273Z" fill="white"/>
<path d="M503.326 81.1273H482.901V60.7028L503.326 81.1273Z" fill="white"/>
<path d="M523.755 81.1273H503.326V60.7028L523.755 81.1273Z" fill="white"/>
<path d="M544.179 81.1273H523.755V60.7028L544.179 81.1273Z" fill="white"/>
<path d="M564.604 81.1273H544.179V60.7028L564.604 81.1273Z" fill="white"/>
<path d="M585.028 81.1273H564.604V60.7028L585.028 81.1273Z" fill="white"/>
<path d="M605.453 81.1273H585.028V60.7028L605.453 81.1273Z" fill="white"/>
<path d="M625.877 81.1273H605.453V60.7028L625.877 81.1273Z" fill="white"/>
<path d="M646.302 81.1273H625.877V60.7028L646.302 81.1273Z" fill="white"/>
<path d="M666.726 81.1273H646.302V60.7028L666.726 81.1273Z" fill="white"/>
<path d="M687.151 81.1273H666.726V60.7028L687.151 81.1273Z" fill="white"/>
<path d="M707.58 81.1273H687.151V60.7028L707.58 81.1273Z" fill="white"/>
<path d="M728.005 81.1273H707.58V60.7028L728.005 81.1273Z" fill="white"/>
<path d="M748.429 81.1273H728.005V60.7028L748.429 81.1273Z" fill="white"/>
<path d="M768.854 81.1273H748.429V60.7028L768.854 81.1273Z" fill="white"/>
<path d="M789.278 81.1273H768.854V60.7028L789.278 81.1273Z" fill="white"/>
<path d="M-68.5755 101.552H-89V81.1273L-68.5755 101.552Z" fill="white"/>
<path d="M-48.1509 101.552H-68.5755V81.1273L-48.1509 101.552Z" fill="white"/>
<path d="M-27.7264 101.552H-48.1509V81.1273L-27.7264 101.552Z" fill="white"/>
<path d="M-7.30182 101.552H-27.7264V81.1273L-7.30182 101.552Z" fill="white"/>
<path d="M13.1273 101.552H-7.30182V81.1273L13.1273 101.552Z" fill="white"/>
<path d="M33.5518 101.552H13.1273V81.1273L33.5518 101.552Z" fill="white"/>
<path d="M53.9764 101.552H33.5518V81.1273L53.9764 101.552Z" fill="white"/>
<path d="M74.4009 101.552H53.9764V81.1273L74.4009 101.552Z" fill="white"/>
<path d="M94.8255 101.552H74.4009V81.1273L94.8255 101.552Z" fill="white"/>
<path d="M115.25 101.552H94.8255V81.1273L115.25 101.552Z" fill="white"/>
<path d="M135.675 101.552H115.25V81.1273L135.675 101.552Z" fill="white"/>
<path d="M156.099 101.552H135.675V81.1273L156.099 101.552Z" fill="white"/>
<path d="M176.524 101.552H156.099V81.1273L176.524 101.552Z" fill="white"/>
<path d="M196.953 101.552H176.524V81.1273L196.953 101.552Z" fill="white"/>
<path d="M217.377 101.552H196.953V81.1273L217.377 101.552Z" fill="white"/>
<path d="M237.802 101.552H217.377V81.1273L237.802 101.552Z" fill="white"/>
<path d="M258.226 101.552H237.802V81.1273L258.226 101.552Z" fill="white"/>
<path d="M278.651 101.552H258.226V81.1273L278.651 101.552Z" fill="white"/>
<path d="M299.076 101.552H278.651V81.1273L299.076 101.552Z" fill="white"/>
<path d="M319.5 101.552H299.076V81.1273L319.5 101.552Z" fill="white"/>
<path d="M339.925 101.552H319.5V81.1273L339.925 101.552Z" fill="white"/>
<path d="M360.354 101.552H339.925V81.1273L360.354 101.552Z" fill="white"/>
<path d="M380.778 101.552H360.354V81.1273L380.778 101.552Z" fill="white"/>
<path d="M401.203 101.552H380.778V81.1273L401.203 101.552Z" fill="white"/>
<path d="M421.627 101.552H401.203V81.1273L421.627 101.552Z" fill="white"/>
<path d="M442.052 101.552H421.627V81.1273L442.052 101.552Z" fill="white"/>
<path d="M462.476 101.552H442.052V81.1273L462.476 101.552Z" fill="white"/>
<path d="M482.901 101.552H462.476V81.1273L482.901 101.552Z" fill="white"/>
<path d="M503.326 101.552H482.901V81.1273L503.326 101.552Z" fill="white"/>
<path d="M523.755 101.552H503.326V81.1273L523.755 101.552Z" fill="white"/>
<path d="M544.179 101.552H523.755V81.1273L544.179 101.552Z" fill="white"/>
<path d="M564.604 101.552H544.179V81.1273L564.604 101.552Z" fill="white"/>
<path d="M585.028 101.552H564.604V81.1273L585.028 101.552Z" fill="white"/>
<path d="M605.453 101.552H585.028V81.1273L605.453 101.552Z" fill="white"/>
<path d="M625.877 101.552H605.453V81.1273L625.877 101.552Z" fill="white"/>
<path d="M646.302 101.552H625.877V81.1273L646.302 101.552Z" fill="white"/>
<path d="M666.726 101.552H646.302V81.1273L666.726 101.552Z" fill="white"/>
<path d="M687.151 101.552H666.726V81.1273L687.151 101.552Z" fill="white"/>
<path d="M707.58 101.552H687.151V81.1273L707.58 101.552Z" fill="white"/>
<path d="M728.005 101.552H707.58V81.1273L728.005 101.552Z" fill="white"/>
<path d="M748.429 101.552H728.005V81.1273L748.429 101.552Z" fill="white"/>
<path d="M768.854 101.552H748.429V81.1273L768.854 101.552Z" fill="white"/>
<path d="M789.278 101.552H768.854V81.1273L789.278 101.552Z" fill="white"/>
<path d="M-68.5755 121.976H-89V101.552L-68.5755 121.976Z" fill="white"/>
<path d="M-48.1509 121.976H-68.5755V101.552L-48.1509 121.976Z" fill="white"/>
<path d="M-27.7264 121.976H-48.1509V101.552L-27.7264 121.976Z" fill="white"/>
<path d="M-7.30182 121.976H-27.7264V101.552L-7.30182 121.976Z" fill="white"/>
<path d="M13.1273 121.976H-7.30182V101.552L13.1273 121.976Z" fill="white"/>
<path d="M33.5518 121.976H13.1273V101.552L33.5518 121.976Z" fill="white"/>
<path d="M53.9764 121.976H33.5518V101.552L53.9764 121.976Z" fill="white"/>
<path d="M74.4009 121.976H53.9764V101.552L74.4009 121.976Z" fill="white"/>
<path d="M94.8255 121.976H74.4009V101.552L94.8255 121.976Z" fill="white"/>
<path d="M115.25 121.976H94.8255V101.552L115.25 121.976Z" fill="white"/>
<path d="M135.675 121.976H115.25V101.552L135.675 121.976Z" fill="white"/>
<path d="M156.099 121.976H135.675V101.552L156.099 121.976Z" fill="white"/>
<path d="M176.524 121.976H156.099V101.552L176.524 121.976Z" fill="white"/>
<path d="M196.953 121.976H176.524V101.552L196.953 121.976Z" fill="white"/>
<path d="M217.377 121.976H196.953V101.552L217.377 121.976Z" fill="white"/>
<path d="M237.802 121.976H217.377V101.552L237.802 121.976Z" fill="white"/>
<path d="M258.226 121.976H237.802V101.552L258.226 121.976Z" fill="white"/>
<path d="M278.651 121.976H258.226V101.552L278.651 121.976Z" fill="white"/>
<path d="M299.076 121.976H278.651V101.552L299.076 121.976Z" fill="white"/>
<path d="M319.5 121.976H299.076V101.552L319.5 121.976Z" fill="white"/>
<path d="M339.925 121.976H319.5V101.552L339.925 121.976Z" fill="white"/>
<path d="M360.354 121.976H339.925V101.552L360.354 121.976Z" fill="white"/>
<path d="M380.778 121.976H360.354V101.552L380.778 121.976Z" fill="white"/>
<path d="M401.203 121.976H380.778V101.552L401.203 121.976Z" fill="white"/>
<path d="M421.627 121.976H401.203V101.552L421.627 121.976Z" fill="white"/>
<path d="M442.052 121.976H421.627V101.552L442.052 121.976Z" fill="white"/>
<path d="M462.476 121.976H442.052V101.552L462.476 121.976Z" fill="white"/>
<path d="M482.901 121.976H462.476V101.552L482.901 121.976Z" fill="white"/>
<path d="M503.326 121.976H482.901V101.552L503.326 121.976Z" fill="white"/>
<path d="M523.755 121.976H503.326V101.552L523.755 121.976Z" fill="white"/>
<path d="M544.179 121.976H523.755V101.552L544.179 121.976Z" fill="white"/>
<path d="M564.604 121.976H544.179V101.552L564.604 121.976Z" fill="white"/>
<path d="M585.028 121.976H564.604V101.552L585.028 121.976Z" fill="white"/>
<path d="M605.453 121.976H585.028V101.552L605.453 121.976Z" fill="white"/>
<path d="M625.877 121.976H605.453V101.552L625.877 121.976Z" fill="white"/>
<path d="M646.302 121.976H625.877V101.552L646.302 121.976Z" fill="white"/>
<path d="M666.726 121.976H646.302V101.552L666.726 121.976Z" fill="white"/>
<path d="M687.151 121.976H666.726V101.552L687.151 121.976Z" fill="white"/>
<path d="M707.58 121.976H687.151V101.552L707.58 121.976Z" fill="white"/>
<path d="M728.005 121.976H707.58V101.552L728.005 121.976Z" fill="white"/>
<path d="M748.429 121.976H728.005V101.552L748.429 121.976Z" fill="white"/>
<path d="M768.854 121.976H748.429V101.552L768.854 121.976Z" fill="white"/>
<path d="M789.278 121.976H768.854V101.552L789.278 121.976Z" fill="white"/>
<path d="M-68.5755 142.401H-89V121.976L-68.5755 142.401Z" fill="white"/>
<path d="M-48.1509 142.401H-68.5755V121.976L-48.1509 142.401Z" fill="white"/>
<path d="M-27.7264 142.401H-48.1509V121.976L-27.7264 142.401Z" fill="white"/>
<path d="M-7.30182 142.401H-27.7264V121.976L-7.30182 142.401Z" fill="white"/>
<path d="M13.1273 142.401H-7.30182V121.976L13.1273 142.401Z" fill="white"/>
<path d="M33.5518 142.401H13.1273V121.976L33.5518 142.401Z" fill="white"/>
<path d="M53.9764 142.401H33.5518V121.976L53.9764 142.401Z" fill="white"/>
<path d="M74.4009 142.401H53.9764V121.976L74.4009 142.401Z" fill="white"/>
<path d="M94.8255 142.401H74.4009V121.976L94.8255 142.401Z" fill="white"/>
<path d="M115.25 142.401H94.8255V121.976L115.25 142.401Z" fill="white"/>
<path d="M135.675 142.401H115.25V121.976L135.675 142.401Z" fill="white"/>
<path d="M156.099 142.401H135.675V121.976L156.099 142.401Z" fill="white"/>
<path d="M176.524 142.401H156.099V121.976L176.524 142.401Z" fill="white"/>
<path d="M196.953 142.401H176.524V121.976L196.953 142.401Z" fill="white"/>
<path d="M217.377 142.401H196.953V121.976L217.377 142.401Z" fill="white"/>
<path d="M237.802 142.401H217.377V121.976L237.802 142.401Z" fill="white"/>
<path d="M258.226 142.401H237.802V121.976L258.226 142.401Z" fill="white"/>
<path d="M278.651 142.401H258.226V121.976L278.651 142.401Z" fill="white"/>
<path d="M299.076 142.401H278.651V121.976L299.076 142.401Z" fill="white"/>
<path d="M319.5 142.401H299.076V121.976L319.5 142.401Z" fill="white"/>
<path d="M339.925 142.401H319.5V121.976L339.925 142.401Z" fill="white"/>
<path d="M360.354 142.401H339.925V121.976L360.354 142.401Z" fill="white"/>
<path d="M380.778 142.401H360.354V121.976L380.778 142.401Z" fill="white"/>
<path d="M401.203 142.401H380.778V121.976L401.203 142.401Z" fill="white"/>
<path d="M421.627 142.401H401.203V121.976L421.627 142.401Z" fill="white"/>
<path d="M442.052 142.401H421.627V121.976L442.052 142.401Z" fill="white"/>
<path d="M462.476 142.401H442.052V121.976L462.476 142.401Z" fill="white"/>
<path d="M482.901 142.401H462.476V121.976L482.901 142.401Z" fill="white"/>
<path d="M503.326 142.401H482.901V121.976L503.326 142.401Z" fill="white"/>
<path d="M523.755 142.401H503.326V121.976L523.755 142.401Z" fill="white"/>
<path d="M544.179 142.401H523.755V121.976L544.179 142.401Z" fill="white"/>
<path d="M564.604 142.401H544.179V121.976L564.604 142.401Z" fill="white"/>
<path d="M585.028 142.401H564.604V121.976L585.028 142.401Z" fill="white"/>
<path d="M605.453 142.401H585.028V121.976L605.453 142.401Z" fill="white"/>
<path d="M625.877 142.401H605.453V121.976L625.877 142.401Z" fill="white"/>
<path d="M646.302 142.401H625.877V121.976L646.302 142.401Z" fill="white"/>
<path d="M666.726 142.401H646.302V121.976L666.726 142.401Z" fill="white"/>
<path d="M687.151 142.401H666.726V121.976L687.151 142.401Z" fill="white"/>
<path d="M707.58 142.401H687.151V121.976L707.58 142.401Z" fill="white"/>
<path d="M728.005 142.401H707.58V121.976L728.005 142.401Z" fill="white"/>
<path d="M748.429 142.401H728.005V121.976L748.429 142.401Z" fill="white"/>
<path d="M768.854 142.401H748.429V121.976L768.854 142.401Z" fill="white"/>
<path d="M789.278 142.401H768.854V121.976L789.278 142.401Z" fill="white"/>
<path d="M-68.5755 162.825H-89V142.401L-68.5755 162.825Z" fill="white"/>
<path d="M-48.1509 162.825H-68.5755V142.401L-48.1509 162.825Z" fill="white"/>
<path d="M-27.7264 162.825H-48.1509V142.401L-27.7264 162.825Z" fill="white"/>
<path d="M-7.30182 162.825H-27.7264V142.401L-7.30182 162.825Z" fill="white"/>
<path d="M13.1273 162.825H-7.30182V142.401L13.1273 162.825Z" fill="white"/>
<path d="M33.5518 162.825H13.1273V142.401L33.5518 162.825Z" fill="white"/>
<path d="M53.9764 162.825H33.5518V142.401L53.9764 162.825Z" fill="white"/>
<path d="M74.4009 162.825H53.9764V142.401L74.4009 162.825Z" fill="white"/>
<path d="M94.8255 162.825H74.4009V142.401L94.8255 162.825Z" fill="white"/>
<path d="M115.25 162.825H94.8255V142.401L115.25 162.825Z" fill="white"/>
<path d="M135.675 162.825H115.25V142.401L135.675 162.825Z" fill="white"/>
<path d="M156.099 162.825H135.675V142.401L156.099 162.825Z" fill="white"/>
<path d="M176.524 162.825H156.099V142.401L176.524 162.825Z" fill="white"/>
<path d="M196.953 162.825H176.524V142.401L196.953 162.825Z" fill="white"/>
<path d="M217.377 162.825H196.953V142.401L217.377 162.825Z" fill="white"/>
<path d="M237.802 162.825H217.377V142.401L237.802 162.825Z" fill="white"/>
<path d="M258.226 162.825H237.802V142.401L258.226 162.825Z" fill="white"/>
<path d="M278.651 162.825H258.226V142.401L278.651 162.825Z" fill="white"/>
<path d="M299.076 162.825H278.651V142.401L299.076 162.825Z" fill="white"/>
<path d="M319.5 162.825H299.076V142.401L319.5 162.825Z" fill="white"/>
<path d="M339.925 162.825H319.5V142.401L339.925 162.825Z" fill="white"/>
<path d="M360.354 162.825H339.925V142.401L360.354 162.825Z" fill="white"/>
<path d="M380.778 162.825H360.354V142.401L380.778 162.825Z" fill="white"/>
<path d="M401.203 162.825H380.778V142.401L401.203 162.825Z" fill="white"/>
<path d="M421.627 162.825H401.203V142.401L421.627 162.825Z" fill="white"/>
<path d="M442.052 162.825H421.627V142.401L442.052 162.825Z" fill="white"/>
<path d="M462.476 162.825H442.052V142.401L462.476 162.825Z" fill="white"/>
<path d="M482.901 162.825H462.476V142.401L482.901 162.825Z" fill="white"/>
<path d="M503.326 162.825H482.901V142.401L503.326 162.825Z" fill="white"/>
<path d="M523.755 162.825H503.326V142.401L523.755 162.825Z" fill="white"/>
<path d="M544.179 162.825H523.755V142.401L544.179 162.825Z" fill="white"/>
<path d="M564.604 162.825H544.179V142.401L564.604 162.825Z" fill="white"/>
<path d="M585.028 162.825H564.604V142.401L585.028 162.825Z" fill="white"/>
<path d="M605.453 162.825H585.028V142.401L605.453 162.825Z" fill="white"/>
<path d="M625.877 162.825H605.453V142.401L625.877 162.825Z" fill="white"/>
<path d="M646.302 162.825H625.877V142.401L646.302 162.825Z" fill="white"/>
<path d="M666.726 162.825H646.302V142.401L666.726 162.825Z" fill="white"/>
<path d="M687.151 162.825H666.726V142.401L687.151 162.825Z" fill="white"/>
<path d="M707.58 162.825H687.151V142.401L707.58 162.825Z" fill="white"/>
<path d="M728.005 162.825H707.58V142.401L728.005 162.825Z" fill="white"/>
<path d="M748.429 162.825H728.005V142.401L748.429 162.825Z" fill="white"/>
<path d="M768.854 162.825H748.429V142.401L768.854 162.825Z" fill="white"/>
<path d="M789.278 162.825H768.854V142.401L789.278 162.825Z" fill="white"/>
<path d="M-68.5755 183.25H-89V162.825L-68.5755 183.25Z" fill="white"/>
<path d="M-48.1509 183.25H-68.5755V162.825L-48.1509 183.25Z" fill="white"/>
<path d="M-27.7264 183.25H-48.1509V162.825L-27.7264 183.25Z" fill="white"/>
<path d="M-7.30182 183.25H-27.7264V162.825L-7.30182 183.25Z" fill="white"/>
<path d="M13.1273 183.25H-7.30182V162.825L13.1273 183.25Z" fill="white"/>
<path d="M33.5518 183.25H13.1273V162.825L33.5518 183.25Z" fill="white"/>
<path d="M53.9764 183.25H33.5518V162.825L53.9764 183.25Z" fill="white"/>
<path d="M74.4009 183.25H53.9764V162.825L74.4009 183.25Z" fill="white"/>
<path d="M94.8255 183.25H74.4009V162.825L94.8255 183.25Z" fill="white"/>
<path d="M115.25 183.25H94.8255V162.825L115.25 183.25Z" fill="white"/>
<path d="M135.675 183.25H115.25V162.825L135.675 183.25Z" fill="white"/>
<path d="M156.099 183.25H135.675V162.825L156.099 183.25Z" fill="white"/>
<path d="M176.524 183.25H156.099V162.825L176.524 183.25Z" fill="white"/>
<path d="M196.953 183.25H176.524V162.825L196.953 183.25Z" fill="white"/>
<path d="M217.377 183.25H196.953V162.825L217.377 183.25Z" fill="white"/>
<path d="M237.802 183.25H217.377V162.825L237.802 183.25Z" fill="white"/>
<path d="M258.226 183.25H237.802V162.825L258.226 183.25Z" fill="white"/>
<path d="M278.651 183.25H258.226V162.825L278.651 183.25Z" fill="white"/>
<path d="M299.076 183.25H278.651V162.825L299.076 183.25Z" fill="white"/>
<path d="M319.5 183.25H299.076V162.825L319.5 183.25Z" fill="white"/>
<path d="M339.925 183.25H319.5V162.825L339.925 183.25Z" fill="white"/>
<path d="M360.354 183.25H339.925V162.825L360.354 183.25Z" fill="white"/>
<path d="M380.778 183.25H360.354V162.825L380.778 183.25Z" fill="white"/>
<path d="M401.203 183.25H380.778V162.825L401.203 183.25Z" fill="white"/>
<path d="M421.627 183.25H401.203V162.825L421.627 183.25Z" fill="white"/>
<path d="M442.052 183.25H421.627V162.825L442.052 183.25Z" fill="white"/>
<path d="M462.476 183.25H442.052V162.825L462.476 183.25Z" fill="white"/>
<path d="M482.901 183.25H462.476V162.825L482.901 183.25Z" fill="white"/>
<path d="M503.326 183.25H482.901V162.825L503.326 183.25Z" fill="white"/>
<path d="M523.755 183.25H503.326V162.825L523.755 183.25Z" fill="white"/>
<path d="M544.179 183.25H523.755V162.825L544.179 183.25Z" fill="white"/>
<path d="M564.604 183.25H544.179V162.825L564.604 183.25Z" fill="white"/>
<path d="M585.028 183.25H564.604V162.825L585.028 183.25Z" fill="white"/>
<path d="M605.453 183.25H585.028V162.825L605.453 183.25Z" fill="white"/>
<path d="M625.877 183.25H605.453V162.825L625.877 183.25Z" fill="white"/>
<path d="M646.302 183.25H625.877V162.825L646.302 183.25Z" fill="white"/>
<path d="M666.726 183.25H646.302V162.825L666.726 183.25Z" fill="white"/>
<path d="M687.151 183.25H666.726V162.825L687.151 183.25Z" fill="white"/>
<path d="M707.58 183.25H687.151V162.825L707.58 183.25Z" fill="white"/>
<path d="M728.005 183.25H707.58V162.825L728.005 183.25Z" fill="white"/>
<path d="M748.429 183.25H728.005V162.825L748.429 183.25Z" fill="white"/>
<path d="M768.854 183.25H748.429V162.825L768.854 183.25Z" fill="white"/>
<path d="M789.278 183.25H768.854V162.825L789.278 183.25Z" fill="white"/>
<path d="M-68.5755 203.679H-89V183.25L-68.5755 203.679Z" fill="white"/>
<path d="M-48.1509 203.679H-68.5755V183.25L-48.1509 203.679Z" fill="white"/>
<path d="M-27.7264 203.679H-48.1509V183.25L-27.7264 203.679Z" fill="white"/>
<path d="M-7.30182 203.679H-27.7264V183.25L-7.30182 203.679Z" fill="white"/>
<path d="M13.1273 203.679H-7.30182V183.25L13.1273 203.679Z" fill="white"/>
<path d="M33.5518 203.679H13.1273V183.25L33.5518 203.679Z" fill="white"/>
<path d="M53.9764 203.679H33.5518V183.25L53.9764 203.679Z" fill="white"/>
<path d="M74.4009 203.679H53.9764V183.25L74.4009 203.679Z" fill="white"/>
<path d="M94.8255 203.679H74.4009V183.25L94.8255 203.679Z" fill="white"/>
<path d="M115.25 203.679H94.8255V183.25L115.25 203.679Z" fill="white"/>
<path d="M135.675 203.679H115.25V183.25L135.675 203.679Z" fill="white"/>
<path d="M156.099 203.679H135.675V183.25L156.099 203.679Z" fill="white"/>
<path d="M176.524 203.679H156.099V183.25L176.524 203.679Z" fill="white"/>
<path d="M196.953 203.679H176.524V183.25L196.953 203.679Z" fill="white"/>
<path d="M217.377 203.679H196.953V183.25L217.377 203.679Z" fill="white"/>
<path d="M237.802 203.679H217.377V183.25L237.802 203.679Z" fill="white"/>
<path d="M258.226 203.679H237.802V183.25L258.226 203.679Z" fill="white"/>
<path d="M278.651 203.679H258.226V183.25L278.651 203.679Z" fill="white"/>
<path d="M299.076 203.679H278.651V183.25L299.076 203.679Z" fill="white"/>
<path d="M319.5 203.679H299.076V183.25L319.5 203.679Z" fill="white"/>
<path d="M339.925 203.679H319.5V183.25L339.925 203.679Z" fill="white"/>
<path d="M360.354 203.679H339.925V183.25L360.354 203.679Z" fill="white"/>
<path d="M380.778 203.679H360.354V183.25L380.778 203.679Z" fill="white"/>
<path d="M401.203 203.679H380.778V183.25L401.203 203.679Z" fill="white"/>
<path d="M421.627 203.679H401.203V183.25L421.627 203.679Z" fill="white"/>
<path d="M442.052 203.679H421.627V183.25L442.052 203.679Z" fill="white"/>
<path d="M462.476 203.679H442.052V183.25L462.476 203.679Z" fill="white"/>
<path d="M482.901 203.679H462.476V183.25L482.901 203.679Z" fill="white"/>
<path d="M503.326 203.679H482.901V183.25L503.326 203.679Z" fill="white"/>
<path d="M523.755 203.679H503.326V183.25L523.755 203.679Z" fill="white"/>
<path d="M544.179 203.679H523.755V183.25L544.179 203.679Z" fill="white"/>
<path d="M564.604 203.679H544.179V183.25L564.604 203.679Z" fill="white"/>
<path d="M585.028 203.679H564.604V183.25L585.028 203.679Z" fill="white"/>
<path d="M605.453 203.679H585.028V183.25L605.453 203.679Z" fill="white"/>
<path d="M625.877 203.679H605.453V183.25L625.877 203.679Z" fill="white"/>
<path d="M646.302 203.679H625.877V183.25L646.302 203.679Z" fill="white"/>
<path d="M666.726 203.679H646.302V183.25L666.726 203.679Z" fill="white"/>
<path d="M687.151 203.679H666.726V183.25L687.151 203.679Z" fill="white"/>
<path d="M707.58 203.679H687.151V183.25L707.58 203.679Z" fill="white"/>
<path d="M728.005 203.679H707.58V183.25L728.005 203.679Z" fill="white"/>
<path d="M748.429 203.679H728.005V183.25L748.429 203.679Z" fill="white"/>
<path d="M768.854 203.679H748.429V183.25L768.854 203.679Z" fill="white"/>
<path d="M789.278 203.679H768.854V183.25L789.278 203.679Z" fill="white"/>
<path d="M-68.5755 224.104H-89V203.679L-68.5755 224.104Z" fill="white"/>
<path d="M-48.1509 224.104H-68.5755V203.679L-48.1509 224.104Z" fill="white"/>
<path d="M-27.7264 224.104H-48.1509V203.679L-27.7264 224.104Z" fill="white"/>
<path d="M-7.30182 224.104H-27.7264V203.679L-7.30182 224.104Z" fill="white"/>
<path d="M13.1273 224.104H-7.30182V203.679L13.1273 224.104Z" fill="white"/>
<path d="M33.5518 224.104H13.1273V203.679L33.5518 224.104Z" fill="white"/>
<path d="M53.9764 224.104H33.5518V203.679L53.9764 224.104Z" fill="white"/>
<path d="M74.4009 224.104H53.9764V203.679L74.4009 224.104Z" fill="white"/>
<path d="M94.8255 224.104H74.4009V203.679L94.8255 224.104Z" fill="white"/>
<path d="M115.25 224.104H94.8255V203.679L115.25 224.104Z" fill="white"/>
<path d="M135.675 224.104H115.25V203.679L135.675 224.104Z" fill="white"/>
<path d="M156.099 224.104H135.675V203.679L156.099 224.104Z" fill="white"/>
<path d="M176.524 224.104H156.099V203.679L176.524 224.104Z" fill="white"/>
<path d="M196.953 224.104H176.524V203.679L196.953 224.104Z" fill="white"/>
<path d="M217.377 224.104H196.953V203.679L217.377 224.104Z" fill="white"/>
<path d="M237.802 224.104H217.377V203.679L237.802 224.104Z" fill="white"/>
<path d="M258.226 224.104H237.802V203.679L258.226 224.104Z" fill="white"/>
<path d="M278.651 224.104H258.226V203.679L278.651 224.104Z" fill="white"/>
<path d="M299.076 224.104H278.651V203.679L299.076 224.104Z" fill="white"/>
<path d="M319.5 224.104H299.076V203.679L319.5 224.104Z" fill="white"/>
<path d="M339.925 224.104H319.5V203.679L339.925 224.104Z" fill="white"/>
<path d="M360.354 224.104H339.925V203.679L360.354 224.104Z" fill="white"/>
<path d="M380.778 224.104H360.354V203.679L380.778 224.104Z" fill="white"/>
<path d="M401.203 224.104H380.778V203.679L401.203 224.104Z" fill="white"/>
<path d="M421.627 224.104H401.203V203.679L421.627 224.104Z" fill="white"/>
<path d="M442.052 224.104H421.627V203.679L442.052 224.104Z" fill="white"/>
<path d="M462.476 224.104H442.052V203.679L462.476 224.104Z" fill="white"/>
<path d="M482.901 224.104H462.476V203.679L482.901 224.104Z" fill="white"/>
<path d="M503.326 224.104H482.901V203.679L503.326 224.104Z" fill="white"/>
<path d="M523.755 224.104H503.326V203.679L523.755 224.104Z" fill="white"/>
<path d="M544.179 224.104H523.755V203.679L544.179 224.104Z" fill="white"/>
<path d="M564.604 224.104H544.179V203.679L564.604 224.104Z" fill="white"/>
<path d="M585.028 224.104H564.604V203.679L585.028 224.104Z" fill="white"/>
<path d="M605.453 224.104H585.028V203.679L605.453 224.104Z" fill="white"/>
<path d="M625.877 224.104H605.453V203.679L625.877 224.104Z" fill="white"/>
<path d="M646.302 224.104H625.877V203.679L646.302 224.104Z" fill="white"/>
<path d="M666.726 224.104H646.302V203.679L666.726 224.104Z" fill="white"/>
<path d="M687.151 224.104H666.726V203.679L687.151 224.104Z" fill="white"/>
<path d="M707.58 224.104H687.151V203.679L707.58 224.104Z" fill="white"/>
<path d="M728.005 224.104H707.58V203.679L728.005 224.104Z" fill="white"/>
<path d="M748.429 224.104H728.005V203.679L748.429 224.104Z" fill="white"/>
<path d="M768.854 224.104H748.429V203.679L768.854 224.104Z" fill="white"/>
<path d="M789.278 224.104H768.854V203.679L789.278 224.104Z" fill="white"/>
<path d="M-68.5755 244.528H-89V224.104L-68.5755 244.528Z" fill="white"/>
<path d="M-48.1509 244.528H-68.5755V224.104L-48.1509 244.528Z" fill="white"/>
<path d="M-27.7264 244.528H-48.1509V224.104L-27.7264 244.528Z" fill="white"/>
<path d="M-7.30182 244.528H-27.7264V224.104L-7.30182 244.528Z" fill="white"/>
<path d="M13.1273 244.528H-7.30182V224.104L13.1273 244.528Z" fill="white"/>
<path d="M33.5518 244.528H13.1273V224.104L33.5518 244.528Z" fill="white"/>
<path d="M53.9764 244.528H33.5518V224.104L53.9764 244.528Z" fill="white"/>
<path d="M74.4009 244.528H53.9764V224.104L74.4009 244.528Z" fill="white"/>
<path d="M94.8255 244.528H74.4009V224.104L94.8255 244.528Z" fill="white"/>
<path d="M115.25 244.528H94.8255V224.104L115.25 244.528Z" fill="white"/>
<path d="M135.675 244.528H115.25V224.104L135.675 244.528Z" fill="white"/>
<path d="M156.099 244.528H135.675V224.104L156.099 244.528Z" fill="white"/>
<path d="M176.524 244.528H156.099V224.104L176.524 244.528Z" fill="white"/>
<path d="M196.953 244.528H176.524V224.104L196.953 244.528Z" fill="white"/>
<path d="M217.377 244.528H196.953V224.104L217.377 244.528Z" fill="white"/>
<path d="M237.802 244.528H217.377V224.104L237.802 244.528Z" fill="white"/>
<path d="M258.226 244.528H237.802V224.104L258.226 244.528Z" fill="white"/>
<path d="M278.651 244.528H258.226V224.104L278.651 244.528Z" fill="white"/>
<path d="M299.076 244.528H278.651V224.104L299.076 244.528Z" fill="white"/>
<path d="M319.5 244.528H299.076V224.104L319.5 244.528Z" fill="white"/>
<path d="M339.925 244.528H319.5V224.104L339.925 244.528Z" fill="white"/>
<path d="M360.354 244.528H339.925V224.104L360.354 244.528Z" fill="white"/>
<path d="M380.778 244.528H360.354V224.104L380.778 244.528Z" fill="white"/>
<path d="M401.203 244.528H380.778V224.104L401.203 244.528Z" fill="white"/>
<path d="M421.627 244.528H401.203V224.104L421.627 244.528Z" fill="white"/>
<path d="M442.052 244.528H421.627V224.104L442.052 244.528Z" fill="white"/>
<path d="M462.476 244.528H442.052V224.104L462.476 244.528Z" fill="white"/>
<path d="M482.901 244.528H462.476V224.104L482.901 244.528Z" fill="white"/>
<path d="M503.326 244.528H482.901V224.104L503.326 244.528Z" fill="white"/>
<path d="M523.755 244.528H503.326V224.104L523.755 244.528Z" fill="white"/>
<path d="M544.179 244.528H523.755V224.104L544.179 244.528Z" fill="white"/>
<path d="M564.604 244.528H544.179V224.104L564.604 244.528Z" fill="white"/>
<path d="M585.028 244.528H564.604V224.104L585.028 244.528Z" fill="white"/>
<path d="M605.453 244.528H585.028V224.104L605.453 244.528Z" fill="white"/>
<path d="M625.877 244.528H605.453V224.104L625.877 244.528Z" fill="white"/>
<path d="M646.302 244.528H625.877V224.104L646.302 244.528Z" fill="white"/>
<path d="M666.726 244.528H646.302V224.104L666.726 244.528Z" fill="white"/>
<path d="M687.151 244.528H666.726V224.104L687.151 244.528Z" fill="white"/>
<path d="M707.58 244.528H687.151V224.104L707.58 244.528Z" fill="white"/>
<path d="M728.005 244.528H707.58V224.104L728.005 244.528Z" fill="white"/>
<path d="M748.429 244.528H728.005V224.104L748.429 244.528Z" fill="white"/>
<path d="M768.854 244.528H748.429V224.104L768.854 244.528Z" fill="white"/>
<path d="M789.278 244.528H768.854V224.104L789.278 244.528Z" fill="white"/>
<path d="M-68.5755 264.953H-89V244.528L-68.5755 264.953Z" fill="white"/>
<path d="M-48.1509 264.953H-68.5755V244.528L-48.1509 264.953Z" fill="white"/>
<path d="M-27.7264 264.953H-48.1509V244.528L-27.7264 264.953Z" fill="white"/>
<path d="M-7.30182 264.953H-27.7264V244.528L-7.30182 264.953Z" fill="white"/>
<path d="M13.1273 264.953H-7.30182V244.528L13.1273 264.953Z" fill="white"/>
<path d="M33.5518 264.953H13.1273V244.528L33.5518 264.953Z" fill="white"/>
<path d="M53.9764 264.953H33.5518V244.528L53.9764 264.953Z" fill="white"/>
<path d="M74.4009 264.953H53.9764V244.528L74.4009 264.953Z" fill="white"/>
<path d="M94.8255 264.953H74.4009V244.528L94.8255 264.953Z" fill="white"/>
<path d="M115.25 264.953H94.8255V244.528L115.25 264.953Z" fill="white"/>
<path d="M135.675 264.953H115.25V244.528L135.675 264.953Z" fill="white"/>
<path d="M156.099 264.953H135.675V244.528L156.099 264.953Z" fill="white"/>
<path d="M176.524 264.953H156.099V244.528L176.524 264.953Z" fill="white"/>
<path d="M196.953 264.953H176.524V244.528L196.953 264.953Z" fill="white"/>
<path d="M217.377 264.953H196.953V244.528L217.377 264.953Z" fill="white"/>
<path d="M237.802 264.953H217.377V244.528L237.802 264.953Z" fill="white"/>
<path d="M258.226 264.953H237.802V244.528L258.226 264.953Z" fill="white"/>
<path d="M278.651 264.953H258.226V244.528L278.651 264.953Z" fill="white"/>
<path d="M299.076 264.953H278.651V244.528L299.076 264.953Z" fill="white"/>
<path d="M319.5 264.953H299.076V244.528L319.5 264.953Z" fill="white"/>
<path d="M339.925 264.953H319.5V244.528L339.925 264.953Z" fill="white"/>
<path d="M360.354 264.953H339.925V244.528L360.354 264.953Z" fill="white"/>
<path d="M380.778 264.953H360.354V244.528L380.778 264.953Z" fill="white"/>
<path d="M401.203 264.953H380.778V244.528L401.203 264.953Z" fill="white"/>
<path d="M421.627 264.953H401.203V244.528L421.627 264.953Z" fill="white"/>
<path d="M442.052 264.953H421.627V244.528L442.052 264.953Z" fill="white"/>
<path d="M462.476 264.953H442.052V244.528L462.476 264.953Z" fill="white"/>
<path d="M482.901 264.953H462.476V244.528L482.901 264.953Z" fill="white"/>
<path d="M503.326 264.953H482.901V244.528L503.326 264.953Z" fill="white"/>
<path d="M523.755 264.953H503.326V244.528L523.755 264.953Z" fill="white"/>
<path d="M544.179 264.953H523.755V244.528L544.179 264.953Z" fill="white"/>
<path d="M564.604 264.953H544.179V244.528L564.604 264.953Z" fill="white"/>
<path d="M585.028 264.953H564.604V244.528L585.028 264.953Z" fill="white"/>
<path d="M605.453 264.953H585.028V244.528L605.453 264.953Z" fill="white"/>
<path d="M625.877 264.953H605.453V244.528L625.877 264.953Z" fill="white"/>
<path d="M646.302 264.953H625.877V244.528L646.302 264.953Z" fill="white"/>
<path d="M666.726 264.953H646.302V244.528L666.726 264.953Z" fill="white"/>
<path d="M687.151 264.953H666.726V244.528L687.151 264.953Z" fill="white"/>
<path d="M707.58 264.953H687.151V244.528L707.58 264.953Z" fill="white"/>
<path d="M728.005 264.953H707.58V244.528L728.005 264.953Z" fill="white"/>
<path d="M748.429 264.953H728.005V244.528L748.429 264.953Z" fill="white"/>
<path d="M768.854 264.953H748.429V244.528L768.854 264.953Z" fill="white"/>
<path d="M789.278 264.953H768.854V244.528L789.278 264.953Z" fill="white"/>
<path d="M-68.5755 285.377H-89V264.953L-68.5755 285.377Z" fill="white"/>
<path d="M-48.1509 285.377H-68.5755V264.953L-48.1509 285.377Z" fill="white"/>
<path d="M-27.7264 285.377H-48.1509V264.953L-27.7264 285.377Z" fill="white"/>
<path d="M-7.30182 285.377H-27.7264V264.953L-7.30182 285.377Z" fill="white"/>
<path d="M13.1273 285.377H-7.30182V264.953L13.1273 285.377Z" fill="white"/>
<path d="M33.5518 285.377H13.1273V264.953L33.5518 285.377Z" fill="white"/>
<path d="M53.9764 285.377H33.5518V264.953L53.9764 285.377Z" fill="white"/>
<path d="M74.4009 285.377H53.9764V264.953L74.4009 285.377Z" fill="white"/>
<path d="M94.8255 285.377H74.4009V264.953L94.8255 285.377Z" fill="white"/>
<path d="M115.25 285.377H94.8255V264.953L115.25 285.377Z" fill="white"/>
<path d="M135.675 285.377H115.25V264.953L135.675 285.377Z" fill="white"/>
<path d="M156.099 285.377H135.675V264.953L156.099 285.377Z" fill="white"/>
<path d="M176.524 285.377H156.099V264.953L176.524 285.377Z" fill="white"/>
<path d="M196.953 285.377H176.524V264.953L196.953 285.377Z" fill="white"/>
<path d="M217.377 285.377H196.953V264.953L217.377 285.377Z" fill="white"/>
<path d="M237.802 285.377H217.377V264.953L237.802 285.377Z" fill="white"/>
<path d="M258.226 285.377H237.802V264.953L258.226 285.377Z" fill="white"/>
<path d="M278.651 285.377H258.226V264.953L278.651 285.377Z" fill="white"/>
<path d="M299.076 285.377H278.651V264.953L299.076 285.377Z" fill="white"/>
<path d="M319.5 285.377H299.076V264.953L319.5 285.377Z" fill="white"/>
<path d="M339.925 285.377H319.5V264.953L339.925 285.377Z" fill="white"/>
<path d="M360.354 285.377H339.925V264.953L360.354 285.377Z" fill="white"/>
<path d="M380.778 285.377H360.354V264.953L380.778 285.377Z" fill="white"/>
<path d="M401.203 285.377H380.778V264.953L401.203 285.377Z" fill="white"/>
<path d="M421.627 285.377H401.203V264.953L421.627 285.377Z" fill="white"/>
<path d="M442.052 285.377H421.627V264.953L442.052 285.377Z" fill="white"/>
<path d="M462.476 285.377H442.052V264.953L462.476 285.377Z" fill="white"/>
<path d="M482.901 285.377H462.476V264.953L482.901 285.377Z" fill="white"/>
<path d="M503.326 285.377H482.901V264.953L503.326 285.377Z" fill="white"/>
<path d="M523.755 285.377H503.326V264.953L523.755 285.377Z" fill="white"/>
<path d="M544.179 285.377H523.755V264.953L544.179 285.377Z" fill="white"/>
<path d="M564.604 285.377H544.179V264.953L564.604 285.377Z" fill="white"/>
<path d="M585.028 285.377H564.604V264.953L585.028 285.377Z" fill="white"/>
<path d="M605.453 285.377H585.028V264.953L605.453 285.377Z" fill="white"/>
<path d="M625.877 285.377H605.453V264.953L625.877 285.377Z" fill="white"/>
<path d="M646.302 285.377H625.877V264.953L646.302 285.377Z" fill="white"/>
<path d="M666.726 285.377H646.302V264.953L666.726 285.377Z" fill="white"/>
<path d="M687.151 285.377H666.726V264.953L687.151 285.377Z" fill="white"/>
<path d="M707.58 285.377H687.151V264.953L707.58 285.377Z" fill="white"/>
<path d="M728.005 285.377H707.58V264.953L728.005 285.377Z" fill="white"/>
<path d="M748.429 285.377H728.005V264.953L748.429 285.377Z" fill="white"/>
<path d="M768.854 285.377H748.429V264.953L768.854 285.377Z" fill="white"/>
<path d="M789.278 285.377H768.854V264.953L789.278 285.377Z" fill="white"/>
<path d="M-68.5755 305.802H-89V285.377L-68.5755 305.802Z" fill="white"/>
<path d="M-48.1509 305.802H-68.5755V285.377L-48.1509 305.802Z" fill="white"/>
<path d="M-27.7264 305.802H-48.1509V285.377L-27.7264 305.802Z" fill="white"/>
<path d="M-7.30182 305.802H-27.7264V285.377L-7.30182 305.802Z" fill="white"/>
<path d="M13.1273 305.802H-7.30182V285.377L13.1273 305.802Z" fill="white"/>
<path d="M33.5518 305.802H13.1273V285.377L33.5518 305.802Z" fill="white"/>
<path d="M53.9764 305.802H33.5518V285.377L53.9764 305.802Z" fill="white"/>
<path d="M74.4009 305.802H53.9764V285.377L74.4009 305.802Z" fill="white"/>
<path d="M94.8255 305.802H74.4009V285.377L94.8255 305.802Z" fill="white"/>
<path d="M115.25 305.802H94.8255V285.377L115.25 305.802Z" fill="white"/>
<path d="M135.675 305.802H115.25V285.377L135.675 305.802Z" fill="white"/>
<path d="M156.099 305.802H135.675V285.377L156.099 305.802Z" fill="white"/>
<path d="M176.524 305.802H156.099V285.377L176.524 305.802Z" fill="white"/>
<path d="M196.953 305.802H176.524V285.377L196.953 305.802Z" fill="white"/>
<path d="M217.377 305.802H196.953V285.377L217.377 305.802Z" fill="white"/>
<path d="M237.802 305.802H217.377V285.377L237.802 305.802Z" fill="white"/>
<path d="M258.226 305.802H237.802V285.377L258.226 305.802Z" fill="white"/>
<path d="M278.651 305.802H258.226V285.377L278.651 305.802Z" fill="white"/>
<path d="M299.076 305.802H278.651V285.377L299.076 305.802Z" fill="white"/>
<path d="M319.5 305.802H299.076V285.377L319.5 305.802Z" fill="white"/>
<path d="M339.925 305.802H319.5V285.377L339.925 305.802Z" fill="white"/>
<path d="M360.354 305.802H339.925V285.377L360.354 305.802Z" fill="white"/>
<path d="M380.778 305.802H360.354V285.377L380.778 305.802Z" fill="white"/>
<path d="M401.203 305.802H380.778V285.377L401.203 305.802Z" fill="white"/>
<path d="M421.627 305.802H401.203V285.377L421.627 305.802Z" fill="white"/>
<path d="M442.052 305.802H421.627V285.377L442.052 305.802Z" fill="white"/>
<path d="M462.476 305.802H442.052V285.377L462.476 305.802Z" fill="white"/>
<path d="M482.901 305.802H462.476V285.377L482.901 305.802Z" fill="white"/>
<path d="M503.326 305.802H482.901V285.377L503.326 305.802Z" fill="white"/>
<path d="M523.755 305.802H503.326V285.377L523.755 305.802Z" fill="white"/>
<path d="M544.179 305.802H523.755V285.377L544.179 305.802Z" fill="white"/>
<path d="M564.604 305.802H544.179V285.377L564.604 305.802Z" fill="white"/>
<path d="M585.028 305.802H564.604V285.377L585.028 305.802Z" fill="white"/>
<path d="M605.453 305.802H585.028V285.377L605.453 305.802Z" fill="white"/>
<path d="M625.877 305.802H605.453V285.377L625.877 305.802Z" fill="white"/>
<path d="M646.302 305.802H625.877V285.377L646.302 305.802Z" fill="white"/>
<path d="M666.726 305.802H646.302V285.377L666.726 305.802Z" fill="white"/>
<path d="M687.151 305.802H666.726V285.377L687.151 305.802Z" fill="white"/>
<path d="M707.58 305.802H687.151V285.377L707.58 305.802Z" fill="white"/>
<path d="M728.005 305.802H707.58V285.377L728.005 305.802Z" fill="white"/>
<path d="M748.429 305.802H728.005V285.377L748.429 305.802Z" fill="white"/>
<path d="M768.854 305.802H748.429V285.377L768.854 305.802Z" fill="white"/>
<path d="M789.278 305.802H768.854V285.377L789.278 305.802Z" fill="white"/>
<path d="M-68.5755 326.226H-89V305.802L-68.5755 326.226Z" fill="white"/>
<path d="M-48.1509 326.226H-68.5755V305.802L-48.1509 326.226Z" fill="white"/>
<path d="M-27.7264 326.226H-48.1509V305.802L-27.7264 326.226Z" fill="white"/>
<path d="M-7.30182 326.226H-27.7264V305.802L-7.30182 326.226Z" fill="white"/>
<path d="M13.1273 326.226H-7.30182V305.802L13.1273 326.226Z" fill="white"/>
<path d="M33.5518 326.226H13.1273V305.802L33.5518 326.226Z" fill="white"/>
<path d="M53.9764 326.226H33.5518V305.802L53.9764 326.226Z" fill="white"/>
<path d="M74.4009 326.226H53.9764V305.802L74.4009 326.226Z" fill="white"/>
<path d="M94.8255 326.226H74.4009V305.802L94.8255 326.226Z" fill="white"/>
<path d="M115.25 326.226H94.8255V305.802L115.25 326.226Z" fill="white"/>
<path d="M135.675 326.226H115.25V305.802L135.675 326.226Z" fill="white"/>
<path d="M156.099 326.226H135.675V305.802L156.099 326.226Z" fill="white"/>
<path d="M176.524 326.226H156.099V305.802L176.524 326.226Z" fill="white"/>
<path d="M196.953 326.226H176.524V305.802L196.953 326.226Z" fill="white"/>
<path d="M217.377 326.226H196.953V305.802L217.377 326.226Z" fill="white"/>
<path d="M237.802 326.226H217.377V305.802L237.802 326.226Z" fill="white"/>
<path d="M258.226 326.226H237.802V305.802L258.226 326.226Z" fill="white"/>
<path d="M278.651 326.226H258.226V305.802L278.651 326.226Z" fill="white"/>
<path d="M299.076 326.226H278.651V305.802L299.076 326.226Z" fill="white"/>
<path d="M319.5 326.226H299.076V305.802L319.5 326.226Z" fill="white"/>
<path d="M339.925 326.226H319.5V305.802L339.925 326.226Z" fill="white"/>
<path d="M360.354 326.226H339.925V305.802L360.354 326.226Z" fill="white"/>
<path d="M380.778 326.226H360.354V305.802L380.778 326.226Z" fill="white"/>
<path d="M401.203 326.226H380.778V305.802L401.203 326.226Z" fill="white"/>
<path d="M421.627 326.226H401.203V305.802L421.627 326.226Z" fill="white"/>
<path d="M442.052 326.226H421.627V305.802L442.052 326.226Z" fill="white"/>
<path d="M462.476 326.226H442.052V305.802L462.476 326.226Z" fill="white"/>
<path d="M482.901 326.226H462.476V305.802L482.901 326.226Z" fill="white"/>
<path d="M503.326 326.226H482.901V305.802L503.326 326.226Z" fill="white"/>
<path d="M523.755 326.226H503.326V305.802L523.755 326.226Z" fill="white"/>
<path d="M544.179 326.226H523.755V305.802L544.179 326.226Z" fill="white"/>
<path d="M564.604 326.226H544.179V305.802L564.604 326.226Z" fill="white"/>
<path d="M585.028 326.226H564.604V305.802L585.028 326.226Z" fill="white"/>
<path d="M605.453 326.226H585.028V305.802L605.453 326.226Z" fill="white"/>
<path d="M625.877 326.226H605.453V305.802L625.877 326.226Z" fill="white"/>
<path d="M646.302 326.226H625.877V305.802L646.302 326.226Z" fill="white"/>
<path d="M666.726 326.226H646.302V305.802L666.726 326.226Z" fill="white"/>
<path d="M687.151 326.226H666.726V305.802L687.151 326.226Z" fill="white"/>
<path d="M707.58 326.226H687.151V305.802L707.58 326.226Z" fill="white"/>
<path d="M728.005 326.226H707.58V305.802L728.005 326.226Z" fill="white"/>
<path d="M748.429 326.226H728.005V305.802L748.429 326.226Z" fill="white"/>
<path d="M768.854 326.226H748.429V305.802L768.854 326.226Z" fill="white"/>
<path d="M789.278 326.226H768.854V305.802L789.278 326.226Z" fill="white"/>
<path d="M-68.5755 346.651H-89V326.226L-68.5755 346.651Z" fill="white"/>
<path d="M-48.1509 346.651H-68.5755V326.226L-48.1509 346.651Z" fill="white"/>
<path d="M-27.7264 346.651H-48.1509V326.226L-27.7264 346.651Z" fill="white"/>
<path d="M-7.30182 346.651H-27.7264V326.226L-7.30182 346.651Z" fill="white"/>
<path d="M13.1273 346.651H-7.30182V326.226L13.1273 346.651Z" fill="white"/>
<path d="M33.5518 346.651H13.1273V326.226L33.5518 346.651Z" fill="white"/>
<path d="M53.9764 346.651H33.5518V326.226L53.9764 346.651Z" fill="white"/>
<path d="M74.4009 346.651H53.9764V326.226L74.4009 346.651Z" fill="white"/>
<path d="M94.8255 346.651H74.4009V326.226L94.8255 346.651Z" fill="white"/>
<path d="M115.25 346.651H94.8255V326.226L115.25 346.651Z" fill="white"/>
<path d="M135.675 346.651H115.25V326.226L135.675 346.651Z" fill="white"/>
<path d="M156.099 346.651H135.675V326.226L156.099 346.651Z" fill="white"/>
<path d="M176.524 346.651H156.099V326.226L176.524 346.651Z" fill="white"/>
<path d="M196.953 346.651H176.524V326.226L196.953 346.651Z" fill="white"/>
<path d="M217.377 346.651H196.953V326.226L217.377 346.651Z" fill="white"/>
<path d="M237.802 346.651H217.377V326.226L237.802 346.651Z" fill="white"/>
<path d="M258.226 346.651H237.802V326.226L258.226 346.651Z" fill="white"/>
<path d="M278.651 346.651H258.226V326.226L278.651 346.651Z" fill="white"/>
<path d="M299.076 346.651H278.651V326.226L299.076 346.651Z" fill="white"/>
<path d="M319.5 346.651H299.076V326.226L319.5 346.651Z" fill="white"/>
<path d="M339.925 346.651H319.5V326.226L339.925 346.651Z" fill="white"/>
<path d="M360.354 346.651H339.925V326.226L360.354 346.651Z" fill="white"/>
<path d="M380.778 346.651H360.354V326.226L380.778 346.651Z" fill="white"/>
<path d="M401.203 346.651H380.778V326.226L401.203 346.651Z" fill="white"/>
<path d="M421.627 346.651H401.203V326.226L421.627 346.651Z" fill="white"/>
<path d="M442.052 346.651H421.627V326.226L442.052 346.651Z" fill="white"/>
<path d="M462.476 346.651H442.052V326.226L462.476 346.651Z" fill="white"/>
<path d="M482.901 346.651H462.476V326.226L482.901 346.651Z" fill="white"/>
<path d="M503.326 346.651H482.901V326.226L503.326 346.651Z" fill="white"/>
<path d="M523.755 346.651H503.326V326.226L523.755 346.651Z" fill="white"/>
<path d="M544.179 346.651H523.755V326.226L544.179 346.651Z" fill="white"/>
<path d="M564.604 346.651H544.179V326.226L564.604 346.651Z" fill="white"/>
<path d="M585.028 346.651H564.604V326.226L585.028 346.651Z" fill="white"/>
<path d="M605.453 346.651H585.028V326.226L605.453 346.651Z" fill="white"/>
<path d="M625.877 346.651H605.453V326.226L625.877 346.651Z" fill="white"/>
<path d="M646.302 346.651H625.877V326.226L646.302 346.651Z" fill="white"/>
<path d="M666.726 346.651H646.302V326.226L666.726 346.651Z" fill="white"/>
<path d="M687.151 346.651H666.726V326.226L687.151 346.651Z" fill="white"/>
<path d="M707.58 346.651H687.151V326.226L707.58 346.651Z" fill="white"/>
<path d="M728.005 346.651H707.58V326.226L728.005 346.651Z" fill="white"/>
<path d="M748.429 346.651H728.005V326.226L748.429 346.651Z" fill="white"/>
<path d="M768.854 346.651H748.429V326.226L768.854 346.651Z" fill="white"/>
<path d="M789.278 346.651H768.854V326.226L789.278 346.651Z" fill="white"/>
<path d="M-68.5755 367.08H-89V346.651L-68.5755 367.08Z" fill="white"/>
<path d="M-48.1509 367.08H-68.5755V346.651L-48.1509 367.08Z" fill="white"/>
<path d="M-27.7264 367.08H-48.1509V346.651L-27.7264 367.08Z" fill="white"/>
<path d="M-7.30182 367.08H-27.7264V346.651L-7.30182 367.08Z" fill="white"/>
<path d="M13.1273 367.08H-7.30182V346.651L13.1273 367.08Z" fill="white"/>
<path d="M33.5518 367.08H13.1273V346.651L33.5518 367.08Z" fill="white"/>
<path d="M53.9764 367.08H33.5518V346.651L53.9764 367.08Z" fill="white"/>
<path d="M74.4009 367.08H53.9764V346.651L74.4009 367.08Z" fill="white"/>
<path d="M94.8255 367.08H74.4009V346.651L94.8255 367.08Z" fill="white"/>
<path d="M115.25 367.08H94.8255V346.651L115.25 367.08Z" fill="white"/>
<path d="M135.675 367.08H115.25V346.651L135.675 367.08Z" fill="white"/>
<path d="M156.099 367.08H135.675V346.651L156.099 367.08Z" fill="white"/>
<path d="M176.524 367.08H156.099V346.651L176.524 367.08Z" fill="white"/>
<path d="M196.953 367.08H176.524V346.651L196.953 367.08Z" fill="white"/>
<path d="M217.377 367.08H196.953V346.651L217.377 367.08Z" fill="white"/>
<path d="M237.802 367.08H217.377V346.651L237.802 367.08Z" fill="white"/>
<path d="M258.226 367.08H237.802V346.651L258.226 367.08Z" fill="white"/>
<path d="M278.651 367.08H258.226V346.651L278.651 367.08Z" fill="white"/>
<path d="M299.076 367.08H278.651V346.651L299.076 367.08Z" fill="white"/>
<path d="M319.5 367.08H299.076V346.651L319.5 367.08Z" fill="white"/>
<path d="M339.925 367.08H319.5V346.651L339.925 367.08Z" fill="white"/>
<path d="M360.354 367.08H339.925V346.651L360.354 367.08Z" fill="white"/>
<path d="M380.778 367.08H360.354V346.651L380.778 367.08Z" fill="white"/>
<path d="M401.203 367.08H380.778V346.651L401.203 367.08Z" fill="white"/>
<path d="M421.627 367.08H401.203V346.651L421.627 367.08Z" fill="white"/>
<path d="M442.052 367.08H421.627V346.651L442.052 367.08Z" fill="white"/>
<path d="M462.476 367.08H442.052V346.651L462.476 367.08Z" fill="white"/>
<path d="M482.901 367.08H462.476V346.651L482.901 367.08Z" fill="white"/>
<path d="M503.326 367.08H482.901V346.651L503.326 367.08Z" fill="white"/>
<path d="M523.755 367.08H503.326V346.651L523.755 367.08Z" fill="white"/>
<path d="M544.179 367.08H523.755V346.651L544.179 367.08Z" fill="white"/>
<path d="M564.604 367.08H544.179V346.651L564.604 367.08Z" fill="white"/>
<path d="M585.028 367.08H564.604V346.651L585.028 367.08Z" fill="white"/>
<path d="M605.453 367.08H585.028V346.651L605.453 367.08Z" fill="white"/>
<path d="M625.877 367.08H605.453V346.651L625.877 367.08Z" fill="white"/>
<path d="M646.302 367.08H625.877V346.651L646.302 367.08Z" fill="white"/>
<path d="M666.726 367.08H646.302V346.651L666.726 367.08Z" fill="white"/>
<path d="M687.151 367.08H666.726V346.651L687.151 367.08Z" fill="white"/>
<path d="M707.58 367.08H687.151V346.651L707.58 367.08Z" fill="white"/>
<path d="M728.005 367.08H707.58V346.651L728.005 367.08Z" fill="white"/>
<path d="M748.429 367.08H728.005V346.651L748.429 367.08Z" fill="white"/>
<path d="M768.854 367.08H748.429V346.651L768.854 367.08Z" fill="white"/>
<path d="M789.278 367.08H768.854V346.651L789.278 367.08Z" fill="white"/>
<path d="M-68.5755 387.505H-89V367.08L-68.5755 387.505Z" fill="white"/>
<path d="M-48.1509 387.505H-68.5755V367.08L-48.1509 387.505Z" fill="white"/>
<path d="M-27.7264 387.505H-48.1509V367.08L-27.7264 387.505Z" fill="white"/>
<path d="M-7.30182 387.505H-27.7264V367.08L-7.30182 387.505Z" fill="white"/>
<path d="M13.1273 387.505H-7.30182V367.08L13.1273 387.505Z" fill="white"/>
<path d="M33.5518 387.505H13.1273V367.08L33.5518 387.505Z" fill="white"/>
<path d="M53.9764 387.505H33.5518V367.08L53.9764 387.505Z" fill="white"/>
<path d="M74.4009 387.505H53.9764V367.08L74.4009 387.505Z" fill="white"/>
<path d="M94.8255 387.505H74.4009V367.08L94.8255 387.505Z" fill="white"/>
<path d="M115.25 387.505H94.8255V367.08L115.25 387.505Z" fill="white"/>
<path d="M135.675 387.505H115.25V367.08L135.675 387.505Z" fill="white"/>
<path d="M156.099 387.505H135.675V367.08L156.099 387.505Z" fill="white"/>
<path d="M176.524 387.505H156.099V367.08L176.524 387.505Z" fill="white"/>
<path d="M196.953 387.505H176.524V367.08L196.953 387.505Z" fill="white"/>
<path d="M217.377 387.505H196.953V367.08L217.377 387.505Z" fill="white"/>
<path d="M237.802 387.505H217.377V367.08L237.802 387.505Z" fill="white"/>
<path d="M258.226 387.505H237.802V367.08L258.226 387.505Z" fill="white"/>
<path d="M278.651 387.505H258.226V367.08L278.651 387.505Z" fill="white"/>
<path d="M299.076 387.505H278.651V367.08L299.076 387.505Z" fill="white"/>
<path d="M319.5 387.505H299.076V367.08L319.5 387.505Z" fill="white"/>
<path d="M339.925 387.505H319.5V367.08L339.925 387.505Z" fill="white"/>
<path d="M360.354 387.505H339.925V367.08L360.354 387.505Z" fill="white"/>
<path d="M380.778 387.505H360.354V367.08L380.778 387.505Z" fill="white"/>
<path d="M401.203 387.505H380.778V367.08L401.203 387.505Z" fill="white"/>
<path d="M421.627 387.505H401.203V367.08L421.627 387.505Z" fill="white"/>
<path d="M442.052 387.505H421.627V367.08L442.052 387.505Z" fill="white"/>
<path d="M462.476 387.505H442.052V367.08L462.476 387.505Z" fill="white"/>
<path d="M482.901 387.505H462.476V367.08L482.901 387.505Z" fill="white"/>
<path d="M503.326 387.505H482.901V367.08L503.326 387.505Z" fill="white"/>
<path d="M523.755 387.505H503.326V367.08L523.755 387.505Z" fill="white"/>
<path d="M544.179 387.505H523.755V367.08L544.179 387.505Z" fill="white"/>
<path d="M564.604 387.505H544.179V367.08L564.604 387.505Z" fill="white"/>
<path d="M585.028 387.505H564.604V367.08L585.028 387.505Z" fill="white"/>
<path d="M605.453 387.505H585.028V367.08L605.453 387.505Z" fill="white"/>
<path d="M625.877 387.505H605.453V367.08L625.877 387.505Z" fill="white"/>
<path d="M646.302 387.505H625.877V367.08L646.302 387.505Z" fill="white"/>
<path d="M666.726 387.505H646.302V367.08L666.726 387.505Z" fill="white"/>
<path d="M687.151 387.505H666.726V367.08L687.151 387.505Z" fill="white"/>
<path d="M707.58 387.505H687.151V367.08L707.58 387.505Z" fill="white"/>
<path d="M728.005 387.505H707.58V367.08L728.005 387.505Z" fill="white"/>
<path d="M748.429 387.505H728.005V367.08L748.429 387.505Z" fill="white"/>
<path d="M768.854 387.505H748.429V367.08L768.854 387.505Z" fill="white"/>
<path d="M789.278 387.505H768.854V367.08L789.278 387.505Z" fill="white"/>
<path d="M-68.5755 407.929H-89V387.505L-68.5755 407.929Z" fill="white"/>
<path d="M-48.1509 407.929H-68.5755V387.505L-48.1509 407.929Z" fill="white"/>
<path d="M-27.7264 407.929H-48.1509V387.505L-27.7264 407.929Z" fill="white"/>
<path d="M-7.30182 407.929H-27.7264V387.505L-7.30182 407.929Z" fill="white"/>
<path d="M13.1273 407.929H-7.30182V387.505L13.1273 407.929Z" fill="white"/>
<path d="M33.5518 407.929H13.1273V387.505L33.5518 407.929Z" fill="white"/>
<path d="M53.9764 407.929H33.5518V387.505L53.9764 407.929Z" fill="white"/>
<path d="M74.4009 407.929H53.9764V387.505L74.4009 407.929Z" fill="white"/>
<path d="M94.8255 407.929H74.4009V387.505L94.8255 407.929Z" fill="white"/>
<path d="M115.25 407.929H94.8255V387.505L115.25 407.929Z" fill="white"/>
<path d="M135.675 407.929H115.25V387.505L135.675 407.929Z" fill="white"/>
<path d="M156.099 407.929H135.675V387.505L156.099 407.929Z" fill="white"/>
<path d="M176.524 407.929H156.099V387.505L176.524 407.929Z" fill="white"/>
<path d="M196.953 407.929H176.524V387.505L196.953 407.929Z" fill="white"/>
<path d="M217.377 407.929H196.953V387.505L217.377 407.929Z" fill="white"/>
<path d="M237.802 407.929H217.377V387.505L237.802 407.929Z" fill="white"/>
<path d="M258.226 407.929H237.802V387.505L258.226 407.929Z" fill="white"/>
<path d="M278.651 407.929H258.226V387.505L278.651 407.929Z" fill="white"/>
<path d="M299.076 407.929H278.651V387.505L299.076 407.929Z" fill="white"/>
<path d="M319.5 407.929H299.076V387.505L319.5 407.929Z" fill="white"/>
<path d="M339.925 407.929H319.5V387.505L339.925 407.929Z" fill="white"/>
<path d="M360.354 407.929H339.925V387.505L360.354 407.929Z" fill="white"/>
<path d="M380.778 407.929H360.354V387.505L380.778 407.929Z" fill="white"/>
<path d="M401.203 407.929H380.778V387.505L401.203 407.929Z" fill="white"/>
<path d="M421.627 407.929H401.203V387.505L421.627 407.929Z" fill="white"/>
<path d="M442.052 407.929H421.627V387.505L442.052 407.929Z" fill="white"/>
<path d="M462.476 407.929H442.052V387.505L462.476 407.929Z" fill="white"/>
<path d="M482.901 407.929H462.476V387.505L482.901 407.929Z" fill="white"/>
<path d="M503.326 407.929H482.901V387.505L503.326 407.929Z" fill="white"/>
<path d="M523.755 407.929H503.326V387.505L523.755 407.929Z" fill="white"/>
<path d="M544.179 407.929H523.755V387.505L544.179 407.929Z" fill="white"/>
<path d="M564.604 407.929H544.179V387.505L564.604 407.929Z" fill="white"/>
<path d="M585.028 407.929H564.604V387.505L585.028 407.929Z" fill="white"/>
<path d="M605.453 407.929H585.028V387.505L605.453 407.929Z" fill="white"/>
<path d="M625.877 407.929H605.453V387.505L625.877 407.929Z" fill="white"/>
<path d="M646.302 407.929H625.877V387.505L646.302 407.929Z" fill="white"/>
<path d="M666.726 407.929H646.302V387.505L666.726 407.929Z" fill="white"/>
<path d="M687.151 407.929H666.726V387.505L687.151 407.929Z" fill="white"/>
<path d="M707.58 407.929H687.151V387.505L707.58 407.929Z" fill="white"/>
<path d="M728.005 407.929H707.58V387.505L728.005 407.929Z" fill="white"/>
<path d="M748.429 407.929H728.005V387.505L748.429 407.929Z" fill="white"/>
<path d="M768.854 407.929H748.429V387.505L768.854 407.929Z" fill="white"/>
<path d="M789.278 407.929H768.854V387.505L789.278 407.929Z" fill="white"/>
<path d="M-68.5755 428.354H-89V407.929L-68.5755 428.354Z" fill="white"/>
<path d="M-48.1509 428.354H-68.5755V407.929L-48.1509 428.354Z" fill="white"/>
<path d="M-27.7264 428.354H-48.1509V407.929L-27.7264 428.354Z" fill="white"/>
<path d="M-7.30182 428.354H-27.7264V407.929L-7.30182 428.354Z" fill="white"/>
<path d="M13.1273 428.354H-7.30182V407.929L13.1273 428.354Z" fill="white"/>
<path d="M33.5518 428.354H13.1273V407.929L33.5518 428.354Z" fill="white"/>
<path d="M53.9764 428.354H33.5518V407.929L53.9764 428.354Z" fill="white"/>
<path d="M74.4009 428.354H53.9764V407.929L74.4009 428.354Z" fill="white"/>
<path d="M94.8255 428.354H74.4009V407.929L94.8255 428.354Z" fill="white"/>
<path d="M115.25 428.354H94.8255V407.929L115.25 428.354Z" fill="white"/>
<path d="M135.675 428.354H115.25V407.929L135.675 428.354Z" fill="white"/>
<path d="M156.099 428.354H135.675V407.929L156.099 428.354Z" fill="white"/>
<path d="M176.524 428.354H156.099V407.929L176.524 428.354Z" fill="white"/>
<path d="M196.953 428.354H176.524V407.929L196.953 428.354Z" fill="white"/>
<path d="M217.377 428.354H196.953V407.929L217.377 428.354Z" fill="white"/>
<path d="M237.802 428.354H217.377V407.929L237.802 428.354Z" fill="white"/>
<path d="M258.226 428.354H237.802V407.929L258.226 428.354Z" fill="white"/>
<path d="M278.651 428.354H258.226V407.929L278.651 428.354Z" fill="white"/>
<path d="M299.076 428.354H278.651V407.929L299.076 428.354Z" fill="white"/>
<path d="M319.5 428.354H299.076V407.929L319.5 428.354Z" fill="white"/>
<path d="M339.925 428.354H319.5V407.929L339.925 428.354Z" fill="white"/>
<path d="M360.354 428.354H339.925V407.929L360.354 428.354Z" fill="white"/>
<path d="M380.778 428.354H360.354V407.929L380.778 428.354Z" fill="white"/>
<path d="M401.203 428.354H380.778V407.929L401.203 428.354Z" fill="white"/>
<path d="M421.627 428.354H401.203V407.929L421.627 428.354Z" fill="white"/>
<path d="M442.052 428.354H421.627V407.929L442.052 428.354Z" fill="white"/>
<path d="M462.476 428.354H442.052V407.929L462.476 428.354Z" fill="white"/>
<path d="M482.901 428.354H462.476V407.929L482.901 428.354Z" fill="white"/>
<path d="M503.326 428.354H482.901V407.929L503.326 428.354Z" fill="white"/>
<path d="M523.755 428.354H503.326V407.929L523.755 428.354Z" fill="white"/>
<path d="M544.179 428.354H523.755V407.929L544.179 428.354Z" fill="white"/>
<path d="M564.604 428.354H544.179V407.929L564.604 428.354Z" fill="white"/>
<path d="M585.028 428.354H564.604V407.929L585.028 428.354Z" fill="white"/>
<path d="M605.453 428.354H585.028V407.929L605.453 428.354Z" fill="white"/>
<path d="M625.877 428.354H605.453V407.929L625.877 428.354Z" fill="white"/>
<path d="M646.302 428.354H625.877V407.929L646.302 428.354Z" fill="white"/>
<path d="M666.726 428.354H646.302V407.929L666.726 428.354Z" fill="white"/>
<path d="M687.151 428.354H666.726V407.929L687.151 428.354Z" fill="white"/>
<path d="M707.58 428.354H687.151V407.929L707.58 428.354Z" fill="white"/>
<path d="M728.005 428.354H707.58V407.929L728.005 428.354Z" fill="white"/>
<path d="M748.429 428.354H728.005V407.929L748.429 428.354Z" fill="white"/>
<path d="M768.854 428.354H748.429V407.929L768.854 428.354Z" fill="white"/>
<path d="M789.278 428.354H768.854V407.929L789.278 428.354Z" fill="white"/>
<path d="M-68.5755 448.778H-89V428.354L-68.5755 448.778Z" fill="white"/>
<path d="M-48.1509 448.778H-68.5755V428.354L-48.1509 448.778Z" fill="white"/>
<path d="M-27.7264 448.778H-48.1509V428.354L-27.7264 448.778Z" fill="white"/>
<path d="M-7.30182 448.778H-27.7264V428.354L-7.30182 448.778Z" fill="white"/>
<path d="M13.1273 448.778H-7.30182V428.354L13.1273 448.778Z" fill="white"/>
<path d="M33.5518 448.778H13.1273V428.354L33.5518 448.778Z" fill="white"/>
<path d="M53.9764 448.778H33.5518V428.354L53.9764 448.778Z" fill="white"/>
<path d="M74.4009 448.778H53.9764V428.354L74.4009 448.778Z" fill="white"/>
<path d="M94.8255 448.778H74.4009V428.354L94.8255 448.778Z" fill="white"/>
<path d="M115.25 448.778H94.8255V428.354L115.25 448.778Z" fill="white"/>
<path d="M135.675 448.778H115.25V428.354L135.675 448.778Z" fill="white"/>
<path d="M156.099 448.778H135.675V428.354L156.099 448.778Z" fill="white"/>
<path d="M176.524 448.778H156.099V428.354L176.524 448.778Z" fill="white"/>
<path d="M196.953 448.778H176.524V428.354L196.953 448.778Z" fill="white"/>
<path d="M217.377 448.778H196.953V428.354L217.377 448.778Z" fill="white"/>
<path d="M237.802 448.778H217.377V428.354L237.802 448.778Z" fill="white"/>
<path d="M258.226 448.778H237.802V428.354L258.226 448.778Z" fill="white"/>
<path d="M278.651 448.778H258.226V428.354L278.651 448.778Z" fill="white"/>
<path d="M299.076 448.778H278.651V428.354L299.076 448.778Z" fill="white"/>
<path d="M319.5 448.778H299.076V428.354L319.5 448.778Z" fill="white"/>
<path d="M339.925 448.778H319.5V428.354L339.925 448.778Z" fill="white"/>
<path d="M360.354 448.778H339.925V428.354L360.354 448.778Z" fill="white"/>
<path d="M380.778 448.778H360.354V428.354L380.778 448.778Z" fill="white"/>
<path d="M401.203 448.778H380.778V428.354L401.203 448.778Z" fill="white"/>
<path d="M421.627 448.778H401.203V428.354L421.627 448.778Z" fill="white"/>
<path d="M442.052 448.778H421.627V428.354L442.052 448.778Z" fill="white"/>
<path d="M462.476 448.778H442.052V428.354L462.476 448.778Z" fill="white"/>
<path d="M482.901 448.778H462.476V428.354L482.901 448.778Z" fill="white"/>
<path d="M503.326 448.778H482.901V428.354L503.326 448.778Z" fill="white"/>
<path d="M523.755 448.778H503.326V428.354L523.755 448.778Z" fill="white"/>
<path d="M544.179 448.778H523.755V428.354L544.179 448.778Z" fill="white"/>
<path d="M564.604 448.778H544.179V428.354L564.604 448.778Z" fill="white"/>
<path d="M585.028 448.778H564.604V428.354L585.028 448.778Z" fill="white"/>
<path d="M605.453 448.778H585.028V428.354L605.453 448.778Z" fill="white"/>
<path d="M625.877 448.778H605.453V428.354L625.877 448.778Z" fill="white"/>
<path d="M646.302 448.778H625.877V428.354L646.302 448.778Z" fill="white"/>
<path d="M666.726 448.778H646.302V428.354L666.726 448.778Z" fill="white"/>
<path d="M687.151 448.778H666.726V428.354L687.151 448.778Z" fill="white"/>
<path d="M707.58 448.778H687.151V428.354L707.58 448.778Z" fill="white"/>
<path d="M728.005 448.778H707.58V428.354L728.005 448.778Z" fill="white"/>
<path d="M748.429 448.778H728.005V428.354L748.429 448.778Z" fill="white"/>
<path d="M768.854 448.778H748.429V428.354L768.854 448.778Z" fill="white"/>
<path d="M789.278 448.778H768.854V428.354L789.278 448.778Z" fill="white"/>
<path d="M-68.5755 469.203H-89V448.778L-68.5755 469.203Z" fill="white"/>
<path d="M-48.1509 469.203H-68.5755V448.778L-48.1509 469.203Z" fill="white"/>
<path d="M-27.7264 469.203H-48.1509V448.778L-27.7264 469.203Z" fill="white"/>
<path d="M-7.30182 469.203H-27.7264V448.778L-7.30182 469.203Z" fill="white"/>
<path d="M13.1273 469.203H-7.30182V448.778L13.1273 469.203Z" fill="white"/>
<path d="M33.5518 469.203H13.1273V448.778L33.5518 469.203Z" fill="white"/>
<path d="M53.9764 469.203H33.5518V448.778L53.9764 469.203Z" fill="white"/>
<path d="M74.4009 469.203H53.9764V448.778L74.4009 469.203Z" fill="white"/>
<path d="M94.8255 469.203H74.4009V448.778L94.8255 469.203Z" fill="white"/>
<path d="M115.25 469.203H94.8255V448.778L115.25 469.203Z" fill="white"/>
<path d="M135.675 469.203H115.25V448.778L135.675 469.203Z" fill="white"/>
<path d="M156.099 469.203H135.675V448.778L156.099 469.203Z" fill="white"/>
<path d="M176.524 469.203H156.099V448.778L176.524 469.203Z" fill="white"/>
<path d="M196.953 469.203H176.524V448.778L196.953 469.203Z" fill="white"/>
<path d="M217.377 469.203H196.953V448.778L217.377 469.203Z" fill="white"/>
<path d="M237.802 469.203H217.377V448.778L237.802 469.203Z" fill="white"/>
<path d="M258.226 469.203H237.802V448.778L258.226 469.203Z" fill="white"/>
<path d="M278.651 469.203H258.226V448.778L278.651 469.203Z" fill="white"/>
<path d="M299.076 469.203H278.651V448.778L299.076 469.203Z" fill="white"/>
<path d="M319.5 469.203H299.076V448.778L319.5 469.203Z" fill="white"/>
<path d="M339.925 469.203H319.5V448.778L339.925 469.203Z" fill="white"/>
<path d="M360.354 469.203H339.925V448.778L360.354 469.203Z" fill="white"/>
<path d="M380.778 469.203H360.354V448.778L380.778 469.203Z" fill="white"/>
<path d="M401.203 469.203H380.778V448.778L401.203 469.203Z" fill="white"/>
<path d="M421.627 469.203H401.203V448.778L421.627 469.203Z" fill="white"/>
<path d="M442.052 469.203H421.627V448.778L442.052 469.203Z" fill="white"/>
<path d="M462.476 469.203H442.052V448.778L462.476 469.203Z" fill="white"/>
<path d="M482.901 469.203H462.476V448.778L482.901 469.203Z" fill="white"/>
<path d="M503.326 469.203H482.901V448.778L503.326 469.203Z" fill="white"/>
<path d="M523.755 469.203H503.326V448.778L523.755 469.203Z" fill="white"/>
<path d="M544.179 469.203H523.755V448.778L544.179 469.203Z" fill="white"/>
<path d="M564.604 469.203H544.179V448.778L564.604 469.203Z" fill="white"/>
<path d="M585.028 469.203H564.604V448.778L585.028 469.203Z" fill="white"/>
<path d="M605.453 469.203H585.028V448.778L605.453 469.203Z" fill="white"/>
<path d="M625.877 469.203H605.453V448.778L625.877 469.203Z" fill="white"/>
<path d="M646.302 469.203H625.877V448.778L646.302 469.203Z" fill="white"/>
<path d="M666.726 469.203H646.302V448.778L666.726 469.203Z" fill="white"/>
<path d="M687.151 469.203H666.726V448.778L687.151 469.203Z" fill="white"/>
<path d="M707.58 469.203H687.151V448.778L707.58 469.203Z" fill="white"/>
<path d="M728.005 469.203H707.58V448.778L728.005 469.203Z" fill="white"/>
<path d="M748.429 469.203H728.005V448.778L748.429 469.203Z" fill="white"/>
<path d="M768.854 469.203H748.429V448.778L768.854 469.203Z" fill="white"/>
<path d="M789.278 469.203H768.854V448.778L789.278 469.203Z" fill="white"/>
<path d="M-68.5755 489.627H-89V469.203L-68.5755 489.627Z" fill="white"/>
<path d="M-48.1509 489.627H-68.5755V469.203L-48.1509 489.627Z" fill="white"/>
<path d="M-27.7264 489.627H-48.1509V469.203L-27.7264 489.627Z" fill="white"/>
<path d="M-7.30182 489.627H-27.7264V469.203L-7.30182 489.627Z" fill="white"/>
<path d="M13.1273 489.627H-7.30182V469.203L13.1273 489.627Z" fill="white"/>
<path d="M33.5518 489.627H13.1273V469.203L33.5518 489.627Z" fill="white"/>
<path d="M53.9764 489.627H33.5518V469.203L53.9764 489.627Z" fill="white"/>
<path d="M74.4009 489.627H53.9764V469.203L74.4009 489.627Z" fill="white"/>
<path d="M94.8255 489.627H74.4009V469.203L94.8255 489.627Z" fill="white"/>
<path d="M115.25 489.627H94.8255V469.203L115.25 489.627Z" fill="white"/>
<path d="M135.675 489.627H115.25V469.203L135.675 489.627Z" fill="white"/>
<path d="M156.099 489.627H135.675V469.203L156.099 489.627Z" fill="white"/>
<path d="M176.524 489.627H156.099V469.203L176.524 489.627Z" fill="white"/>
<path d="M196.953 489.627H176.524V469.203L196.953 489.627Z" fill="white"/>
<path d="M217.377 489.627H196.953V469.203L217.377 489.627Z" fill="white"/>
<path d="M237.802 489.627H217.377V469.203L237.802 489.627Z" fill="white"/>
<path d="M258.226 489.627H237.802V469.203L258.226 489.627Z" fill="white"/>
<path d="M278.651 489.627H258.226V469.203L278.651 489.627Z" fill="white"/>
<path d="M299.076 489.627H278.651V469.203L299.076 489.627Z" fill="white"/>
<path d="M319.5 489.627H299.076V469.203L319.5 489.627Z" fill="white"/>
<path d="M339.925 489.627H319.5V469.203L339.925 489.627Z" fill="white"/>
<path d="M360.354 489.627H339.925V469.203L360.354 489.627Z" fill="white"/>
<path d="M380.778 489.627H360.354V469.203L380.778 489.627Z" fill="white"/>
<path d="M401.203 489.627H380.778V469.203L401.203 489.627Z" fill="white"/>
<path d="M421.627 489.627H401.203V469.203L421.627 489.627Z" fill="white"/>
<path d="M442.052 489.627H421.627V469.203L442.052 489.627Z" fill="white"/>
<path d="M462.476 489.627H442.052V469.203L462.476 489.627Z" fill="white"/>
<path d="M482.901 489.627H462.476V469.203L482.901 489.627Z" fill="white"/>
<path d="M503.326 489.627H482.901V469.203L503.326 489.627Z" fill="white"/>
<path d="M523.755 489.627H503.326V469.203L523.755 489.627Z" fill="white"/>
<path d="M544.179 489.627H523.755V469.203L544.179 489.627Z" fill="white"/>
<path d="M564.604 489.627H544.179V469.203L564.604 489.627Z" fill="white"/>
<path d="M585.028 489.627H564.604V469.203L585.028 489.627Z" fill="white"/>
<path d="M605.453 489.627H585.028V469.203L605.453 489.627Z" fill="white"/>
<path d="M625.877 489.627H605.453V469.203L625.877 489.627Z" fill="white"/>
<path d="M646.302 489.627H625.877V469.203L646.302 489.627Z" fill="white"/>
<path d="M666.726 489.627H646.302V469.203L666.726 489.627Z" fill="white"/>
<path d="M687.151 489.627H666.726V469.203L687.151 489.627Z" fill="white"/>
<path d="M707.58 489.627H687.151V469.203L707.58 489.627Z" fill="white"/>
<path d="M728.005 489.627H707.58V469.203L728.005 489.627Z" fill="white"/>
<path d="M748.429 489.627H728.005V469.203L748.429 489.627Z" fill="white"/>
<path d="M768.854 489.627H748.429V469.203L768.854 489.627Z" fill="white"/>
<path d="M789.278 489.627H768.854V469.203L789.278 489.627Z" fill="white"/>
</g>
</g>
<g opacity="0.6" filter="url(#filter1_f_11948_11037)">
<ellipse cx="109.5" cy="1223.5" rx="566.5" ry="529.5" fill="#7AE2C0"/>
</g>
<g opacity="0.6" filter="url(#filter2_f_11948_11037)">
<ellipse cx="1414.5" cy="977" rx="403.5" ry="377" fill="#9BE9D0"/>
</g>
</g>
<defs>
<filter id="filter0_f_11948_11037" x="-668" y="-802" width="1555" height="1502" filterUnits="userSpaceOnUse" color-interpolation-filters="sRGB">
<feFlood flood-opacity="0" result="BackgroundImageFix"/>
<feBlend mode="normal" in="SourceGraphic" in2="BackgroundImageFix" result="shape"/>
<feGaussianBlur stdDeviation="187" result="effect1_foregroundBlur_11948_11037"/>
</filter>
<filter id="filter1_f_11948_11037" x="-831" y="320" width="1881" height="1807" filterUnits="userSpaceOnUse" color-interpolation-filters="sRGB">
<feFlood flood-opacity="0" result="BackgroundImageFix"/>
<feBlend mode="normal" in="SourceGraphic" in2="BackgroundImageFix" result="shape"/>
<feGaussianBlur stdDeviation="187" result="effect1_foregroundBlur_11948_11037"/>
</filter>
<filter id="filter2_f_11948_11037" x="637" y="226" width="1555" height="1502" filterUnits="userSpaceOnUse" color-interpolation-filters="sRGB">
<feFlood flood-opacity="0" result="BackgroundImageFix"/>
<feBlend mode="normal" in="SourceGraphic" in2="BackgroundImageFix" result="shape"/>
<feGaussianBlur stdDeviation="187" result="effect1_foregroundBlur_11948_11037"/>
</filter>
<clipPath id="clip0_11948_11037">
<rect width="1440.48" height="906" fill="white" transform="translate(-0.478516)"/>
</clipPath>
<clipPath id="clip1_11948_11037">
<rect width="810" height="532.788" fill="white" transform="translate(-21 -32)"/>
</clipPath>
</defs>
</svg>
