<svg width="658" height="531" viewBox="0 0 658 531" fill="none" xmlns="http://www.w3.org/2000/svg">
<g clip-path="url(#clip0_11938_60032)">
<path d="M269.741 124.989C236.801 112.135 203.152 101.174 168.96 92.1614C194.604 108.231 306.039 179.274 339.239 204.239C351.782 206.621 365.553 212.138 373.667 217.47C381.781 222.802 376.636 234.6 373.109 245.496C369.582 256.392 361.273 272.481 354.499 270.62C347.725 268.759 321.299 262.348 314.125 261.631C309.938 261.212 299.005 260.896 286.49 260.626C283.215 267.949 278.664 277.207 274.552 285.749L275.082 286.838C301.033 305.383 313.381 334.646 320.071 365.529L320.75 368.246C321.309 367.623 321.867 366.99 322.407 366.385C326.864 378.11 331.33 389.964 334.959 402.051C336.699 407.867 337.564 411.356 337.09 414.147L338.188 413.701C340.793 412.659 346.646 416.064 348.916 418.158C352.173 421.173 356.249 428.747 360.129 437.465C361.943 430.394 365.525 424.643 372.644 419.098C366.596 395.566 403.815 357.536 423.039 346.371C423.541 346.715 424.081 347.115 424.649 347.543L424.723 347.376C430.529 325.537 441.686 305.504 450.619 284.698C455.708 272.816 462.715 262.608 468.819 251.433C471.731 246.12 470.745 243.868 467.656 238.146C464.073 231.502 461.459 226.356 457.16 220.131C450.916 211.096 444.757 203.755 440.569 197.204C436.382 190.653 451.372 192.235 467.088 194.701C478.533 196.497 503.061 202.033 521.457 205.969C515.405 199.231 511.839 190.625 511.352 181.581C511.184 179.078 514.487 178.027 516.125 179.609C521.224 184.559 527.607 187.332 534.269 189.397C528.463 171.839 515.771 155.974 502.047 143.915C489.28 132.693 475.472 122.598 462.036 112.158L418.666 78.3436C411.073 72.4257 401.777 77.9063 403.117 87.3972C405.124 101.848 405.458 116.482 404.113 131.009C354.661 90.4128 299.539 57.2656 240.496 32.6194C232.633 29.3348 226.287 39.8772 229.981 46.2883C244.693 71.7595 257.967 98.0341 269.741 124.989Z" fill="white"/>
<path d="M268.094 508.311C268.401 504.245 270.067 490.362 275.947 488.846C269.034 480.304 264.111 475.428 265.014 463.173C265.442 457.293 267.405 444.312 274.217 439.911C271.919 437.814 270.391 435.006 269.88 431.937C268.401 424.828 263.981 401.845 263.981 401.845C265.544 401.801 267.1 401.627 268.634 401.324L267.387 400.915C267.564 396.709 265.088 391.842 263.553 387.999C258.584 387.711 249.056 385.468 242.673 382.593C241.656 385.807 240.156 388.847 238.225 391.61C234.429 396.532 228.576 395.927 222.723 394.578C215.065 392.81 214.042 388.8 215.279 381.374C216.042 376.796 217.764 363.695 217.764 363.695L219.457 363.537C207.026 362.002 194.744 350.37 199.145 334.962C195.06 330.309 193.115 324.186 195.869 316.277C195.498 315.56 195.187 314.813 194.939 314.044C192.752 307.261 195.507 298.449 199.135 294.504L201.127 295.89C199.313 293.907 197.987 291.526 197.256 288.94C194.874 277.671 203.527 269.967 213.409 268.776C221.844 267.825 230.38 268.332 238.644 270.274L238.244 271.437L239.174 271.037C240.551 266.636 241.863 262.663 242.84 259.769C240.98 259.769 239.277 259.666 237.909 259.611C226.008 259.136 176.562 262.309 162.921 263.053C142.85 264.161 123.412 266.236 103.602 269.241C103.267 269.297 102.942 269.362 102.607 269.409C86.3114 282.364 71.8719 297.496 59.6926 314.379C55.2356 320.558 61.3675 327.946 67.7227 328.383L182.061 336.19C154.007 360.387 128.511 387.401 105.975 416.807C101.574 422.539 107.585 430.941 114.014 430.765C160.34 429.815 206.579 427.024 252.732 422.39C233.436 448.943 217.884 478.023 206.514 508.814C203.825 516.09 211.66 521.385 217.959 520.259C234.55 517.3 251.271 514.294 267.936 510.88C267.992 509.986 268.029 509.149 268.094 508.311Z" fill="white"/>
<path d="M262.38 370.184C262.38 370.184 257.941 367.29 256.09 364.321C253.503 360.181 251.437 356.682 250.311 351.89C248.571 344.521 249.381 331.01 253.689 324.72C244.691 322.58 223.783 315.117 227.077 302.881C230.008 291.995 249.325 294.116 257.476 296.089C261.328 297.019 269.572 300.974 274.225 306.603" stroke="#008080" stroke-width="6.51341" stroke-linecap="round" stroke-linejoin="round"/>
<path d="M238.662 270.261C230.398 268.319 221.863 267.812 213.427 268.763C203.545 269.954 194.892 277.658 197.274 288.926C198.967 296.929 214.842 310.635 226.724 305.052" stroke="#008080" stroke-width="6.51341" stroke-linecap="round" stroke-linejoin="round"/>
<path d="M320.126 365.535C313.436 334.652 301.088 305.388 275.137 286.844" stroke="#008080" stroke-width="6.51341" stroke-linecap="round" stroke-linejoin="round"/>
<path d="M199.153 294.484C195.525 298.448 192.77 307.26 194.957 314.025C196.911 320.11 202.857 324.614 208.468 327.051C215.465 330.131 236.941 333.407 238.243 321.469" stroke="#008080" stroke-width="6.51341" stroke-linecap="round" stroke-linejoin="round"/>
<path d="M195.879 316.32C190.166 332.697 204.598 341.49 216.526 345.1C223.821 347.306 246.944 345.77 249.829 337.126" stroke="#008080" stroke-width="6.51341" stroke-linecap="round" stroke-linejoin="round"/>
<path d="M199.153 334.93C194.594 350.925 207.974 362.844 220.871 363.635C222.994 363.781 225.112 363.273 226.938 362.18C228.764 361.087 230.212 359.461 231.086 357.52C231.961 355.58 232.22 353.418 231.83 351.325C231.439 349.233 230.417 347.311 228.901 345.816" stroke="#008080" stroke-width="6.51341" stroke-linecap="round" stroke-linejoin="round"/>
<path d="M217.772 279.93C222.583 280.86 227.868 281.977 232.055 284.424C236.01 286.741 237.545 291.542 238.243 294.492" stroke="#008080" stroke-width="6.51341" stroke-linecap="round" stroke-linejoin="round"/>
<path d="M267.396 400.884C267.573 396.679 265.098 391.812 263.563 387.969C257.217 387.597 247.744 386.862 242.58 382.852" stroke="#008080" stroke-width="6.51341" stroke-linecap="round" stroke-linejoin="round"/>
<path d="M251.884 360.578C251.019 365.491 247.529 369.883 245.603 374.535C243.37 379.876 241.77 387.041 238.234 391.619C234.437 396.541 228.585 395.937 222.732 394.587C215.074 392.82 214.05 388.809 215.288 381.384C216.051 376.806 217.772 363.705 217.772 363.705" stroke="#008080" stroke-width="6.51341" stroke-linecap="round" stroke-linejoin="round"/>
<path d="M234.745 286.76C236.869 278.137 239.485 269.644 242.58 261.32" stroke="#008080" stroke-width="6.51341" stroke-linecap="round" stroke-linejoin="round"/>
<path d="M268.02 299.787C273.649 287.169 281.446 272.616 286.006 261.32" stroke="#008080" stroke-width="6.51341" stroke-linecap="round" stroke-linejoin="round"/>
<path d="M339.257 204.24C304.969 178.475 187.374 103.626 166.763 90.7857C152.62 81.974 126.371 66.8722 118.76 62.8711C111.641 59.1491 97.0327 59.1491 90.2959 62.6757C75.985 70.1754 65.7497 83.4069 58.5942 97.9039C51.9172 111.151 46.3163 124.914 41.8454 139.059C36.095 157.446 32.5406 172.65 31.0983 192.19C30.0562 206.082 28.7907 219.705 31.5263 233.532C34.0014 245.972 37.1651 259.669 43.4738 270.751C49.1126 280.68 55.077 280.484 64.875 278.195C77.9018 275.227 90.2401 271.207 103.658 269.17C123.468 266.164 142.906 264.089 162.976 262.982C176.617 262.237 226.063 259.064 237.964 259.539C253.075 260.144 303.936 260.544 314.209 261.577C321.383 262.293 347.799 268.723 354.582 270.565C361.366 272.408 369.656 256.347 373.192 245.442C376.728 234.537 381.911 222.747 373.75 217.416C365.59 212.084 351.828 206.566 339.322 204.184C338.392 217.211 330.427 246.373 321.429 262.507" stroke="#008080" stroke-width="6.51341" stroke-linecap="round" stroke-linejoin="round"/>
<path d="M121.616 78.4766C125.906 90.9544 129.991 112.905 130.614 126.034C131.37 140.945 130.433 155.894 127.823 170.595C124.491 188.125 116.498 211.266 106.105 232.472C95.7114 253.678 76.8597 274.651 68.9971 277.238" stroke="#008080" stroke-width="6.51341" stroke-linecap="round" stroke-linejoin="round"/>
<path d="M119.541 200.376C119.541 200.376 62.3155 176.183 60.2033 170.749C58.6587 166.738 62.0643 149.85 65.4512 147.152C69.443 144.025 95.7386 147.682 102.14 148.734C107.295 149.58 130.157 152.939 130.157 152.939" stroke="#008080" stroke-width="6.51341" stroke-linecap="round" stroke-linejoin="round"/>
<path d="M67.4061 146.383C74.4778 153.38 70.0394 167.784 60.2041 170.752" stroke="#008080" stroke-width="6.51341" stroke-linecap="round" stroke-linejoin="round"/>
<path d="M263.981 401.82C275.054 401.541 285.848 394.274 295.032 388.486C305.081 382.15 314.963 375.246 322.463 366.359C326.92 378.084 331.386 389.938 335.015 402.025C339.23 416.103 338.318 416.671 325.71 425.427C312.537 434.435 297.509 440.369 281.735 442.79C281.735 442.79 272.198 443.022 269.899 431.912C268.401 424.803 263.981 401.82 263.981 401.82Z" stroke="#008080" stroke-width="6.51341" stroke-linecap="round" stroke-linejoin="round"/>
<path d="M274.216 439.883C267.405 444.312 265.442 457.292 265.014 463.145C264.083 475.4 269.034 480.275 275.947 488.817C270.066 490.334 268.401 504.217 268.094 508.283C267.306 518.892 267.931 529.559 269.955 540.003C271.416 547.494 276.468 562.149 283.177 568.969" stroke="#008080" stroke-width="6.51341" stroke-linecap="round" stroke-linejoin="round"/>
<path d="M338.243 413.644C340.849 412.602 346.701 416.008 348.972 418.101C357.635 426.104 372.076 466.347 373.164 474.517C373.704 478.63 373.164 495.658 365.051 487.469C360.789 483.18 358.249 468.692 358.277 463.277C358.36 441.875 358.584 430.095 372.699 419.078C366.651 395.546 403.87 357.517 423.094 346.352C427.44 349.376 434.651 355.964 441.397 359.378C451.772 364.626 467.032 367.688 478.617 368.367C492.099 369.167 517.157 370.228 541.471 366.915C543.379 372.619 542.978 383.552 544.923 389.163C546.44 393.518 558.732 415.989 562.547 425.75C566.911 436.916 593.457 492.327 596.156 498.784C601.534 511.671 608.01 523.116 614.068 535.492" stroke="#008080" stroke-width="6.51341" stroke-linecap="round" stroke-linejoin="round"/>
<path d="M444.811 408.961C440.28 424.779 440.159 450.005 427.439 463.05C422.554 468.056 416.748 468.633 417.502 477.938C418.19 486.424 420.507 502.363 410.058 507.546" stroke="#008080" stroke-width="6.51341" stroke-linecap="round" stroke-linejoin="round"/>
<path d="M455.978 493.328C465.282 493.328 474.587 493.942 483.967 493.942C489.373 493.942 517.157 493.328 517.157 493.328" stroke="#008080" stroke-width="6.51341" stroke-linecap="round" stroke-linejoin="round"/>
<path d="M502.502 485.883V501.385" stroke="#008080" stroke-width="6.51341" stroke-linecap="round" stroke-linejoin="round"/>
<path d="M491.336 484.023C493.727 494.408 492.453 505.173 491.336 515.66" stroke="#008080" stroke-width="6.51341" stroke-linecap="round" stroke-linejoin="round"/>
<path d="M418.135 361.203C415.697 369.522 404.41 391.062 410.197 399.037C417.874 409.626 443.174 379.627 450.906 377.403C451.158 390.43 455.745 409.886 470.595 412.38C479.779 413.925 490.35 409.765 498.51 405.867C506.466 401.878 514.131 397.332 521.447 392.263" stroke="#008080" stroke-width="6.51341" stroke-linecap="round" stroke-linejoin="round"/>
<path d="M424.778 347.313C430.585 325.474 441.741 305.441 450.674 284.635C455.764 272.753 462.77 262.546 468.874 251.37C471.787 246.057 470.8 243.806 467.711 238.083C464.129 231.439 461.514 226.294 457.215 220.069C450.972 211.034 444.812 203.692 440.625 197.142C436.437 190.591 451.428 192.173 467.143 194.639C482.859 197.104 523.224 206.623 538.521 209.35C552.544 211.853 570.549 217.724 579.463 229.56C586.199 238.483 584.199 254.032 579.463 263.681C592.862 265.756 629.653 265.672 622.163 287.734C615.984 305.916 584.776 297.299 571.498 293.67C564.445 305.208 558.601 318.896 552.73 331.374C547.724 342.028 541.48 356.813 538.772 367.216" stroke="#008080" stroke-width="6.51341" stroke-linecap="round" stroke-linejoin="round"/>
<path d="M495.133 267.241C498.678 272.573 496.994 280.557 494.77 285.786C492.76 290.522 487.577 300.134 481.334 300.013C474.727 299.892 475.462 290.485 476.346 285.479C477.351 279.803 479.463 274.778 482.971 269.084C486.479 263.389 492.453 263.212 495.133 267.241Z" stroke="#008080" stroke-width="6.51341" stroke-linecap="round" stroke-linejoin="round"/>
<path d="M499.366 228.289L503.767 236.673" stroke="#008080" stroke-width="6.51341" stroke-linecap="round" stroke-linejoin="round"/>
<path d="M523.531 248.119L535.079 247.523" stroke="#008080" stroke-width="6.51341" stroke-linecap="round" stroke-linejoin="round"/>
<path d="M591.829 281.789C596.547 281.575 600.11 282.887 604.856 282.72" stroke="#008080" stroke-width="6.51341" stroke-linecap="round" stroke-linejoin="round"/>
<path d="M593.271 229.029C594.844 226.557 595.859 223.773 596.245 220.868C596.631 217.964 596.378 215.011 595.504 212.215C592.871 203.84 585.483 199.662 577.229 198.183C572.074 197.252 566.836 196.983 561.69 196.061C556.051 195.057 550.524 193.67 544.941 192.237C534.706 189.604 523.959 187.11 516.161 179.545C514.524 177.963 511.22 179.015 511.388 181.518C513.696 215.462 550.468 224.32 577.062 234.854C574.089 237.397 571.955 240.78 570.939 244.558C568.362 253.324 571.786 262.489 569.767 271.319C569.264 273.534 571.73 275.907 573.87 274.474C578.517 271.527 582.92 268.214 587.037 264.564C592.858 265.083 598.645 265.928 604.372 267.095C607.61 254.143 605.107 236.361 593.271 229.029Z" fill="#008080"/>
<path d="M563.113 309.239C563.259 309.559 563.466 309.847 563.724 310.086C563.981 310.325 564.283 310.511 564.613 310.632C564.943 310.753 565.294 310.808 565.645 310.792C565.996 310.777 566.341 310.691 566.658 310.542C566.966 310.571 567.277 310.539 567.572 310.448C567.868 310.357 568.142 310.209 568.38 310.011C573.814 305.908 579.415 301.637 584.589 296.919C579.527 295.868 574.921 294.602 571.506 293.672C568.529 298.557 565.765 303.833 563.113 309.239Z" fill="#008080"/>
</g>
<defs>
<clipPath id="clip0_11938_60032">
<rect width="658" height="531" fill="white"/>
</clipPath>
</defs>
</svg>
