<svg width="1440" height="786" viewBox="0 0 1440 786" fill="none" xmlns="http://www.w3.org/2000/svg">
<g clip-path="url(#clip0_11938_60123)">
<rect width="1440.74" height="786" fill="white"/>
<g opacity="0.6" filter="url(#filter0_f_11938_60123)">
<ellipse cx="1358.5" cy="56.5" rx="328.5" ry="307.5" fill="#DEF8EF"/>
</g>
<g opacity="0.6" filter="url(#filter1_f_11938_60123)">
<ellipse cx="-53.7607" cy="675.5" rx="566.5" ry="529.5" fill="#7AE2C0"/>
</g>
<g clip-path="url(#clip1_11938_60123)">
<g opacity="0.4">
<path d="M-544.676 222.761H-569.866V197.57L-544.676 222.761Z" fill="white"/>
<path d="M-519.486 222.761H-544.676V197.57L-519.486 222.761Z" fill="white"/>
<path d="M-494.295 222.761H-519.486V197.57L-494.295 222.761Z" fill="white"/>
<path d="M-469.105 222.761H-494.295V197.57L-469.105 222.761Z" fill="white"/>
<path d="M-443.909 222.761H-469.105V197.57L-443.909 222.761Z" fill="white"/>
<path d="M-418.719 222.761H-443.909V197.57L-418.719 222.761Z" fill="white"/>
<path d="M-393.529 222.761H-418.719V197.57L-393.529 222.761Z" fill="white"/>
<path d="M-368.338 222.761H-393.529V197.57L-368.338 222.761Z" fill="white"/>
<path d="M-343.148 222.761H-368.338V197.57L-343.148 222.761Z" fill="white"/>
<path d="M-317.958 222.761H-343.148V197.57L-317.958 222.761Z" fill="white"/>
<path d="M-292.768 222.761H-317.958V197.57L-292.768 222.761Z" fill="white"/>
<path d="M-267.577 222.761H-292.768V197.57L-267.577 222.761Z" fill="white"/>
<path d="M-242.387 222.761H-267.577V197.57L-242.387 222.761Z" fill="white"/>
<path d="M-217.191 222.761H-242.387V197.57L-217.191 222.761Z" fill="white"/>
<path d="M-192.001 222.761H-217.191V197.57L-192.001 222.761Z" fill="white"/>
<path d="M-166.811 222.761H-192.001V197.57L-166.811 222.761Z" fill="white"/>
<path d="M-141.62 222.761H-166.811V197.57L-141.62 222.761Z" fill="white"/>
<path d="M-116.43 222.761H-141.62V197.57L-116.43 222.761Z" fill="white"/>
<path d="M-91.2397 222.761H-116.43V197.57L-91.2397 222.761Z" fill="white"/>
<path d="M-66.0495 222.761H-91.2397V197.57L-66.0495 222.761Z" fill="white"/>
<path d="M-40.8592 222.761H-66.0495V197.57L-40.8592 222.761Z" fill="white"/>
<path d="M-15.6633 222.761H-40.8592V197.57L-15.6633 222.761Z" fill="white"/>
<path d="M9.52698 222.761H-15.6633V197.57L9.52698 222.761Z" fill="white"/>
<path d="M34.7173 222.761H9.52698V197.57L34.7173 222.761Z" fill="white"/>
<path d="M59.9075 222.761H34.7173V197.57L59.9075 222.761Z" fill="white"/>
<path d="M85.0978 222.761H59.9075V197.57L85.0978 222.761Z" fill="white"/>
<path d="M110.288 222.761H85.0978V197.57L110.288 222.761Z" fill="white"/>
<path d="M135.478 222.761H110.288V197.57L135.478 222.761Z" fill="white"/>
<path d="M160.669 222.761H135.478V197.57L160.669 222.761Z" fill="white"/>
<path d="M185.865 222.761H160.669V197.57L185.865 222.761Z" fill="white"/>
<path d="M211.055 222.761H185.865V197.57L211.055 222.761Z" fill="white"/>
<path d="M236.245 222.761H211.055V197.57L236.245 222.761Z" fill="white"/>
<path d="M261.435 222.761H236.245V197.57L261.435 222.761Z" fill="white"/>
<path d="M286.626 222.761H261.435V197.57L286.626 222.761Z" fill="white"/>
<path d="M311.816 222.761H286.626V197.57L311.816 222.761Z" fill="white"/>
<path d="M337.006 222.761H311.816V197.57L337.006 222.761Z" fill="white"/>
<path d="M362.196 222.761H337.006V197.57L362.196 222.761Z" fill="white"/>
<path d="M387.387 222.761H362.196V197.57L387.387 222.761Z" fill="white"/>
<path d="M412.583 222.761H387.387V197.57L412.583 222.761Z" fill="white"/>
<path d="M437.773 222.761H412.583V197.57L437.773 222.761Z" fill="white"/>
<path d="M462.963 222.761H437.773V197.57L462.963 222.761Z" fill="white"/>
<path d="M488.153 222.761H462.963V197.57L488.153 222.761Z" fill="white"/>
<path d="M513.344 222.761H488.153V197.57L513.344 222.761Z" fill="white"/>
<path d="M-544.676 247.957H-569.866V222.761L-544.676 247.957Z" fill="white"/>
<path d="M-519.486 247.957H-544.676V222.761L-519.486 247.957Z" fill="white"/>
<path d="M-494.295 247.957H-519.486V222.761L-494.295 247.957Z" fill="white"/>
<path d="M-469.105 247.957H-494.295V222.761L-469.105 247.957Z" fill="white"/>
<path d="M-443.909 247.957H-469.105V222.761L-443.909 247.957Z" fill="white"/>
<path d="M-418.719 247.957H-443.909V222.761L-418.719 247.957Z" fill="white"/>
<path d="M-393.529 247.957H-418.719V222.761L-393.529 247.957Z" fill="white"/>
<path d="M-368.338 247.957H-393.529V222.761L-368.338 247.957Z" fill="white"/>
<path d="M-343.148 247.957H-368.338V222.761L-343.148 247.957Z" fill="white"/>
<path d="M-317.958 247.957H-343.148V222.761L-317.958 247.957Z" fill="white"/>
<path d="M-292.768 247.957H-317.958V222.761L-292.768 247.957Z" fill="white"/>
<path d="M-267.577 247.957H-292.768V222.761L-267.577 247.957Z" fill="white"/>
<path d="M-242.387 247.957H-267.577V222.761L-242.387 247.957Z" fill="white"/>
<path d="M-217.191 247.957H-242.387V222.761L-217.191 247.957Z" fill="white"/>
<path d="M-192.001 247.957H-217.191V222.761L-192.001 247.957Z" fill="white"/>
<path d="M-166.811 247.957H-192.001V222.761L-166.811 247.957Z" fill="white"/>
<path d="M-141.62 247.957H-166.811V222.761L-141.62 247.957Z" fill="white"/>
<path d="M-116.43 247.957H-141.62V222.761L-116.43 247.957Z" fill="white"/>
<path d="M-91.2397 247.957H-116.43V222.761L-91.2397 247.957Z" fill="white"/>
<path d="M-66.0495 247.957H-91.2397V222.761L-66.0495 247.957Z" fill="white"/>
<path d="M-40.8592 247.957H-66.0495V222.761L-40.8592 247.957Z" fill="white"/>
<path d="M-15.6633 247.957H-40.8592V222.761L-15.6633 247.957Z" fill="white"/>
<path d="M9.52698 247.957H-15.6633V222.761L9.52698 247.957Z" fill="white"/>
<path d="M34.7173 247.957H9.52698V222.761L34.7173 247.957Z" fill="white"/>
<path d="M59.9075 247.957H34.7173V222.761L59.9075 247.957Z" fill="white"/>
<path d="M85.0978 247.957H59.9075V222.761L85.0978 247.957Z" fill="white"/>
<path d="M110.288 247.957H85.0978V222.761L110.288 247.957Z" fill="white"/>
<path d="M135.478 247.957H110.288V222.761L135.478 247.957Z" fill="white"/>
<path d="M160.669 247.957H135.478V222.761L160.669 247.957Z" fill="white"/>
<path d="M185.865 247.957H160.669V222.761L185.865 247.957Z" fill="white"/>
<path d="M211.055 247.957H185.865V222.761L211.055 247.957Z" fill="white"/>
<path d="M236.245 247.957H211.055V222.761L236.245 247.957Z" fill="white"/>
<path d="M261.435 247.957H236.245V222.761L261.435 247.957Z" fill="white"/>
<path d="M286.626 247.957H261.435V222.761L286.626 247.957Z" fill="white"/>
<path d="M311.816 247.957H286.626V222.761L311.816 247.957Z" fill="white"/>
<path d="M337.006 247.957H311.816V222.761L337.006 247.957Z" fill="white"/>
<path d="M362.196 247.957H337.006V222.761L362.196 247.957Z" fill="white"/>
<path d="M387.387 247.957H362.196V222.761L387.387 247.957Z" fill="white"/>
<path d="M412.583 247.957H387.387V222.761L412.583 247.957Z" fill="white"/>
<path d="M437.773 247.957H412.583V222.761L437.773 247.957Z" fill="white"/>
<path d="M462.963 247.957H437.773V222.761L462.963 247.957Z" fill="white"/>
<path d="M488.153 247.957H462.963V222.761L488.153 247.957Z" fill="white"/>
<path d="M513.344 247.957H488.153V222.761L513.344 247.957Z" fill="white"/>
<path d="M-544.676 273.147H-569.866V247.957L-544.676 273.147Z" fill="white"/>
<path d="M-519.486 273.147H-544.676V247.957L-519.486 273.147Z" fill="white"/>
<path d="M-494.295 273.147H-519.486V247.957L-494.295 273.147Z" fill="white"/>
<path d="M-469.105 273.147H-494.295V247.957L-469.105 273.147Z" fill="white"/>
<path d="M-443.909 273.147H-469.105V247.957L-443.909 273.147Z" fill="white"/>
<path d="M-418.719 273.147H-443.909V247.957L-418.719 273.147Z" fill="white"/>
<path d="M-393.529 273.147H-418.719V247.957L-393.529 273.147Z" fill="white"/>
<path d="M-368.338 273.147H-393.529V247.957L-368.338 273.147Z" fill="white"/>
<path d="M-343.148 273.147H-368.338V247.957L-343.148 273.147Z" fill="white"/>
<path d="M-317.958 273.147H-343.148V247.957L-317.958 273.147Z" fill="white"/>
<path d="M-292.768 273.147H-317.958V247.957L-292.768 273.147Z" fill="white"/>
<path d="M-267.577 273.147H-292.768V247.957L-267.577 273.147Z" fill="white"/>
<path d="M-242.387 273.147H-267.577V247.957L-242.387 273.147Z" fill="white"/>
<path d="M-217.191 273.147H-242.387V247.957L-217.191 273.147Z" fill="white"/>
<path d="M-192.001 273.147H-217.191V247.957L-192.001 273.147Z" fill="white"/>
<path d="M-166.811 273.147H-192.001V247.957L-166.811 273.147Z" fill="white"/>
<path d="M-141.62 273.147H-166.811V247.957L-141.62 273.147Z" fill="white"/>
<path d="M-116.43 273.147H-141.62V247.957L-116.43 273.147Z" fill="white"/>
<path d="M-91.2397 273.147H-116.43V247.957L-91.2397 273.147Z" fill="white"/>
<path d="M-66.0495 273.147H-91.2397V247.957L-66.0495 273.147Z" fill="white"/>
<path d="M-40.8592 273.147H-66.0495V247.957L-40.8592 273.147Z" fill="white"/>
<path d="M-15.6633 273.147H-40.8592V247.957L-15.6633 273.147Z" fill="white"/>
<path d="M9.52698 273.147H-15.6633V247.957L9.52698 273.147Z" fill="white"/>
<path d="M34.7173 273.147H9.52698V247.957L34.7173 273.147Z" fill="white"/>
<path d="M59.9075 273.147H34.7173V247.957L59.9075 273.147Z" fill="white"/>
<path d="M85.0978 273.147H59.9075V247.957L85.0978 273.147Z" fill="white"/>
<path d="M110.288 273.147H85.0978V247.957L110.288 273.147Z" fill="white"/>
<path d="M135.478 273.147H110.288V247.957L135.478 273.147Z" fill="white"/>
<path d="M160.669 273.147H135.478V247.957L160.669 273.147Z" fill="white"/>
<path d="M185.865 273.147H160.669V247.957L185.865 273.147Z" fill="white"/>
<path d="M211.055 273.147H185.865V247.957L211.055 273.147Z" fill="white"/>
<path d="M236.245 273.147H211.055V247.957L236.245 273.147Z" fill="white"/>
<path d="M261.435 273.147H236.245V247.957L261.435 273.147Z" fill="white"/>
<path d="M286.626 273.147H261.435V247.957L286.626 273.147Z" fill="white"/>
<path d="M311.816 273.147H286.626V247.957L311.816 273.147Z" fill="white"/>
<path d="M337.006 273.147H311.816V247.957L337.006 273.147Z" fill="white"/>
<path d="M362.196 273.147H337.006V247.957L362.196 273.147Z" fill="white"/>
<path d="M387.387 273.147H362.196V247.957L387.387 273.147Z" fill="white"/>
<path d="M412.583 273.147H387.387V247.957L412.583 273.147Z" fill="white"/>
<path d="M437.773 273.147H412.583V247.957L437.773 273.147Z" fill="white"/>
<path d="M462.963 273.147H437.773V247.957L462.963 273.147Z" fill="white"/>
<path d="M488.153 273.147H462.963V247.957L488.153 273.147Z" fill="white"/>
<path d="M513.344 273.147H488.153V247.957L513.344 273.147Z" fill="white"/>
<path d="M-544.676 298.337H-569.866V273.147L-544.676 298.337Z" fill="white"/>
<path d="M-519.486 298.337H-544.676V273.147L-519.486 298.337Z" fill="white"/>
<path d="M-494.295 298.337H-519.486V273.147L-494.295 298.337Z" fill="white"/>
<path d="M-469.105 298.337H-494.295V273.147L-469.105 298.337Z" fill="white"/>
<path d="M-443.909 298.337H-469.105V273.147L-443.909 298.337Z" fill="white"/>
<path d="M-418.719 298.337H-443.909V273.147L-418.719 298.337Z" fill="white"/>
<path d="M-393.529 298.337H-418.719V273.147L-393.529 298.337Z" fill="white"/>
<path d="M-368.338 298.337H-393.529V273.147L-368.338 298.337Z" fill="white"/>
<path d="M-343.148 298.337H-368.338V273.147L-343.148 298.337Z" fill="white"/>
<path d="M-317.958 298.337H-343.148V273.147L-317.958 298.337Z" fill="white"/>
<path d="M-292.768 298.337H-317.958V273.147L-292.768 298.337Z" fill="white"/>
<path d="M-267.577 298.337H-292.768V273.147L-267.577 298.337Z" fill="white"/>
<path d="M-242.387 298.337H-267.577V273.147L-242.387 298.337Z" fill="white"/>
<path d="M-217.191 298.337H-242.387V273.147L-217.191 298.337Z" fill="white"/>
<path d="M-192.001 298.337H-217.191V273.147L-192.001 298.337Z" fill="white"/>
<path d="M-166.811 298.337H-192.001V273.147L-166.811 298.337Z" fill="white"/>
<path d="M-141.62 298.337H-166.811V273.147L-141.62 298.337Z" fill="white"/>
<path d="M-116.43 298.337H-141.62V273.147L-116.43 298.337Z" fill="white"/>
<path d="M-91.2397 298.337H-116.43V273.147L-91.2397 298.337Z" fill="white"/>
<path d="M-66.0495 298.337H-91.2397V273.147L-66.0495 298.337Z" fill="white"/>
<path d="M-40.8592 298.337H-66.0495V273.147L-40.8592 298.337Z" fill="white"/>
<path d="M-15.6633 298.337H-40.8592V273.147L-15.6633 298.337Z" fill="white"/>
<path d="M9.52698 298.337H-15.6633V273.147L9.52698 298.337Z" fill="white"/>
<path d="M34.7173 298.337H9.52698V273.147L34.7173 298.337Z" fill="white"/>
<path d="M59.9075 298.337H34.7173V273.147L59.9075 298.337Z" fill="white"/>
<path d="M85.0978 298.337H59.9075V273.147L85.0978 298.337Z" fill="white"/>
<path d="M110.288 298.337H85.0978V273.147L110.288 298.337Z" fill="white"/>
<path d="M135.478 298.337H110.288V273.147L135.478 298.337Z" fill="white"/>
<path d="M160.669 298.337H135.478V273.147L160.669 298.337Z" fill="white"/>
<path d="M185.865 298.337H160.669V273.147L185.865 298.337Z" fill="white"/>
<path d="M211.055 298.337H185.865V273.147L211.055 298.337Z" fill="white"/>
<path d="M236.245 298.337H211.055V273.147L236.245 298.337Z" fill="white"/>
<path d="M261.435 298.337H236.245V273.147L261.435 298.337Z" fill="white"/>
<path d="M286.626 298.337H261.435V273.147L286.626 298.337Z" fill="white"/>
<path d="M311.816 298.337H286.626V273.147L311.816 298.337Z" fill="white"/>
<path d="M337.006 298.337H311.816V273.147L337.006 298.337Z" fill="white"/>
<path d="M362.196 298.337H337.006V273.147L362.196 298.337Z" fill="white"/>
<path d="M387.387 298.337H362.196V273.147L387.387 298.337Z" fill="white"/>
<path d="M412.583 298.337H387.387V273.147L412.583 298.337Z" fill="white"/>
<path d="M437.773 298.337H412.583V273.147L437.773 298.337Z" fill="white"/>
<path d="M462.963 298.337H437.773V273.147L462.963 298.337Z" fill="white"/>
<path d="M488.153 298.337H462.963V273.147L488.153 298.337Z" fill="white"/>
<path d="M513.344 298.337H488.153V273.147L513.344 298.337Z" fill="white"/>
<path d="M-544.676 323.527H-569.866V298.337L-544.676 323.527Z" fill="white"/>
<path d="M-519.486 323.527H-544.676V298.337L-519.486 323.527Z" fill="white"/>
<path d="M-494.295 323.527H-519.486V298.337L-494.295 323.527Z" fill="white"/>
<path d="M-469.105 323.527H-494.295V298.337L-469.105 323.527Z" fill="white"/>
<path d="M-443.909 323.527H-469.105V298.337L-443.909 323.527Z" fill="white"/>
<path d="M-418.719 323.527H-443.909V298.337L-418.719 323.527Z" fill="white"/>
<path d="M-393.529 323.527H-418.719V298.337L-393.529 323.527Z" fill="white"/>
<path d="M-368.338 323.527H-393.529V298.337L-368.338 323.527Z" fill="white"/>
<path d="M-343.148 323.527H-368.338V298.337L-343.148 323.527Z" fill="white"/>
<path d="M-317.958 323.527H-343.148V298.337L-317.958 323.527Z" fill="white"/>
<path d="M-292.768 323.527H-317.958V298.337L-292.768 323.527Z" fill="white"/>
<path d="M-267.577 323.527H-292.768V298.337L-267.577 323.527Z" fill="white"/>
<path d="M-242.387 323.527H-267.577V298.337L-242.387 323.527Z" fill="white"/>
<path d="M-217.191 323.527H-242.387V298.337L-217.191 323.527Z" fill="white"/>
<path d="M-192.001 323.527H-217.191V298.337L-192.001 323.527Z" fill="white"/>
<path d="M-166.811 323.527H-192.001V298.337L-166.811 323.527Z" fill="white"/>
<path d="M-141.62 323.527H-166.811V298.337L-141.62 323.527Z" fill="white"/>
<path d="M-116.43 323.527H-141.62V298.337L-116.43 323.527Z" fill="white"/>
<path d="M-91.2397 323.527H-116.43V298.337L-91.2397 323.527Z" fill="white"/>
<path d="M-66.0495 323.527H-91.2397V298.337L-66.0495 323.527Z" fill="white"/>
<path d="M-40.8592 323.527H-66.0495V298.337L-40.8592 323.527Z" fill="white"/>
<path d="M-15.6633 323.527H-40.8592V298.337L-15.6633 323.527Z" fill="white"/>
<path d="M9.52698 323.527H-15.6633V298.337L9.52698 323.527Z" fill="white"/>
<path d="M34.7173 323.527H9.52698V298.337L34.7173 323.527Z" fill="white"/>
<path d="M59.9075 323.527H34.7173V298.337L59.9075 323.527Z" fill="white"/>
<path d="M85.0978 323.527H59.9075V298.337L85.0978 323.527Z" fill="white"/>
<path d="M110.288 323.527H85.0978V298.337L110.288 323.527Z" fill="white"/>
<path d="M135.478 323.527H110.288V298.337L135.478 323.527Z" fill="white"/>
<path d="M160.669 323.527H135.478V298.337L160.669 323.527Z" fill="white"/>
<path d="M185.865 323.527H160.669V298.337L185.865 323.527Z" fill="white"/>
<path d="M211.055 323.527H185.865V298.337L211.055 323.527Z" fill="white"/>
<path d="M236.245 323.527H211.055V298.337L236.245 323.527Z" fill="white"/>
<path d="M261.435 323.527H236.245V298.337L261.435 323.527Z" fill="white"/>
<path d="M286.626 323.527H261.435V298.337L286.626 323.527Z" fill="white"/>
<path d="M311.816 323.527H286.626V298.337L311.816 323.527Z" fill="white"/>
<path d="M337.006 323.527H311.816V298.337L337.006 323.527Z" fill="white"/>
<path d="M362.196 323.527H337.006V298.337L362.196 323.527Z" fill="white"/>
<path d="M387.387 323.527H362.196V298.337L387.387 323.527Z" fill="white"/>
<path d="M412.583 323.527H387.387V298.337L412.583 323.527Z" fill="white"/>
<path d="M437.773 323.527H412.583V298.337L437.773 323.527Z" fill="white"/>
<path d="M462.963 323.527H437.773V298.337L462.963 323.527Z" fill="white"/>
<path d="M488.153 323.527H462.963V298.337L488.153 323.527Z" fill="white"/>
<path d="M513.344 323.527H488.153V298.337L513.344 323.527Z" fill="white"/>
<path d="M-544.676 348.718H-569.866V323.527L-544.676 348.718Z" fill="white"/>
<path d="M-519.486 348.718H-544.676V323.527L-519.486 348.718Z" fill="white"/>
<path d="M-494.295 348.718H-519.486V323.527L-494.295 348.718Z" fill="white"/>
<path d="M-469.105 348.718H-494.295V323.527L-469.105 348.718Z" fill="white"/>
<path d="M-443.909 348.718H-469.105V323.527L-443.909 348.718Z" fill="white"/>
<path d="M-418.719 348.718H-443.909V323.527L-418.719 348.718Z" fill="white"/>
<path d="M-393.529 348.718H-418.719V323.527L-393.529 348.718Z" fill="white"/>
<path d="M-368.338 348.718H-393.529V323.527L-368.338 348.718Z" fill="white"/>
<path d="M-343.148 348.718H-368.338V323.527L-343.148 348.718Z" fill="white"/>
<path d="M-317.958 348.718H-343.148V323.527L-317.958 348.718Z" fill="white"/>
<path d="M-292.768 348.718H-317.958V323.527L-292.768 348.718Z" fill="white"/>
<path d="M-267.577 348.718H-292.768V323.527L-267.577 348.718Z" fill="white"/>
<path d="M-242.387 348.718H-267.577V323.527L-242.387 348.718Z" fill="white"/>
<path d="M-217.191 348.718H-242.387V323.527L-217.191 348.718Z" fill="white"/>
<path d="M-192.001 348.718H-217.191V323.527L-192.001 348.718Z" fill="white"/>
<path d="M-166.811 348.718H-192.001V323.527L-166.811 348.718Z" fill="white"/>
<path d="M-141.62 348.718H-166.811V323.527L-141.62 348.718Z" fill="white"/>
<path d="M-116.43 348.718H-141.62V323.527L-116.43 348.718Z" fill="white"/>
<path d="M-91.2397 348.718H-116.43V323.527L-91.2397 348.718Z" fill="white"/>
<path d="M-66.0495 348.718H-91.2397V323.527L-66.0495 348.718Z" fill="white"/>
<path d="M-40.8592 348.718H-66.0495V323.527L-40.8592 348.718Z" fill="white"/>
<path d="M-15.6633 348.718H-40.8592V323.527L-15.6633 348.718Z" fill="white"/>
<path d="M9.52698 348.718H-15.6633V323.527L9.52698 348.718Z" fill="white"/>
<path d="M34.7173 348.718H9.52698V323.527L34.7173 348.718Z" fill="white"/>
<path d="M59.9075 348.718H34.7173V323.527L59.9075 348.718Z" fill="white"/>
<path d="M85.0978 348.718H59.9075V323.527L85.0978 348.718Z" fill="white"/>
<path d="M110.288 348.718H85.0978V323.527L110.288 348.718Z" fill="white"/>
<path d="M135.478 348.718H110.288V323.527L135.478 348.718Z" fill="white"/>
<path d="M160.669 348.718H135.478V323.527L160.669 348.718Z" fill="white"/>
<path d="M185.865 348.718H160.669V323.527L185.865 348.718Z" fill="white"/>
<path d="M211.055 348.718H185.865V323.527L211.055 348.718Z" fill="white"/>
<path d="M236.245 348.718H211.055V323.527L236.245 348.718Z" fill="white"/>
<path d="M261.435 348.718H236.245V323.527L261.435 348.718Z" fill="white"/>
<path d="M286.626 348.718H261.435V323.527L286.626 348.718Z" fill="white"/>
<path d="M311.816 348.718H286.626V323.527L311.816 348.718Z" fill="white"/>
<path d="M337.006 348.718H311.816V323.527L337.006 348.718Z" fill="white"/>
<path d="M362.196 348.718H337.006V323.527L362.196 348.718Z" fill="white"/>
<path d="M387.387 348.718H362.196V323.527L387.387 348.718Z" fill="white"/>
<path d="M412.583 348.718H387.387V323.527L412.583 348.718Z" fill="white"/>
<path d="M437.773 348.718H412.583V323.527L437.773 348.718Z" fill="white"/>
<path d="M462.963 348.718H437.773V323.527L462.963 348.718Z" fill="white"/>
<path d="M488.153 348.718H462.963V323.527L488.153 348.718Z" fill="white"/>
<path d="M513.344 348.718H488.153V323.527L513.344 348.718Z" fill="white"/>
<path d="M-544.676 373.908H-569.866V348.718L-544.676 373.908Z" fill="white"/>
<path d="M-519.486 373.908H-544.676V348.718L-519.486 373.908Z" fill="white"/>
<path d="M-494.295 373.908H-519.486V348.718L-494.295 373.908Z" fill="white"/>
<path d="M-469.105 373.908H-494.295V348.718L-469.105 373.908Z" fill="white"/>
<path d="M-443.909 373.908H-469.105V348.718L-443.909 373.908Z" fill="white"/>
<path d="M-418.719 373.908H-443.909V348.718L-418.719 373.908Z" fill="white"/>
<path d="M-393.529 373.908H-418.719V348.718L-393.529 373.908Z" fill="white"/>
<path d="M-368.338 373.908H-393.529V348.718L-368.338 373.908Z" fill="white"/>
<path d="M-343.148 373.908H-368.338V348.718L-343.148 373.908Z" fill="white"/>
<path d="M-317.958 373.908H-343.148V348.718L-317.958 373.908Z" fill="white"/>
<path d="M-292.768 373.908H-317.958V348.718L-292.768 373.908Z" fill="white"/>
<path d="M-267.577 373.908H-292.768V348.718L-267.577 373.908Z" fill="white"/>
<path d="M-242.387 373.908H-267.577V348.718L-242.387 373.908Z" fill="white"/>
<path d="M-217.191 373.908H-242.387V348.718L-217.191 373.908Z" fill="white"/>
<path d="M-192.001 373.908H-217.191V348.718L-192.001 373.908Z" fill="white"/>
<path d="M-166.811 373.908H-192.001V348.718L-166.811 373.908Z" fill="white"/>
<path d="M-141.62 373.908H-166.811V348.718L-141.62 373.908Z" fill="white"/>
<path d="M-116.43 373.908H-141.62V348.718L-116.43 373.908Z" fill="white"/>
<path d="M-91.2397 373.908H-116.43V348.718L-91.2397 373.908Z" fill="white"/>
<path d="M-66.0495 373.908H-91.2397V348.718L-66.0495 373.908Z" fill="white"/>
<path d="M-40.8592 373.908H-66.0495V348.718L-40.8592 373.908Z" fill="white"/>
<path d="M-15.6633 373.908H-40.8592V348.718L-15.6633 373.908Z" fill="white"/>
<path d="M9.52698 373.908H-15.6633V348.718L9.52698 373.908Z" fill="white"/>
<path d="M34.7173 373.908H9.52698V348.718L34.7173 373.908Z" fill="white"/>
<path d="M59.9075 373.908H34.7173V348.718L59.9075 373.908Z" fill="white"/>
<path d="M85.0978 373.908H59.9075V348.718L85.0978 373.908Z" fill="white"/>
<path d="M110.288 373.908H85.0978V348.718L110.288 373.908Z" fill="white"/>
<path d="M135.478 373.908H110.288V348.718L135.478 373.908Z" fill="white"/>
<path d="M160.669 373.908H135.478V348.718L160.669 373.908Z" fill="white"/>
<path d="M185.865 373.908H160.669V348.718L185.865 373.908Z" fill="white"/>
<path d="M211.055 373.908H185.865V348.718L211.055 373.908Z" fill="white"/>
<path d="M236.245 373.908H211.055V348.718L236.245 373.908Z" fill="white"/>
<path d="M261.435 373.908H236.245V348.718L261.435 373.908Z" fill="white"/>
<path d="M286.626 373.908H261.435V348.718L286.626 373.908Z" fill="white"/>
<path d="M311.816 373.908H286.626V348.718L311.816 373.908Z" fill="white"/>
<path d="M337.006 373.908H311.816V348.718L337.006 373.908Z" fill="white"/>
<path d="M362.196 373.908H337.006V348.718L362.196 373.908Z" fill="white"/>
<path d="M387.387 373.908H362.196V348.718L387.387 373.908Z" fill="white"/>
<path d="M412.583 373.908H387.387V348.718L412.583 373.908Z" fill="white"/>
<path d="M437.773 373.908H412.583V348.718L437.773 373.908Z" fill="white"/>
<path d="M462.963 373.908H437.773V348.718L462.963 373.908Z" fill="white"/>
<path d="M488.153 373.908H462.963V348.718L488.153 373.908Z" fill="white"/>
<path d="M513.344 373.908H488.153V348.718L513.344 373.908Z" fill="white"/>
<path d="M-544.676 399.098H-569.866V373.908L-544.676 399.098Z" fill="white"/>
<path d="M-519.486 399.098H-544.676V373.908L-519.486 399.098Z" fill="white"/>
<path d="M-494.295 399.098H-519.486V373.908L-494.295 399.098Z" fill="white"/>
<path d="M-469.105 399.098H-494.295V373.908L-469.105 399.098Z" fill="white"/>
<path d="M-443.909 399.098H-469.105V373.908L-443.909 399.098Z" fill="white"/>
<path d="M-418.719 399.098H-443.909V373.908L-418.719 399.098Z" fill="white"/>
<path d="M-393.529 399.098H-418.719V373.908L-393.529 399.098Z" fill="white"/>
<path d="M-368.338 399.098H-393.529V373.908L-368.338 399.098Z" fill="white"/>
<path d="M-343.148 399.098H-368.338V373.908L-343.148 399.098Z" fill="white"/>
<path d="M-317.958 399.098H-343.148V373.908L-317.958 399.098Z" fill="white"/>
<path d="M-292.768 399.098H-317.958V373.908L-292.768 399.098Z" fill="white"/>
<path d="M-267.577 399.098H-292.768V373.908L-267.577 399.098Z" fill="white"/>
<path d="M-242.387 399.098H-267.577V373.908L-242.387 399.098Z" fill="white"/>
<path d="M-217.191 399.098H-242.387V373.908L-217.191 399.098Z" fill="white"/>
<path d="M-192.001 399.098H-217.191V373.908L-192.001 399.098Z" fill="white"/>
<path d="M-166.811 399.098H-192.001V373.908L-166.811 399.098Z" fill="white"/>
<path d="M-141.62 399.098H-166.811V373.908L-141.62 399.098Z" fill="white"/>
<path d="M-116.43 399.098H-141.62V373.908L-116.43 399.098Z" fill="white"/>
<path d="M-91.2397 399.098H-116.43V373.908L-91.2397 399.098Z" fill="white"/>
<path d="M-66.0495 399.098H-91.2397V373.908L-66.0495 399.098Z" fill="white"/>
<path d="M-40.8592 399.098H-66.0495V373.908L-40.8592 399.098Z" fill="white"/>
<path d="M-15.6633 399.098H-40.8592V373.908L-15.6633 399.098Z" fill="white"/>
<path d="M9.52698 399.098H-15.6633V373.908L9.52698 399.098Z" fill="white"/>
<path d="M34.7173 399.098H9.52698V373.908L34.7173 399.098Z" fill="white"/>
<path d="M59.9075 399.098H34.7173V373.908L59.9075 399.098Z" fill="white"/>
<path d="M85.0978 399.098H59.9075V373.908L85.0978 399.098Z" fill="white"/>
<path d="M110.288 399.098H85.0978V373.908L110.288 399.098Z" fill="white"/>
<path d="M135.478 399.098H110.288V373.908L135.478 399.098Z" fill="white"/>
<path d="M160.669 399.098H135.478V373.908L160.669 399.098Z" fill="white"/>
<path d="M185.865 399.098H160.669V373.908L185.865 399.098Z" fill="white"/>
<path d="M211.055 399.098H185.865V373.908L211.055 399.098Z" fill="white"/>
<path d="M236.245 399.098H211.055V373.908L236.245 399.098Z" fill="white"/>
<path d="M261.435 399.098H236.245V373.908L261.435 399.098Z" fill="white"/>
<path d="M286.626 399.098H261.435V373.908L286.626 399.098Z" fill="white"/>
<path d="M311.816 399.098H286.626V373.908L311.816 399.098Z" fill="white"/>
<path d="M337.006 399.098H311.816V373.908L337.006 399.098Z" fill="white"/>
<path d="M362.196 399.098H337.006V373.908L362.196 399.098Z" fill="white"/>
<path d="M387.387 399.098H362.196V373.908L387.387 399.098Z" fill="white"/>
<path d="M412.583 399.098H387.387V373.908L412.583 399.098Z" fill="white"/>
<path d="M437.773 399.098H412.583V373.908L437.773 399.098Z" fill="white"/>
<path d="M462.963 399.098H437.773V373.908L462.963 399.098Z" fill="white"/>
<path d="M488.153 399.098H462.963V373.908L488.153 399.098Z" fill="white"/>
<path d="M513.344 399.098H488.153V373.908L513.344 399.098Z" fill="white"/>
<path d="M-544.676 424.288H-569.866V399.098L-544.676 424.288Z" fill="white"/>
<path d="M-519.486 424.288H-544.676V399.098L-519.486 424.288Z" fill="white"/>
<path d="M-494.295 424.288H-519.486V399.098L-494.295 424.288Z" fill="white"/>
<path d="M-469.105 424.288H-494.295V399.098L-469.105 424.288Z" fill="white"/>
<path d="M-443.909 424.288H-469.105V399.098L-443.909 424.288Z" fill="white"/>
<path d="M-418.719 424.288H-443.909V399.098L-418.719 424.288Z" fill="white"/>
<path d="M-393.529 424.288H-418.719V399.098L-393.529 424.288Z" fill="white"/>
<path d="M-368.338 424.288H-393.529V399.098L-368.338 424.288Z" fill="white"/>
<path d="M-343.148 424.288H-368.338V399.098L-343.148 424.288Z" fill="white"/>
<path d="M-317.958 424.288H-343.148V399.098L-317.958 424.288Z" fill="white"/>
<path d="M-292.768 424.288H-317.958V399.098L-292.768 424.288Z" fill="white"/>
<path d="M-267.577 424.288H-292.768V399.098L-267.577 424.288Z" fill="white"/>
<path d="M-242.387 424.288H-267.577V399.098L-242.387 424.288Z" fill="white"/>
<path d="M-217.191 424.288H-242.387V399.098L-217.191 424.288Z" fill="white"/>
<path d="M-192.001 424.288H-217.191V399.098L-192.001 424.288Z" fill="white"/>
<path d="M-166.811 424.288H-192.001V399.098L-166.811 424.288Z" fill="white"/>
<path d="M-141.62 424.288H-166.811V399.098L-141.62 424.288Z" fill="white"/>
<path d="M-116.43 424.288H-141.62V399.098L-116.43 424.288Z" fill="white"/>
<path d="M-91.2397 424.288H-116.43V399.098L-91.2397 424.288Z" fill="white"/>
<path d="M-66.0495 424.288H-91.2397V399.098L-66.0495 424.288Z" fill="white"/>
<path d="M-40.8592 424.288H-66.0495V399.098L-40.8592 424.288Z" fill="white"/>
<path d="M-15.6633 424.288H-40.8592V399.098L-15.6633 424.288Z" fill="white"/>
<path d="M9.52698 424.288H-15.6633V399.098L9.52698 424.288Z" fill="white"/>
<path d="M34.7173 424.288H9.52698V399.098L34.7173 424.288Z" fill="white"/>
<path d="M59.9075 424.288H34.7173V399.098L59.9075 424.288Z" fill="white"/>
<path d="M85.0978 424.288H59.9075V399.098L85.0978 424.288Z" fill="white"/>
<path d="M110.288 424.288H85.0978V399.098L110.288 424.288Z" fill="white"/>
<path d="M135.478 424.288H110.288V399.098L135.478 424.288Z" fill="white"/>
<path d="M160.669 424.288H135.478V399.098L160.669 424.288Z" fill="white"/>
<path d="M185.865 424.288H160.669V399.098L185.865 424.288Z" fill="white"/>
<path d="M211.055 424.288H185.865V399.098L211.055 424.288Z" fill="white"/>
<path d="M236.245 424.288H211.055V399.098L236.245 424.288Z" fill="white"/>
<path d="M261.435 424.288H236.245V399.098L261.435 424.288Z" fill="white"/>
<path d="M286.626 424.288H261.435V399.098L286.626 424.288Z" fill="white"/>
<path d="M311.816 424.288H286.626V399.098L311.816 424.288Z" fill="white"/>
<path d="M337.006 424.288H311.816V399.098L337.006 424.288Z" fill="white"/>
<path d="M362.196 424.288H337.006V399.098L362.196 424.288Z" fill="white"/>
<path d="M387.387 424.288H362.196V399.098L387.387 424.288Z" fill="white"/>
<path d="M412.583 424.288H387.387V399.098L412.583 424.288Z" fill="white"/>
<path d="M437.773 424.288H412.583V399.098L437.773 424.288Z" fill="white"/>
<path d="M462.963 424.288H437.773V399.098L462.963 424.288Z" fill="white"/>
<path d="M488.153 424.288H462.963V399.098L488.153 424.288Z" fill="white"/>
<path d="M513.344 424.288H488.153V399.098L513.344 424.288Z" fill="white"/>
<path d="M-544.676 449.479H-569.866V424.288L-544.676 449.479Z" fill="white"/>
<path d="M-519.486 449.479H-544.676V424.288L-519.486 449.479Z" fill="white"/>
<path d="M-494.295 449.479H-519.486V424.288L-494.295 449.479Z" fill="white"/>
<path d="M-469.105 449.479H-494.295V424.288L-469.105 449.479Z" fill="white"/>
<path d="M-443.909 449.479H-469.105V424.288L-443.909 449.479Z" fill="white"/>
<path d="M-418.719 449.479H-443.909V424.288L-418.719 449.479Z" fill="white"/>
<path d="M-393.529 449.479H-418.719V424.288L-393.529 449.479Z" fill="white"/>
<path d="M-368.338 449.479H-393.529V424.288L-368.338 449.479Z" fill="white"/>
<path d="M-343.148 449.479H-368.338V424.288L-343.148 449.479Z" fill="white"/>
<path d="M-317.958 449.479H-343.148V424.288L-317.958 449.479Z" fill="white"/>
<path d="M-292.768 449.479H-317.958V424.288L-292.768 449.479Z" fill="white"/>
<path d="M-267.577 449.479H-292.768V424.288L-267.577 449.479Z" fill="white"/>
<path d="M-242.387 449.479H-267.577V424.288L-242.387 449.479Z" fill="white"/>
<path d="M-217.191 449.479H-242.387V424.288L-217.191 449.479Z" fill="white"/>
<path d="M-192.001 449.479H-217.191V424.288L-192.001 449.479Z" fill="white"/>
<path d="M-166.811 449.479H-192.001V424.288L-166.811 449.479Z" fill="white"/>
<path d="M-141.62 449.479H-166.811V424.288L-141.62 449.479Z" fill="white"/>
<path d="M-116.43 449.479H-141.62V424.288L-116.43 449.479Z" fill="white"/>
<path d="M-91.2397 449.479H-116.43V424.288L-91.2397 449.479Z" fill="white"/>
<path d="M-66.0495 449.479H-91.2397V424.288L-66.0495 449.479Z" fill="white"/>
<path d="M-40.8592 449.479H-66.0495V424.288L-40.8592 449.479Z" fill="white"/>
<path d="M-15.6633 449.479H-40.8592V424.288L-15.6633 449.479Z" fill="white"/>
<path d="M9.52698 449.479H-15.6633V424.288L9.52698 449.479Z" fill="white"/>
<path d="M34.7173 449.479H9.52698V424.288L34.7173 449.479Z" fill="white"/>
<path d="M59.9075 449.479H34.7173V424.288L59.9075 449.479Z" fill="white"/>
<path d="M85.0978 449.479H59.9075V424.288L85.0978 449.479Z" fill="white"/>
<path d="M110.288 449.479H85.0978V424.288L110.288 449.479Z" fill="white"/>
<path d="M135.478 449.479H110.288V424.288L135.478 449.479Z" fill="white"/>
<path d="M160.669 449.479H135.478V424.288L160.669 449.479Z" fill="white"/>
<path d="M185.865 449.479H160.669V424.288L185.865 449.479Z" fill="white"/>
<path d="M211.055 449.479H185.865V424.288L211.055 449.479Z" fill="white"/>
<path d="M236.245 449.479H211.055V424.288L236.245 449.479Z" fill="white"/>
<path d="M261.435 449.479H236.245V424.288L261.435 449.479Z" fill="white"/>
<path d="M286.626 449.479H261.435V424.288L286.626 449.479Z" fill="white"/>
<path d="M311.816 449.479H286.626V424.288L311.816 449.479Z" fill="white"/>
<path d="M337.006 449.479H311.816V424.288L337.006 449.479Z" fill="white"/>
<path d="M362.196 449.479H337.006V424.288L362.196 449.479Z" fill="white"/>
<path d="M387.387 449.479H362.196V424.288L387.387 449.479Z" fill="white"/>
<path d="M412.583 449.479H387.387V424.288L412.583 449.479Z" fill="white"/>
<path d="M437.773 449.479H412.583V424.288L437.773 449.479Z" fill="white"/>
<path d="M462.963 449.479H437.773V424.288L462.963 449.479Z" fill="white"/>
<path d="M488.153 449.479H462.963V424.288L488.153 449.479Z" fill="white"/>
<path d="M513.344 449.479H488.153V424.288L513.344 449.479Z" fill="white"/>
<path d="M-544.676 474.675H-569.866V449.479L-544.676 474.675Z" fill="white"/>
<path d="M-519.486 474.675H-544.676V449.479L-519.486 474.675Z" fill="white"/>
<path d="M-494.295 474.675H-519.486V449.479L-494.295 474.675Z" fill="white"/>
<path d="M-469.105 474.675H-494.295V449.479L-469.105 474.675Z" fill="white"/>
<path d="M-443.909 474.675H-469.105V449.479L-443.909 474.675Z" fill="white"/>
<path d="M-418.719 474.675H-443.909V449.479L-418.719 474.675Z" fill="white"/>
<path d="M-393.529 474.675H-418.719V449.479L-393.529 474.675Z" fill="white"/>
<path d="M-368.338 474.675H-393.529V449.479L-368.338 474.675Z" fill="white"/>
<path d="M-343.148 474.675H-368.338V449.479L-343.148 474.675Z" fill="white"/>
<path d="M-317.958 474.675H-343.148V449.479L-317.958 474.675Z" fill="white"/>
<path d="M-292.768 474.675H-317.958V449.479L-292.768 474.675Z" fill="white"/>
<path d="M-267.577 474.675H-292.768V449.479L-267.577 474.675Z" fill="white"/>
<path d="M-242.387 474.675H-267.577V449.479L-242.387 474.675Z" fill="white"/>
<path d="M-217.191 474.675H-242.387V449.479L-217.191 474.675Z" fill="white"/>
<path d="M-192.001 474.675H-217.191V449.479L-192.001 474.675Z" fill="white"/>
<path d="M-166.811 474.675H-192.001V449.479L-166.811 474.675Z" fill="white"/>
<path d="M-141.62 474.675H-166.811V449.479L-141.62 474.675Z" fill="white"/>
<path d="M-116.43 474.675H-141.62V449.479L-116.43 474.675Z" fill="white"/>
<path d="M-91.2397 474.675H-116.43V449.479L-91.2397 474.675Z" fill="white"/>
<path d="M-66.0495 474.675H-91.2397V449.479L-66.0495 474.675Z" fill="white"/>
<path d="M-40.8592 474.675H-66.0495V449.479L-40.8592 474.675Z" fill="white"/>
<path d="M-15.6633 474.675H-40.8592V449.479L-15.6633 474.675Z" fill="white"/>
<path d="M9.52698 474.675H-15.6633V449.479L9.52698 474.675Z" fill="white"/>
<path d="M34.7173 474.675H9.52698V449.479L34.7173 474.675Z" fill="white"/>
<path d="M59.9075 474.675H34.7173V449.479L59.9075 474.675Z" fill="white"/>
<path d="M85.0978 474.675H59.9075V449.479L85.0978 474.675Z" fill="white"/>
<path d="M110.288 474.675H85.0978V449.479L110.288 474.675Z" fill="white"/>
<path d="M135.478 474.675H110.288V449.479L135.478 474.675Z" fill="white"/>
<path d="M160.669 474.675H135.478V449.479L160.669 474.675Z" fill="white"/>
<path d="M185.865 474.675H160.669V449.479L185.865 474.675Z" fill="white"/>
<path d="M211.055 474.675H185.865V449.479L211.055 474.675Z" fill="white"/>
<path d="M236.245 474.675H211.055V449.479L236.245 474.675Z" fill="white"/>
<path d="M261.435 474.675H236.245V449.479L261.435 474.675Z" fill="white"/>
<path d="M286.626 474.675H261.435V449.479L286.626 474.675Z" fill="white"/>
<path d="M311.816 474.675H286.626V449.479L311.816 474.675Z" fill="white"/>
<path d="M337.006 474.675H311.816V449.479L337.006 474.675Z" fill="white"/>
<path d="M362.196 474.675H337.006V449.479L362.196 474.675Z" fill="white"/>
<path d="M387.387 474.675H362.196V449.479L387.387 474.675Z" fill="white"/>
<path d="M412.583 474.675H387.387V449.479L412.583 474.675Z" fill="white"/>
<path d="M437.773 474.675H412.583V449.479L437.773 474.675Z" fill="white"/>
<path d="M462.963 474.675H437.773V449.479L462.963 474.675Z" fill="white"/>
<path d="M488.153 474.675H462.963V449.479L488.153 474.675Z" fill="white"/>
<path d="M513.344 474.675H488.153V449.479L513.344 474.675Z" fill="white"/>
<path d="M-544.676 499.865H-569.866V474.675L-544.676 499.865Z" fill="white"/>
<path d="M-519.486 499.865H-544.676V474.675L-519.486 499.865Z" fill="white"/>
<path d="M-494.295 499.865H-519.486V474.675L-494.295 499.865Z" fill="white"/>
<path d="M-469.105 499.865H-494.295V474.675L-469.105 499.865Z" fill="white"/>
<path d="M-443.909 499.865H-469.105V474.675L-443.909 499.865Z" fill="white"/>
<path d="M-418.719 499.865H-443.909V474.675L-418.719 499.865Z" fill="white"/>
<path d="M-393.529 499.865H-418.719V474.675L-393.529 499.865Z" fill="white"/>
<path d="M-368.338 499.865H-393.529V474.675L-368.338 499.865Z" fill="white"/>
<path d="M-343.148 499.865H-368.338V474.675L-343.148 499.865Z" fill="white"/>
<path d="M-317.958 499.865H-343.148V474.675L-317.958 499.865Z" fill="white"/>
<path d="M-292.768 499.865H-317.958V474.675L-292.768 499.865Z" fill="white"/>
<path d="M-267.577 499.865H-292.768V474.675L-267.577 499.865Z" fill="white"/>
<path d="M-242.387 499.865H-267.577V474.675L-242.387 499.865Z" fill="white"/>
<path d="M-217.191 499.865H-242.387V474.675L-217.191 499.865Z" fill="white"/>
<path d="M-192.001 499.865H-217.191V474.675L-192.001 499.865Z" fill="white"/>
<path d="M-166.811 499.865H-192.001V474.675L-166.811 499.865Z" fill="white"/>
<path d="M-141.62 499.865H-166.811V474.675L-141.62 499.865Z" fill="white"/>
<path d="M-116.43 499.865H-141.62V474.675L-116.43 499.865Z" fill="white"/>
<path d="M-91.2397 499.865H-116.43V474.675L-91.2397 499.865Z" fill="white"/>
<path d="M-66.0495 499.865H-91.2397V474.675L-66.0495 499.865Z" fill="white"/>
<path d="M-40.8592 499.865H-66.0495V474.675L-40.8592 499.865Z" fill="white"/>
<path d="M-15.6633 499.865H-40.8592V474.675L-15.6633 499.865Z" fill="white"/>
<path d="M9.52698 499.865H-15.6633V474.675L9.52698 499.865Z" fill="white"/>
<path d="M34.7173 499.865H9.52698V474.675L34.7173 499.865Z" fill="white"/>
<path d="M59.9075 499.865H34.7173V474.675L59.9075 499.865Z" fill="white"/>
<path d="M85.0978 499.865H59.9075V474.675L85.0978 499.865Z" fill="white"/>
<path d="M110.288 499.865H85.0978V474.675L110.288 499.865Z" fill="white"/>
<path d="M135.478 499.865H110.288V474.675L135.478 499.865Z" fill="white"/>
<path d="M160.669 499.865H135.478V474.675L160.669 499.865Z" fill="white"/>
<path d="M185.865 499.865H160.669V474.675L185.865 499.865Z" fill="white"/>
<path d="M211.055 499.865H185.865V474.675L211.055 499.865Z" fill="white"/>
<path d="M236.245 499.865H211.055V474.675L236.245 499.865Z" fill="white"/>
<path d="M261.435 499.865H236.245V474.675L261.435 499.865Z" fill="white"/>
<path d="M286.626 499.865H261.435V474.675L286.626 499.865Z" fill="white"/>
<path d="M311.816 499.865H286.626V474.675L311.816 499.865Z" fill="white"/>
<path d="M337.006 499.865H311.816V474.675L337.006 499.865Z" fill="white"/>
<path d="M362.196 499.865H337.006V474.675L362.196 499.865Z" fill="white"/>
<path d="M387.387 499.865H362.196V474.675L387.387 499.865Z" fill="white"/>
<path d="M412.583 499.865H387.387V474.675L412.583 499.865Z" fill="white"/>
<path d="M437.773 499.865H412.583V474.675L437.773 499.865Z" fill="white"/>
<path d="M462.963 499.865H437.773V474.675L462.963 499.865Z" fill="white"/>
<path d="M488.153 499.865H462.963V474.675L488.153 499.865Z" fill="white"/>
<path d="M513.344 499.865H488.153V474.675L513.344 499.865Z" fill="white"/>
<path d="M-544.676 525.055H-569.866V499.865L-544.676 525.055Z" fill="white"/>
<path d="M-519.486 525.055H-544.676V499.865L-519.486 525.055Z" fill="white"/>
<path d="M-494.295 525.055H-519.486V499.865L-494.295 525.055Z" fill="white"/>
<path d="M-469.105 525.055H-494.295V499.865L-469.105 525.055Z" fill="white"/>
<path d="M-443.909 525.055H-469.105V499.865L-443.909 525.055Z" fill="white"/>
<path d="M-418.719 525.055H-443.909V499.865L-418.719 525.055Z" fill="white"/>
<path d="M-393.529 525.055H-418.719V499.865L-393.529 525.055Z" fill="white"/>
<path d="M-368.338 525.055H-393.529V499.865L-368.338 525.055Z" fill="white"/>
<path d="M-343.148 525.055H-368.338V499.865L-343.148 525.055Z" fill="white"/>
<path d="M-317.958 525.055H-343.148V499.865L-317.958 525.055Z" fill="white"/>
<path d="M-292.768 525.055H-317.958V499.865L-292.768 525.055Z" fill="white"/>
<path d="M-267.577 525.055H-292.768V499.865L-267.577 525.055Z" fill="white"/>
<path d="M-242.387 525.055H-267.577V499.865L-242.387 525.055Z" fill="white"/>
<path d="M-217.191 525.055H-242.387V499.865L-217.191 525.055Z" fill="white"/>
<path d="M-192.001 525.055H-217.191V499.865L-192.001 525.055Z" fill="white"/>
<path d="M-166.811 525.055H-192.001V499.865L-166.811 525.055Z" fill="white"/>
<path d="M-141.62 525.055H-166.811V499.865L-141.62 525.055Z" fill="white"/>
<path d="M-116.43 525.055H-141.62V499.865L-116.43 525.055Z" fill="white"/>
<path d="M-91.2397 525.055H-116.43V499.865L-91.2397 525.055Z" fill="white"/>
<path d="M-66.0495 525.055H-91.2397V499.865L-66.0495 525.055Z" fill="white"/>
<path d="M-40.8592 525.055H-66.0495V499.865L-40.8592 525.055Z" fill="white"/>
<path d="M-15.6633 525.055H-40.8592V499.865L-15.6633 525.055Z" fill="white"/>
<path d="M9.52698 525.055H-15.6633V499.865L9.52698 525.055Z" fill="white"/>
<path d="M34.7173 525.055H9.52698V499.865L34.7173 525.055Z" fill="white"/>
<path d="M59.9075 525.055H34.7173V499.865L59.9075 525.055Z" fill="white"/>
<path d="M85.0978 525.055H59.9075V499.865L85.0978 525.055Z" fill="white"/>
<path d="M110.288 525.055H85.0978V499.865L110.288 525.055Z" fill="white"/>
<path d="M135.478 525.055H110.288V499.865L135.478 525.055Z" fill="white"/>
<path d="M160.669 525.055H135.478V499.865L160.669 525.055Z" fill="white"/>
<path d="M185.865 525.055H160.669V499.865L185.865 525.055Z" fill="white"/>
<path d="M211.055 525.055H185.865V499.865L211.055 525.055Z" fill="white"/>
<path d="M236.245 525.055H211.055V499.865L236.245 525.055Z" fill="white"/>
<path d="M261.435 525.055H236.245V499.865L261.435 525.055Z" fill="white"/>
<path d="M286.626 525.055H261.435V499.865L286.626 525.055Z" fill="white"/>
<path d="M311.816 525.055H286.626V499.865L311.816 525.055Z" fill="white"/>
<path d="M337.006 525.055H311.816V499.865L337.006 525.055Z" fill="white"/>
<path d="M362.196 525.055H337.006V499.865L362.196 525.055Z" fill="white"/>
<path d="M387.387 525.055H362.196V499.865L387.387 525.055Z" fill="white"/>
<path d="M412.583 525.055H387.387V499.865L412.583 525.055Z" fill="white"/>
<path d="M437.773 525.055H412.583V499.865L437.773 525.055Z" fill="white"/>
<path d="M462.963 525.055H437.773V499.865L462.963 525.055Z" fill="white"/>
<path d="M488.153 525.055H462.963V499.865L488.153 525.055Z" fill="white"/>
<path d="M513.344 525.055H488.153V499.865L513.344 525.055Z" fill="white"/>
<path d="M-544.676 550.245H-569.866V525.055L-544.676 550.245Z" fill="white"/>
<path d="M-519.486 550.245H-544.676V525.055L-519.486 550.245Z" fill="white"/>
<path d="M-494.295 550.245H-519.486V525.055L-494.295 550.245Z" fill="white"/>
<path d="M-469.105 550.245H-494.295V525.055L-469.105 550.245Z" fill="white"/>
<path d="M-443.909 550.245H-469.105V525.055L-443.909 550.245Z" fill="white"/>
<path d="M-418.719 550.245H-443.909V525.055L-418.719 550.245Z" fill="white"/>
<path d="M-393.529 550.245H-418.719V525.055L-393.529 550.245Z" fill="white"/>
<path d="M-368.338 550.245H-393.529V525.055L-368.338 550.245Z" fill="white"/>
<path d="M-343.148 550.245H-368.338V525.055L-343.148 550.245Z" fill="white"/>
<path d="M-317.958 550.245H-343.148V525.055L-317.958 550.245Z" fill="white"/>
<path d="M-292.768 550.245H-317.958V525.055L-292.768 550.245Z" fill="white"/>
<path d="M-267.577 550.245H-292.768V525.055L-267.577 550.245Z" fill="white"/>
<path d="M-242.387 550.245H-267.577V525.055L-242.387 550.245Z" fill="white"/>
<path d="M-217.191 550.245H-242.387V525.055L-217.191 550.245Z" fill="white"/>
<path d="M-192.001 550.245H-217.191V525.055L-192.001 550.245Z" fill="white"/>
<path d="M-166.811 550.245H-192.001V525.055L-166.811 550.245Z" fill="white"/>
<path d="M-141.62 550.245H-166.811V525.055L-141.62 550.245Z" fill="white"/>
<path d="M-116.43 550.245H-141.62V525.055L-116.43 550.245Z" fill="white"/>
<path d="M-91.2397 550.245H-116.43V525.055L-91.2397 550.245Z" fill="white"/>
<path d="M-66.0495 550.245H-91.2397V525.055L-66.0495 550.245Z" fill="white"/>
<path d="M-40.8592 550.245H-66.0495V525.055L-40.8592 550.245Z" fill="white"/>
<path d="M-15.6633 550.245H-40.8592V525.055L-15.6633 550.245Z" fill="white"/>
<path d="M9.52698 550.245H-15.6633V525.055L9.52698 550.245Z" fill="white"/>
<path d="M34.7173 550.245H9.52698V525.055L34.7173 550.245Z" fill="white"/>
<path d="M59.9075 550.245H34.7173V525.055L59.9075 550.245Z" fill="white"/>
<path d="M85.0978 550.245H59.9075V525.055L85.0978 550.245Z" fill="white"/>
<path d="M110.288 550.245H85.0978V525.055L110.288 550.245Z" fill="white"/>
<path d="M135.478 550.245H110.288V525.055L135.478 550.245Z" fill="white"/>
<path d="M160.669 550.245H135.478V525.055L160.669 550.245Z" fill="white"/>
<path d="M185.865 550.245H160.669V525.055L185.865 550.245Z" fill="white"/>
<path d="M211.055 550.245H185.865V525.055L211.055 550.245Z" fill="white"/>
<path d="M236.245 550.245H211.055V525.055L236.245 550.245Z" fill="white"/>
<path d="M261.435 550.245H236.245V525.055L261.435 550.245Z" fill="white"/>
<path d="M286.626 550.245H261.435V525.055L286.626 550.245Z" fill="white"/>
<path d="M311.816 550.245H286.626V525.055L311.816 550.245Z" fill="white"/>
<path d="M337.006 550.245H311.816V525.055L337.006 550.245Z" fill="white"/>
<path d="M362.196 550.245H337.006V525.055L362.196 550.245Z" fill="white"/>
<path d="M387.387 550.245H362.196V525.055L387.387 550.245Z" fill="white"/>
<path d="M412.583 550.245H387.387V525.055L412.583 550.245Z" fill="white"/>
<path d="M437.773 550.245H412.583V525.055L437.773 550.245Z" fill="white"/>
<path d="M462.963 550.245H437.773V525.055L462.963 550.245Z" fill="white"/>
<path d="M488.153 550.245H462.963V525.055L488.153 550.245Z" fill="white"/>
<path d="M513.344 550.245H488.153V525.055L513.344 550.245Z" fill="white"/>
<path d="M-544.676 575.436H-569.866V550.245L-544.676 575.436Z" fill="white"/>
<path d="M-519.486 575.436H-544.676V550.245L-519.486 575.436Z" fill="white"/>
<path d="M-494.295 575.436H-519.486V550.245L-494.295 575.436Z" fill="white"/>
<path d="M-469.105 575.436H-494.295V550.245L-469.105 575.436Z" fill="white"/>
<path d="M-443.909 575.436H-469.105V550.245L-443.909 575.436Z" fill="white"/>
<path d="M-418.719 575.436H-443.909V550.245L-418.719 575.436Z" fill="white"/>
<path d="M-393.529 575.436H-418.719V550.245L-393.529 575.436Z" fill="white"/>
<path d="M-368.338 575.436H-393.529V550.245L-368.338 575.436Z" fill="white"/>
<path d="M-343.148 575.436H-368.338V550.245L-343.148 575.436Z" fill="white"/>
<path d="M-317.958 575.436H-343.148V550.245L-317.958 575.436Z" fill="white"/>
<path d="M-292.768 575.436H-317.958V550.245L-292.768 575.436Z" fill="white"/>
<path d="M-267.577 575.436H-292.768V550.245L-267.577 575.436Z" fill="white"/>
<path d="M-242.387 575.436H-267.577V550.245L-242.387 575.436Z" fill="white"/>
<path d="M-217.191 575.436H-242.387V550.245L-217.191 575.436Z" fill="white"/>
<path d="M-192.001 575.436H-217.191V550.245L-192.001 575.436Z" fill="white"/>
<path d="M-166.811 575.436H-192.001V550.245L-166.811 575.436Z" fill="white"/>
<path d="M-141.62 575.436H-166.811V550.245L-141.62 575.436Z" fill="white"/>
<path d="M-116.43 575.436H-141.62V550.245L-116.43 575.436Z" fill="white"/>
<path d="M-91.2397 575.436H-116.43V550.245L-91.2397 575.436Z" fill="white"/>
<path d="M-66.0495 575.436H-91.2397V550.245L-66.0495 575.436Z" fill="white"/>
<path d="M-40.8592 575.436H-66.0495V550.245L-40.8592 575.436Z" fill="white"/>
<path d="M-15.6633 575.436H-40.8592V550.245L-15.6633 575.436Z" fill="white"/>
<path d="M9.52698 575.436H-15.6633V550.245L9.52698 575.436Z" fill="white"/>
<path d="M34.7173 575.436H9.52698V550.245L34.7173 575.436Z" fill="white"/>
<path d="M59.9075 575.436H34.7173V550.245L59.9075 575.436Z" fill="white"/>
<path d="M85.0978 575.436H59.9075V550.245L85.0978 575.436Z" fill="white"/>
<path d="M110.288 575.436H85.0978V550.245L110.288 575.436Z" fill="white"/>
<path d="M135.478 575.436H110.288V550.245L135.478 575.436Z" fill="white"/>
<path d="M160.669 575.436H135.478V550.245L160.669 575.436Z" fill="white"/>
<path d="M185.865 575.436H160.669V550.245L185.865 575.436Z" fill="white"/>
<path d="M211.055 575.436H185.865V550.245L211.055 575.436Z" fill="white"/>
<path d="M236.245 575.436H211.055V550.245L236.245 575.436Z" fill="white"/>
<path d="M261.435 575.436H236.245V550.245L261.435 575.436Z" fill="white"/>
<path d="M286.626 575.436H261.435V550.245L286.626 575.436Z" fill="white"/>
<path d="M311.816 575.436H286.626V550.245L311.816 575.436Z" fill="white"/>
<path d="M337.006 575.436H311.816V550.245L337.006 575.436Z" fill="white"/>
<path d="M362.196 575.436H337.006V550.245L362.196 575.436Z" fill="white"/>
<path d="M387.387 575.436H362.196V550.245L387.387 575.436Z" fill="white"/>
<path d="M412.583 575.436H387.387V550.245L412.583 575.436Z" fill="white"/>
<path d="M437.773 575.436H412.583V550.245L437.773 575.436Z" fill="white"/>
<path d="M462.963 575.436H437.773V550.245L462.963 575.436Z" fill="white"/>
<path d="M488.153 575.436H462.963V550.245L488.153 575.436Z" fill="white"/>
<path d="M513.344 575.436H488.153V550.245L513.344 575.436Z" fill="white"/>
<path d="M-544.676 600.626H-569.866V575.436L-544.676 600.626Z" fill="white"/>
<path d="M-519.486 600.626H-544.676V575.436L-519.486 600.626Z" fill="white"/>
<path d="M-494.295 600.626H-519.486V575.436L-494.295 600.626Z" fill="white"/>
<path d="M-469.105 600.626H-494.295V575.436L-469.105 600.626Z" fill="white"/>
<path d="M-443.909 600.626H-469.105V575.436L-443.909 600.626Z" fill="white"/>
<path d="M-418.719 600.626H-443.909V575.436L-418.719 600.626Z" fill="white"/>
<path d="M-393.529 600.626H-418.719V575.436L-393.529 600.626Z" fill="white"/>
<path d="M-368.338 600.626H-393.529V575.436L-368.338 600.626Z" fill="white"/>
<path d="M-343.148 600.626H-368.338V575.436L-343.148 600.626Z" fill="white"/>
<path d="M-317.958 600.626H-343.148V575.436L-317.958 600.626Z" fill="white"/>
<path d="M-292.768 600.626H-317.958V575.436L-292.768 600.626Z" fill="white"/>
<path d="M-267.577 600.626H-292.768V575.436L-267.577 600.626Z" fill="white"/>
<path d="M-242.387 600.626H-267.577V575.436L-242.387 600.626Z" fill="white"/>
<path d="M-217.191 600.626H-242.387V575.436L-217.191 600.626Z" fill="white"/>
<path d="M-192.001 600.626H-217.191V575.436L-192.001 600.626Z" fill="white"/>
<path d="M-166.811 600.626H-192.001V575.436L-166.811 600.626Z" fill="white"/>
<path d="M-141.62 600.626H-166.811V575.436L-141.62 600.626Z" fill="white"/>
<path d="M-116.43 600.626H-141.62V575.436L-116.43 600.626Z" fill="white"/>
<path d="M-91.2397 600.626H-116.43V575.436L-91.2397 600.626Z" fill="white"/>
<path d="M-66.0495 600.626H-91.2397V575.436L-66.0495 600.626Z" fill="white"/>
<path d="M-40.8592 600.626H-66.0495V575.436L-40.8592 600.626Z" fill="white"/>
<path d="M-15.6633 600.626H-40.8592V575.436L-15.6633 600.626Z" fill="white"/>
<path d="M9.52698 600.626H-15.6633V575.436L9.52698 600.626Z" fill="white"/>
<path d="M34.7173 600.626H9.52698V575.436L34.7173 600.626Z" fill="white"/>
<path d="M59.9075 600.626H34.7173V575.436L59.9075 600.626Z" fill="white"/>
<path d="M85.0978 600.626H59.9075V575.436L85.0978 600.626Z" fill="white"/>
<path d="M110.288 600.626H85.0978V575.436L110.288 600.626Z" fill="white"/>
<path d="M135.478 600.626H110.288V575.436L135.478 600.626Z" fill="white"/>
<path d="M160.669 600.626H135.478V575.436L160.669 600.626Z" fill="white"/>
<path d="M185.865 600.626H160.669V575.436L185.865 600.626Z" fill="white"/>
<path d="M211.055 600.626H185.865V575.436L211.055 600.626Z" fill="white"/>
<path d="M236.245 600.626H211.055V575.436L236.245 600.626Z" fill="white"/>
<path d="M261.435 600.626H236.245V575.436L261.435 600.626Z" fill="white"/>
<path d="M286.626 600.626H261.435V575.436L286.626 600.626Z" fill="white"/>
<path d="M311.816 600.626H286.626V575.436L311.816 600.626Z" fill="white"/>
<path d="M337.006 600.626H311.816V575.436L337.006 600.626Z" fill="white"/>
<path d="M362.196 600.626H337.006V575.436L362.196 600.626Z" fill="white"/>
<path d="M387.387 600.626H362.196V575.436L387.387 600.626Z" fill="white"/>
<path d="M412.583 600.626H387.387V575.436L412.583 600.626Z" fill="white"/>
<path d="M437.773 600.626H412.583V575.436L437.773 600.626Z" fill="white"/>
<path d="M462.963 600.626H437.773V575.436L462.963 600.626Z" fill="white"/>
<path d="M488.153 600.626H462.963V575.436L488.153 600.626Z" fill="white"/>
<path d="M513.344 600.626H488.153V575.436L513.344 600.626Z" fill="white"/>
<path d="M-544.676 625.816H-569.866V600.626L-544.676 625.816Z" fill="white"/>
<path d="M-519.486 625.816H-544.676V600.626L-519.486 625.816Z" fill="white"/>
<path d="M-494.295 625.816H-519.486V600.626L-494.295 625.816Z" fill="white"/>
<path d="M-469.105 625.816H-494.295V600.626L-469.105 625.816Z" fill="white"/>
<path d="M-443.909 625.816H-469.105V600.626L-443.909 625.816Z" fill="white"/>
<path d="M-418.719 625.816H-443.909V600.626L-418.719 625.816Z" fill="white"/>
<path d="M-393.529 625.816H-418.719V600.626L-393.529 625.816Z" fill="white"/>
<path d="M-368.338 625.816H-393.529V600.626L-368.338 625.816Z" fill="white"/>
<path d="M-343.148 625.816H-368.338V600.626L-343.148 625.816Z" fill="white"/>
<path d="M-317.958 625.816H-343.148V600.626L-317.958 625.816Z" fill="white"/>
<path d="M-292.768 625.816H-317.958V600.626L-292.768 625.816Z" fill="white"/>
<path d="M-267.577 625.816H-292.768V600.626L-267.577 625.816Z" fill="white"/>
<path d="M-242.387 625.816H-267.577V600.626L-242.387 625.816Z" fill="white"/>
<path d="M-217.191 625.816H-242.387V600.626L-217.191 625.816Z" fill="white"/>
<path d="M-192.001 625.816H-217.191V600.626L-192.001 625.816Z" fill="white"/>
<path d="M-166.811 625.816H-192.001V600.626L-166.811 625.816Z" fill="white"/>
<path d="M-141.62 625.816H-166.811V600.626L-141.62 625.816Z" fill="white"/>
<path d="M-116.43 625.816H-141.62V600.626L-116.43 625.816Z" fill="white"/>
<path d="M-91.2397 625.816H-116.43V600.626L-91.2397 625.816Z" fill="white"/>
<path d="M-66.0495 625.816H-91.2397V600.626L-66.0495 625.816Z" fill="white"/>
<path d="M-40.8592 625.816H-66.0495V600.626L-40.8592 625.816Z" fill="white"/>
<path d="M-15.6633 625.816H-40.8592V600.626L-15.6633 625.816Z" fill="white"/>
<path d="M9.52698 625.816H-15.6633V600.626L9.52698 625.816Z" fill="white"/>
<path d="M34.7173 625.816H9.52698V600.626L34.7173 625.816Z" fill="white"/>
<path d="M59.9075 625.816H34.7173V600.626L59.9075 625.816Z" fill="white"/>
<path d="M85.0978 625.816H59.9075V600.626L85.0978 625.816Z" fill="white"/>
<path d="M110.288 625.816H85.0978V600.626L110.288 625.816Z" fill="white"/>
<path d="M135.478 625.816H110.288V600.626L135.478 625.816Z" fill="white"/>
<path d="M160.669 625.816H135.478V600.626L160.669 625.816Z" fill="white"/>
<path d="M185.865 625.816H160.669V600.626L185.865 625.816Z" fill="white"/>
<path d="M211.055 625.816H185.865V600.626L211.055 625.816Z" fill="white"/>
<path d="M236.245 625.816H211.055V600.626L236.245 625.816Z" fill="white"/>
<path d="M261.435 625.816H236.245V600.626L261.435 625.816Z" fill="white"/>
<path d="M286.626 625.816H261.435V600.626L286.626 625.816Z" fill="white"/>
<path d="M311.816 625.816H286.626V600.626L311.816 625.816Z" fill="white"/>
<path d="M337.006 625.816H311.816V600.626L337.006 625.816Z" fill="white"/>
<path d="M362.196 625.816H337.006V600.626L362.196 625.816Z" fill="white"/>
<path d="M387.387 625.816H362.196V600.626L387.387 625.816Z" fill="white"/>
<path d="M412.583 625.816H387.387V600.626L412.583 625.816Z" fill="white"/>
<path d="M437.773 625.816H412.583V600.626L437.773 625.816Z" fill="white"/>
<path d="M462.963 625.816H437.773V600.626L462.963 625.816Z" fill="white"/>
<path d="M488.153 625.816H462.963V600.626L488.153 625.816Z" fill="white"/>
<path d="M513.344 625.816H488.153V600.626L513.344 625.816Z" fill="white"/>
<path d="M-544.676 651.007H-569.866V625.816L-544.676 651.007Z" fill="white"/>
<path d="M-519.486 651.007H-544.676V625.816L-519.486 651.007Z" fill="white"/>
<path d="M-494.295 651.007H-519.486V625.816L-494.295 651.007Z" fill="white"/>
<path d="M-469.105 651.007H-494.295V625.816L-469.105 651.007Z" fill="white"/>
<path d="M-443.909 651.007H-469.105V625.816L-443.909 651.007Z" fill="white"/>
<path d="M-418.719 651.007H-443.909V625.816L-418.719 651.007Z" fill="white"/>
<path d="M-393.529 651.007H-418.719V625.816L-393.529 651.007Z" fill="white"/>
<path d="M-368.338 651.007H-393.529V625.816L-368.338 651.007Z" fill="white"/>
<path d="M-343.148 651.007H-368.338V625.816L-343.148 651.007Z" fill="white"/>
<path d="M-317.958 651.007H-343.148V625.816L-317.958 651.007Z" fill="white"/>
<path d="M-292.768 651.007H-317.958V625.816L-292.768 651.007Z" fill="white"/>
<path d="M-267.577 651.007H-292.768V625.816L-267.577 651.007Z" fill="white"/>
<path d="M-242.387 651.007H-267.577V625.816L-242.387 651.007Z" fill="white"/>
<path d="M-217.191 651.007H-242.387V625.816L-217.191 651.007Z" fill="white"/>
<path d="M-192.001 651.007H-217.191V625.816L-192.001 651.007Z" fill="white"/>
<path d="M-166.811 651.007H-192.001V625.816L-166.811 651.007Z" fill="white"/>
<path d="M-141.62 651.007H-166.811V625.816L-141.62 651.007Z" fill="white"/>
<path d="M-116.43 651.007H-141.62V625.816L-116.43 651.007Z" fill="white"/>
<path d="M-91.2397 651.007H-116.43V625.816L-91.2397 651.007Z" fill="white"/>
<path d="M-66.0495 651.007H-91.2397V625.816L-66.0495 651.007Z" fill="white"/>
<path d="M-40.8592 651.007H-66.0495V625.816L-40.8592 651.007Z" fill="white"/>
<path d="M-15.6633 651.007H-40.8592V625.816L-15.6633 651.007Z" fill="white"/>
<path d="M9.52698 651.007H-15.6633V625.816L9.52698 651.007Z" fill="white"/>
<path d="M34.7173 651.007H9.52698V625.816L34.7173 651.007Z" fill="white"/>
<path d="M59.9075 651.007H34.7173V625.816L59.9075 651.007Z" fill="white"/>
<path d="M85.0978 651.007H59.9075V625.816L85.0978 651.007Z" fill="white"/>
<path d="M110.288 651.007H85.0978V625.816L110.288 651.007Z" fill="white"/>
<path d="M135.478 651.007H110.288V625.816L135.478 651.007Z" fill="white"/>
<path d="M160.669 651.007H135.478V625.816L160.669 651.007Z" fill="white"/>
<path d="M185.865 651.007H160.669V625.816L185.865 651.007Z" fill="white"/>
<path d="M211.055 651.007H185.865V625.816L211.055 651.007Z" fill="white"/>
<path d="M236.245 651.007H211.055V625.816L236.245 651.007Z" fill="white"/>
<path d="M261.435 651.007H236.245V625.816L261.435 651.007Z" fill="white"/>
<path d="M286.626 651.007H261.435V625.816L286.626 651.007Z" fill="white"/>
<path d="M311.816 651.007H286.626V625.816L311.816 651.007Z" fill="white"/>
<path d="M337.006 651.007H311.816V625.816L337.006 651.007Z" fill="white"/>
<path d="M362.196 651.007H337.006V625.816L362.196 651.007Z" fill="white"/>
<path d="M387.387 651.007H362.196V625.816L387.387 651.007Z" fill="white"/>
<path d="M412.583 651.007H387.387V625.816L412.583 651.007Z" fill="white"/>
<path d="M437.773 651.007H412.583V625.816L437.773 651.007Z" fill="white"/>
<path d="M462.963 651.007H437.773V625.816L462.963 651.007Z" fill="white"/>
<path d="M488.153 651.007H462.963V625.816L488.153 651.007Z" fill="white"/>
<path d="M513.344 651.007H488.153V625.816L513.344 651.007Z" fill="white"/>
<path d="M-544.676 676.202H-569.866V651.007L-544.676 676.202Z" fill="white"/>
<path d="M-519.486 676.202H-544.676V651.007L-519.486 676.202Z" fill="white"/>
<path d="M-494.295 676.202H-519.486V651.007L-494.295 676.202Z" fill="white"/>
<path d="M-469.105 676.202H-494.295V651.007L-469.105 676.202Z" fill="white"/>
<path d="M-443.909 676.202H-469.105V651.007L-443.909 676.202Z" fill="white"/>
<path d="M-418.719 676.202H-443.909V651.007L-418.719 676.202Z" fill="white"/>
<path d="M-393.529 676.202H-418.719V651.007L-393.529 676.202Z" fill="white"/>
<path d="M-368.338 676.202H-393.529V651.007L-368.338 676.202Z" fill="white"/>
<path d="M-343.148 676.202H-368.338V651.007L-343.148 676.202Z" fill="white"/>
<path d="M-317.958 676.202H-343.148V651.007L-317.958 676.202Z" fill="white"/>
<path d="M-292.768 676.202H-317.958V651.007L-292.768 676.202Z" fill="white"/>
<path d="M-267.577 676.202H-292.768V651.007L-267.577 676.202Z" fill="white"/>
<path d="M-242.387 676.202H-267.577V651.007L-242.387 676.202Z" fill="white"/>
<path d="M-217.191 676.202H-242.387V651.007L-217.191 676.202Z" fill="white"/>
<path d="M-192.001 676.202H-217.191V651.007L-192.001 676.202Z" fill="white"/>
<path d="M-166.811 676.202H-192.001V651.007L-166.811 676.202Z" fill="white"/>
<path d="M-141.62 676.202H-166.811V651.007L-141.62 676.202Z" fill="white"/>
<path d="M-116.43 676.202H-141.62V651.007L-116.43 676.202Z" fill="white"/>
<path d="M-91.2397 676.202H-116.43V651.007L-91.2397 676.202Z" fill="white"/>
<path d="M-66.0495 676.202H-91.2397V651.007L-66.0495 676.202Z" fill="white"/>
<path d="M-40.8592 676.202H-66.0495V651.007L-40.8592 676.202Z" fill="white"/>
<path d="M-15.6633 676.202H-40.8592V651.007L-15.6633 676.202Z" fill="white"/>
<path d="M9.52698 676.202H-15.6633V651.007L9.52698 676.202Z" fill="white"/>
<path d="M34.7173 676.202H9.52698V651.007L34.7173 676.202Z" fill="white"/>
<path d="M59.9075 676.202H34.7173V651.007L59.9075 676.202Z" fill="white"/>
<path d="M85.0978 676.202H59.9075V651.007L85.0978 676.202Z" fill="white"/>
<path d="M110.288 676.202H85.0978V651.007L110.288 676.202Z" fill="white"/>
<path d="M135.478 676.202H110.288V651.007L135.478 676.202Z" fill="white"/>
<path d="M160.669 676.202H135.478V651.007L160.669 676.202Z" fill="white"/>
<path d="M185.865 676.202H160.669V651.007L185.865 676.202Z" fill="white"/>
<path d="M211.055 676.202H185.865V651.007L211.055 676.202Z" fill="white"/>
<path d="M236.245 676.202H211.055V651.007L236.245 676.202Z" fill="white"/>
<path d="M261.435 676.202H236.245V651.007L261.435 676.202Z" fill="white"/>
<path d="M286.626 676.202H261.435V651.007L286.626 676.202Z" fill="white"/>
<path d="M311.816 676.202H286.626V651.007L311.816 676.202Z" fill="white"/>
<path d="M337.006 676.202H311.816V651.007L337.006 676.202Z" fill="white"/>
<path d="M362.196 676.202H337.006V651.007L362.196 676.202Z" fill="white"/>
<path d="M387.387 676.202H362.196V651.007L387.387 676.202Z" fill="white"/>
<path d="M412.583 676.202H387.387V651.007L412.583 676.202Z" fill="white"/>
<path d="M437.773 676.202H412.583V651.007L437.773 676.202Z" fill="white"/>
<path d="M462.963 676.202H437.773V651.007L462.963 676.202Z" fill="white"/>
<path d="M488.153 676.202H462.963V651.007L488.153 676.202Z" fill="white"/>
<path d="M513.344 676.202H488.153V651.007L513.344 676.202Z" fill="white"/>
<path d="M-544.676 701.393H-569.866V676.202L-544.676 701.393Z" fill="white"/>
<path d="M-519.486 701.393H-544.676V676.202L-519.486 701.393Z" fill="white"/>
<path d="M-494.295 701.393H-519.486V676.202L-494.295 701.393Z" fill="white"/>
<path d="M-469.105 701.393H-494.295V676.202L-469.105 701.393Z" fill="white"/>
<path d="M-443.909 701.393H-469.105V676.202L-443.909 701.393Z" fill="white"/>
<path d="M-418.719 701.393H-443.909V676.202L-418.719 701.393Z" fill="white"/>
<path d="M-393.529 701.393H-418.719V676.202L-393.529 701.393Z" fill="white"/>
<path d="M-368.338 701.393H-393.529V676.202L-368.338 701.393Z" fill="white"/>
<path d="M-343.148 701.393H-368.338V676.202L-343.148 701.393Z" fill="white"/>
<path d="M-317.958 701.393H-343.148V676.202L-317.958 701.393Z" fill="white"/>
<path d="M-292.768 701.393H-317.958V676.202L-292.768 701.393Z" fill="white"/>
<path d="M-267.577 701.393H-292.768V676.202L-267.577 701.393Z" fill="white"/>
<path d="M-242.387 701.393H-267.577V676.202L-242.387 701.393Z" fill="white"/>
<path d="M-217.191 701.393H-242.387V676.202L-217.191 701.393Z" fill="white"/>
<path d="M-192.001 701.393H-217.191V676.202L-192.001 701.393Z" fill="white"/>
<path d="M-166.811 701.393H-192.001V676.202L-166.811 701.393Z" fill="white"/>
<path d="M-141.62 701.393H-166.811V676.202L-141.62 701.393Z" fill="white"/>
<path d="M-116.43 701.393H-141.62V676.202L-116.43 701.393Z" fill="white"/>
<path d="M-91.2397 701.393H-116.43V676.202L-91.2397 701.393Z" fill="white"/>
<path d="M-66.0495 701.393H-91.2397V676.202L-66.0495 701.393Z" fill="white"/>
<path d="M-40.8592 701.393H-66.0495V676.202L-40.8592 701.393Z" fill="white"/>
<path d="M-15.6633 701.393H-40.8592V676.202L-15.6633 701.393Z" fill="white"/>
<path d="M9.52698 701.393H-15.6633V676.202L9.52698 701.393Z" fill="white"/>
<path d="M34.7173 701.393H9.52698V676.202L34.7173 701.393Z" fill="white"/>
<path d="M59.9075 701.393H34.7173V676.202L59.9075 701.393Z" fill="white"/>
<path d="M85.0978 701.393H59.9075V676.202L85.0978 701.393Z" fill="white"/>
<path d="M110.288 701.393H85.0978V676.202L110.288 701.393Z" fill="white"/>
<path d="M135.478 701.393H110.288V676.202L135.478 701.393Z" fill="white"/>
<path d="M160.669 701.393H135.478V676.202L160.669 701.393Z" fill="white"/>
<path d="M185.865 701.393H160.669V676.202L185.865 701.393Z" fill="white"/>
<path d="M211.055 701.393H185.865V676.202L211.055 701.393Z" fill="white"/>
<path d="M236.245 701.393H211.055V676.202L236.245 701.393Z" fill="white"/>
<path d="M261.435 701.393H236.245V676.202L261.435 701.393Z" fill="white"/>
<path d="M286.626 701.393H261.435V676.202L286.626 701.393Z" fill="white"/>
<path d="M311.816 701.393H286.626V676.202L311.816 701.393Z" fill="white"/>
<path d="M337.006 701.393H311.816V676.202L337.006 701.393Z" fill="white"/>
<path d="M362.196 701.393H337.006V676.202L362.196 701.393Z" fill="white"/>
<path d="M387.387 701.393H362.196V676.202L387.387 701.393Z" fill="white"/>
<path d="M412.583 701.393H387.387V676.202L412.583 701.393Z" fill="white"/>
<path d="M437.773 701.393H412.583V676.202L437.773 701.393Z" fill="white"/>
<path d="M462.963 701.393H437.773V676.202L462.963 701.393Z" fill="white"/>
<path d="M488.153 701.393H462.963V676.202L488.153 701.393Z" fill="white"/>
<path d="M513.344 701.393H488.153V676.202L513.344 701.393Z" fill="white"/>
<path d="M-544.676 726.583H-569.866V701.393L-544.676 726.583Z" fill="white"/>
<path d="M-519.486 726.583H-544.676V701.393L-519.486 726.583Z" fill="white"/>
<path d="M-494.295 726.583H-519.486V701.393L-494.295 726.583Z" fill="white"/>
<path d="M-469.105 726.583H-494.295V701.393L-469.105 726.583Z" fill="white"/>
<path d="M-443.909 726.583H-469.105V701.393L-443.909 726.583Z" fill="white"/>
<path d="M-418.719 726.583H-443.909V701.393L-418.719 726.583Z" fill="white"/>
<path d="M-393.529 726.583H-418.719V701.393L-393.529 726.583Z" fill="white"/>
<path d="M-368.338 726.583H-393.529V701.393L-368.338 726.583Z" fill="white"/>
<path d="M-343.148 726.583H-368.338V701.393L-343.148 726.583Z" fill="white"/>
<path d="M-317.958 726.583H-343.148V701.393L-317.958 726.583Z" fill="white"/>
<path d="M-292.768 726.583H-317.958V701.393L-292.768 726.583Z" fill="white"/>
<path d="M-267.577 726.583H-292.768V701.393L-267.577 726.583Z" fill="white"/>
<path d="M-242.387 726.583H-267.577V701.393L-242.387 726.583Z" fill="white"/>
<path d="M-217.191 726.583H-242.387V701.393L-217.191 726.583Z" fill="white"/>
<path d="M-192.001 726.583H-217.191V701.393L-192.001 726.583Z" fill="white"/>
<path d="M-166.811 726.583H-192.001V701.393L-166.811 726.583Z" fill="white"/>
<path d="M-141.62 726.583H-166.811V701.393L-141.62 726.583Z" fill="white"/>
<path d="M-116.43 726.583H-141.62V701.393L-116.43 726.583Z" fill="white"/>
<path d="M-91.2397 726.583H-116.43V701.393L-91.2397 726.583Z" fill="white"/>
<path d="M-66.0495 726.583H-91.2397V701.393L-66.0495 726.583Z" fill="white"/>
<path d="M-40.8592 726.583H-66.0495V701.393L-40.8592 726.583Z" fill="white"/>
<path d="M-15.6633 726.583H-40.8592V701.393L-15.6633 726.583Z" fill="white"/>
<path d="M9.52698 726.583H-15.6633V701.393L9.52698 726.583Z" fill="white"/>
<path d="M34.7173 726.583H9.52698V701.393L34.7173 726.583Z" fill="white"/>
<path d="M59.9075 726.583H34.7173V701.393L59.9075 726.583Z" fill="white"/>
<path d="M85.0978 726.583H59.9075V701.393L85.0978 726.583Z" fill="white"/>
<path d="M110.288 726.583H85.0978V701.393L110.288 726.583Z" fill="white"/>
<path d="M135.478 726.583H110.288V701.393L135.478 726.583Z" fill="white"/>
<path d="M160.669 726.583H135.478V701.393L160.669 726.583Z" fill="white"/>
<path d="M185.865 726.583H160.669V701.393L185.865 726.583Z" fill="white"/>
<path d="M211.055 726.583H185.865V701.393L211.055 726.583Z" fill="white"/>
<path d="M236.245 726.583H211.055V701.393L236.245 726.583Z" fill="white"/>
<path d="M261.435 726.583H236.245V701.393L261.435 726.583Z" fill="white"/>
<path d="M286.626 726.583H261.435V701.393L286.626 726.583Z" fill="white"/>
<path d="M311.816 726.583H286.626V701.393L311.816 726.583Z" fill="white"/>
<path d="M337.006 726.583H311.816V701.393L337.006 726.583Z" fill="white"/>
<path d="M362.196 726.583H337.006V701.393L362.196 726.583Z" fill="white"/>
<path d="M387.387 726.583H362.196V701.393L387.387 726.583Z" fill="white"/>
<path d="M412.583 726.583H387.387V701.393L412.583 726.583Z" fill="white"/>
<path d="M437.773 726.583H412.583V701.393L437.773 726.583Z" fill="white"/>
<path d="M462.963 726.583H437.773V701.393L462.963 726.583Z" fill="white"/>
<path d="M488.153 726.583H462.963V701.393L488.153 726.583Z" fill="white"/>
<path d="M513.344 726.583H488.153V701.393L513.344 726.583Z" fill="white"/>
<path d="M-544.676 751.773H-569.866V726.583L-544.676 751.773Z" fill="white"/>
<path d="M-519.486 751.773H-544.676V726.583L-519.486 751.773Z" fill="white"/>
<path d="M-494.295 751.773H-519.486V726.583L-494.295 751.773Z" fill="white"/>
<path d="M-469.105 751.773H-494.295V726.583L-469.105 751.773Z" fill="white"/>
<path d="M-443.909 751.773H-469.105V726.583L-443.909 751.773Z" fill="white"/>
<path d="M-418.719 751.773H-443.909V726.583L-418.719 751.773Z" fill="white"/>
<path d="M-393.529 751.773H-418.719V726.583L-393.529 751.773Z" fill="white"/>
<path d="M-368.338 751.773H-393.529V726.583L-368.338 751.773Z" fill="white"/>
<path d="M-343.148 751.773H-368.338V726.583L-343.148 751.773Z" fill="white"/>
<path d="M-317.958 751.773H-343.148V726.583L-317.958 751.773Z" fill="white"/>
<path d="M-292.768 751.773H-317.958V726.583L-292.768 751.773Z" fill="white"/>
<path d="M-267.577 751.773H-292.768V726.583L-267.577 751.773Z" fill="white"/>
<path d="M-242.387 751.773H-267.577V726.583L-242.387 751.773Z" fill="white"/>
<path d="M-217.191 751.773H-242.387V726.583L-217.191 751.773Z" fill="white"/>
<path d="M-192.001 751.773H-217.191V726.583L-192.001 751.773Z" fill="white"/>
<path d="M-166.811 751.773H-192.001V726.583L-166.811 751.773Z" fill="white"/>
<path d="M-141.62 751.773H-166.811V726.583L-141.62 751.773Z" fill="white"/>
<path d="M-116.43 751.773H-141.62V726.583L-116.43 751.773Z" fill="white"/>
<path d="M-91.2397 751.773H-116.43V726.583L-91.2397 751.773Z" fill="white"/>
<path d="M-66.0495 751.773H-91.2397V726.583L-66.0495 751.773Z" fill="white"/>
<path d="M-40.8592 751.773H-66.0495V726.583L-40.8592 751.773Z" fill="white"/>
<path d="M-15.6633 751.773H-40.8592V726.583L-15.6633 751.773Z" fill="white"/>
<path d="M9.52698 751.773H-15.6633V726.583L9.52698 751.773Z" fill="white"/>
<path d="M34.7173 751.773H9.52698V726.583L34.7173 751.773Z" fill="white"/>
<path d="M59.9075 751.773H34.7173V726.583L59.9075 751.773Z" fill="white"/>
<path d="M85.0978 751.773H59.9075V726.583L85.0978 751.773Z" fill="white"/>
<path d="M110.288 751.773H85.0978V726.583L110.288 751.773Z" fill="white"/>
<path d="M135.478 751.773H110.288V726.583L135.478 751.773Z" fill="white"/>
<path d="M160.669 751.773H135.478V726.583L160.669 751.773Z" fill="white"/>
<path d="M185.865 751.773H160.669V726.583L185.865 751.773Z" fill="white"/>
<path d="M211.055 751.773H185.865V726.583L211.055 751.773Z" fill="white"/>
<path d="M236.245 751.773H211.055V726.583L236.245 751.773Z" fill="white"/>
<path d="M261.435 751.773H236.245V726.583L261.435 751.773Z" fill="white"/>
<path d="M286.626 751.773H261.435V726.583L286.626 751.773Z" fill="white"/>
<path d="M311.816 751.773H286.626V726.583L311.816 751.773Z" fill="white"/>
<path d="M337.006 751.773H311.816V726.583L337.006 751.773Z" fill="white"/>
<path d="M362.196 751.773H337.006V726.583L362.196 751.773Z" fill="white"/>
<path d="M387.387 751.773H362.196V726.583L387.387 751.773Z" fill="white"/>
<path d="M412.583 751.773H387.387V726.583L412.583 751.773Z" fill="white"/>
<path d="M437.773 751.773H412.583V726.583L437.773 751.773Z" fill="white"/>
<path d="M462.963 751.773H437.773V726.583L462.963 751.773Z" fill="white"/>
<path d="M488.153 751.773H462.963V726.583L488.153 751.773Z" fill="white"/>
<path d="M513.344 751.773H488.153V726.583L513.344 751.773Z" fill="white"/>
<path d="M-544.676 776.964H-569.866V751.773L-544.676 776.964Z" fill="white"/>
<path d="M-519.486 776.964H-544.676V751.773L-519.486 776.964Z" fill="white"/>
<path d="M-494.295 776.964H-519.486V751.773L-494.295 776.964Z" fill="white"/>
<path d="M-469.105 776.964H-494.295V751.773L-469.105 776.964Z" fill="white"/>
<path d="M-443.909 776.964H-469.105V751.773L-443.909 776.964Z" fill="white"/>
<path d="M-418.719 776.964H-443.909V751.773L-418.719 776.964Z" fill="white"/>
<path d="M-393.529 776.964H-418.719V751.773L-393.529 776.964Z" fill="white"/>
<path d="M-368.338 776.964H-393.529V751.773L-368.338 776.964Z" fill="white"/>
<path d="M-343.148 776.964H-368.338V751.773L-343.148 776.964Z" fill="white"/>
<path d="M-317.958 776.964H-343.148V751.773L-317.958 776.964Z" fill="white"/>
<path d="M-292.768 776.964H-317.958V751.773L-292.768 776.964Z" fill="white"/>
<path d="M-267.577 776.964H-292.768V751.773L-267.577 776.964Z" fill="white"/>
<path d="M-242.387 776.964H-267.577V751.773L-242.387 776.964Z" fill="white"/>
<path d="M-217.191 776.964H-242.387V751.773L-217.191 776.964Z" fill="white"/>
<path d="M-192.001 776.964H-217.191V751.773L-192.001 776.964Z" fill="white"/>
<path d="M-166.811 776.964H-192.001V751.773L-166.811 776.964Z" fill="white"/>
<path d="M-141.62 776.964H-166.811V751.773L-141.62 776.964Z" fill="white"/>
<path d="M-116.43 776.964H-141.62V751.773L-116.43 776.964Z" fill="white"/>
<path d="M-91.2397 776.964H-116.43V751.773L-91.2397 776.964Z" fill="white"/>
<path d="M-66.0495 776.964H-91.2397V751.773L-66.0495 776.964Z" fill="white"/>
<path d="M-40.8592 776.964H-66.0495V751.773L-40.8592 776.964Z" fill="white"/>
<path d="M-15.6633 776.964H-40.8592V751.773L-15.6633 776.964Z" fill="white"/>
<path d="M9.52698 776.964H-15.6633V751.773L9.52698 776.964Z" fill="white"/>
<path d="M34.7173 776.964H9.52698V751.773L34.7173 776.964Z" fill="white"/>
<path d="M59.9075 776.964H34.7173V751.773L59.9075 776.964Z" fill="white"/>
<path d="M85.0978 776.964H59.9075V751.773L85.0978 776.964Z" fill="white"/>
<path d="M110.288 776.964H85.0978V751.773L110.288 776.964Z" fill="white"/>
<path d="M135.478 776.964H110.288V751.773L135.478 776.964Z" fill="white"/>
<path d="M160.669 776.964H135.478V751.773L160.669 776.964Z" fill="white"/>
<path d="M185.865 776.964H160.669V751.773L185.865 776.964Z" fill="white"/>
<path d="M211.055 776.964H185.865V751.773L211.055 776.964Z" fill="white"/>
<path d="M236.245 776.964H211.055V751.773L236.245 776.964Z" fill="white"/>
<path d="M261.435 776.964H236.245V751.773L261.435 776.964Z" fill="white"/>
<path d="M286.626 776.964H261.435V751.773L286.626 776.964Z" fill="white"/>
<path d="M311.816 776.964H286.626V751.773L311.816 776.964Z" fill="white"/>
<path d="M337.006 776.964H311.816V751.773L337.006 776.964Z" fill="white"/>
<path d="M362.196 776.964H337.006V751.773L362.196 776.964Z" fill="white"/>
<path d="M387.387 776.964H362.196V751.773L387.387 776.964Z" fill="white"/>
<path d="M412.583 776.964H387.387V751.773L412.583 776.964Z" fill="white"/>
<path d="M437.773 776.964H412.583V751.773L437.773 776.964Z" fill="white"/>
<path d="M462.963 776.964H437.773V751.773L462.963 776.964Z" fill="white"/>
<path d="M488.153 776.964H462.963V751.773L488.153 776.964Z" fill="white"/>
<path d="M513.344 776.964H488.153V751.773L513.344 776.964Z" fill="white"/>
<path d="M-544.676 802.154H-569.866V776.964L-544.676 802.154Z" fill="white"/>
<path d="M-519.486 802.154H-544.676V776.964L-519.486 802.154Z" fill="white"/>
<path d="M-494.295 802.154H-519.486V776.964L-494.295 802.154Z" fill="white"/>
<path d="M-469.105 802.154H-494.295V776.964L-469.105 802.154Z" fill="white"/>
<path d="M-443.909 802.154H-469.105V776.964L-443.909 802.154Z" fill="white"/>
<path d="M-418.719 802.154H-443.909V776.964L-418.719 802.154Z" fill="white"/>
<path d="M-393.529 802.154H-418.719V776.964L-393.529 802.154Z" fill="white"/>
<path d="M-368.338 802.154H-393.529V776.964L-368.338 802.154Z" fill="white"/>
<path d="M-343.148 802.154H-368.338V776.964L-343.148 802.154Z" fill="white"/>
<path d="M-317.958 802.154H-343.148V776.964L-317.958 802.154Z" fill="white"/>
<path d="M-292.768 802.154H-317.958V776.964L-292.768 802.154Z" fill="white"/>
<path d="M-267.577 802.154H-292.768V776.964L-267.577 802.154Z" fill="white"/>
<path d="M-242.387 802.154H-267.577V776.964L-242.387 802.154Z" fill="white"/>
<path d="M-217.191 802.154H-242.387V776.964L-217.191 802.154Z" fill="white"/>
<path d="M-192.001 802.154H-217.191V776.964L-192.001 802.154Z" fill="white"/>
<path d="M-166.811 802.154H-192.001V776.964L-166.811 802.154Z" fill="white"/>
<path d="M-141.62 802.154H-166.811V776.964L-141.62 802.154Z" fill="white"/>
<path d="M-116.43 802.154H-141.62V776.964L-116.43 802.154Z" fill="white"/>
<path d="M-91.2397 802.154H-116.43V776.964L-91.2397 802.154Z" fill="white"/>
<path d="M-66.0495 802.154H-91.2397V776.964L-66.0495 802.154Z" fill="white"/>
<path d="M-40.8592 802.154H-66.0495V776.964L-40.8592 802.154Z" fill="white"/>
<path d="M-15.6633 802.154H-40.8592V776.964L-15.6633 802.154Z" fill="white"/>
<path d="M9.52698 802.154H-15.6633V776.964L9.52698 802.154Z" fill="white"/>
<path d="M34.7173 802.154H9.52698V776.964L34.7173 802.154Z" fill="white"/>
<path d="M59.9075 802.154H34.7173V776.964L59.9075 802.154Z" fill="white"/>
<path d="M85.0978 802.154H59.9075V776.964L85.0978 802.154Z" fill="white"/>
<path d="M110.288 802.154H85.0978V776.964L110.288 802.154Z" fill="white"/>
<path d="M135.478 802.154H110.288V776.964L135.478 802.154Z" fill="white"/>
<path d="M160.669 802.154H135.478V776.964L160.669 802.154Z" fill="white"/>
<path d="M185.865 802.154H160.669V776.964L185.865 802.154Z" fill="white"/>
<path d="M211.055 802.154H185.865V776.964L211.055 802.154Z" fill="white"/>
<path d="M236.245 802.154H211.055V776.964L236.245 802.154Z" fill="white"/>
<path d="M261.435 802.154H236.245V776.964L261.435 802.154Z" fill="white"/>
<path d="M286.626 802.154H261.435V776.964L286.626 802.154Z" fill="white"/>
<path d="M311.816 802.154H286.626V776.964L311.816 802.154Z" fill="white"/>
<path d="M337.006 802.154H311.816V776.964L337.006 802.154Z" fill="white"/>
<path d="M362.196 802.154H337.006V776.964L362.196 802.154Z" fill="white"/>
<path d="M387.387 802.154H362.196V776.964L387.387 802.154Z" fill="white"/>
<path d="M412.583 802.154H387.387V776.964L412.583 802.154Z" fill="white"/>
<path d="M437.773 802.154H412.583V776.964L437.773 802.154Z" fill="white"/>
<path d="M462.963 802.154H437.773V776.964L462.963 802.154Z" fill="white"/>
<path d="M488.153 802.154H462.963V776.964L488.153 802.154Z" fill="white"/>
<path d="M513.344 802.154H488.153V776.964L513.344 802.154Z" fill="white"/>
<path d="M-544.676 827.344H-569.866V802.154L-544.676 827.344Z" fill="white"/>
<path d="M-519.486 827.344H-544.676V802.154L-519.486 827.344Z" fill="white"/>
<path d="M-494.295 827.344H-519.486V802.154L-494.295 827.344Z" fill="white"/>
<path d="M-469.105 827.344H-494.295V802.154L-469.105 827.344Z" fill="white"/>
<path d="M-443.909 827.344H-469.105V802.154L-443.909 827.344Z" fill="white"/>
<path d="M-418.719 827.344H-443.909V802.154L-418.719 827.344Z" fill="white"/>
<path d="M-393.529 827.344H-418.719V802.154L-393.529 827.344Z" fill="white"/>
<path d="M-368.338 827.344H-393.529V802.154L-368.338 827.344Z" fill="white"/>
<path d="M-343.148 827.344H-368.338V802.154L-343.148 827.344Z" fill="white"/>
<path d="M-317.958 827.344H-343.148V802.154L-317.958 827.344Z" fill="white"/>
<path d="M-292.768 827.344H-317.958V802.154L-292.768 827.344Z" fill="white"/>
<path d="M-267.577 827.344H-292.768V802.154L-267.577 827.344Z" fill="white"/>
<path d="M-242.387 827.344H-267.577V802.154L-242.387 827.344Z" fill="white"/>
<path d="M-217.191 827.344H-242.387V802.154L-217.191 827.344Z" fill="white"/>
<path d="M-192.001 827.344H-217.191V802.154L-192.001 827.344Z" fill="white"/>
<path d="M-166.811 827.344H-192.001V802.154L-166.811 827.344Z" fill="white"/>
<path d="M-141.62 827.344H-166.811V802.154L-141.62 827.344Z" fill="white"/>
<path d="M-116.43 827.344H-141.62V802.154L-116.43 827.344Z" fill="white"/>
<path d="M-91.2397 827.344H-116.43V802.154L-91.2397 827.344Z" fill="white"/>
<path d="M-66.0495 827.344H-91.2397V802.154L-66.0495 827.344Z" fill="white"/>
<path d="M-40.8592 827.344H-66.0495V802.154L-40.8592 827.344Z" fill="white"/>
<path d="M-15.6633 827.344H-40.8592V802.154L-15.6633 827.344Z" fill="white"/>
<path d="M9.52698 827.344H-15.6633V802.154L9.52698 827.344Z" fill="white"/>
<path d="M34.7173 827.344H9.52698V802.154L34.7173 827.344Z" fill="white"/>
<path d="M59.9075 827.344H34.7173V802.154L59.9075 827.344Z" fill="white"/>
<path d="M85.0978 827.344H59.9075V802.154L85.0978 827.344Z" fill="white"/>
<path d="M110.288 827.344H85.0978V802.154L110.288 827.344Z" fill="white"/>
<path d="M135.478 827.344H110.288V802.154L135.478 827.344Z" fill="white"/>
<path d="M160.669 827.344H135.478V802.154L160.669 827.344Z" fill="white"/>
<path d="M185.865 827.344H160.669V802.154L185.865 827.344Z" fill="white"/>
<path d="M211.055 827.344H185.865V802.154L211.055 827.344Z" fill="white"/>
<path d="M236.245 827.344H211.055V802.154L236.245 827.344Z" fill="white"/>
<path d="M261.435 827.344H236.245V802.154L261.435 827.344Z" fill="white"/>
<path d="M286.626 827.344H261.435V802.154L286.626 827.344Z" fill="white"/>
<path d="M311.816 827.344H286.626V802.154L311.816 827.344Z" fill="white"/>
<path d="M337.006 827.344H311.816V802.154L337.006 827.344Z" fill="white"/>
<path d="M362.196 827.344H337.006V802.154L362.196 827.344Z" fill="white"/>
<path d="M387.387 827.344H362.196V802.154L387.387 827.344Z" fill="white"/>
<path d="M412.583 827.344H387.387V802.154L412.583 827.344Z" fill="white"/>
<path d="M437.773 827.344H412.583V802.154L437.773 827.344Z" fill="white"/>
<path d="M462.963 827.344H437.773V802.154L462.963 827.344Z" fill="white"/>
<path d="M488.153 827.344H462.963V802.154L488.153 827.344Z" fill="white"/>
<path d="M513.344 827.344H488.153V802.154L513.344 827.344Z" fill="white"/>
</g>
</g>
<g opacity="0.6" filter="url(#filter2_f_11938_60123)">
<ellipse cx="1297.5" cy="965" rx="403.5" ry="377" fill="#7AE2C0"/>
</g>
</g>
<defs>
<filter id="filter0_f_11938_60123" x="656" y="-625" width="1405" height="1363" filterUnits="userSpaceOnUse" color-interpolation-filters="sRGB">
<feFlood flood-opacity="0" result="BackgroundImageFix"/>
<feBlend mode="normal" in="SourceGraphic" in2="BackgroundImageFix" result="shape"/>
<feGaussianBlur stdDeviation="187" result="effect1_foregroundBlur_11938_60123"/>
</filter>
<filter id="filter1_f_11938_60123" x="-994.261" y="-228" width="1881" height="1807" filterUnits="userSpaceOnUse" color-interpolation-filters="sRGB">
<feFlood flood-opacity="0" result="BackgroundImageFix"/>
<feBlend mode="normal" in="SourceGraphic" in2="BackgroundImageFix" result="shape"/>
<feGaussianBlur stdDeviation="187" result="effect1_foregroundBlur_11938_60123"/>
</filter>
<filter id="filter2_f_11938_60123" x="520" y="214" width="1555" height="1502" filterUnits="userSpaceOnUse" color-interpolation-filters="sRGB">
<feFlood flood-opacity="0" result="BackgroundImageFix"/>
<feBlend mode="normal" in="SourceGraphic" in2="BackgroundImageFix" result="shape"/>
<feGaussianBlur stdDeviation="187" result="effect1_foregroundBlur_11938_60123"/>
</filter>
<clipPath id="clip0_11938_60123">
<rect width="1440.74" height="786" fill="white"/>
</clipPath>
<clipPath id="clip1_11938_60123">
<rect width="999" height="657.105" fill="white" transform="translate(-486 184)"/>
</clipPath>
</defs>
</svg>
