<svg width="133" height="34" viewBox="0 0 133 34" fill="none" xmlns="http://www.w3.org/2000/svg">
<g clip-path="url(#clip0_11938_21223)">
<path d="M100.863 21.9338C99.1183 24.0204 96.4158 25.3202 93.303 25.3202C88.001 25.3202 84.3066 21.626 84.3066 16.016C84.3066 10.5771 87.8299 6.88281 93.303 6.88281C97.0657 6.88281 99.7681 8.69577 100.829 11.3639L96.8606 14.3741C97.2368 13.8952 97.5105 13.0742 97.5105 12.2191C97.5105 10.1667 96.108 8.69577 94.0898 8.69577C91.2164 8.69577 89.643 11.6375 89.643 16.0502C89.643 19.9156 91.7637 22.4812 95.2186 22.4812C96.9973 22.4812 98.434 21.7969 99.4603 20.7364L100.863 21.9338Z" fill="#08A098"/>
<path d="M71.8215 14.2715H77.9788C77.9788 10.9192 76.8842 8.69577 75.1738 8.69577C73.3609 8.69577 72.061 11.1244 71.8215 14.2715ZM83.0071 21.9338C81.331 24.0204 78.2525 25.3202 75.1738 25.3202C70.0428 25.3202 66.4512 21.626 66.4512 16.0844C66.4512 10.5771 70.0428 6.88281 75.1055 6.88281C80.1338 6.88281 83.315 10.5771 83.315 16.0502H71.8215C72.1294 20.0182 74.2503 22.4812 77.4657 22.4812C79.1419 22.4812 80.5785 21.7969 81.6046 20.7364L83.0071 21.9338Z" fill="#08A098"/>
<path d="M52.1467 16.0513C52.1467 20.5666 53.7203 23.5426 56.0805 23.5426C58.4408 23.5426 60.0144 20.5666 60.0144 16.0513C60.0144 11.5702 58.4408 8.56 56.0805 8.56C53.7203 8.56 52.1467 11.5702 52.1467 16.0513ZM46.7764 33.9072V7.15752H52.1125V8.49158C53.4125 7.39696 55.0544 6.78125 57.0726 6.78125C62.1693 6.78125 65.3505 10.6124 65.3505 16.2223C65.3505 21.6611 62.3746 25.3213 57.4147 25.3213C55.2254 25.3213 53.4467 24.6372 52.1125 23.4056V33.9072H46.7764Z" fill="#08A098"/>
<path d="M33.0564 17.5211C32.4065 18.2736 31.9961 19.4025 31.9961 20.326C31.9961 22.3101 33.809 23.5414 36.4771 23.5414C38.5637 23.5414 39.7952 22.7546 39.7952 21.6602C39.7952 19.7787 36.2034 18.9577 33.0564 17.5211ZM39.6925 14.4083C40.2398 13.6557 40.5819 12.5611 40.5819 11.706C40.5819 9.893 39.0084 8.69577 36.6824 8.69577C34.8009 8.69577 33.6721 9.44832 33.6721 10.5771C33.6721 12.3901 36.7166 13.211 39.6925 14.4083ZM37.1955 25.3202C33.1248 25.3202 29.5673 23.6784 28.3701 21.2838L33.0564 17.5211C30.5594 16.3923 28.3359 14.8872 28.3359 12.1849C28.3359 8.93521 31.483 6.88281 35.7588 6.88281C39.5899 6.88281 42.8053 8.52473 44.0367 10.9534L39.761 14.4425C42.4975 15.5713 45.1314 17.008 45.1314 19.9156C45.1314 23.131 41.8818 25.3202 37.1955 25.3202Z" fill="#08A098"/>
<path d="M8.19238 24.9793V7.15752H13.5286V8.69684C14.9311 7.46539 16.7441 6.78125 18.9675 6.78125C23.5513 6.78125 26.7667 9.72303 26.7667 15.1277V24.9793H21.4303V15.1277C21.4303 10.7834 19.8569 8.56 17.6334 8.56C15.1363 8.56 13.5286 11.4676 13.5286 15.846V24.9793H8.19238Z" fill="#08A098"/>
<path d="M5.46418 24.9787H0.12793V0.0078125H5.46418V24.9787Z" fill="#08A098"/>
<path fill-rule="evenodd" clip-rule="evenodd" d="M128.323 14.2964C128.323 8.83312 123.894 4.40431 118.431 4.40431C112.968 4.40431 108.539 8.83312 108.539 14.2964C108.539 19.7597 112.968 24.1886 118.431 24.1886L118.481 24.1884C119.551 24.183 120.573 24.0097 121.526 23.6961C122.411 23.4051 123.24 22.9925 123.995 22.4782L127.141 25.6245C126.467 26.1434 125.746 26.6035 124.984 26.9973L122.899 24.9122V27.8726L122.769 27.9145C121.423 28.3432 119.99 28.5775 118.503 28.5849H118.431C110.54 28.5849 104.143 22.1878 104.143 14.2964C104.143 6.40504 110.54 0.0078125 118.431 0.0078125C126.323 0.0078125 132.72 6.40504 132.72 14.2964C132.72 17.3227 131.779 20.1293 130.174 22.4396L126.991 19.2573C127.839 17.7979 128.323 16.1028 128.323 14.2964Z" fill="#08A098"/>
<path fill-rule="evenodd" clip-rule="evenodd" d="M118.502 20.5144L126.471 28.4835H132.688L118.502 14.2969V20.5144Z" fill="#08A098"/>
<path fill-rule="evenodd" clip-rule="evenodd" d="M118.502 28.5837V14.2969L122.898 18.6934V27.8713C121.514 28.3266 120.037 28.5761 118.502 28.5837Z" fill="#08A098"/>
<path d="M115.331 15.5142C116.362 15.5142 117.198 14.6785 117.198 13.6477C117.198 12.6169 116.362 11.7812 115.331 11.7812C114.3 11.7812 113.465 12.6169 113.465 13.6477C113.465 14.6785 114.3 15.5142 115.331 15.5142Z" fill="#08A098"/>
</g>
<defs>
<clipPath id="clip0_11938_21223">
<rect width="132.859" height="34" fill="white"/>
</clipPath>
</defs>
</svg>
