<svg width="143" height="37" viewBox="0 0 143 37" fill="none" xmlns="http://www.w3.org/2000/svg">
<g clip-path="url(#clip0_840_28630)">
<path d="M108.56 23.6061C106.682 25.852 103.774 27.2509 100.423 27.2509C94.7166 27.2509 90.7402 23.2748 90.7402 17.2366C90.7402 11.3826 94.5324 7.40625 100.423 7.40625C104.473 7.40625 107.382 9.35759 108.523 12.2294L104.252 15.4693C104.657 14.9539 104.952 14.0703 104.952 13.1498C104.952 10.9408 103.442 9.35759 101.27 9.35759C98.1774 9.35759 96.4839 12.5239 96.4839 17.2734C96.4839 21.4339 98.7665 24.1952 102.485 24.1952C104.4 24.1952 105.946 23.4588 107.051 22.3173L108.56 23.6061Z" fill="white"/>
<path d="M77.3017 15.3589H83.9291C83.9291 11.7507 82.7509 9.35759 80.91 9.35759C78.9587 9.35759 77.5595 11.9716 77.3017 15.3589ZM89.3412 23.6061C87.5371 25.852 84.2236 27.2509 80.91 27.2509C75.3873 27.2509 71.5215 23.2748 71.5215 17.3102C71.5215 11.3826 75.3873 7.40625 80.8364 7.40625C86.2485 7.40625 89.6725 11.3826 89.6725 17.2734H77.3017C77.6331 21.5443 79.9159 24.1952 83.3768 24.1952C85.1809 24.1952 86.7272 23.4588 87.8316 22.3173L89.3412 23.6061Z" fill="white"/>
<path d="M56.124 17.2745C56.124 22.1345 57.8177 25.3376 60.3581 25.3376C62.8985 25.3376 64.5922 22.1345 64.5922 17.2745C64.5922 12.4514 62.8985 9.2114 60.3581 9.2114C57.8177 9.2114 56.124 12.4514 56.124 17.2745ZM50.3438 36.4934V7.70187H56.0872V9.13776C57.4864 7.95959 59.2537 7.29688 61.4259 7.29688C66.9117 7.29688 70.3357 11.4205 70.3357 17.4586C70.3357 23.3125 67.1326 27.2521 61.7941 27.2521C59.4377 27.2521 57.5232 26.5158 56.0872 25.1902V36.4934H50.3438Z" fill="white"/>
<path d="M35.5788 18.8566C34.8793 19.6666 34.4376 20.8816 34.4376 21.8756C34.4376 24.0111 36.3889 25.3365 39.2606 25.3365C41.5065 25.3365 42.832 24.4896 42.832 23.3116C42.832 21.2865 38.9661 20.4029 35.5788 18.8566ZM42.7215 15.5062C43.3106 14.6962 43.6787 13.518 43.6787 12.5975C43.6787 10.6462 41.9852 9.35759 39.4816 9.35759C37.4565 9.35759 36.2415 10.1676 36.2415 11.3826C36.2415 13.3339 39.5184 14.2175 42.7215 15.5062ZM40.0339 27.2509C35.6524 27.2509 31.8234 25.4838 30.5348 22.9065L35.5788 18.8566C32.8913 17.6416 30.498 16.0216 30.498 13.113C30.498 9.61531 33.8853 7.40625 38.4876 7.40625C42.6111 7.40625 46.0719 9.1735 47.3973 11.7876L42.7953 15.543C45.7406 16.758 48.5755 18.3043 48.5755 21.4339C48.5755 24.8947 45.0779 27.2509 40.0339 27.2509Z" fill="white"/>
<path d="M8.81836 26.884V7.70187H14.5619V9.35868C16.0715 8.03324 18.0228 7.29688 20.416 7.29688C25.3496 7.29688 28.8104 10.4632 28.8104 16.2804V26.884H23.0668V16.2804C23.0668 11.6046 21.3732 9.2114 18.9801 9.2114C16.2924 9.2114 14.5619 12.3409 14.5619 17.0536V26.884H8.81836Z" fill="white"/>
<path d="M5.88029 26.8926H0.136719V0.015625H5.88029V26.8926Z" fill="white"/>
<path fill-rule="evenodd" clip-rule="evenodd" d="M138.12 15.3949C138.12 9.51458 133.353 4.74771 127.473 4.74771C121.593 4.74771 116.826 9.51458 116.826 15.3949C116.826 21.2752 121.593 26.0421 127.473 26.0421L127.527 26.0419C128.678 26.0362 129.778 25.8496 130.804 25.5121C131.756 25.1989 132.649 24.7547 133.461 24.2012L136.848 27.5877C136.122 28.1462 135.346 28.6414 134.526 29.0652L132.282 26.821V30.0074L132.142 30.0525C130.693 30.5139 129.151 30.7661 127.55 30.7741H127.473C118.979 30.7741 112.094 23.8886 112.094 15.3949C112.094 6.90117 118.979 0.015625 127.473 0.015625C135.967 0.015625 142.852 6.90117 142.852 15.3949C142.852 18.6522 141.84 21.673 140.112 24.1597L136.687 20.7344C137.598 19.1636 138.12 17.3391 138.12 15.3949Z" fill="white"/>
<path fill-rule="evenodd" clip-rule="evenodd" d="M127.547 22.0827L136.124 30.6601H142.816L127.547 15.3906V22.0827Z" fill="white"/>
<path fill-rule="evenodd" clip-rule="evenodd" d="M127.547 30.7679V15.3906L132.279 20.1227V30.0012C130.789 30.4913 129.199 30.7598 127.547 30.7679Z" fill="white"/>
<path d="M124.134 16.6975C125.243 16.6975 126.143 15.7981 126.143 14.6886C126.143 13.5791 125.243 12.6797 124.134 12.6797C123.024 12.6797 122.125 13.5791 122.125 14.6886C122.125 15.7981 123.024 16.6975 124.134 16.6975Z" fill="white"/>
</g>
<defs>
<clipPath id="clip0_840_28630">
<rect width="143" height="36.5953" fill="white"/>
</clipPath>
</defs>
</svg>
