<svg width="745" height="745" viewBox="0 0 745 745" fill="none" xmlns="http://www.w3.org/2000/svg">
<path d="M598.107 210.616C572.941 170.186 538.017 135.208 495.97 112.285C452.714 88.6634 385.8 85.0293 336.776 90.9802C312.182 93.9784 279.284 100.574 256.943 111.313C233.193 122.734 212.243 139.114 194.254 158.248C157.839 197.006 128.494 244.496 121.689 297.3C115.265 347.106 119.236 400.046 140.877 445.664C150.445 465.867 163.372 484.299 179.108 500.176C181.77 495.979 186.077 490.182 190.011 490.918L179.899 449.18C177.474 439.174 179.123 428.615 184.483 419.825C189.844 411.035 198.476 404.734 208.481 402.308L260.795 389.634C266.246 382.366 271.852 375.307 275.023 370.864C282.051 361.145 289.763 351.94 298.099 343.317C304.686 336.385 311.873 329.825 318.405 322.848C321.53 319.514 322.439 319.068 322.684 314.099C322.884 310.01 323.057 306.022 323.266 301.97C323.638 294.901 324.247 288.06 324.574 281.164L325.91 281.082L325.692 278.039C325.692 265.555 322.966 252.763 321.149 240.489C320.286 234.738 318.823 224.771 317.515 215.631C308.902 211.089 303.396 203.303 299.98 194.399C296.609 194.226 293.511 194.026 291.803 193.854C282.436 192.873 273.751 185.005 279.683 174.711C282.291 170.168 288.641 167.761 295.292 166.534C295.337 157.594 296.337 147.855 299.88 139.878C301.824 135.508 305.895 131.755 310.41 130.792C311.927 129.938 312.509 129.811 313.254 127.921C313.681 126.858 313.99 125.75 314.462 124.696C319.059 114.466 330.361 109.251 341.091 108.869C347.351 108.642 353.675 109.932 359.644 111.722C366.458 113.766 373.499 117.437 380.703 115.211C384.001 114.193 386.009 117.864 384.81 120.553C383.104 124.337 380.65 127.736 377.596 130.547C389.035 134.39 402.227 139.451 407.424 141.922C418.68 147.235 429.43 153.56 439.54 160.819C436.324 163.645 415.5 173.366 408.65 175.665C401.246 178.154 393.659 182.079 386.345 183.76C387.872 199.114 398.947 255.116 400.882 266.555L401.1 268.045C401.703 268.292 402.261 268.636 402.754 269.062C405.915 271.643 408.114 282.554 409.277 286.488C411.367 293.538 412.139 300.879 413.602 307.748C425.122 309.71 440.258 318.823 449.543 325.428C453.623 328.326 460.646 334.432 466.733 339.856L521.736 326.527C526.689 325.327 531.831 325.114 536.867 325.901C541.903 326.688 546.735 328.459 551.087 331.113C555.438 333.767 559.224 337.252 562.229 341.37C565.234 345.487 567.398 350.156 568.598 355.11L574.958 381.203C586.133 385.01 598.271 392.914 605.248 402.626C608.519 407.169 611.717 414.065 613.807 419.843C620.291 403.934 624.097 387.062 625.073 369.91C628.162 317.651 625.5 254.626 598.107 210.616Z" fill="white"/>
<path d="M603.639 499.461L611.698 532.686C612.898 537.641 613.111 542.784 612.323 547.821C611.536 552.858 609.764 557.691 607.109 562.044C604.454 566.396 600.968 570.183 596.85 573.188C592.731 576.193 588.061 578.357 583.106 579.558L269.833 655.457C259.834 657.879 249.282 656.232 240.496 650.878C231.71 645.523 225.41 636.899 222.98 626.901L218.438 608.095" stroke="#008080" stroke-width="6.35976" stroke-linecap="round" stroke-linejoin="round"/>
<path d="M198.914 527.534L179.935 449.19C177.51 439.185 179.159 428.626 184.52 419.836C189.88 411.046 198.512 404.745 208.517 402.319L521.781 326.42C526.735 325.219 531.876 325.006 536.912 325.793C541.948 326.58 546.78 328.351 551.132 331.005C555.483 333.659 559.27 337.145 562.274 341.262C565.279 345.38 567.443 350.049 568.643 355.002L584.252 419.409" stroke="#008080" stroke-width="6.35976" stroke-linecap="round" stroke-linejoin="round"/>
<path d="M535.771 418.891C538.633 418.689 540.973 419.08 543.035 420.38L543.039 420.382C545.77 422.094 547.796 425.349 549.105 431.205L549.23 431.78C549.413 432.805 549.878 434.42 550.316 436.048V436.049C552.017 442.386 554.372 451.193 554.676 458.923C554.828 462.786 554.457 466.21 553.354 468.857C552.28 471.432 550.524 473.272 547.741 474.158H547.739C534.684 478.328 521.061 482.567 509.557 485.569V485.57C508.485 485.85 506.915 486.379 505.155 486.942L505.144 486.945C498.787 489.027 493.483 490.617 489.782 490.617H489.759C489.077 490.626 488.397 490.55 487.734 490.39C483.572 489.337 480.103 485.43 477.744 477.637C475.397 469.884 474.307 458.748 474.573 444.188V444.187C474.667 438.916 475.495 436.511 477.007 434.988C477.793 434.196 478.875 433.531 480.437 432.879C482.009 432.222 483.957 431.625 486.427 430.909L486.429 430.908L487.146 430.699C498.46 427.411 509.762 424.495 520.716 422.042H520.718C522.473 421.647 524.139 421.232 525.692 420.853H525.694C529.583 419.897 532.857 419.096 535.771 418.891Z" fill="#59DBB0" stroke="#008080" stroke-width="3.63415"/>
<path d="M493.117 431.062L507.144 444L475.8 453.712" stroke="#008080" stroke-width="6.35976" stroke-linecap="round" stroke-linejoin="round"/>
<path d="M478.217 466.826C501.739 459.748 524.552 451.935 547.992 446.711" stroke="#008080" stroke-width="6.35976" stroke-linecap="round" stroke-linejoin="round"/>
<path d="M510.088 457.773C509.788 467.004 503.801 478.315 504.064 485.42" stroke="#008080" stroke-width="6.35976" stroke-linecap="round" stroke-linejoin="round"/>
<path d="M527.178 452.477L521.063 480.95" stroke="#008080" stroke-width="6.35976" stroke-linecap="round" stroke-linejoin="round"/>
<path d="M512.813 427.008C512.813 427.008 518.883 435.494 520.436 439.909C529.067 437.356 538.834 436.911 547.647 434.176" stroke="#008080" stroke-width="6.35976" stroke-linecap="round" stroke-linejoin="round"/>
<path d="M250.629 469.422C239.726 444.319 276.776 420.697 295.283 440.621C312.546 459.219 304.541 486.957 278.357 488.256C265.574 488.874 255.916 483.686 250.629 469.422Z" stroke="#008080" stroke-width="6.35976" stroke-linecap="round" stroke-linejoin="round"/>
<path d="M291.312 453.594C291.312 441.429 295.236 433.407 310 428.519C320.821 424.939 332.396 425.739 338.065 437.023C348.177 457.129 330.061 480.687 307.483 474.7C300.96 472.974 291.312 465.769 291.312 453.594Z" stroke="#008080" stroke-width="6.35976" stroke-linecap="round" stroke-linejoin="round"/>
<path d="M293.393 558.828C293.393 558.828 326.154 547.635 345.179 542.474C367.138 536.487 391.669 527.693 413.547 521.578" stroke="#008080" stroke-width="6.35976" stroke-linecap="round" stroke-linejoin="round"/>
<path d="M293.393 582.477C326.354 569.658 356.218 563.816 389.934 553.586" stroke="#008080" stroke-width="6.35976" stroke-linecap="round" stroke-linejoin="round"/>
<path d="M306.43 600.897C329.416 593.493 412.947 569.398 412.947 569.398" stroke="#008080" stroke-width="6.35976" stroke-linecap="round" stroke-linejoin="round"/>
<path d="M260.831 389.66C266.282 382.391 271.888 375.332 275.05 370.889C282.084 361.173 289.799 351.967 298.136 343.343C304.722 336.41 311.909 329.842 318.441 322.873C321.567 319.539 322.475 319.094 322.721 314.124C322.92 310.036 323.093 306.047 323.302 301.995C323.675 294.927 324.283 288.085 324.61 281.19C331.67 280.844 338.238 280.145 345.234 279.282C361.07 277.301 378.777 276.156 393.596 270.024C397.911 268.207 399.637 266.389 402.799 268.97C405.961 271.55 408.159 282.461 409.322 286.395C411.412 293.446 412.184 300.787 413.647 307.655C425.167 309.618 440.303 318.73 449.589 325.335C453.668 328.234 460.691 334.339 466.778 339.763" stroke="#008080" stroke-width="6.35976" stroke-linecap="round" stroke-linejoin="round"/>
<path d="M195.507 529.723C200.05 528.17 222.082 505.529 227.651 509.863C234.874 515.496 215.731 534.248 214.023 537.9C211.924 542.261 211.416 544.85 216.14 547.603C220.11 549.92 226.352 551.701 230.804 552.909C236.028 554.327 258.06 557.452 258.569 563.948C259.477 574.85 229.577 572.216 223.59 571.825C230.666 571.743 237.722 572.592 244.577 574.351C250.719 576.031 261.576 578.121 263.656 584.835C267.609 597.5 236.945 589.014 230.876 585.099C238.472 586.988 266.173 592.185 267.581 602.434C268.672 610.356 253.953 605.613 249.501 604.496C242.951 602.87 233.148 601.952 227.206 598.445C232.148 599.762 249.919 604.614 248.738 611.692C247.012 620.577 219.665 609.793 208.399 602.833C195.898 595.083 187.721 581.782 184.777 567.609C182.406 556.198 179.708 546.595 182.179 534.993C183.424 529.187 189.811 518.085 196.125 516.704" stroke="#008080" stroke-width="6.35976" stroke-linecap="round" stroke-linejoin="round"/>
<path d="M328.754 319.258C335.65 320.639 347.497 326.236 355.029 322.211C363.342 317.768 364.296 296.109 365.84 287.805C368.893 295.455 376.334 315.451 385.383 318.104C395.613 321.093 399.247 311.917 408.096 309.564" stroke="#008080" stroke-width="6.35976" stroke-linecap="round" stroke-linejoin="round"/>
<path d="M587.086 417.669C582.544 422.82 562.474 419.423 563.855 425.737C564.973 431.906 574.285 434.595 579.564 438.12C585.378 442 588.558 443.472 584.96 450.077C580.754 457.79 570.297 466.103 565.281 473.39C562.056 478.06 559.149 488.762 568.916 485.5C577.51 482.629 585.651 473.108 591.084 466.666C585.778 473.181 578.691 478.477 573.822 485.201C570.933 489.189 561.057 497.62 565.645 502.681C572.831 507.914 587.713 488.008 593.81 482.221C585.805 487.345 569.161 506.751 573.495 509.958C580.127 513.52 592.574 498.674 596.208 493.877C590.757 499.764 583.697 513.065 586.214 514.728C599.361 522.623 613.815 473.662 615.078 466.685C618.449 448.041 607.356 408.284 579.773 401.016" stroke="#008080" stroke-width="6.35976" stroke-linecap="round" stroke-linejoin="round"/>
<path d="M187.631 576.669C170.877 557.772 162.973 526.982 177.183 503.378C179.1 500.189 184.878 489.968 190.048 490.94" stroke="#008080" stroke-width="6.35976" stroke-linecap="round" stroke-linejoin="round"/>
<path d="M613.325 442.001C616.796 437.522 616.342 427.51 614.87 422.822C612.907 416.598 609.137 407.94 605.257 402.525C598.28 392.813 586.178 384.908 574.967 381.102" stroke="#008080" stroke-width="6.35976" stroke-linecap="round" stroke-linejoin="round"/>
<path d="M325.727 278.062C325.727 265.579 323.002 252.787 321.185 240.512C319.295 227.911 314.516 195.086 314.516 195.086C314.516 195.086 296.954 194.413 291.803 193.877C282.436 192.896 273.75 185.028 279.683 174.734C284.462 166.439 301.769 165.204 310.482 165.313C308.084 150.104 312.717 134.168 328.108 127.699C338.047 123.529 349.322 124.347 359.906 125.51C367.729 126.355 398.728 137.702 407.405 141.864C418.661 147.176 429.411 153.501 439.522 160.761C436.305 163.587 415.482 173.308 408.631 175.607C401.218 178.096 393.64 182.021 386.327 183.702C387.853 199.056 398.928 255.058 400.863 266.497" stroke="#008080" stroke-width="6.35976" stroke-linecap="round" stroke-linejoin="round"/>
<path d="M337.239 191.445C336.149 201.794 344.635 209.262 354.193 209.616" stroke="#008080" stroke-width="6.35976" stroke-linecap="round" stroke-linejoin="round"/>
<path d="M354.801 171.463L352.984 163.586" stroke="#008080" stroke-width="6.35976" stroke-linecap="round" stroke-linejoin="round"/>
<path d="M374.18 163.579L372.363 155.711" stroke="#008080" stroke-width="6.35976" stroke-linecap="round" stroke-linejoin="round"/>
<path d="M299.144 194.367C302.323 203.789 307.865 212.12 317.178 216.426C317.342 216.508 317.505 216.545 317.669 216.608C316.015 205.351 314.525 195.076 314.525 195.076C314.525 195.076 306.048 194.749 299.144 194.367Z" fill="#008080"/>
<path d="M380.675 115.157C373.471 117.383 366.429 113.712 359.615 111.668C353.646 109.851 347.323 108.588 341.063 108.815C330.333 109.197 319.031 114.412 314.434 124.642C313.961 125.696 313.652 126.804 313.225 127.867C312.48 129.757 311.899 129.884 310.382 130.738C305.839 131.747 301.796 135.499 299.852 139.824C296.309 147.801 295.309 157.54 295.264 166.48C298.209 165.94 301.186 165.585 304.176 165.417C306.226 172.442 309.64 178.993 314.225 184.696C316.233 187.213 320.494 185.069 320.421 182.125C320.176 171.223 326.699 161.765 327.753 151.044C328.018 148.512 327.954 145.956 327.562 143.44H328.907C330.633 143.349 332.35 143.294 334.076 143.222C337.52 143.085 340.972 142.958 344.406 142.677C350.495 142.333 356.516 141.216 362.323 139.351C371.844 136.035 380.575 129.894 384.782 120.481C386.017 117.81 384.01 114.139 380.675 115.157Z" fill="#008080"/>
<path d="M370.246 314.711C370.173 318.345 371.772 322.524 372.372 326.222C373.135 330.874 373.798 335.553 374.488 340.259C375.579 347.527 378.45 361.155 378.45 361.155" stroke="#008080" stroke-width="6.35976" stroke-linecap="round" stroke-linejoin="round"/>
<path d="M383.875 346.198C384.086 346.238 384.303 346.231 384.512 346.18C384.72 346.128 384.915 346.032 385.083 345.898" stroke="#008080" stroke-width="6.35976" stroke-linecap="round" stroke-linejoin="round"/>
<path d="M301.46 180.932C298.679 180.023 296.381 179.306 293.355 179.524" stroke="#008080" stroke-width="6.35976" stroke-linecap="round" stroke-linejoin="round"/>
</svg>
