<svg width="1440" height="941" viewBox="0 0 1440 941" fill="none" xmlns="http://www.w3.org/2000/svg">
<g clip-path="url(#clip0_11989_7196)">
<rect width="1440.74" height="941" fill="white"/>
<g opacity="0.4" filter="url(#filter0_f_11989_7196)">
<circle cx="142" cy="207" r="414" fill="#7AE2C0"/>
</g>
<mask id="mask0_11989_7196" style="mask-type:alpha" maskUnits="userSpaceOnUse" x="-87" y="-44" width="955" height="534">
<path d="M777.82 8.5625V22.087M784.582 15.3248H771.058M751.584 8.5625V22.087M758.347 15.3248H744.818M725.345 8.5625V22.087M732.107 15.3248H718.582M699.109 8.5625V22.087M705.871 15.3248H692.347M672.869 8.5625V22.087M679.636 15.3248H666.107M646.634 8.5625V22.087M653.396 15.3248H639.872M620.398 8.5625V22.087M627.161 15.3248H613.632M594.159 8.5625V22.087M600.921 15.3248H587.396M567.923 8.5625V22.087M574.685 15.3248H561.161M541.683 8.5625V22.087M548.45 15.3248H534.921M515.448 8.5625V22.087M522.21 15.3248H508.686M489.212 8.5625V22.087M495.975 15.3248H482.446M462.973 8.5625V22.087M469.735 15.3248H456.21M436.737 8.5625V22.087M443.499 15.3248H429.975M410.497 8.5625V22.087M417.264 15.3248H403.735M384.262 8.5625V22.087M391.024 15.3248H377.499M358.026 8.5625V22.087M364.788 15.3248H351.26M331.787 8.5625V22.087M338.549 15.3248H325.024M305.551 8.5625V22.087M312.313 15.3248H298.789M279.311 8.5625V22.087M286.078 15.3248H272.549M253.076 8.5625V22.087M259.838 15.3248H246.314M226.84 8.5625V22.087M233.603 15.3248H220.074M200.601 8.5625V22.087M207.363 15.3248H193.838M174.365 8.5625V22.087M181.127 15.3248H167.603M148.125 8.5625V22.087M154.892 15.3248H141.363M121.89 8.5625V22.087M128.652 15.3248H115.128M95.6543 8.5625V22.087M102.417 15.3248H88.8878M69.4145 8.5625V22.087M76.1768 15.3248H62.6523M43.179 8.5625V22.087M49.9413 15.3248H36.4168M16.9393 8.5625V22.087M23.7058 15.3248H10.177M-9.29622 8.5625V22.087M-2.53398 15.3248H-16.0585M777.82 34.798V48.3268M784.582 41.5645H771.058M751.584 34.798V48.3268M758.347 41.5645H744.818M725.345 34.798V48.3268M732.107 41.5645H718.582M699.109 34.798V48.3268M705.871 41.5645H692.347M672.869 34.798V48.3268M679.636 41.5645H666.107M646.634 34.798V48.3268M653.396 41.5645H639.872M620.398 34.798V48.3268M627.161 41.5645H613.632M594.159 34.798V48.3268M600.921 41.5645H587.396M567.923 34.798V48.3268M574.685 41.5645H561.161M541.683 34.798V48.3268M548.45 41.5645H534.921M515.448 34.798V48.3268M522.21 41.5645H508.686M489.212 34.798V48.3268M495.975 41.5645H482.446M462.973 34.798V48.3268M469.735 41.5645H456.21M436.737 34.798V48.3268M443.499 41.5645H429.975M410.497 34.798V48.3268M417.264 41.5645H403.735M384.262 34.798V48.3268M391.024 41.5645H377.499M358.026 34.798V48.3268M364.788 41.5645H351.26M331.787 34.798V48.3268M338.549 41.5645H325.024M305.551 34.798V48.3268M312.313 41.5645H298.789M279.311 34.798V48.3268M286.078 41.5645H272.549M253.076 34.798V48.3268M259.838 41.5645H246.314M226.84 34.798V48.3268M233.603 41.5645H220.074M200.601 34.798V48.3268M207.363 41.5645H193.838M174.365 34.798V48.3268M181.127 41.5645H167.603M148.125 34.798V48.3268M154.892 41.5645H141.363M121.89 34.798V48.3268M128.652 41.5645H115.128M95.6543 34.798V48.3268M102.417 41.5645H88.8878M69.4145 34.798V48.3268M76.1768 41.5645H62.6523M43.179 34.798V48.3268M49.9413 41.5645H36.4168M16.9393 34.798V48.3268M23.7058 41.5645H10.177M-9.29622 34.798V48.3268M-2.53398 41.5645H-16.0585M777.82 61.0378V74.5623M784.582 67.8H771.058M751.584 61.0378V74.5623M758.347 67.8H744.818M725.345 61.0378V74.5623M732.107 67.8H718.582M699.109 61.0378V74.5623M705.871 67.8H692.347M672.869 61.0378V74.5623M679.636 67.8H666.107M646.634 61.0378V74.5623M653.396 67.8H639.872M620.398 61.0378V74.5623M627.161 67.8H613.632M594.159 61.0378V74.5623M600.921 67.8H587.396M567.923 61.0378V74.5623M574.685 67.8H561.161M541.683 61.0378V74.5623M548.45 67.8H534.921M515.448 61.0378V74.5623M522.21 67.8H508.686M489.212 61.0378V74.5623M495.975 67.8H482.446M462.973 61.0378V74.5623M469.735 67.8H456.21M436.737 61.0378V74.5623M443.499 67.8H429.975M410.497 61.0378V74.5623M417.264 67.8H403.735M384.262 61.0378V74.5623M391.024 67.8H377.499M358.026 61.0378V74.5623M364.788 67.8H351.26M331.787 61.0378V74.5623M338.549 67.8H325.024M305.551 61.0378V74.5623M312.313 67.8H298.789M279.311 61.0378V74.5623M286.078 67.8H272.549M253.076 61.0378V74.5623M259.838 67.8H246.314M226.84 61.0378V74.5623M233.603 67.8H220.074M200.601 61.0378V74.5623M207.363 67.8H193.838M174.365 61.0378V74.5623M181.127 67.8H167.603M148.125 61.0378V74.5623M154.892 67.8H141.363M121.89 61.0378V74.5623M128.652 67.8H115.128M95.6543 61.0378V74.5623M102.417 67.8H88.8878M69.4145 61.0378V74.5623M76.1768 67.8H62.6523M43.179 61.0378V74.5623M49.9413 67.8H36.4168M16.9393 61.0378V74.5623M23.7058 67.8H10.177M-9.29622 61.0378V74.5623M-2.53398 67.8H-16.0585M777.82 87.2733V100.798M784.582 94.0355H771.058M751.584 87.2733V100.798M758.347 94.0355H744.818M725.345 87.2733V100.798M732.107 94.0355H718.582M699.109 87.2733V100.798M705.871 94.0355H692.347M672.869 87.2733V100.798M679.636 94.0355H666.107M646.634 87.2733V100.798M653.396 94.0355H639.872M620.398 87.2733V100.798M627.161 94.0355H613.632M594.159 87.2733V100.798M600.921 94.0355H587.396M567.923 87.2733V100.798M574.685 94.0355H561.161M541.683 87.2733V100.798M548.45 94.0355H534.921M515.448 87.2733V100.798M522.21 94.0355H508.686M489.212 87.2733V100.798M495.975 94.0355H482.446M462.973 87.2733V100.798M469.735 94.0355H456.21M436.737 87.2733V100.798M443.499 94.0355H429.975M410.497 87.2733V100.798M417.264 94.0355H403.735M384.262 87.2733V100.798M391.024 94.0355H377.499M358.026 87.2733V100.798M364.788 94.0355H351.26M331.787 87.2733V100.798M338.549 94.0355H325.024M305.551 87.2733V100.798M312.313 94.0355H298.789M279.311 87.2733V100.798M286.078 94.0355H272.549M253.076 87.2733V100.798M259.838 94.0355H246.314M226.84 87.2733V100.798M233.603 94.0355H220.074M200.601 87.2733V100.798M207.363 94.0355H193.838M174.365 87.2733V100.798M181.127 94.0355H167.603M148.125 87.2733V100.798M154.892 94.0355H141.363M121.89 87.2733V100.798M128.652 94.0355H115.128M95.6543 87.2733V100.798M102.417 94.0355H88.8878M69.4145 87.2733V100.798M76.1768 94.0355H62.6523M43.179 87.2733V100.798M49.9413 94.0355H36.4168M16.9393 87.2733V100.798M23.7058 94.0355H10.177M-9.29622 87.2733V100.798M-2.53398 94.0355H-16.0585M777.82 113.509V127.038M784.582 120.275H771.058M751.584 113.509V127.038M758.347 120.275H744.818M725.345 113.509V127.038M732.107 120.275H718.582M699.109 113.509V127.038M705.871 120.275H692.347M672.869 113.509V127.038M679.636 120.275H666.107M646.634 113.509V127.038M653.396 120.275H639.872M620.398 113.509V127.038M627.161 120.275H613.632M594.159 113.509V127.038M600.921 120.275H587.396M567.923 113.509V127.038M574.685 120.275H561.161M541.683 113.509V127.038M548.45 120.275H534.921M515.448 113.509V127.038M522.21 120.275H508.686M489.212 113.509V127.038M495.975 120.275H482.446M462.973 113.509V127.038M469.735 120.275H456.21M436.737 113.509V127.038M443.499 120.275H429.975M410.497 113.509V127.038M417.264 120.275H403.735M384.262 113.509V127.038M391.024 120.275H377.499M358.026 113.509V127.038M364.788 120.275H351.26M331.787 113.509V127.038M338.549 120.275H325.024M305.551 113.509V127.038M312.313 120.275H298.789M279.311 113.509V127.038M286.078 120.275H272.549M253.076 113.509V127.038M259.838 120.275H246.314M226.84 113.509V127.038M233.603 120.275H220.074M200.601 113.509V127.038M207.363 120.275H193.838M174.365 113.509V127.038M181.127 120.275H167.603M148.125 113.509V127.038M154.892 120.275H141.363M121.89 113.509V127.038M128.652 120.275H115.128M95.6543 113.509V127.038M102.417 120.275H88.8878M69.4145 113.509V127.038M76.1768 120.275H62.6523M43.179 113.509V127.038M49.9413 120.275H36.4168M16.9393 113.509V127.038M23.7058 120.275H10.177M-9.29622 113.509V127.038M-2.53398 120.275H-16.0585M777.82 139.749V153.273M784.582 146.511H771.058M751.584 139.749V153.273M758.347 146.511H744.818M725.345 139.749V153.273M732.107 146.511H718.582M699.109 139.749V153.273M705.871 146.511H692.347M672.869 139.749V153.273M679.636 146.511H666.107M646.634 139.749V153.273M653.396 146.511H639.872M620.398 139.749V153.273M627.161 146.511H613.632M594.159 139.749V153.273M600.921 146.511H587.396M567.923 139.749V153.273M574.685 146.511H561.161M541.683 139.749V153.273M548.45 146.511H534.921M515.448 139.749V153.273M522.21 146.511H508.686M489.212 139.749V153.273M495.975 146.511H482.446M462.973 139.749V153.273M469.735 146.511H456.21M436.737 139.749V153.273M443.499 146.511H429.975M410.497 139.749V153.273M417.264 146.511H403.735M384.262 139.749V153.273M391.024 146.511H377.499M358.026 139.749V153.273M364.788 146.511H351.26M331.787 139.749V153.273M338.549 146.511H325.024M305.551 139.749V153.273M312.313 146.511H298.789M279.311 139.749V153.273M286.078 146.511H272.549M253.076 139.749V153.273M259.838 146.511H246.314M226.84 139.749V153.273M233.603 146.511H220.074M200.601 139.749V153.273M207.363 146.511H193.838M174.365 139.749V153.273M181.127 146.511H167.603M148.125 139.749V153.273M154.892 146.511H141.363M121.89 139.749V153.273M128.652 146.511H115.128M95.6543 139.749V153.273M102.417 146.511H88.8878M69.4145 139.749V153.273M76.1768 146.511H62.6523M43.179 139.749V153.273M49.9413 146.511H36.4168M16.9393 139.749V153.273M23.7058 146.511H10.177M-9.29622 139.749V153.273M-2.53398 146.511H-16.0585M777.82 165.984V179.513M784.582 172.746H771.058M751.584 165.984V179.513M758.347 172.746H744.818M725.345 165.984V179.513M732.107 172.746H718.582M699.109 165.984V179.513M705.871 172.746H692.347M672.869 165.984V179.513M679.636 172.746H666.107M646.634 165.984V179.513M653.396 172.746H639.872M620.398 165.984V179.513M627.161 172.746H613.632M594.159 165.984V179.513M600.921 172.746H587.396M567.923 165.984V179.513M574.685 172.746H561.161M541.683 165.984V179.513M548.45 172.746H534.921M515.448 165.984V179.513M522.21 172.746H508.686M489.212 165.984V179.513M495.975 172.746H482.446M462.973 165.984V179.513M469.735 172.746H456.21M436.737 165.984V179.513M443.499 172.746H429.975M410.497 165.984V179.513M417.264 172.746H403.735M384.262 165.984V179.513M391.024 172.746H377.499M358.026 165.984V179.513M364.788 172.746H351.26M331.787 165.984V179.513M338.549 172.746H325.024M305.551 165.984V179.513M312.313 172.746H298.789M279.311 165.984V179.513M286.078 172.746H272.549M253.076 165.984V179.513M259.838 172.746H246.314M226.84 165.984V179.513M233.603 172.746H220.074M200.601 165.984V179.513M207.363 172.746H193.838M174.365 165.984V179.513M181.127 172.746H167.603M148.125 165.984V179.513M154.892 172.746H141.363M121.89 165.984V179.513M128.652 172.746H115.128M95.6543 165.984V179.513M102.417 172.746H88.8878M69.4145 165.984V179.513M76.1768 172.746H62.6523M43.179 165.984V179.513M49.9413 172.746H36.4168M16.9393 165.984V179.513M23.7058 172.746H10.177M-9.29622 165.984V179.513M-2.53398 172.746H-16.0585M777.82 192.224V205.748M784.582 198.986H771.058M751.584 192.224V205.748M758.347 198.986H744.818M725.345 192.224V205.748M732.107 198.986H718.582M699.109 192.224V205.748M705.871 198.986H692.347M672.869 192.224V205.748M679.636 198.986H666.107M646.634 192.224V205.748M653.396 198.986H639.872M620.398 192.224V205.748M627.161 198.986H613.632M594.159 192.224V205.748M600.921 198.986H587.396M567.923 192.224V205.748M574.685 198.986H561.161M541.683 192.224V205.748M548.45 198.986H534.921M515.448 192.224V205.748M522.21 198.986H508.686M489.212 192.224V205.748M495.975 198.986H482.446M462.973 192.224V205.748M469.735 198.986H456.21M436.737 192.224V205.748M443.499 198.986H429.975M410.497 192.224V205.748M417.264 198.986H403.735M384.262 192.224V205.748M391.024 198.986H377.499M358.026 192.224V205.748M364.788 198.986H351.26M331.787 192.224V205.748M338.549 198.986H325.024M305.551 192.224V205.748M312.313 198.986H298.789M279.311 192.224V205.748M286.078 198.986H272.549M253.076 192.224V205.748M259.838 198.986H246.314M226.84 192.224V205.748M233.603 198.986H220.074M200.601 192.224V205.748M207.363 198.986H193.838M174.365 192.224V205.748M181.127 198.986H167.603M148.125 192.224V205.748M154.892 198.986H141.363M121.89 192.224V205.748M128.652 198.986H115.128M95.6543 192.224V205.748M102.417 198.986H88.8878M69.4145 192.224V205.748M76.1768 198.986H62.6523M43.179 192.224V205.748M49.9413 198.986H36.4168M16.9393 192.224V205.748M23.7058 198.986H10.177M-9.29622 192.224V205.748M-2.53398 198.986H-16.0585M777.82 218.459V231.984M784.582 225.222H771.058M751.584 218.459V231.984M758.347 225.222H744.818M725.345 218.459V231.984M732.107 225.222H718.582M699.109 218.459V231.984M705.871 225.222H692.347M672.869 218.459V231.984M679.636 225.222H666.107M646.634 218.459V231.984M653.396 225.222H639.872M620.398 218.459V231.984M627.161 225.222H613.632M594.159 218.459V231.984M600.921 225.222H587.396M567.923 218.459V231.984M574.685 225.222H561.161M541.683 218.459V231.984M548.45 225.222H534.921M515.448 218.459V231.984M522.21 225.222H508.686M489.212 218.459V231.984M495.975 225.222H482.446M462.973 218.459V231.984M469.735 225.222H456.21M436.737 218.459V231.984M443.499 225.222H429.975M410.497 218.459V231.984M417.264 225.222H403.735M384.262 218.459V231.984M391.024 225.222H377.499M358.026 218.459V231.984M364.788 225.222H351.26M331.787 218.459V231.984M338.549 225.222H325.024M305.551 218.459V231.984M312.313 225.222H298.789M279.311 218.459V231.984M286.078 225.222H272.549M253.076 218.459V231.984M259.838 225.222H246.314M226.84 218.459V231.984M233.603 225.222H220.074M200.601 218.459V231.984M207.363 225.222H193.838M174.365 218.459V231.984M181.127 225.222H167.603M148.125 218.459V231.984M154.892 225.222H141.363M121.89 218.459V231.984M128.652 225.222H115.128M95.6543 218.459V231.984M102.417 225.222H88.8878M69.4145 218.459V231.984M76.1768 225.222H62.6523M43.179 218.459V231.984M49.9413 225.222H36.4168M16.9393 218.459V231.984M23.7058 225.222H10.177M-9.29622 218.459V231.984M-2.53398 225.222H-16.0585M777.82 244.695V258.224M784.582 251.461H771.058M751.584 244.695V258.224M758.347 251.461H744.818M725.345 244.695V258.224M732.107 251.461H718.582M699.109 244.695V258.224M705.871 251.461H692.347M672.869 244.695V258.224M679.636 251.461H666.107M646.634 244.695V258.224M653.396 251.461H639.872M620.398 244.695V258.224M627.161 251.461H613.632M594.159 244.695V258.224M600.921 251.461H587.396M567.923 244.695V258.224M574.685 251.461H561.161M541.683 244.695V258.224M548.45 251.461H534.921M515.448 244.695V258.224M522.21 251.461H508.686M489.212 244.695V258.224M495.975 251.461H482.446M462.973 244.695V258.224M469.735 251.461H456.21M436.737 244.695V258.224M443.499 251.461H429.975M410.497 244.695V258.224M417.264 251.461H403.735M384.262 244.695V258.224M391.024 251.461H377.499M358.026 244.695V258.224M364.788 251.461H351.26M331.787 244.695V258.224M338.549 251.461H325.024M305.551 244.695V258.224M312.313 251.461H298.789M279.311 244.695V258.224M286.078 251.461H272.549M253.076 244.695V258.224M259.838 251.461H246.314M226.84 244.695V258.224M233.603 251.461H220.074M200.601 244.695V258.224M207.363 251.461H193.838M174.365 244.695V258.224M181.127 251.461H167.603M148.125 244.695V258.224M154.892 251.461H141.363M121.89 244.695V258.224M128.652 251.461H115.128M95.6543 244.695V258.224M102.417 251.461H88.8878M69.4145 244.695V258.224M76.1768 251.461H62.6523M43.179 244.695V258.224M49.9413 251.461H36.4168M16.9393 244.695V258.224M23.7058 251.461H10.177M-9.29622 244.695V258.224M-2.53398 251.461H-16.0585M777.82 270.935V284.459M784.582 277.697H771.058M751.584 270.935V284.459M758.347 277.697H744.818M725.345 270.935V284.459M732.107 277.697H718.582M699.109 270.935V284.459M705.871 277.697H692.347M672.869 270.935V284.459M679.636 277.697H666.107M646.634 270.935V284.459M653.396 277.697H639.872M620.398 270.935V284.459M627.161 277.697H613.632M594.159 270.935V284.459M600.921 277.697H587.396M567.923 270.935V284.459M574.685 277.697H561.161M541.683 270.935V284.459M548.45 277.697H534.921M515.448 270.935V284.459M522.21 277.697H508.686M489.212 270.935V284.459M495.975 277.697H482.446M462.973 270.935V284.459M469.735 277.697H456.21M436.737 270.935V284.459M443.499 277.697H429.975M410.497 270.935V284.459M417.264 277.697H403.735M384.262 270.935V284.459M391.024 277.697H377.499M358.026 270.935V284.459M364.788 277.697H351.26M331.787 270.935V284.459M338.549 277.697H325.024M305.551 270.935V284.459M312.313 277.697H298.789M279.311 270.935V284.459M286.078 277.697H272.549M253.076 270.935V284.459M259.838 277.697H246.314M226.84 270.935V284.459M233.603 277.697H220.074M200.601 270.935V284.459M207.363 277.697H193.838M174.365 270.935V284.459M181.127 277.697H167.603M148.125 270.935V284.459M154.892 277.697H141.363M121.89 270.935V284.459M128.652 277.697H115.128M95.6543 270.935V284.459M102.417 277.697H88.8878M69.4145 270.935V284.459M76.1768 277.697H62.6523M43.179 270.935V284.459M49.9413 277.697H36.4168M16.9393 270.935V284.459M23.7058 277.697H10.177M-9.29622 270.935V284.459M-2.53398 277.697H-16.0585M777.82 297.17V310.699M784.582 303.932H771.058M751.584 297.17V310.699M758.347 303.932H744.818M725.345 297.17V310.699M732.107 303.932H718.582M699.109 297.17V310.699M705.871 303.932H692.347M672.869 297.17V310.699M679.636 303.932H666.107M646.634 297.17V310.699M653.396 303.932H639.872M620.398 297.17V310.699M627.161 303.932H613.632M594.159 297.17V310.699M600.921 303.932H587.396M567.923 297.17V310.699M574.685 303.932H561.161M541.683 297.17V310.699M548.45 303.932H534.921M515.448 297.17V310.699M522.21 303.932H508.686M489.212 297.17V310.699M495.975 303.932H482.446M462.973 297.17V310.699M469.735 303.932H456.21M436.737 297.17V310.699M443.499 303.932H429.975M410.497 297.17V310.699M417.264 303.932H403.735M384.262 297.17V310.699M391.024 303.932H377.499M358.026 297.17V310.699M364.788 303.932H351.26M331.787 297.17V310.699M338.549 303.932H325.024M305.551 297.17V310.699M312.313 303.932H298.789M279.311 297.17V310.699M286.078 303.932H272.549M253.076 297.17V310.699M259.838 303.932H246.314M226.84 297.17V310.699M233.603 303.932H220.074M200.601 297.17V310.699M207.363 303.932H193.838M174.365 297.17V310.699M181.127 303.932H167.603M148.125 297.17V310.699M154.892 303.932H141.363M121.89 297.17V310.699M128.652 303.932H115.128M95.6543 297.17V310.699M102.417 303.932H88.8878M69.4145 297.17V310.699M76.1768 303.932H62.6523M43.179 297.17V310.699M49.9413 303.932H36.4168M16.9393 297.17V310.699M23.7058 303.932H10.177M-9.29622 297.17V310.699M-2.53398 303.932H-16.0585M777.82 323.41V336.934M784.582 330.172H771.058M751.584 323.41V336.934M758.347 330.172H744.818M725.345 323.41V336.934M732.107 330.172H718.582M699.109 323.41V336.934M705.871 330.172H692.347M672.869 323.41V336.934M679.636 330.172H666.107M646.634 323.41V336.934M653.396 330.172H639.872M620.398 323.41V336.934M627.161 330.172H613.632M594.159 323.41V336.934M600.921 330.172H587.396M567.923 323.41V336.934M574.685 330.172H561.161M541.683 323.41V336.934M548.45 330.172H534.921M515.448 323.41V336.934M522.21 330.172H508.686M489.212 323.41V336.934M495.975 330.172H482.446M462.973 323.41V336.934M469.735 330.172H456.21M436.737 323.41V336.934M443.499 330.172H429.975M410.497 323.41V336.934M417.264 330.172H403.735M384.262 323.41V336.934M391.024 330.172H377.499M358.026 323.41V336.934M364.788 330.172H351.26M331.787 323.41V336.934M338.549 330.172H325.024M305.551 323.41V336.934M312.313 330.172H298.789M279.311 323.41V336.934M286.078 330.172H272.549M253.076 323.41V336.934M259.838 330.172H246.314M226.84 323.41V336.934M233.603 330.172H220.074M200.601 323.41V336.934M207.363 330.172H193.838M174.365 323.41V336.934M181.127 330.172H167.603M148.125 323.41V336.934M154.892 330.172H141.363M121.89 323.41V336.934M128.652 330.172H115.128M95.6543 323.41V336.934M102.417 330.172H88.8878M69.4145 323.41V336.934M76.1768 330.172H62.6523M43.179 323.41V336.934M49.9413 330.172H36.4168M16.9393 323.41V336.934M23.7058 330.172H10.177M-9.29622 323.41V336.934M-2.53398 330.172H-16.0585M777.82 349.645V363.17M784.582 356.408H771.058M751.584 349.645V363.17M758.347 356.408H744.818M725.345 349.645V363.17M732.107 356.408H718.582M699.109 349.645V363.17M705.871 356.408H692.347M672.869 349.645V363.17M679.636 356.408H666.107M646.634 349.645V363.17M653.396 356.408H639.872M620.398 349.645V363.17M627.161 356.408H613.632M594.159 349.645V363.17M600.921 356.408H587.396M567.923 349.645V363.17M574.685 356.408H561.161M541.683 349.645V363.17M548.45 356.408H534.921M515.448 349.645V363.17M522.21 356.408H508.686M489.212 349.645V363.17M495.975 356.408H482.446M462.973 349.645V363.17M469.735 356.408H456.21M436.737 349.645V363.17M443.499 356.408H429.975M410.497 349.645V363.17M417.264 356.408H403.735M384.262 349.645V363.17M391.024 356.408H377.499M358.026 349.645V363.17M364.788 356.408H351.26M331.787 349.645V363.17M338.549 356.408H325.024M305.551 349.645V363.17M312.313 356.408H298.789M279.311 349.645V363.17M286.078 356.408H272.549M253.076 349.645V363.17M259.838 356.408H246.314M226.84 349.645V363.17M233.603 356.408H220.074M200.601 349.645V363.17M207.363 356.408H193.838M174.365 349.645V363.17M181.127 356.408H167.603M148.125 349.645V363.17M154.892 356.408H141.363M121.89 349.645V363.17M128.652 356.408H115.128M95.6543 349.645V363.17M102.417 356.408H88.8878M69.4145 349.645V363.17M76.1768 356.408H62.6523M43.179 349.645V363.17M49.9413 356.408H36.4168M16.9393 349.645V363.17M23.7058 356.408H10.177M-9.29622 349.645V363.17M-2.53398 356.408H-16.0585M777.82 375.881V389.41M784.582 382.647H771.058M751.584 375.881V389.41M758.347 382.647H744.818M725.345 375.881V389.41M732.107 382.647H718.582M699.109 375.881V389.41M705.871 382.647H692.347M672.869 375.881V389.41M679.636 382.647H666.107M646.634 375.881V389.41M653.396 382.647H639.872M620.398 375.881V389.41M627.161 382.647H613.632M594.159 375.881V389.41M600.921 382.647H587.396M567.923 375.881V389.41M574.685 382.647H561.161M541.683 375.881V389.41M548.45 382.647H534.921M515.448 375.881V389.41M522.21 382.647H508.686M489.212 375.881V389.41M495.975 382.647H482.446M462.973 375.881V389.41M469.735 382.647H456.21M436.737 375.881V389.41M443.499 382.647H429.975M410.497 375.881V389.41M417.264 382.647H403.735M384.262 375.881V389.41M391.024 382.647H377.499M358.026 375.881V389.41M364.788 382.647H351.26M331.787 375.881V389.41M338.549 382.647H325.024M305.551 375.881V389.41M312.313 382.647H298.789M279.311 375.881V389.41M286.078 382.647H272.549M253.076 375.881V389.41M259.838 382.647H246.314M226.84 375.881V389.41M233.603 382.647H220.074M200.601 375.881V389.41M207.363 382.647H193.838M174.365 375.881V389.41M181.127 382.647H167.603M148.125 375.881V389.41M154.892 382.647H141.363M121.89 375.881V389.41M128.652 382.647H115.128M95.6543 375.881V389.41M102.417 382.647H88.8878M69.4145 375.881V389.41M76.1768 382.647H62.6523M43.179 375.881V389.41M49.9413 382.647H36.4168M16.9393 375.881V389.41M23.7058 382.647H10.177M-9.29622 375.881V389.41M-2.53398 382.647H-16.0585M777.82 402.121V415.645M784.582 408.883H771.058M751.584 402.121V415.645M758.347 408.883H744.818M725.345 402.121V415.645M732.107 408.883H718.582M699.109 402.121V415.645M705.871 408.883H692.347M672.869 402.121V415.645M679.636 408.883H666.107M646.634 402.121V415.645M653.396 408.883H639.872M620.398 402.121V415.645M627.161 408.883H613.632M594.159 402.121V415.645M600.921 408.883H587.396M567.923 402.121V415.645M574.685 408.883H561.161M541.683 402.121V415.645M548.45 408.883H534.921M515.448 402.121V415.645M522.21 408.883H508.686M489.212 402.121V415.645M495.975 408.883H482.446M462.973 402.121V415.645M469.735 408.883H456.21M436.737 402.121V415.645M443.499 408.883H429.975M410.497 402.121V415.645M417.264 408.883H403.735M384.262 402.121V415.645M391.024 408.883H377.499M358.026 402.121V415.645M364.788 408.883H351.26M331.787 402.121V415.645M338.549 408.883H325.024M305.551 402.121V415.645M312.313 408.883H298.789M279.311 402.121V415.645M286.078 408.883H272.549M253.076 402.121V415.645M259.838 408.883H246.314M226.84 402.121V415.645M233.603 408.883H220.074M200.601 402.121V415.645M207.363 408.883H193.838M174.365 402.121V415.645M181.127 408.883H167.603M148.125 402.121V415.645M154.892 408.883H141.363M121.89 402.121V415.645M128.652 408.883H115.128M95.6543 402.121V415.645M102.417 408.883H88.8878M69.4145 402.121V415.645M76.1768 408.883H62.6523M43.179 402.121V415.645M49.9413 408.883H36.4168M16.9393 402.121V415.645M23.7058 408.883H10.177M-9.29622 402.121V415.645M-2.53398 408.883H-16.0585M777.82 428.356V441.885M784.582 435.118H771.058M751.584 428.356V441.885M758.347 435.118H744.818M725.345 428.356V441.885M732.107 435.118H718.582M699.109 428.356V441.885M705.871 435.118H692.347M672.869 428.356V441.885M679.636 435.118H666.107M646.634 428.356V441.885M653.396 435.118H639.872M620.398 428.356V441.885M627.161 435.118H613.632M594.159 428.356V441.885M600.921 435.118H587.396M567.923 428.356V441.885M574.685 435.118H561.161M541.683 428.356V441.885M548.45 435.118H534.921M515.448 428.356V441.885M522.21 435.118H508.686M489.212 428.356V441.885M495.975 435.118H482.446M462.973 428.356V441.885M469.735 435.118H456.21M436.737 428.356V441.885M443.499 435.118H429.975M410.497 428.356V441.885M417.264 435.118H403.735M384.262 428.356V441.885M391.024 435.118H377.499M358.026 428.356V441.885M364.788 435.118H351.26M331.787 428.356V441.885M338.549 435.118H325.024M305.551 428.356V441.885M312.313 435.118H298.789M279.311 428.356V441.885M286.078 435.118H272.549M253.076 428.356V441.885M259.838 435.118H246.314M226.84 428.356V441.885M233.603 435.118H220.074M200.601 428.356V441.885M207.363 435.118H193.838M174.365 428.356V441.885M181.127 435.118H167.603M148.125 428.356V441.885M154.892 435.118H141.363M121.89 428.356V441.885M128.652 435.118H115.128M95.6543 428.356V441.885M102.417 435.118H88.8878M69.4145 428.356V441.885M76.1768 435.118H62.6523M43.179 428.356V441.885M49.9413 435.118H36.4168M16.9393 428.356V441.885M23.7058 435.118H10.177M-9.29622 428.356V441.885M-2.53398 435.118H-16.0585" stroke="white" stroke-width="1.6948" stroke-miterlimit="10"/>
</mask>
<g mask="url(#mask0_11989_7196)">
<g filter="url(#filter1_f_11989_7196)">
<circle cx="318.417" cy="318.417" r="318.417" transform="matrix(-1 0 0 1 517.834 -318)" fill="white"/>
</g>
</g>
<g opacity="0.4" filter="url(#filter2_f_11989_7196)">
<circle cx="-188" cy="-44" r="305" fill="#9BE9D0"/>
</g>
<g filter="url(#filter3_f_11989_7196)">
<circle cx="1423.42" cy="1119.42" r="318.417" fill="#7AE2C0"/>
</g>
</g>
<defs>
<filter id="filter0_f_11989_7196" x="-672" y="-607" width="1628" height="1628" filterUnits="userSpaceOnUse" color-interpolation-filters="sRGB">
<feFlood flood-opacity="0" result="BackgroundImageFix"/>
<feBlend mode="normal" in="SourceGraphic" in2="BackgroundImageFix" result="shape"/>
<feGaussianBlur stdDeviation="200" result="effect1_foregroundBlur_11989_7196"/>
</filter>
<filter id="filter1_f_11989_7196" x="-495.825" y="-694.825" width="1390.48" height="1390.49" filterUnits="userSpaceOnUse" color-interpolation-filters="sRGB">
<feFlood flood-opacity="0" result="BackgroundImageFix"/>
<feBlend mode="normal" in="SourceGraphic" in2="BackgroundImageFix" result="shape"/>
<feGaussianBlur stdDeviation="188.413" result="effect1_foregroundBlur_11989_7196"/>
</filter>
<filter id="filter2_f_11989_7196" x="-1693" y="-1549" width="3010" height="3010" filterUnits="userSpaceOnUse" color-interpolation-filters="sRGB">
<feFlood flood-opacity="0" result="BackgroundImageFix"/>
<feBlend mode="normal" in="SourceGraphic" in2="BackgroundImageFix" result="shape"/>
<feGaussianBlur stdDeviation="600" result="effect1_foregroundBlur_11989_7196"/>
</filter>
<filter id="filter3_f_11989_7196" x="505" y="201" width="1836.83" height="1836.84" filterUnits="userSpaceOnUse" color-interpolation-filters="sRGB">
<feFlood flood-opacity="0" result="BackgroundImageFix"/>
<feBlend mode="normal" in="SourceGraphic" in2="BackgroundImageFix" result="shape"/>
<feGaussianBlur stdDeviation="300" result="effect1_foregroundBlur_11989_7196"/>
</filter>
<clipPath id="clip0_11989_7196">
<rect width="1440.74" height="941" fill="white"/>
</clipPath>
</defs>
</svg>
