<svg width="593" height="434" viewBox="0 0 593 434" fill="none" xmlns="http://www.w3.org/2000/svg">
<path d="M100.812 157.872C110.819 163.458 119.007 169.416 120.754 180.952C131.534 180.67 143.498 180.561 153.96 180.697C161.684 180.798 169.48 180.861 177.159 181.707C178.787 181.88 183.663 181.707 184.892 182.908C185.938 183.945 186.138 185.792 185.929 187.903H186.165C208.09 187.903 246.5 189.922 251.431 189.859C256.362 189.795 265.987 173.883 275.212 168.661C284.437 163.439 297.638 162.994 306.526 165.814C309.767 166.871 312.833 168.404 315.624 170.363L315.815 170.208C331.881 161.72 352.296 163.367 374.23 179.842C383.228 179.933 401.75 180.142 406.981 180.088C420.009 179.951 481.9 176.795 499.14 175.903L499.203 175.175C501.687 163.576 506.963 154.951 518.936 150.748C523.221 149.238 530.28 148.119 533.683 152.477C535.794 155.206 535.703 162.229 536.476 164.449C536.585 164.022 536.722 163.603 536.849 163.185C535.029 153.705 533.21 147.309 531.691 146.036C531.627 145.613 531.521 145.199 531.372 144.798C500.195 63.6118 404.297 5.33285 317.17 0.356484C224.029 -4.95649 130.388 49.4833 99.1471 139.231C97.4185 144.189 95.781 149.238 94.2344 154.369C96.3996 155.443 98.583 156.634 100.812 157.872Z" fill="white"/>
<path d="M530.382 284.384C519.401 281.136 510.485 272.084 510.485 261.513L508.921 259.156C508.028 259.797 507.035 260.286 505.982 260.603C501.952 261.849 481.892 262.368 476.042 262.004C466.353 261.394 456.546 262.468 446.757 261.931C447.094 261.149 447.394 260.348 447.667 259.547H447.148C440.953 260.13 429.253 260.657 423.04 261.039L420.756 261.149C420.642 261.961 420.481 262.766 420.274 263.559C418.618 269.9 409.22 282.182 401.651 278.543L401.697 278.125C400.895 280.188 399.825 282.137 398.513 283.92C396.529 286.585 389.915 292.69 383.138 290.898C380.208 296.62 367.472 306.054 356.254 301.815C350.796 306.664 341.016 322.202 325.086 309.184C325.086 309.184 314.906 311.722 312.286 311.558C306.591 311.185 299.34 310.048 296.602 304.28C282.3 308.829 265.051 311.167 259.302 294.901V294.855C252.087 297.43 243.89 297.348 237.222 293.945C234.875 292.735 229.171 289.451 228.925 286.303C219.827 287.068 189.532 286.194 178.197 286.103C178.688 288.068 179.107 289.979 178.761 290.434C176.687 293.554 161.221 291.271 157.518 291.061C144.964 290.361 132.391 290.47 119.809 290.506L119.472 291.007C119.572 298.667 115.178 306.918 109.465 313.414C128.57 346.638 151.95 372.812 177.405 390.27C210.894 413.187 254.08 433.356 317.335 433.356C380.59 433.356 450.505 404.999 486.158 370.492C519.392 338.287 533.548 307.983 539.516 286.294C536.42 285.934 533.363 285.295 530.382 284.384Z" fill="white"/>
<path d="M186.184 187.918C208.109 187.918 246.519 189.938 251.449 189.874C256.38 189.811 266.006 173.899 275.231 168.677C284.455 163.455 297.656 163.009 306.544 165.83C318.944 169.751 326.35 180.322 334.665 189.483C341.998 197.562 348.775 206.314 355.271 215.011C360.038 221.379 365.478 231.259 362.312 238.938C358.883 247.28 345.491 247.28 335.829 240.903C326.093 234.395 317.193 226.717 309.328 218.04C306.162 224.363 293.571 231.359 287.248 233.506C280.926 235.653 269.317 235.817 262.685 233.506" stroke="#008080" stroke-width="6.36829" stroke-linecap="round" stroke-linejoin="round"/>
<path d="M220.035 240.906C220.181 243.075 219.845 245.25 219.053 247.275" stroke="#008080" stroke-width="6.36829" stroke-linecap="round" stroke-linejoin="round"/>
<path d="M178.332 286.039C188.003 286.039 219.326 287.058 228.914 286.248" stroke="#008080" stroke-width="6.36829" stroke-linecap="round" stroke-linejoin="round"/>
<path d="M285.766 233.969C279.042 242.02 271.355 248.871 263.458 256.003C254.434 264.145 245.145 270.041 235.72 277.928C233.364 279.902 228.678 283.278 228.915 286.225C229.161 289.373 234.865 292.657 237.212 293.867C245.536 298.143 256.253 297.233 264.441 292.411C271.892 288.017 301.059 263.008 301.059 263.008" stroke="#008080" stroke-width="6.36829" stroke-linecap="round" stroke-linejoin="round"/>
<path d="M259.291 294.922C265.05 311.188 282.299 308.85 296.591 304.301C299.32 310.097 306.598 311.234 312.275 311.58C316.196 311.834 328.478 308.668 331.89 306.667" stroke="#008080" stroke-width="6.36829" stroke-linecap="round" stroke-linejoin="round"/>
<path d="M332.391 307.653C336.439 298.701 335.211 289.458 337.676 280.069C338.895 275.447 340.405 271.463 346.128 272.791C349.712 273.646 353.188 277.067 354.316 280.751C355.762 285.3 355.416 300.83 355.416 300.83C357.318 290.95 354.57 275.056 358.237 264.439C359.747 260.045 361.203 255.269 366.197 255.224C371.61 255.224 376.004 260.764 377.924 265.185C380.426 270.935 380.926 281.761 380.926 281.761C380.926 281.761 377.514 262.802 380.189 251.885C381.099 248.082 382.873 243.115 386.557 241.877C392.407 239.885 399.012 244.78 401.205 249.72C405.644 259.727 405.244 274.902 398.475 283.935C396.492 286.601 389.878 292.706 383.1 290.913C380.171 296.636 367.434 306.07 356.217 301.83C350.759 306.679 340.979 322.218 325.049 309.199" stroke="#008080" stroke-width="6.36829" stroke-linecap="round" stroke-linejoin="round"/>
<path d="M296.6 304.252C303.022 301.669 325.603 282.254 329.442 279.07" stroke="#008080" stroke-width="6.36829" stroke-linecap="round" stroke-linejoin="round"/>
<path d="M315.834 170.193C331.9 161.705 352.315 163.352 374.249 179.828C383.247 179.918 401.77 180.128 407.001 180.073C422.175 179.919 503.635 175.652 503.635 175.652" stroke="#008080" stroke-width="6.36829" stroke-linecap="round" stroke-linejoin="round"/>
<path d="M423.084 261.039C429.298 260.657 440.997 260.129 447.193 259.547" stroke="#008080" stroke-width="6.36829" stroke-linecap="round" stroke-linejoin="round"/>
<path d="M454.625 178.524C455.471 185.238 456.663 191.579 457.009 198.411C457.5 207.873 456.636 217.371 455.535 226.705C454.116 238.75 451.396 251.15 446.756 261.931C456.545 262.467 466.352 261.394 476.041 262.003C481.891 262.367 501.951 261.849 505.981 260.602C512.677 258.519 512.922 252.333 513.85 246.228C515.742 232.792 515.926 219.171 514.396 205.69C513.159 195.728 510.976 187.376 503.861 176.141" stroke="#008080" stroke-width="6.36829" stroke-linecap="round" stroke-linejoin="round"/>
<path d="M492.09 250.957L496.748 250.711" stroke="#008080" stroke-width="6.36829" stroke-linecap="round" stroke-linejoin="round"/>
<path d="M510.484 261.516C510.484 272.087 519.4 281.139 530.381 284.387C536.494 286.206 544.264 287.607 550.195 285.224C556.927 282.495 559.402 275.944 562.504 270.04C565.233 276.581 568.145 281.994 575.832 283.996C582.2 285.661 591.198 284.305 589.406 274.762" stroke="#008080" stroke-width="6.36829" stroke-linecap="round" stroke-linejoin="round"/>
<path d="M499.203 175.161C501.687 163.561 506.963 154.937 518.936 150.734C523.221 149.223 530.29 148.104 533.683 152.462C535.794 155.191 535.703 162.215 536.476 164.435C539.651 152.608 548.521 141.545 560.23 136.696C568.972 133.057 575.75 136.196 578.679 144.747" stroke="#008080" stroke-width="6.36829" stroke-linecap="round" stroke-linejoin="round"/>
<path d="M120.828 181.055C132.491 180.7 142.352 180.546 154.015 180.7C161.739 180.801 169.536 180.864 177.214 181.71C178.843 181.883 183.719 181.71 184.947 182.911C188.004 185.932 183.928 195.693 183.128 199.496C180.18 213.515 177.524 228.099 176.004 242.327C174.489 255.27 174.795 268.362 176.914 281.219C177.041 281.993 179.443 289.407 178.788 290.381C176.714 293.501 161.248 291.218 157.545 291.008C143.244 290.208 128.915 290.463 114.596 290.463" stroke="#008080" stroke-width="6.36829" stroke-linecap="round" stroke-linejoin="round"/>
<path d="M3.18555 148.259C17.2504 144.62 31.2788 145.23 45.8713 145.239C56.1962 145.209 66.4989 146.196 76.6302 148.187C85.7277 150.006 92.7874 153.372 100.83 157.875C110.964 163.543 119.298 169.584 120.844 181.447C112.083 189.389 110.418 219.584 110.418 241.418C110.418 263.253 110.61 276.635 113.066 289.481" stroke="#008080" stroke-width="6.36829" stroke-linecap="round" stroke-linejoin="round"/>
<path d="M119.462 290.953C119.599 301.825 110.701 313.906 101.895 320.438C84.2819 333.502 65.8502 328.945 47.4368 321.439C44.3618 326.406 38.5302 329.763 32.8807 331.892C23.7831 335.349 12.5203 335.968 3.19531 335.595" stroke="#008080" stroke-width="6.36829" stroke-linecap="round" stroke-linejoin="round"/>
<path d="M231.597 359.992L223.137 368.671" stroke="#008080" stroke-width="6.36829" stroke-linecap="round" stroke-linejoin="round"/>
<path d="M357.355 376.508L360.876 387.407" stroke="#008080" stroke-width="6.36829" stroke-linecap="round" stroke-linejoin="round"/>
<path d="M408.582 356.859L415.378 362.836" stroke="#008080" stroke-width="6.36829" stroke-linecap="round" stroke-linejoin="round"/>
<path d="M230.653 110.526L220.664 101.492" stroke="#008080" stroke-width="6.36829" stroke-linecap="round" stroke-linejoin="round"/>
<path d="M314.795 78.3493L316.451 69.4609" stroke="#008080" stroke-width="6.36829" stroke-linecap="round" stroke-linejoin="round"/>
<path d="M343.443 76.3861L348.702 64.9141" stroke="#008080" stroke-width="6.36829" stroke-linecap="round" stroke-linejoin="round"/>
<path d="M401.531 118.216L411.839 113.312" stroke="#008080" stroke-width="6.36829" stroke-linecap="round" stroke-linejoin="round"/>
<path d="M404.671 252.466C415.37 247.28 423.275 252.466 420.309 263.556C418.617 269.897 409.22 282.179 401.65 278.54" stroke="#008080" stroke-width="6.36829" stroke-linecap="round" stroke-linejoin="round"/>
</svg>
