<svg width="610" height="457" viewBox="0 0 610 457" fill="none" xmlns="http://www.w3.org/2000/svg">
<path d="M119.233 296.25C118.855 272.165 117.554 249.591 119.233 225.514C120.517 206.575 125.059 176.042 132.06 173.952C132.06 173.952 133 161.964 134.1 150.539C111.803 148.86 89.5143 146.853 67.2509 144.889C62.6337 144.477 58.7804 148.457 58.4446 152.847C54.3142 207.75 53.1473 264.24 68.2919 317.699C77.8034 351.279 93.5859 383.373 116.714 409.481C120.5 371.074 119.829 334.825 119.233 296.25Z" fill="white"/>
<path d="M189.364 171.858C199.06 173.713 203.535 192.619 204.24 210.55C205.264 236.759 212.518 281.244 215.993 307.47C220.963 344.903 233.354 382.118 240.12 419.383C240.254 420.131 240.397 420.886 240.531 421.659C247.382 412.71 257.321 403.937 259.966 393.661C263.945 378.198 281.23 310.115 281.23 310.115L250.337 313.54C258.95 302.257 280.651 274.923 287.275 267.569C292.95 261.222 299.137 254.977 306.314 250.678L305.475 250.359C301.277 248.622 295.821 246.531 294.41 241.78C293.772 239.631 295.023 237.313 297.517 237.582C301.235 237.943 305.215 238.279 308.841 237.137C312.468 235.995 314.273 233.2 316.8 230.698C322.241 225.469 329.407 222.411 336.948 222.102C343.513 221.967 350.573 225.2 353.167 231.571C354.114 233.899 354.353 236.454 353.855 238.917C356.964 238.695 360.069 239.38 362.796 240.89C370.351 245.087 373.65 253.684 374.414 261.877C374.767 265.675 374.86 269.492 374.691 273.303C384.925 272.849 394.243 276.224 395.351 287.314C396.577 299.562 382.524 302.19 369.201 302.861C367.581 307.764 365.339 312.474 361.738 315.865C361.738 315.739 361.738 315.622 361.738 315.496C362.384 326.963 363.266 343.602 363.476 352.996C363.87 370.5 364.752 402.316 367.212 410.871C369.268 418.032 376.194 428.055 382.054 439.918C390.659 423.035 404.359 399.622 413.166 375.218C428.495 332.63 441.591 289.094 437.2 243.417C435.11 221.741 428.05 180.026 444.076 166.242C444.512 162.363 444.563 153.456 444.571 145.305C387.099 149.208 329.736 155.177 272.105 156C244.133 156.394 216.195 155.614 188.281 154.153C189.062 163.522 189.364 171.858 189.364 171.858Z" fill="white"/>
<path d="M592.777 150.341C592.391 146.681 588.328 144.028 584.995 143.785C555.663 141.619 526.23 141.493 496.848 142.492C497.419 149.426 497.83 155.202 497.83 155.202C508.172 156.092 520.899 182.318 511.43 198.512C521.688 199.242 520.664 220.078 519.447 226.593C518.171 233.552 512.479 238.9 512.504 245.305C512.504 253.39 517.978 262.263 519.111 270.599C521.47 287.952 523.048 305.287 522.469 322.858C521.504 353.029 518.272 382.462 513.495 412.264C539.209 382.093 555.638 345.105 566.828 307.126C574.09 282.461 579.421 257.276 584.676 232.125C590.376 205.102 595.673 178.062 592.777 150.341Z" fill="white"/>
<path d="M609.86 56.147C609.642 52.8393 608.677 44.7802 604.437 41.4474C597.159 35.7388 580.092 34.2109 573.032 34.3704C572.646 34.3748 572.265 34.4552 571.91 34.6069C571.555 34.7587 571.234 34.9788 570.964 35.2548C570.419 35.8121 570.118 36.563 570.127 37.3423C570.136 38.1215 570.454 38.8653 571.011 39.4101C571.569 39.9548 572.32 40.2558 573.099 40.2469V73.8939H572.889C572.11 73.9206 571.373 74.2558 570.841 74.8257C570.309 75.3957 570.025 76.1536 570.052 76.9329C570.078 77.7122 570.413 78.4489 570.983 78.981C571.553 79.5132 572.311 79.7971 573.091 79.7704H573.3L575.659 79.6109C584.894 79.0316 600.273 78.0494 606.326 71.8623C610.339 67.816 610.037 58.8082 609.86 56.147Z" fill="#008080"/>
<path d="M490.148 19.944C493.221 12.59 516.425 13.228 508.886 24.6116" stroke="#008080" stroke-width="5.87648" stroke-linecap="round" stroke-linejoin="round"/>
<path d="M495.328 83.4141C495.085 92.9843 487.437 95.6539 483.769 98.0801" stroke="#008080" stroke-width="5.87648" stroke-linecap="round" stroke-linejoin="round"/>
<path d="M35.9719 54.2627C35.485 51.2321 36.3581 47.2529 34.1418 46.7492C33.1764 45.5571 13.5826 53.8933 11.1228 54.8084C8.33572 55.8493 6.7071 59.7866 10.2834 60.4414C15.95 61.4824 24.9745 62.5233 30.6411 63.5643C32.3201 63.8833 34.3517 63.111 34.7715 61.2221C35.0065 60.1895 36.1986 55.6059 35.9719 54.2627Z" fill="#008080"/>
<path d="M530.284 33.0011C530.486 32.2414 530.405 31.4343 530.056 30.7301C529.707 30.0258 529.114 29.4724 528.387 29.173C528.538 28.8258 528.618 28.4518 528.622 28.0733C528.629 27.6874 528.559 27.304 528.418 26.9449C528.276 26.5859 528.066 26.2583 527.797 25.9807C527.529 25.7032 527.209 25.4812 526.855 25.3275C526.501 25.1737 526.12 25.0912 525.734 25.0846C522.083 25.0259 515.308 24.7321 508.751 24.4466C502.95 24.1864 497.468 23.9513 494.262 23.8758C493.482 23.858 492.728 24.1504 492.164 24.6889C491.601 25.2273 491.274 25.9676 491.256 26.7469C491.238 27.5261 491.531 28.2805 492.069 28.8442C492.608 29.4078 493.348 29.7344 494.127 29.7522L496.646 29.8278C496.366 30.2594 496.226 30.7662 496.243 31.2801C496.167 31.8318 496.215 32.3933 496.382 32.9244C496.549 33.4556 496.831 33.9433 497.208 34.3527C499.441 40.4978 504.545 56.5658 498.585 56.7421C497.867 57.2906 496.994 57.6002 496.091 57.6273C495.187 57.6545 494.298 57.3977 493.548 56.8932C489.879 57.6739 487.243 60.0077 484.759 62.6941C481.359 66.3795 478.043 69.1666 473.148 70.6693C472.657 70.8144 472.205 71.0682 471.826 71.4119C471.447 71.7556 471.15 72.1803 470.957 72.6545C470.764 73.1287 470.681 73.6402 470.713 74.1511C470.745 74.662 470.891 75.1591 471.142 75.6055C472.109 77.5762 473.577 79.2582 475.398 80.483H475.18C474.401 80.483 473.653 80.7926 473.102 81.3436C472.551 81.8946 472.242 82.642 472.242 83.4213C472.242 84.2005 472.551 84.9479 473.102 85.4989C473.653 86.0499 474.401 86.3595 475.18 86.3595C493.338 86.4686 505.855 86.519 513.931 86.519C520.135 86.519 523.72 86.519 525.205 86.4267C525.915 86.399 526.591 86.1143 527.107 85.6256C527.622 85.1369 527.943 84.4774 528.009 83.77C528.074 83.0626 527.881 82.3554 527.464 81.7801C527.047 81.2047 526.435 80.8005 525.743 80.6425C529.52 76.1344 529.991 68.2683 530.713 62.8032C531.96 52.8978 531.816 42.8666 530.284 33.0011Z" fill="#DBFF82"/>
<path d="M165.635 49.6209C151.456 43.265 158.777 49.9002 152.434 47.1763C147.817 45.1935 152.434 40.8205 140.648 40.8205C139.809 38.4783 135.858 33.4868 136.789 31.0423C137.721 28.5943 137.257 27.7778 137.811 27.761C138.196 27.7478 137.258 27.2909 137.609 27.131C137.961 26.9711 136.943 26.4326 137.206 26.1504C137.47 25.8682 137.675 25.5369 137.811 25.1753C137.946 24.8138 138.009 24.4291 137.996 24.0432C137.982 23.6574 137.893 23.2779 137.734 22.9265C137.574 22.5751 139.516 22.5053 139.233 22.2419C138.951 21.9784 139.103 22.2051 138.741 22.0696C138.38 21.9342 137.995 21.8713 137.609 21.8845C135.578 21.9601 127.955 22.3714 118.301 22.9003C102.736 23.7398 83.3777 24.8228 79.4404 24.8564C78.788 24.8644 78.1568 25.0894 77.6464 25.4959C77.136 25.9023 76.7754 26.4671 76.6214 27.1011C76.4675 27.7352 76.529 28.4024 76.7962 28.9977C77.0634 29.5929 77.5211 30.0823 78.0972 30.3886C79.867 31.2134 81.3222 32.5889 82.2453 34.3094C83.1684 36.03 83.5097 38.0031 83.2182 39.9337C82.7732 44.1312 80.4394 46.9267 79.5831 47.1618C78.8462 47.3257 78.2006 47.7669 77.7802 48.3941C77.3599 49.0212 77.1971 49.7861 77.3256 50.53C77.4541 51.274 77.864 51.9399 78.4703 52.3897C79.0767 52.8396 79.8329 53.0387 80.5821 52.9459C81.347 52.7964 82.1377 52.8511 82.8746 53.1046C83.6116 53.3581 84.2687 53.8014 84.7796 54.3898C86.4586 56.3375 87.0379 60.0984 86.1732 63.3305C85.1238 67.2677 80.8676 70.6677 77.7782 73.1526C76.8212 73.9165 75.9145 74.6385 75.1758 75.3185C74.7492 75.7073 74.4466 76.2131 74.3057 76.7727C74.1648 77.3324 74.1918 77.9212 74.3835 78.4656C74.5751 79.01 74.9228 79.4859 75.3832 79.834C75.8436 80.182 76.3963 80.3867 76.9723 80.4226C77.3921 80.4226 119.191 83.0503 148.002 83.5959H148.052C148.832 83.6037 149.582 83.3016 150.139 82.7561C150.695 82.2106 151.012 81.4663 151.02 80.6871C151.028 79.9078 150.726 79.1574 150.18 78.6008C149.635 78.0443 150.011 77.7401 149.232 77.7323H148.896C149.098 77.6483 154.044 76.5238 149.501 77.4888C152.296 76.1288 153.097 74.1068 154.39 71.6219C161.234 65.2661 165.665 62.9275 172.675 62.2559C174.354 62.0964 176.184 60.8456 176.033 58.8979C175.277 50.184 173.047 50.7206 165.635 49.6209Z" fill="#DBFF82" stroke="#008080" stroke-width="3.91129"/>
<path d="M444.804 28.5966L447.737 31.5301C447.778 31.5467 447.817 31.5626 447.855 31.5777C448.352 31.6052 449.408 32.2014 447.855 31.5777C447.559 31.5614 447.461 31.7461 448.226 32.5079C450.309 34.582 450.202 36.6969 451.321 39.415C454.545 47.0629 455.762 55.7265 450.28 62.56C447.812 65.5738 446.763 68.4791 443.942 71.1319C441.81 73.1383 440.29 72.7973 440.869 76.021C439.914 76.9988 439.402 77.8794 439.19 78.4655L438.544 80.1642C439.323 80.1642 437.897 80.848 438.448 81.399C438.999 81.95 438.544 83.0643 438.544 83.8436C438.544 84.6228 437.532 85.2482 436.981 85.7992C436.43 86.3503 432.382 86.2881 431.603 86.2881C378.992 85.9439 320.469 85.2599 294.688 85.6545C271.62 86.0118 248.288 85.3245 225.703 84.6591L225.01 84.6387C218.294 84.426 211.578 84.2358 204.862 84.0679C204.082 84.0478 204.796 83.9199 204.259 83.3547C203.722 82.7895 205.217 82.1783 205.237 81.399C205.257 80.6197 204.983 79.7663 205.549 79.2295C206.114 78.6926 204.234 78.1713 205.013 78.1914L205.237 77.4877C205.111 77.0698 205.497 75.2523 205.549 74.8189C205.601 74.3854 205.742 73.9675 205.963 73.5912L205.988 72.248C204.639 61.5569 200.579 56.3167 193.014 48.642C192.426 48.8004 192.323 46.2319 191.73 46.0919C191.138 45.9519 190.589 45.6667 190.135 45.2619C189.68 44.8572 189.333 44.3456 189.125 43.7733C188.918 43.2011 188.856 42.5861 188.945 41.9839C190.137 35.0916 194.721 32.8522 200.597 29.5782V26.5456C199.818 26.5456 199.07 26.236 198.519 25.685C197.968 25.1339 197.659 24.3866 197.659 23.6073C197.659 22.8281 197.968 22.0807 198.519 21.5297C199.07 20.9787 199.818 20.6691 200.597 20.6691C277.562 19.9051 387.505 20.2721 436.003 21.7496C436.782 21.7607 439.371 22.6635 439.914 23.2224C443.826 26.1558 444.815 26.8395 444.804 27.6188C444.792 28.398 446.829 28.5424 446.27 29.0855C445.711 29.6287 445.583 28.6077 444.804 28.5966Z" fill="#DBFF82" stroke="#008080" stroke-width="3.91129"/>
<path d="M315.978 276.031L315.55 279.784" stroke="#008080" stroke-width="5.87648" stroke-linecap="round" stroke-linejoin="round"/>
<path d="M329.411 278.312L328.982 282.065" stroke="#008080" stroke-width="5.87648" stroke-linecap="round" stroke-linejoin="round"/>
<path d="M291.599 309.763C296.527 310.603 301.933 312.635 307.138 312.282C313.552 311.879 318.841 307.942 324.768 305.692C332.818 302.645 344.462 303.45 346.721 313.684C352.312 338.995 313.56 344.368 298.643 336.25C293.102 333.261 283.632 310.821 291.599 309.763Z" stroke="#008080" stroke-width="5.87648" stroke-linecap="round" stroke-linejoin="round"/>
<path d="M343.22 307.492C342.087 311.11 340.937 314.645 339.946 318.406C342.095 320.627 344.06 323.019 345.823 325.558" stroke="#008080" stroke-width="5.87648" stroke-linecap="round" stroke-linejoin="round"/>
<path d="M296.015 311.031C298.81 314.02 299.154 320.685 299.994 322.893C299.423 325.303 295.351 330.281 295.385 329.97" stroke="#008080" stroke-width="5.87648" stroke-linecap="round" stroke-linejoin="round"/>
<path d="M259.992 393.664C286.059 409.724 338.065 416.524 365.819 402.126" stroke="#008080" stroke-width="5.87648" stroke-linecap="round" stroke-linejoin="round"/>
<path d="M260.949 412.031C263.258 424.506 272.098 443.202 282.776 450.866C294.94 459.631 324.868 439.315 322.627 426.706C320.209 435.579 324.138 448.163 331.24 454.006C347.308 467.237 357.844 427.948 357.651 416.867C356.627 415.7 357.508 417.337 356.971 417.656" stroke="#008080" stroke-width="5.87648" stroke-linecap="round" stroke-linejoin="round"/>
<path d="M319.404 449.867C316.356 456.231 318.925 473.499 317.372 480.089C312.755 499.633 301.262 510.118 295.696 528.671C291.969 541.095 303.252 535.647 312.646 538.098C328.596 542.245 306.198 555.022 309.363 560.555C312.528 566.087 321.041 565.592 323.559 570.562" stroke="#008080" stroke-width="5.87648" stroke-linecap="round" stroke-linejoin="round"/>
<path d="M500.365 514.558C501.666 502.746 500.81 490.363 502.22 478.216C504.663 457.228 509.507 436.929 512.924 416.143C518.045 385.082 521.52 354.348 522.527 322.859C523.09 305.288 521.512 287.952 519.17 270.6C518.036 262.264 512.588 253.39 512.563 245.306C512.563 238.901 518.229 233.553 519.505 226.594C520.706 220.079 521.747 199.243 511.488 198.512C520.958 182.318 508.231 156.093 497.888 155.203C487.546 154.313 452.085 159.4 444.16 166.2C428.134 179.985 435.195 221.699 437.285 243.375C441.676 289.069 428.579 332.605 413.25 375.176C399.818 412.609 374.801 447.532 374.247 460.477C373.928 467.739 372.929 481.935 381.333 482.078C396.082 482.321 387.914 453.039 385.396 446.978C379.167 432.002 369.748 419.384 367.296 410.829C364.845 402.275 363.938 370.458 363.56 352.955C363.216 337.634 361.092 303.055 361.092 303.055C375.985 302.837 396.914 302.106 395.428 287.272C393.749 270.751 373.92 271.322 359.942 276.216L357.986 268.35C354.292 250.318 342.539 244.34 324.994 244.903C309.002 245.423 297.291 256.303 287.267 267.569C280.677 274.94 258.976 302.257 250.329 313.54L281.256 310.107C281.256 310.107 263.971 378.19 259.992 393.653C256.013 409.117 235.47 421.18 233.892 435.569C233.052 442.974 236.477 445.887 239.827 438.692C242.648 432.631 241.279 425.605 240.146 419.384C233.355 382.119 220.964 344.904 215.994 307.471C212.518 281.245 205.265 236.76 204.241 210.551C203.536 192.619 199.061 173.714 189.365 171.858C172.986 168.727 146.777 169.55 132.019 173.957C125.017 176.047 120.476 206.58 119.191 225.519C117.563 249.596 118.839 272.17 119.191 296.255C119.813 335.266 120.501 371.894 116.522 410.787C114.507 430.507 116.681 449.581 114.448 469.166" stroke="#008080" stroke-width="5.87648" stroke-linecap="round" stroke-linejoin="round"/>
<path d="M444.119 166.204C444.959 158.699 444.371 132.398 444.782 129.141C445.194 125.883 460.523 123.944 468.548 121.954C476.574 119.965 493.188 116.347 494.329 119.31C495.471 122.273 497.855 155.207 497.855 155.207" stroke="#008080" stroke-width="5.87648" stroke-linecap="round" stroke-linejoin="round"/>
<path d="M189.365 171.856C189.365 171.856 188.366 144.152 185.444 132.786C170.493 128.252 151.57 131.803 136.065 133.197C134.445 142.994 132.019 173.954 132.019 173.954" stroke="#008080" stroke-width="5.87648" stroke-linecap="round" stroke-linejoin="round"/>
<path d="M446.948 127.179C444.262 111.077 433.382 90.7029 441.021 74.3663C445.706 64.3511 471.646 44.8831 481.586 57.2993C489.368 67.0207 471.294 72.9139 465.526 73.6863C474.383 78.5302 477.095 84.1296 474.761 90.4762" stroke="#008080" stroke-width="5.87648" stroke-linecap="round" stroke-linejoin="round"/>
<path d="M150.404 83.7382C148.247 63.8505 177.058 59.5858 184.085 68.6272C177.327 64.5808 167.79 47.3292 177.889 42.0404C187.627 36.9362 195.074 51.1237 199.565 57.2437C205.349 65.1265 207.12 71.5151 204.963 81.589C202.512 92.8131 193.949 91.9232 188.912 100.881C186.158 105.783 182.28 122.405 183.254 132.185" stroke="#008080" stroke-width="5.87648" stroke-linecap="round" stroke-linejoin="round"/>
<path d="M456.443 57.6894C457.82 48.5305 448.888 28.9618 440.963 24.4453" stroke="#008080" stroke-width="5.87648" stroke-linecap="round" stroke-linejoin="round"/>
<path d="M430.568 22.6508C434.338 12.3922 451.144 9.42037 455.997 21.6267C458.985 12.2579 471.024 16.3798 473.878 23.0874C482.542 10.3774 497.073 27.4695 499.197 36.2255C501.262 44.7212 505.703 66.2039 489.963 55.1561C489.711 58.1867 486.747 61.1418 483.692 60.7976" stroke="#008080" stroke-width="5.87648" stroke-linecap="round" stroke-linejoin="round"/>
<path d="M489.015 95.9375C490.635 101.084 491.458 118.193 491.458 118.193" stroke="#008080" stroke-width="5.87648" stroke-linecap="round" stroke-linejoin="round"/>
<path d="M134.924 81.9844C132.901 89.7665 139.315 101.024 148.07 100.21" stroke="#008080" stroke-width="5.87648" stroke-linecap="round" stroke-linejoin="round"/>
<path d="M139.307 130.409C140.264 122.409 138.786 108.28 142.455 99.9609" stroke="#008080" stroke-width="5.87648" stroke-linecap="round" stroke-linejoin="round"/>
<path d="M161.418 103.251C162.033 102.416 162.901 101.801 163.893 101.499C164.885 101.196 165.949 101.222 166.925 101.572" stroke="#008080" stroke-width="5.87648" stroke-linecap="round" stroke-linejoin="round"/>
<path d="M467.499 107.64C469.346 107.663 471.182 107.359 472.922 106.742" stroke="#008080" stroke-width="5.87648" stroke-linecap="round" stroke-linejoin="round"/>
<path d="M173.55 50.9117C168.848 51.4741 160.722 51.3146 160.361 45.6312C155.996 48.8633 147.861 48.7458 149.347 41.0308C125.001 47.3942 141.691 -2.29562 157.801 14.6034" stroke="#008080" stroke-width="5.87648" stroke-linecap="round" stroke-linejoin="round"/>
<path d="M150.168 28.1745C153.073 22.9276 155.86 15.8003 160.401 11.6532C164.532 7.89223 175.613 3.25821 177.141 11.9722C181.976 -4.30565 211.997 3.42611 212.71 19.2338" stroke="#008080" stroke-width="5.87648" stroke-linecap="round" stroke-linejoin="round"/>
<path d="M368.194 290.938C371.393 289.385 375.028 288.294 377.966 287.102" stroke="#008080" stroke-width="5.87648" stroke-linecap="round" stroke-linejoin="round"/>
<path d="M527.691 83.4091C541.459 83.0481 564.193 83.7281 569.238 80.4121C574.628 76.8695 576.122 64.5456 575.274 52.5073C574.426 40.4689 572.143 34.0887 567.148 31.8892C563.32 30.2102 546.244 29.3204 530.562 28.5312" stroke="#008080" stroke-width="5.87648" stroke-linecap="round" stroke-linejoin="round"/>
<path d="M482.399 65.3672L533.181 66.4249" stroke="#008080" stroke-width="5.87648" stroke-linecap="round" stroke-linejoin="round"/>
<path d="M202.806 62.7808C255.182 62.9235 336.647 62.4282 363.301 62.9151C372.862 63.0914 411.236 63.8805 449.097 64.6612" stroke="#008080" stroke-width="5.87648" stroke-linecap="round" stroke-linejoin="round"/>
<path d="M89.3896 61.7578C89.3896 61.7578 156.6 62.1272 163.265 62.3371C166.968 62.4546 172.063 62.5469 178.242 62.6141" stroke="#008080" stroke-width="5.87648" stroke-linecap="round" stroke-linejoin="round"/>
<path d="M531.15 28.8828C535.23 41.0051 537.111 64.0829 527.691 83.4081" stroke="#008080" stroke-width="5.87648" stroke-linecap="round" stroke-linejoin="round"/>
<path d="M75.1866 30.0625C75.1866 30.0625 57.6485 36.8724 51.4446 39.223C44.4768 41.8758 2.93848 58.5314 2.93848 58.5314C2.93848 58.5314 34.6211 65.6839 42.2269 67.6063C53.1404 70.3683 74.2088 75.0423 74.2088 75.0423" stroke="#008080" stroke-width="5.87648" stroke-linecap="round" stroke-linejoin="round"/>
<path d="M34.7636 46.2969C39.3388 50.6203 36.2663 59.8547 32.5977 65.3451" stroke="#008080" stroke-width="5.87648" stroke-linecap="round" stroke-linejoin="round"/>
<path d="M374.441 261.858C373.677 253.648 370.378 245.068 362.822 240.871C360.094 239.357 356.985 238.668 353.873 238.889C354.372 236.427 354.132 233.871 353.185 231.544C350.591 225.172 343.531 221.94 336.966 222.074C329.425 222.383 322.259 225.441 316.818 230.671C314.299 233.189 312.419 235.985 308.859 237.11C305.3 238.235 301.254 237.949 297.535 237.555C295.016 237.32 293.79 239.637 294.429 241.752C295.839 246.504 301.329 248.594 305.493 250.332C311.151 252.677 317.102 254.242 323.181 254.983C329.058 255.696 337.57 256.25 343.195 252.951C343.213 255.386 343.578 257.805 344.278 260.137C345.484 264.13 346.907 268.053 348.542 271.89C350.221 275.878 353.798 280.814 352.177 285.272C350.818 288.999 356.006 290.905 357.794 287.53C359.973 283.567 361.829 279.434 363.343 275.172C367.051 274.13 370.863 273.505 374.71 273.309C374.882 269.49 374.792 265.664 374.441 261.858Z" fill="#008080"/>
<path d="M361.781 315.848C365.382 312.49 367.657 307.746 369.244 302.844C366.423 302.978 363.636 303.037 361.033 303.079C361.008 303.079 361.369 308.426 361.781 315.848Z" fill="#008080"/>
<path d="M464.409 32.2266C468.12 38.7075 469.799 43.7025 471.427 50.7794" stroke="#008080" stroke-width="5.87648" stroke-linecap="round" stroke-linejoin="round"/>
<path d="M483.046 33.3359C486.84 40.0519 488.738 47.0533 489.762 54.3905" stroke="#008080" stroke-width="5.87648" stroke-linecap="round" stroke-linejoin="round"/>
<path d="M298.206 321.808C297.78 318.5 297.355 315.193 296.93 311.885C296.644 309.661 294.554 309.039 292.917 309.635C292.56 309.594 292.199 309.63 291.857 309.74C291.516 309.85 291.201 310.032 290.936 310.273C288.039 313.103 288.14 316.578 289.492 319.877C289.568 320.38 289.68 320.877 289.828 321.363C290.054 322.132 290.349 322.88 290.709 323.596C290.922 324.909 291.265 326.197 291.733 327.441C292.514 329.557 294.982 329.607 296.451 328.407C297.208 328.086 297.81 327.484 298.13 326.728L298.894 325.049C299.104 324.5 299.151 323.902 299.029 323.327C298.907 322.752 298.621 322.224 298.206 321.808Z" fill="#008080"/>
<path d="M347.173 316.126C347.173 316.126 347.173 316.059 347.173 316.026C347.173 315.992 347.173 316.026 347.173 316.076C347.169 316.04 347.169 316.003 347.173 315.967C347.213 315.196 346.96 314.439 346.465 313.847C345.97 313.256 345.269 312.873 344.503 312.777C343.881 312.724 343.258 312.86 342.714 313.167C342.171 313.474 341.732 313.938 341.456 314.498C341.299 314.689 341.184 314.913 341.12 315.152C340.785 316.256 340.699 317.42 340.868 318.561C340.99 319.277 341.365 319.926 341.926 320.389C342.486 320.851 343.193 321.098 343.92 321.082C344.646 321.067 345.343 320.791 345.883 320.305C346.423 319.819 346.771 319.156 346.862 318.435C346.862 318.326 346.862 318.217 346.862 318.107C346.917 318.016 346.964 317.92 347.005 317.822C347.216 317.283 347.274 316.696 347.173 316.126Z" fill="#008080"/>
</svg>
